G04 EAGLE Gerber RS-274X export*
G75*
%MOMM*%
%FSLAX34Y34*%
%LPD*%
%INSilkscreen Top*%
%IPPOS*%
%AMOC8*
5,1,8,0,0,1.08239X$1,22.5*%
G01*
%ADD10C,0.254000*%
%ADD11C,0.200000*%
%ADD12C,1.000000*%
%ADD13C,0.203200*%
%ADD14C,0.500000*%

G36*
X211712Y67873D02*
X211712Y67873D01*
X239209Y67873D01*
X239211Y67874D01*
X239213Y67873D01*
X239740Y67906D01*
X239741Y67906D01*
X239743Y67906D01*
X240795Y68012D01*
X240797Y68014D01*
X240801Y68013D01*
X241317Y68120D01*
X241319Y68122D01*
X241322Y68121D01*
X242333Y68435D01*
X242334Y68437D01*
X242338Y68437D01*
X242823Y68642D01*
X242825Y68644D01*
X242829Y68644D01*
X243758Y69149D01*
X243760Y69152D01*
X243764Y69152D01*
X244198Y69450D01*
X244199Y69453D01*
X244202Y69454D01*
X245018Y70127D01*
X245019Y70130D01*
X245023Y70132D01*
X245388Y70511D01*
X245389Y70513D01*
X245391Y70515D01*
X246064Y71330D01*
X246065Y71334D01*
X246069Y71337D01*
X246350Y71782D01*
X246350Y71784D01*
X246352Y71786D01*
X246857Y72715D01*
X246856Y72719D01*
X246860Y72723D01*
X247046Y73216D01*
X247045Y73218D01*
X247047Y73220D01*
X247361Y74230D01*
X247360Y74234D01*
X247363Y74238D01*
X247448Y74758D01*
X247447Y74759D01*
X247449Y74762D01*
X247555Y75814D01*
X247553Y75817D01*
X247555Y75821D01*
X247547Y76347D01*
X247545Y76349D01*
X247546Y76353D01*
X247440Y77405D01*
X247438Y77407D01*
X247439Y77411D01*
X247337Y77927D01*
X247335Y77929D01*
X247335Y77933D01*
X247022Y78943D01*
X247019Y78945D01*
X247020Y78949D01*
X246818Y79435D01*
X246816Y79437D01*
X246816Y79441D01*
X246311Y80370D01*
X246309Y80372D01*
X246308Y80376D01*
X246013Y80812D01*
X246011Y80813D01*
X246010Y80817D01*
X245337Y81632D01*
X245334Y81633D01*
X245332Y81637D01*
X244955Y82005D01*
X244953Y82006D01*
X244952Y82009D01*
X244136Y82682D01*
X244132Y82682D01*
X244130Y82686D01*
X243686Y82970D01*
X243684Y82970D01*
X243683Y82973D01*
X242753Y83477D01*
X242749Y83477D01*
X242746Y83481D01*
X242254Y83670D01*
X242252Y83670D01*
X242250Y83671D01*
X241240Y83985D01*
X241237Y83984D01*
X241232Y83987D01*
X240714Y84077D01*
X240712Y84076D01*
X240709Y84077D01*
X239657Y84183D01*
X239416Y84208D01*
X239413Y84206D01*
X239410Y84208D01*
X206094Y84208D01*
X205565Y84203D01*
X205563Y84201D01*
X205560Y84202D01*
X203981Y84043D01*
X203977Y84040D01*
X203969Y84041D01*
X202454Y83571D01*
X202450Y83566D01*
X202442Y83566D01*
X201049Y82809D01*
X201046Y82804D01*
X201039Y82802D01*
X199821Y81786D01*
X199819Y81781D01*
X199812Y81777D01*
X198814Y80546D01*
X198814Y80541D01*
X198808Y80536D01*
X198303Y79607D01*
X198304Y79606D01*
X198302Y79605D01*
X198067Y79133D01*
X198068Y79128D01*
X198063Y79123D01*
X197750Y78113D01*
X197750Y78112D01*
X197749Y78111D01*
X197610Y77603D01*
X197611Y77598D01*
X197608Y77592D01*
X197455Y76014D01*
X197458Y76009D01*
X197455Y76001D01*
X197615Y74423D01*
X197618Y74419D01*
X197617Y74411D01*
X198083Y72895D01*
X198087Y72891D01*
X198088Y72883D01*
X198839Y71487D01*
X198844Y71484D01*
X198846Y71477D01*
X198909Y71401D01*
X199116Y71150D01*
X199117Y71150D01*
X199324Y70899D01*
X199532Y70648D01*
X199740Y70397D01*
X199857Y70255D01*
X199863Y70253D01*
X199866Y70246D01*
X201096Y69245D01*
X201101Y69245D01*
X201106Y69239D01*
X202506Y68495D01*
X202511Y68496D01*
X202517Y68490D01*
X204035Y68033D01*
X204040Y68035D01*
X204047Y68031D01*
X205625Y67873D01*
X205628Y67874D01*
X205631Y67873D01*
X208128Y67873D01*
X208147Y67885D01*
X208170Y67889D01*
X208176Y67904D01*
X208185Y67909D01*
X208183Y67920D01*
X208190Y67936D01*
X208189Y68085D01*
X208189Y72468D01*
X208182Y72479D01*
X208184Y72492D01*
X208165Y72505D01*
X208152Y72525D01*
X208139Y72523D01*
X208128Y72531D01*
X208094Y72517D01*
X208085Y72515D01*
X208083Y72512D01*
X208080Y72511D01*
X207858Y72272D01*
X207477Y71918D01*
X207044Y71634D01*
X206572Y71421D01*
X206070Y71295D01*
X205554Y71238D01*
X205033Y71259D01*
X204514Y71308D01*
X204012Y71445D01*
X203521Y71615D01*
X203068Y71869D01*
X202651Y72177D01*
X202264Y72523D01*
X201956Y72942D01*
X201679Y73382D01*
X201464Y73857D01*
X201304Y74352D01*
X201179Y74859D01*
X201080Y75901D01*
X201145Y76945D01*
X201260Y77454D01*
X201393Y77959D01*
X201609Y78432D01*
X201863Y78887D01*
X202169Y79307D01*
X202541Y79668D01*
X202944Y79993D01*
X203398Y80246D01*
X203882Y80434D01*
X204379Y80585D01*
X205420Y80665D01*
X205937Y80616D01*
X206443Y80501D01*
X206925Y80311D01*
X207367Y80042D01*
X207768Y79709D01*
X208083Y79414D01*
X208094Y79412D01*
X208100Y79403D01*
X208125Y79407D01*
X208150Y79402D01*
X208156Y79411D01*
X208167Y79413D01*
X208186Y79454D01*
X208189Y79458D01*
X208188Y79459D01*
X208189Y79460D01*
X208189Y80515D01*
X208193Y80568D01*
X211138Y80568D01*
X211138Y67928D01*
X211150Y67909D01*
X211154Y67886D01*
X211169Y67880D01*
X211174Y67871D01*
X211185Y67873D01*
X211201Y67866D01*
X211712Y67873D01*
G37*
G36*
X120826Y16070D02*
X120826Y16070D01*
X120839Y16070D01*
X121139Y16470D01*
X121139Y16478D01*
X121143Y16481D01*
X121139Y16485D01*
X121139Y16492D01*
X121149Y16500D01*
X121149Y53700D01*
X121146Y53704D01*
X121149Y53707D01*
X121049Y54407D01*
X121048Y54408D01*
X121049Y54408D01*
X120949Y55008D01*
X120849Y55707D01*
X120841Y55715D01*
X120844Y55722D01*
X119944Y57522D01*
X119937Y57525D01*
X119938Y57531D01*
X119538Y58031D01*
X119534Y58032D01*
X119535Y58035D01*
X118535Y59035D01*
X118531Y59035D01*
X118531Y59038D01*
X118031Y59438D01*
X118023Y59439D01*
X118022Y59444D01*
X116822Y60044D01*
X116815Y60043D01*
X116814Y60047D01*
X116115Y60247D01*
X115516Y60447D01*
X115505Y60443D01*
X115500Y60449D01*
X113400Y60449D01*
X113395Y60446D01*
X113392Y60449D01*
X112792Y60349D01*
X112789Y60345D01*
X112786Y60347D01*
X112086Y60147D01*
X112082Y60142D01*
X112078Y60144D01*
X110278Y59244D01*
X110273Y59234D01*
X110265Y59235D01*
X109767Y58737D01*
X109269Y58338D01*
X109267Y58328D01*
X109259Y58327D01*
X108860Y57729D01*
X108462Y57231D01*
X108461Y57223D01*
X108456Y57222D01*
X107856Y56022D01*
X107857Y56015D01*
X107853Y56014D01*
X107653Y55314D01*
X107654Y55310D01*
X107651Y55308D01*
X107551Y54708D01*
X107552Y54707D01*
X107551Y54707D01*
X107451Y54007D01*
X107454Y54002D01*
X107451Y54000D01*
X107451Y16400D01*
X107470Y16374D01*
X107470Y16361D01*
X107870Y16061D01*
X107892Y16061D01*
X107900Y16051D01*
X120800Y16051D01*
X120826Y16070D01*
G37*
G36*
X237626Y310670D02*
X237626Y310670D01*
X237639Y310670D01*
X237939Y311070D01*
X237939Y311078D01*
X237943Y311081D01*
X237939Y311085D01*
X237939Y311092D01*
X237949Y311100D01*
X237949Y323900D01*
X237936Y323918D01*
X237939Y323930D01*
X237639Y324330D01*
X237608Y324339D01*
X237600Y324349D01*
X195600Y324349D01*
X195553Y324313D01*
X195556Y324309D01*
X195553Y324306D01*
X195555Y324303D01*
X195551Y324300D01*
X195551Y310700D01*
X195587Y310653D01*
X195594Y310658D01*
X195600Y310651D01*
X237600Y310651D01*
X237626Y310670D01*
G37*
G36*
X237947Y285287D02*
X237947Y285287D01*
X237942Y285294D01*
X237949Y285300D01*
X237949Y298800D01*
X237913Y298847D01*
X237910Y298845D01*
X237908Y298849D01*
X237308Y298949D01*
X237303Y298946D01*
X237300Y298949D01*
X196000Y298949D01*
X195953Y298913D01*
X195956Y298909D01*
X195953Y298906D01*
X195955Y298903D01*
X195951Y298900D01*
X195951Y285400D01*
X195987Y285353D01*
X195990Y285355D01*
X195992Y285351D01*
X196592Y285251D01*
X196597Y285254D01*
X196600Y285251D01*
X237900Y285251D01*
X237947Y285287D01*
G37*
G36*
X58047Y285287D02*
X58047Y285287D01*
X58042Y285294D01*
X58049Y285300D01*
X58049Y298800D01*
X58013Y298847D01*
X58010Y298845D01*
X58008Y298849D01*
X57408Y298949D01*
X57403Y298946D01*
X57400Y298949D01*
X16100Y298949D01*
X16053Y298913D01*
X16056Y298909D01*
X16053Y298906D01*
X16055Y298903D01*
X16051Y298900D01*
X16051Y285400D01*
X16087Y285353D01*
X16090Y285355D01*
X16092Y285351D01*
X16692Y285251D01*
X16697Y285254D01*
X16700Y285251D01*
X58000Y285251D01*
X58047Y285287D01*
G37*
G36*
X70247Y16087D02*
X70247Y16087D01*
X70245Y16090D01*
X70249Y16092D01*
X70349Y16692D01*
X70346Y16697D01*
X70349Y16700D01*
X70349Y58000D01*
X70313Y58047D01*
X70306Y58042D01*
X70300Y58049D01*
X56800Y58049D01*
X56753Y58013D01*
X56755Y58010D01*
X56751Y58008D01*
X56651Y57408D01*
X56654Y57403D01*
X56651Y57400D01*
X56651Y16100D01*
X56687Y16053D01*
X56694Y16058D01*
X56700Y16051D01*
X70200Y16051D01*
X70247Y16087D01*
G37*
G36*
X95538Y16080D02*
X95538Y16080D01*
X95546Y16082D01*
X95746Y16582D01*
X95742Y16595D01*
X95749Y16600D01*
X95749Y57200D01*
X95713Y57247D01*
X95710Y57245D01*
X95708Y57249D01*
X95108Y57349D01*
X95103Y57346D01*
X95100Y57349D01*
X82200Y57349D01*
X82153Y57313D01*
X82155Y57310D01*
X82151Y57308D01*
X82051Y56708D01*
X82054Y56703D01*
X82051Y56700D01*
X82051Y16300D01*
X82080Y16262D01*
X82082Y16254D01*
X82582Y16054D01*
X82595Y16058D01*
X82600Y16051D01*
X95500Y16051D01*
X95538Y16080D01*
G37*
G36*
X146447Y16087D02*
X146447Y16087D01*
X146445Y16090D01*
X146449Y16092D01*
X146549Y16692D01*
X146546Y16697D01*
X146549Y16700D01*
X146549Y52000D01*
X146546Y52005D01*
X146549Y52008D01*
X146449Y52608D01*
X146445Y52611D01*
X146447Y52614D01*
X146247Y53314D01*
X146246Y53315D01*
X146247Y53316D01*
X146047Y53915D01*
X145847Y54614D01*
X145836Y54622D01*
X145838Y54631D01*
X145440Y55129D01*
X145041Y55727D01*
X145038Y55728D01*
X145038Y55731D01*
X144638Y56231D01*
X144634Y56232D01*
X144635Y56235D01*
X144135Y56735D01*
X144128Y56736D01*
X144127Y56741D01*
X143527Y57141D01*
X143526Y57141D01*
X143525Y57142D01*
X143025Y57442D01*
X143022Y57442D01*
X143022Y57444D01*
X142422Y57744D01*
X142420Y57744D01*
X142419Y57745D01*
X141719Y58045D01*
X141711Y58043D01*
X141708Y58049D01*
X141108Y58149D01*
X141107Y58148D01*
X141107Y58149D01*
X139707Y58349D01*
X139702Y58346D01*
X139700Y58349D01*
X139000Y58349D01*
X138995Y58346D01*
X138992Y58349D01*
X138392Y58249D01*
X138389Y58245D01*
X138386Y58247D01*
X137686Y58047D01*
X137685Y58046D01*
X137684Y58047D01*
X137084Y57847D01*
X137081Y57842D01*
X137078Y57844D01*
X136478Y57544D01*
X136476Y57540D01*
X136473Y57541D01*
X135873Y57141D01*
X135872Y57138D01*
X135869Y57138D01*
X135369Y56738D01*
X135368Y56734D01*
X135365Y56735D01*
X134365Y55735D01*
X134365Y55731D01*
X134362Y55731D01*
X133962Y55231D01*
X133961Y55223D01*
X133956Y55222D01*
X133356Y54022D01*
X133357Y54015D01*
X133353Y54014D01*
X133153Y53315D01*
X132953Y52716D01*
X132955Y52709D01*
X132951Y52707D01*
X132851Y52007D01*
X132854Y52002D01*
X132851Y52000D01*
X132851Y16200D01*
X132887Y16153D01*
X132890Y16155D01*
X132892Y16151D01*
X133492Y16051D01*
X133497Y16054D01*
X133500Y16051D01*
X146400Y16051D01*
X146447Y16087D01*
G37*
G36*
X196811Y16059D02*
X196811Y16059D01*
X196818Y16054D01*
X197318Y16254D01*
X197333Y16278D01*
X197340Y16284D01*
X197338Y16287D01*
X197343Y16295D01*
X197349Y16300D01*
X197349Y55700D01*
X197337Y55716D01*
X197341Y55727D01*
X197141Y56027D01*
X197107Y56039D01*
X197105Y56042D01*
X197099Y56042D01*
X197085Y56047D01*
X197083Y56042D01*
X197078Y56044D01*
X190981Y53046D01*
X190404Y52853D01*
X183722Y56144D01*
X183717Y56143D01*
X183713Y56147D01*
X183705Y56141D01*
X183701Y56140D01*
X183700Y56140D01*
X183663Y56133D01*
X183667Y56115D01*
X183653Y56104D01*
X183654Y56102D01*
X183651Y56100D01*
X183651Y16500D01*
X183660Y16487D01*
X183656Y16478D01*
X183856Y16078D01*
X183893Y16060D01*
X183900Y16051D01*
X196800Y16051D01*
X196811Y16059D01*
G37*
G36*
X52328Y259872D02*
X52328Y259872D01*
X52341Y259873D01*
X52541Y260173D01*
X52541Y260179D01*
X52544Y260182D01*
X52540Y260188D01*
X52539Y260211D01*
X52544Y260222D01*
X49547Y266315D01*
X49451Y266892D01*
X52444Y272878D01*
X52443Y272883D01*
X52447Y272884D01*
X52647Y273484D01*
X52646Y273486D01*
X52647Y273487D01*
X52645Y273490D01*
X52628Y273541D01*
X52611Y273535D01*
X52600Y273549D01*
X16400Y273549D01*
X16374Y273530D01*
X16361Y273530D01*
X16061Y273130D01*
X16061Y273118D01*
X16053Y273112D01*
X16058Y273105D01*
X16051Y273100D01*
X16051Y260200D01*
X16067Y260179D01*
X16065Y260165D01*
X16365Y259865D01*
X16392Y259862D01*
X16400Y259851D01*
X52300Y259851D01*
X52328Y259872D01*
G37*
G36*
X47734Y310676D02*
X47734Y310676D01*
X47744Y310678D01*
X51044Y317378D01*
X51043Y317382D01*
X51046Y317385D01*
X51042Y317391D01*
X51039Y317404D01*
X51047Y317416D01*
X50847Y318016D01*
X50843Y318018D01*
X50844Y318022D01*
X47844Y324122D01*
X47820Y324134D01*
X47816Y324147D01*
X47216Y324347D01*
X47205Y324343D01*
X47200Y324349D01*
X16300Y324349D01*
X16262Y324320D01*
X16254Y324318D01*
X16054Y323818D01*
X16055Y323816D01*
X16053Y323814D01*
X16057Y323808D01*
X16058Y323805D01*
X16051Y323800D01*
X16051Y311000D01*
X16070Y310974D01*
X16070Y310961D01*
X16470Y310661D01*
X16492Y310661D01*
X16500Y310651D01*
X47700Y310651D01*
X47734Y310676D01*
G37*
G36*
X171947Y16087D02*
X171947Y16087D01*
X171942Y16094D01*
X171949Y16100D01*
X171949Y45900D01*
X171930Y45925D01*
X171931Y45938D01*
X171431Y46338D01*
X171423Y46339D01*
X171422Y46344D01*
X165422Y49344D01*
X165412Y49342D01*
X165411Y49344D01*
X165404Y49344D01*
X165400Y49349D01*
X164800Y49349D01*
X164793Y49344D01*
X164789Y49344D01*
X164785Y49341D01*
X164778Y49344D01*
X158678Y46344D01*
X158673Y46334D01*
X158665Y46335D01*
X158265Y45935D01*
X158263Y45917D01*
X158253Y45910D01*
X158257Y45904D01*
X158251Y45900D01*
X158251Y16700D01*
X158254Y16695D01*
X158251Y16692D01*
X158351Y16092D01*
X158395Y16051D01*
X158398Y16054D01*
X158400Y16051D01*
X171900Y16051D01*
X171947Y16087D01*
G37*
G36*
X33014Y65907D02*
X33014Y65907D01*
X33084Y65913D01*
X33099Y65922D01*
X33116Y65925D01*
X33222Y65997D01*
X33232Y66003D01*
X33233Y66005D01*
X33234Y66006D01*
X35534Y68306D01*
X35542Y68319D01*
X35543Y68320D01*
X35545Y68322D01*
X35547Y68326D01*
X35566Y68342D01*
X35592Y68399D01*
X35625Y68453D01*
X35628Y68477D01*
X35638Y68500D01*
X35636Y68562D01*
X35642Y68625D01*
X35633Y68648D01*
X35632Y68673D01*
X35592Y68755D01*
X35580Y68786D01*
X35574Y68792D01*
X35569Y68801D01*
X33624Y71395D01*
X33634Y71406D01*
X33653Y71436D01*
X33705Y71504D01*
X33805Y71704D01*
X33809Y71720D01*
X33818Y71733D01*
X33844Y71867D01*
X33845Y71872D01*
X33845Y71873D01*
X33845Y71874D01*
X33845Y71884D01*
X33878Y71949D01*
X33934Y72006D01*
X33953Y72036D01*
X34005Y72104D01*
X34105Y72304D01*
X34109Y72320D01*
X34118Y72333D01*
X34144Y72467D01*
X34145Y72472D01*
X34145Y72473D01*
X34145Y72474D01*
X34145Y72484D01*
X34305Y72804D01*
X34309Y72820D01*
X34318Y72833D01*
X34344Y72967D01*
X34345Y72972D01*
X34345Y72973D01*
X34345Y72974D01*
X34345Y72984D01*
X34405Y73104D01*
X34409Y73120D01*
X34418Y73133D01*
X34444Y73267D01*
X34445Y73272D01*
X34445Y73273D01*
X34445Y73274D01*
X34445Y73284D01*
X34505Y73404D01*
X34509Y73420D01*
X34518Y73433D01*
X34538Y73536D01*
X37830Y74100D01*
X37848Y74107D01*
X37867Y74108D01*
X37927Y74141D01*
X37989Y74167D01*
X38002Y74182D01*
X38019Y74191D01*
X38058Y74247D01*
X38102Y74298D01*
X38107Y74317D01*
X38118Y74333D01*
X38140Y74444D01*
X38145Y74466D01*
X38144Y74470D01*
X38145Y74474D01*
X38145Y77674D01*
X38141Y77693D01*
X38143Y77714D01*
X38132Y77746D01*
X38131Y77753D01*
X38126Y77762D01*
X38121Y77777D01*
X38106Y77842D01*
X38093Y77858D01*
X38086Y77877D01*
X38038Y77924D01*
X37996Y77976D01*
X37977Y77984D01*
X37963Y77998D01*
X37861Y78036D01*
X37838Y78046D01*
X37833Y78046D01*
X37828Y78048D01*
X34545Y78595D01*
X34545Y78674D01*
X34528Y78748D01*
X34514Y78823D01*
X34508Y78833D01*
X34506Y78842D01*
X34483Y78870D01*
X34445Y78925D01*
X34445Y78974D01*
X34428Y79048D01*
X34414Y79123D01*
X34408Y79133D01*
X34406Y79142D01*
X34383Y79170D01*
X34334Y79242D01*
X34278Y79298D01*
X34245Y79363D01*
X34245Y79474D01*
X34228Y79548D01*
X34214Y79623D01*
X34208Y79633D01*
X34206Y79642D01*
X34183Y79670D01*
X34145Y79725D01*
X34145Y79774D01*
X34128Y79848D01*
X34114Y79923D01*
X34108Y79933D01*
X34106Y79942D01*
X34083Y79970D01*
X34034Y80042D01*
X33978Y80098D01*
X33905Y80243D01*
X33882Y80271D01*
X33845Y80325D01*
X33845Y80374D01*
X33828Y80448D01*
X33814Y80523D01*
X33808Y80533D01*
X33806Y80542D01*
X33783Y80570D01*
X33734Y80642D01*
X33678Y80698D01*
X33638Y80778D01*
X35573Y83451D01*
X35583Y83475D01*
X35600Y83494D01*
X35616Y83554D01*
X35640Y83611D01*
X35638Y83636D01*
X35645Y83661D01*
X35633Y83722D01*
X35629Y83784D01*
X35616Y83806D01*
X35611Y83831D01*
X35560Y83903D01*
X35542Y83933D01*
X35535Y83938D01*
X35528Y83948D01*
X33228Y86148D01*
X33217Y86154D01*
X33209Y86165D01*
X33143Y86198D01*
X33079Y86236D01*
X33066Y86237D01*
X33055Y86242D01*
X32981Y86243D01*
X32907Y86248D01*
X32895Y86243D01*
X32882Y86243D01*
X32751Y86186D01*
X30077Y84342D01*
X29936Y84413D01*
X29920Y84417D01*
X29907Y84426D01*
X29773Y84452D01*
X29767Y84453D01*
X29766Y84453D01*
X29756Y84453D01*
X29691Y84485D01*
X29634Y84542D01*
X29604Y84561D01*
X29536Y84613D01*
X29336Y84713D01*
X29320Y84717D01*
X29307Y84726D01*
X29173Y84752D01*
X29167Y84753D01*
X29166Y84753D01*
X29156Y84753D01*
X29091Y84785D01*
X29034Y84842D01*
X28969Y84882D01*
X28907Y84926D01*
X28895Y84928D01*
X28887Y84933D01*
X28852Y84936D01*
X28766Y84953D01*
X28656Y84953D01*
X28536Y85013D01*
X28520Y85017D01*
X28507Y85026D01*
X28373Y85052D01*
X28367Y85053D01*
X28366Y85053D01*
X28356Y85053D01*
X28236Y85113D01*
X28220Y85117D01*
X28207Y85126D01*
X28073Y85152D01*
X28067Y85153D01*
X28066Y85153D01*
X28056Y85153D01*
X27936Y85213D01*
X27920Y85217D01*
X27907Y85226D01*
X27890Y85229D01*
X27340Y88438D01*
X27332Y88456D01*
X27331Y88475D01*
X27299Y88534D01*
X27272Y88597D01*
X27258Y88610D01*
X27248Y88627D01*
X27193Y88666D01*
X27141Y88710D01*
X27122Y88715D01*
X27107Y88726D01*
X26996Y88747D01*
X26974Y88753D01*
X26970Y88752D01*
X26966Y88753D01*
X23766Y88753D01*
X23747Y88749D01*
X23728Y88751D01*
X23664Y88729D01*
X23598Y88713D01*
X23583Y88701D01*
X23564Y88695D01*
X23517Y88647D01*
X23464Y88603D01*
X23456Y88586D01*
X23443Y88572D01*
X23403Y88466D01*
X23394Y88445D01*
X23394Y88442D01*
X23392Y88438D01*
X22834Y85182D01*
X22776Y85153D01*
X22666Y85153D01*
X22592Y85136D01*
X22516Y85122D01*
X22507Y85116D01*
X22498Y85113D01*
X22470Y85091D01*
X22414Y85053D01*
X22366Y85053D01*
X22350Y85049D01*
X22334Y85052D01*
X22203Y85015D01*
X22198Y85013D01*
X22197Y85013D01*
X22196Y85013D01*
X22076Y84953D01*
X22066Y84953D01*
X22050Y84949D01*
X22034Y84952D01*
X21903Y84915D01*
X21898Y84913D01*
X21897Y84913D01*
X21896Y84913D01*
X21696Y84813D01*
X21669Y84790D01*
X21614Y84753D01*
X21566Y84753D01*
X21492Y84736D01*
X21416Y84722D01*
X21407Y84716D01*
X21398Y84713D01*
X21370Y84691D01*
X21298Y84642D01*
X21241Y84585D01*
X21096Y84513D01*
X21069Y84490D01*
X21014Y84453D01*
X20966Y84453D01*
X20892Y84436D01*
X20816Y84422D01*
X20807Y84416D01*
X20798Y84413D01*
X20770Y84391D01*
X20698Y84342D01*
X20680Y84324D01*
X17981Y86186D01*
X17965Y86192D01*
X17953Y86204D01*
X17886Y86223D01*
X17820Y86249D01*
X17803Y86248D01*
X17787Y86252D01*
X17718Y86240D01*
X17648Y86234D01*
X17633Y86225D01*
X17616Y86222D01*
X17510Y86150D01*
X17500Y86144D01*
X17499Y86143D01*
X17498Y86142D01*
X15298Y83942D01*
X15289Y83927D01*
X15275Y83917D01*
X15244Y83854D01*
X15207Y83795D01*
X15205Y83778D01*
X15197Y83763D01*
X15197Y83692D01*
X15190Y83623D01*
X15196Y83607D01*
X15196Y83589D01*
X15248Y83472D01*
X15252Y83461D01*
X15253Y83460D01*
X15254Y83458D01*
X17105Y80775D01*
X17103Y80760D01*
X17087Y80674D01*
X17087Y80624D01*
X17079Y80611D01*
X17027Y80543D01*
X16954Y80398D01*
X16898Y80342D01*
X16858Y80277D01*
X16814Y80214D01*
X16812Y80203D01*
X16807Y80195D01*
X16803Y80160D01*
X16787Y80074D01*
X16787Y80024D01*
X16779Y80011D01*
X16727Y79943D01*
X16627Y79743D01*
X16623Y79728D01*
X16614Y79714D01*
X16597Y79627D01*
X16594Y79619D01*
X16594Y79611D01*
X16588Y79580D01*
X16587Y79575D01*
X16587Y79574D01*
X16587Y79563D01*
X16427Y79243D01*
X16423Y79228D01*
X16414Y79214D01*
X16388Y79080D01*
X16387Y79075D01*
X16387Y79074D01*
X16387Y79063D01*
X16327Y78943D01*
X16323Y78928D01*
X16314Y78914D01*
X16305Y78869D01*
X16301Y78861D01*
X16302Y78851D01*
X16288Y78780D01*
X16287Y78775D01*
X16287Y78774D01*
X16287Y78763D01*
X16227Y78643D01*
X16223Y78628D01*
X16214Y78614D01*
X16211Y78598D01*
X13002Y78048D01*
X12984Y78040D01*
X12965Y78039D01*
X12905Y78007D01*
X12843Y77980D01*
X12830Y77965D01*
X12813Y77956D01*
X12774Y77901D01*
X12730Y77849D01*
X12725Y77830D01*
X12714Y77814D01*
X12698Y77733D01*
X12694Y77723D01*
X12694Y77712D01*
X12692Y77703D01*
X12687Y77681D01*
X12688Y77678D01*
X12687Y77674D01*
X12687Y74474D01*
X12691Y74455D01*
X12689Y74436D01*
X12711Y74371D01*
X12726Y74305D01*
X12739Y74290D01*
X12745Y74272D01*
X12793Y74224D01*
X12836Y74172D01*
X12854Y74164D01*
X12868Y74150D01*
X12974Y74110D01*
X12994Y74101D01*
X12998Y74101D01*
X13002Y74100D01*
X16258Y73542D01*
X16287Y73484D01*
X16287Y73374D01*
X16304Y73299D01*
X16318Y73224D01*
X16324Y73214D01*
X16326Y73205D01*
X16349Y73178D01*
X16387Y73122D01*
X16387Y73074D01*
X16400Y73018D01*
X16401Y72999D01*
X16406Y72989D01*
X16418Y72924D01*
X16424Y72914D01*
X16426Y72905D01*
X16449Y72878D01*
X16498Y72806D01*
X16554Y72749D01*
X16587Y72684D01*
X16587Y72574D01*
X16604Y72499D01*
X16618Y72424D01*
X16624Y72414D01*
X16626Y72405D01*
X16649Y72378D01*
X16687Y72322D01*
X16687Y72274D01*
X16704Y72199D01*
X16718Y72124D01*
X16724Y72114D01*
X16726Y72105D01*
X16749Y72078D01*
X16798Y72006D01*
X16854Y71949D01*
X16927Y71804D01*
X16950Y71776D01*
X16993Y71713D01*
X16995Y71709D01*
X16996Y71709D01*
X16998Y71706D01*
X17054Y71649D01*
X17087Y71584D01*
X17087Y71574D01*
X17090Y71558D01*
X17088Y71542D01*
X17100Y71500D01*
X17101Y71482D01*
X17110Y71465D01*
X17125Y71411D01*
X17125Y71409D01*
X15257Y68794D01*
X15251Y68779D01*
X15240Y68768D01*
X15219Y68700D01*
X15192Y68634D01*
X15193Y68618D01*
X15188Y68603D01*
X15199Y68533D01*
X15204Y68461D01*
X15212Y68448D01*
X15214Y68432D01*
X15289Y68316D01*
X15291Y68312D01*
X15292Y68312D01*
X17492Y66012D01*
X17510Y66000D01*
X17523Y65983D01*
X17582Y65953D01*
X17637Y65917D01*
X17658Y65915D01*
X17677Y65905D01*
X17743Y65905D01*
X17809Y65897D01*
X17829Y65904D01*
X17850Y65904D01*
X17945Y65946D01*
X17972Y65955D01*
X17975Y65959D01*
X17981Y65961D01*
X20702Y67838D01*
X20725Y67821D01*
X20737Y67819D01*
X20745Y67814D01*
X20780Y67811D01*
X20795Y67808D01*
X20798Y67806D01*
X20863Y67765D01*
X20925Y67721D01*
X20937Y67719D01*
X20945Y67714D01*
X20980Y67711D01*
X20995Y67708D01*
X20998Y67706D01*
X21063Y67665D01*
X21125Y67621D01*
X21137Y67619D01*
X21145Y67614D01*
X21180Y67611D01*
X21195Y67608D01*
X21198Y67606D01*
X21263Y67565D01*
X21325Y67521D01*
X21337Y67519D01*
X21345Y67514D01*
X21380Y67511D01*
X21395Y67508D01*
X21398Y67506D01*
X21463Y67465D01*
X21525Y67421D01*
X21537Y67419D01*
X21545Y67414D01*
X21580Y67411D01*
X21595Y67408D01*
X21598Y67406D01*
X21663Y67365D01*
X21725Y67321D01*
X21737Y67319D01*
X21745Y67314D01*
X21780Y67311D01*
X21866Y67294D01*
X21916Y67294D01*
X21937Y67281D01*
X21970Y67249D01*
X22009Y67236D01*
X22045Y67214D01*
X22090Y67210D01*
X22134Y67196D01*
X22176Y67202D01*
X22217Y67198D01*
X22260Y67214D01*
X22305Y67221D01*
X22340Y67245D01*
X22379Y67260D01*
X22410Y67293D01*
X22447Y67320D01*
X22473Y67362D01*
X22496Y67387D01*
X22503Y67412D01*
X22522Y67442D01*
X24522Y72842D01*
X24529Y72899D01*
X24545Y72954D01*
X24539Y72984D01*
X24543Y73014D01*
X24524Y73068D01*
X24514Y73125D01*
X24496Y73149D01*
X24486Y73177D01*
X24445Y73217D01*
X24411Y73263D01*
X24381Y73280D01*
X24362Y73298D01*
X24330Y73308D01*
X24286Y73333D01*
X24012Y73425D01*
X23691Y73585D01*
X23534Y73742D01*
X23504Y73761D01*
X23436Y73813D01*
X23291Y73885D01*
X23178Y73998D01*
X23105Y74143D01*
X23082Y74171D01*
X23034Y74242D01*
X22878Y74398D01*
X22717Y74719D01*
X22626Y74994D01*
X22614Y75013D01*
X22605Y75043D01*
X22445Y75363D01*
X22445Y75574D01*
X22437Y75609D01*
X22426Y75694D01*
X22345Y75935D01*
X22345Y76412D01*
X22710Y77506D01*
X23061Y78032D01*
X23208Y78179D01*
X23476Y78358D01*
X23498Y78381D01*
X23534Y78406D01*
X23708Y78579D01*
X23934Y78730D01*
X24186Y78814D01*
X24204Y78825D01*
X24218Y78828D01*
X24231Y78839D01*
X24276Y78858D01*
X24481Y78994D01*
X24666Y78994D01*
X24701Y79003D01*
X24758Y79006D01*
X25113Y79094D01*
X25704Y79094D01*
X25946Y79014D01*
X25982Y79011D01*
X26066Y78994D01*
X26251Y78994D01*
X26456Y78858D01*
X26491Y78845D01*
X26540Y78817D01*
X26542Y78816D01*
X26543Y78816D01*
X26546Y78814D01*
X26798Y78730D01*
X27325Y78379D01*
X27671Y78032D01*
X28022Y77506D01*
X28106Y77254D01*
X28126Y77222D01*
X28150Y77163D01*
X28287Y76959D01*
X28287Y76774D01*
X28295Y76739D01*
X28306Y76654D01*
X28387Y76412D01*
X28387Y75635D01*
X28306Y75394D01*
X28303Y75358D01*
X28287Y75274D01*
X28287Y75163D01*
X28227Y75043D01*
X28221Y75021D01*
X28206Y74994D01*
X28115Y74719D01*
X28054Y74598D01*
X27898Y74442D01*
X27879Y74411D01*
X27827Y74343D01*
X27754Y74198D01*
X27441Y73885D01*
X27296Y73813D01*
X27269Y73790D01*
X27198Y73742D01*
X27041Y73585D01*
X26496Y73313D01*
X26473Y73293D01*
X26444Y73281D01*
X26407Y73238D01*
X26363Y73202D01*
X26351Y73174D01*
X26331Y73151D01*
X26316Y73096D01*
X26293Y73044D01*
X26295Y73013D01*
X26287Y72983D01*
X26299Y72909D01*
X26301Y72871D01*
X26308Y72859D01*
X26310Y72842D01*
X28310Y67442D01*
X28322Y67425D01*
X28326Y67405D01*
X28369Y67354D01*
X28406Y67298D01*
X28424Y67287D01*
X28436Y67272D01*
X28498Y67245D01*
X28556Y67211D01*
X28576Y67210D01*
X28594Y67201D01*
X28661Y67204D01*
X28728Y67200D01*
X28747Y67207D01*
X28767Y67208D01*
X28826Y67240D01*
X28888Y67266D01*
X28901Y67282D01*
X28919Y67291D01*
X28932Y67310D01*
X28940Y67312D01*
X29016Y67325D01*
X29025Y67332D01*
X29034Y67334D01*
X29062Y67357D01*
X29134Y67406D01*
X29141Y67412D01*
X29216Y67425D01*
X29225Y67432D01*
X29234Y67434D01*
X29262Y67457D01*
X29334Y67506D01*
X29341Y67512D01*
X29416Y67525D01*
X29425Y67532D01*
X29434Y67534D01*
X29462Y67557D01*
X29518Y67594D01*
X29566Y67594D01*
X29640Y67612D01*
X29716Y67625D01*
X29725Y67632D01*
X29734Y67634D01*
X29762Y67657D01*
X29834Y67706D01*
X29841Y67712D01*
X29916Y67725D01*
X29925Y67732D01*
X29934Y67734D01*
X29962Y67757D01*
X30034Y67806D01*
X30052Y67823D01*
X32751Y65961D01*
X32767Y65955D01*
X32779Y65944D01*
X32847Y65924D01*
X32912Y65898D01*
X32929Y65900D01*
X32945Y65895D01*
X33014Y65907D01*
G37*
G36*
X237947Y259887D02*
X237947Y259887D01*
X237942Y259894D01*
X237949Y259900D01*
X237949Y273400D01*
X237913Y273447D01*
X237910Y273445D01*
X237908Y273449D01*
X237308Y273549D01*
X237303Y273546D01*
X237300Y273549D01*
X215500Y273549D01*
X215491Y273542D01*
X215487Y273542D01*
X215482Y273546D01*
X214982Y273346D01*
X214964Y273317D01*
X214955Y273309D01*
X214958Y273306D01*
X214951Y273295D01*
X214961Y273289D01*
X214956Y273278D01*
X217956Y267278D01*
X218245Y266700D01*
X214956Y260022D01*
X214967Y259963D01*
X214983Y259966D01*
X214990Y259952D01*
X215490Y259852D01*
X215497Y259855D01*
X215500Y259851D01*
X237900Y259851D01*
X237947Y259887D01*
G37*
G36*
X220409Y169601D02*
X220409Y169601D01*
X220471Y169603D01*
X220493Y169616D01*
X220519Y169620D01*
X220590Y169668D01*
X220623Y169686D01*
X220629Y169694D01*
X220639Y169701D01*
X221139Y170201D01*
X221158Y170232D01*
X221196Y170274D01*
X221472Y170734D01*
X221939Y171201D01*
X221947Y171214D01*
X221962Y171227D01*
X222451Y171813D01*
X223639Y173001D01*
X223646Y173012D01*
X223659Y173023D01*
X224849Y174412D01*
X225806Y175368D01*
X226704Y175907D01*
X227201Y175990D01*
X229070Y175990D01*
X229096Y175996D01*
X229133Y175995D01*
X230333Y176195D01*
X230348Y176202D01*
X230370Y176203D01*
X231470Y176503D01*
X231487Y176512D01*
X231511Y176517D01*
X232511Y176917D01*
X232533Y176932D01*
X232566Y176944D01*
X233566Y177544D01*
X233586Y177564D01*
X233620Y177584D01*
X234420Y178284D01*
X234427Y178293D01*
X234439Y178301D01*
X235239Y179101D01*
X235250Y179119D01*
X235270Y179137D01*
X235970Y180037D01*
X235981Y180060D01*
X236002Y180085D01*
X237002Y181885D01*
X237013Y181921D01*
X237038Y181973D01*
X237538Y183873D01*
X237539Y183905D01*
X237550Y183948D01*
X237650Y185648D01*
X237643Y185684D01*
X237644Y185740D01*
X237344Y187340D01*
X237335Y187361D01*
X237331Y187390D01*
X236831Y188890D01*
X236812Y188921D01*
X236791Y188974D01*
X236091Y190074D01*
X236072Y190093D01*
X236054Y190123D01*
X235829Y190376D01*
X235491Y190756D01*
X235254Y191023D01*
X235222Y191045D01*
X235172Y191092D01*
X234372Y191592D01*
X234342Y191603D01*
X234322Y191617D01*
X234287Y191623D01*
X234242Y191643D01*
X234225Y191643D01*
X234208Y191648D01*
X234176Y191644D01*
X234170Y191644D01*
X234162Y191642D01*
X234139Y191639D01*
X234069Y191637D01*
X234054Y191628D01*
X234036Y191626D01*
X234006Y191606D01*
X234001Y191605D01*
X233987Y191593D01*
X233978Y191587D01*
X233917Y191554D01*
X233907Y191539D01*
X233892Y191529D01*
X233876Y191501D01*
X233868Y191495D01*
X233854Y191464D01*
X233817Y191412D01*
X233814Y191393D01*
X233806Y191379D01*
X233804Y191353D01*
X233797Y191336D01*
X233798Y191311D01*
X233790Y191270D01*
X233790Y190432D01*
X233718Y190216D01*
X233658Y190095D01*
X233465Y189902D01*
X233308Y189850D01*
X233117Y189850D01*
X232403Y190029D01*
X232061Y190200D01*
X231790Y190381D01*
X231420Y190658D01*
X230866Y191212D01*
X230523Y191726D01*
X230450Y192017D01*
X230450Y192508D01*
X230522Y192724D01*
X230600Y192879D01*
X230750Y193105D01*
X231071Y193345D01*
X231394Y193507D01*
X231845Y193597D01*
X231852Y193601D01*
X231862Y193601D01*
X232217Y193690D01*
X232680Y193690D01*
X232800Y193630D01*
X232815Y193626D01*
X232828Y193617D01*
X232962Y193591D01*
X232969Y193590D01*
X232970Y193590D01*
X233070Y193590D01*
X233095Y193596D01*
X233121Y193593D01*
X233179Y193615D01*
X233239Y193629D01*
X233259Y193646D01*
X233283Y193655D01*
X233325Y193700D01*
X233372Y193739D01*
X233383Y193763D01*
X233400Y193782D01*
X233418Y193841D01*
X233443Y193898D01*
X233442Y193923D01*
X233450Y193948D01*
X233439Y194009D01*
X233437Y194071D01*
X233424Y194093D01*
X233420Y194119D01*
X233372Y194190D01*
X233354Y194223D01*
X233346Y194229D01*
X233339Y194239D01*
X233239Y194339D01*
X233219Y194351D01*
X233198Y194374D01*
X232798Y194674D01*
X232772Y194686D01*
X232740Y194710D01*
X231340Y195410D01*
X231328Y195413D01*
X231319Y195419D01*
X231290Y195425D01*
X231253Y195441D01*
X230353Y195641D01*
X230319Y195641D01*
X230270Y195650D01*
X229270Y195650D01*
X229242Y195644D01*
X229202Y195644D01*
X228102Y195444D01*
X228067Y195429D01*
X228010Y195411D01*
X227995Y195407D01*
X227992Y195405D01*
X227988Y195404D01*
X226888Y194804D01*
X226868Y194786D01*
X226837Y194770D01*
X225937Y194070D01*
X225917Y194046D01*
X225848Y193972D01*
X225348Y193172D01*
X225336Y193138D01*
X225309Y193090D01*
X225009Y192190D01*
X225006Y192153D01*
X224990Y192070D01*
X224990Y191270D01*
X224997Y191237D01*
X224999Y191188D01*
X225199Y190288D01*
X225216Y190252D01*
X225238Y190185D01*
X225738Y189285D01*
X225760Y189261D01*
X225784Y189220D01*
X226484Y188420D01*
X226485Y188419D01*
X226486Y188417D01*
X227286Y187517D01*
X227294Y187512D01*
X227301Y187501D01*
X227943Y186859D01*
X228190Y186201D01*
X228190Y185632D01*
X228031Y185155D01*
X227710Y184754D01*
X227214Y184423D01*
X226523Y184250D01*
X225808Y184250D01*
X225379Y184336D01*
X224984Y184494D01*
X224466Y185012D01*
X224315Y185239D01*
X224250Y185432D01*
X224250Y185708D01*
X224302Y185865D01*
X224775Y186338D01*
X224990Y186409D01*
X225010Y186422D01*
X225040Y186430D01*
X225440Y186630D01*
X225469Y186654D01*
X225539Y186701D01*
X225639Y186801D01*
X225652Y186822D01*
X225671Y186838D01*
X225697Y186895D01*
X225730Y186948D01*
X225733Y186973D01*
X225743Y186996D01*
X225741Y187059D01*
X225747Y187121D01*
X225738Y187144D01*
X225737Y187169D01*
X225707Y187224D01*
X225685Y187283D01*
X225667Y187300D01*
X225655Y187322D01*
X225585Y187376D01*
X225558Y187400D01*
X225549Y187403D01*
X225540Y187410D01*
X225140Y187610D01*
X225125Y187614D01*
X225112Y187623D01*
X224978Y187649D01*
X224972Y187650D01*
X224971Y187650D01*
X224970Y187650D01*
X223770Y187650D01*
X223744Y187644D01*
X223708Y187645D01*
X223108Y187545D01*
X223102Y187543D01*
X223095Y187543D01*
X222595Y187443D01*
X222569Y187431D01*
X222529Y187423D01*
X222029Y187223D01*
X221998Y187201D01*
X221942Y187174D01*
X221542Y186874D01*
X221538Y186870D01*
X221532Y186867D01*
X221032Y186467D01*
X221015Y186444D01*
X220944Y186366D01*
X220344Y185366D01*
X220332Y185330D01*
X220304Y185274D01*
X220104Y184574D01*
X220103Y184549D01*
X220093Y184517D01*
X219993Y183717D01*
X219995Y183696D01*
X219990Y183670D01*
X219990Y169970D01*
X219996Y169945D01*
X219993Y169919D01*
X220015Y169862D01*
X220029Y169801D01*
X220046Y169781D01*
X220055Y169757D01*
X220100Y169715D01*
X220139Y169668D01*
X220163Y169657D01*
X220182Y169640D01*
X220241Y169622D01*
X220298Y169597D01*
X220323Y169598D01*
X220348Y169590D01*
X220409Y169601D01*
G37*
%LPC*%
G36*
X186704Y28449D02*
X186704Y28449D01*
X186129Y28545D01*
X185749Y29115D01*
X185749Y29792D01*
X185942Y30371D01*
X186531Y30862D01*
X190626Y33958D01*
X191022Y34156D01*
X191027Y34166D01*
X191035Y34165D01*
X191235Y34365D01*
X191237Y34379D01*
X191247Y34387D01*
X191239Y34397D01*
X191243Y34424D01*
X191216Y34428D01*
X191200Y34449D01*
X187103Y34449D01*
X186323Y34547D01*
X185749Y35120D01*
X185749Y35792D01*
X185941Y36367D01*
X186425Y36658D01*
X186438Y36690D01*
X186449Y36697D01*
X186549Y38397D01*
X186516Y38447D01*
X186516Y38446D01*
X186516Y38447D01*
X185939Y38639D01*
X185749Y39208D01*
X185749Y46886D01*
X186031Y47355D01*
X186601Y47450D01*
X187270Y47355D01*
X187551Y46886D01*
X187551Y44100D01*
X187587Y44053D01*
X187594Y44058D01*
X187600Y44051D01*
X194392Y44051D01*
X194961Y43861D01*
X195151Y43292D01*
X195151Y42612D01*
X194867Y42044D01*
X194296Y41949D01*
X188200Y41949D01*
X188195Y41946D01*
X188192Y41949D01*
X187592Y41849D01*
X187551Y41805D01*
X187554Y41803D01*
X187551Y41800D01*
X187551Y39017D01*
X187173Y38546D01*
X186592Y38449D01*
X186551Y38405D01*
X186552Y38404D01*
X186551Y38403D01*
X186451Y36703D01*
X186484Y36653D01*
X186493Y36660D01*
X186500Y36651D01*
X194586Y36651D01*
X195054Y36370D01*
X195151Y35597D01*
X195151Y34920D01*
X194667Y34437D01*
X189870Y30739D01*
X189867Y30728D01*
X189856Y30722D01*
X189862Y30710D01*
X189854Y30682D01*
X189879Y30675D01*
X189890Y30652D01*
X190390Y30552D01*
X190397Y30555D01*
X190400Y30551D01*
X194491Y30551D01*
X194961Y30363D01*
X195151Y29792D01*
X195151Y28916D01*
X194873Y28546D01*
X194197Y28449D01*
X186704Y28449D01*
G37*
%LPD*%
%LPC*%
G36*
X217624Y71349D02*
X217624Y71349D01*
X215125Y71349D01*
X215111Y71403D01*
X215109Y71405D01*
X215109Y71408D01*
X211795Y80567D01*
X211894Y80568D01*
X214769Y80568D01*
X214822Y80369D01*
X214823Y80368D01*
X214823Y80367D01*
X216618Y74301D01*
X216628Y74294D01*
X216628Y74288D01*
X216634Y74285D01*
X216638Y74272D01*
X216656Y74269D01*
X216670Y74257D01*
X216687Y74265D01*
X216705Y74262D01*
X216721Y74281D01*
X216732Y74286D01*
X216733Y74295D01*
X216739Y74302D01*
X218504Y80397D01*
X218553Y80568D01*
X221399Y80557D01*
X223217Y74334D01*
X223229Y74323D01*
X223232Y74308D01*
X223253Y74303D01*
X223269Y74289D01*
X223283Y74296D01*
X223298Y74292D01*
X223320Y74313D01*
X223330Y74318D01*
X223331Y74324D01*
X223336Y74328D01*
X223434Y74573D01*
X223434Y74576D01*
X223436Y74579D01*
X225082Y80157D01*
X225206Y80568D01*
X227855Y80568D01*
X228044Y80571D01*
X228079Y80571D01*
X224756Y71507D01*
X224692Y71349D01*
X221755Y71349D01*
X221638Y71706D01*
X220080Y76759D01*
X220079Y76760D01*
X220079Y76763D01*
X219973Y77040D01*
X219960Y77049D01*
X219956Y77064D01*
X219935Y77068D01*
X219918Y77080D01*
X219905Y77072D01*
X219889Y77075D01*
X219869Y77053D01*
X219859Y77047D01*
X219859Y77041D01*
X219855Y77036D01*
X218088Y71349D01*
X217624Y71349D01*
G37*
%LPD*%
G36*
X200407Y387781D02*
X200407Y387781D01*
X200427Y387802D01*
X200441Y387803D01*
X200841Y388403D01*
X200840Y388412D01*
X200847Y388414D01*
X201646Y390713D01*
X202397Y392684D01*
X203653Y388914D01*
X203853Y388314D01*
X203867Y388305D01*
X203865Y388295D01*
X204365Y387795D01*
X204386Y387792D01*
X204392Y387781D01*
X204992Y387681D01*
X205009Y387691D01*
X205019Y387685D01*
X205719Y387985D01*
X205730Y388003D01*
X205742Y388005D01*
X206042Y388505D01*
X206041Y388512D01*
X206046Y388514D01*
X208546Y395614D01*
X208546Y395616D01*
X208547Y395616D01*
X208747Y396316D01*
X208738Y396340D01*
X208744Y396352D01*
X208544Y396752D01*
X208526Y396761D01*
X208524Y396773D01*
X207824Y397173D01*
X207816Y397172D01*
X207814Y397177D01*
X207114Y397377D01*
X207086Y397367D01*
X207073Y397371D01*
X206473Y396971D01*
X206465Y396950D01*
X206453Y396946D01*
X204957Y392557D01*
X204822Y392421D01*
X203547Y396246D01*
X203542Y396249D01*
X203544Y396252D01*
X203244Y396852D01*
X203231Y396859D01*
X203231Y396868D01*
X202731Y397268D01*
X202703Y397269D01*
X202693Y397279D01*
X201993Y397179D01*
X201985Y397171D01*
X201978Y397174D01*
X201378Y396874D01*
X201367Y396853D01*
X201355Y396849D01*
X201055Y396149D01*
X201055Y396147D01*
X201053Y396146D01*
X199779Y392421D01*
X199643Y392556D01*
X198447Y396444D01*
X198442Y396448D01*
X198444Y396452D01*
X198144Y397052D01*
X198124Y397062D01*
X198122Y397074D01*
X197522Y397374D01*
X197497Y397369D01*
X197486Y397377D01*
X196786Y397177D01*
X196780Y397169D01*
X196773Y397171D01*
X196173Y396771D01*
X196164Y396746D01*
X196152Y396740D01*
X196052Y396240D01*
X196057Y396229D01*
X196051Y396223D01*
X196151Y395523D01*
X196156Y395518D01*
X196154Y395514D01*
X198654Y388414D01*
X198664Y388407D01*
X198662Y388399D01*
X199062Y387899D01*
X199081Y387894D01*
X199084Y387883D01*
X199684Y387683D01*
X199700Y387688D01*
X199707Y387681D01*
X200407Y387781D01*
G37*
%LPC*%
G36*
X110116Y32349D02*
X110116Y32349D01*
X109743Y32630D01*
X109549Y33307D01*
X109549Y36493D01*
X109747Y37185D01*
X109946Y37781D01*
X110242Y38373D01*
X110637Y38867D01*
X111629Y39859D01*
X112219Y40154D01*
X112815Y40353D01*
X113507Y40551D01*
X114892Y40551D01*
X115484Y40353D01*
X115486Y40354D01*
X115486Y40353D01*
X116182Y40154D01*
X116773Y39858D01*
X117267Y39463D01*
X117763Y38967D01*
X118160Y38471D01*
X118555Y37878D01*
X118753Y37284D01*
X118951Y36692D01*
X118951Y33208D01*
X118761Y32637D01*
X118287Y32448D01*
X117597Y32349D01*
X110116Y32349D01*
G37*
%LPD*%
%LPC*%
G36*
X221903Y287449D02*
X221903Y287449D01*
X221220Y287547D01*
X220846Y287827D01*
X220749Y288503D01*
X220749Y295992D01*
X220942Y296570D01*
X221316Y296851D01*
X224596Y296851D01*
X225189Y296752D01*
X225882Y296554D01*
X226477Y296257D01*
X226971Y295960D01*
X227565Y295465D01*
X227962Y294969D01*
X228358Y294473D01*
X228654Y293882D01*
X228852Y293190D01*
X228951Y292497D01*
X228951Y291804D01*
X228852Y291211D01*
X228654Y290518D01*
X228357Y289923D01*
X228060Y289429D01*
X227565Y288835D01*
X227069Y288438D01*
X226573Y288042D01*
X225982Y287746D01*
X225289Y287548D01*
X224696Y287449D01*
X221903Y287449D01*
G37*
%LPD*%
%LPC*%
G36*
X59604Y44949D02*
X59604Y44949D01*
X59031Y45045D01*
X58749Y45514D01*
X58749Y48697D01*
X58848Y49389D01*
X59046Y49981D01*
X59641Y51171D01*
X60633Y52163D01*
X61127Y52558D01*
X61715Y52852D01*
X62407Y52951D01*
X63103Y53051D01*
X63796Y53051D01*
X64392Y52951D01*
X64393Y52952D01*
X64393Y52951D01*
X65085Y52852D01*
X65673Y52558D01*
X66169Y52162D01*
X66173Y52161D01*
X66173Y52159D01*
X66766Y51763D01*
X67160Y51271D01*
X67557Y50675D01*
X67854Y50081D01*
X68052Y49489D01*
X68151Y48797D01*
X68151Y46103D01*
X68053Y45323D01*
X67777Y45046D01*
X67097Y44949D01*
X59604Y44949D01*
G37*
%LPD*%
%LPC*%
G36*
X46103Y287449D02*
X46103Y287449D01*
X45323Y287547D01*
X45046Y287823D01*
X44949Y288503D01*
X44949Y295996D01*
X45045Y296570D01*
X45514Y296851D01*
X48697Y296851D01*
X49389Y296752D01*
X49981Y296554D01*
X51171Y295959D01*
X52163Y294967D01*
X52558Y294473D01*
X52852Y293885D01*
X52951Y293193D01*
X53051Y292497D01*
X53051Y291804D01*
X52951Y291208D01*
X52952Y291207D01*
X52951Y291207D01*
X52852Y290515D01*
X52558Y289927D01*
X52162Y289431D01*
X52161Y289427D01*
X52159Y289427D01*
X51763Y288834D01*
X51271Y288440D01*
X50675Y288043D01*
X50081Y287746D01*
X49489Y287548D01*
X48797Y287449D01*
X46103Y287449D01*
G37*
%LPD*%
G36*
X212806Y387781D02*
X212806Y387781D01*
X212822Y387797D01*
X212835Y387795D01*
X213235Y388195D01*
X213236Y388207D01*
X213240Y388209D01*
X213237Y388213D01*
X213238Y388216D01*
X213249Y388222D01*
X213349Y388822D01*
X213346Y388827D01*
X213349Y388830D01*
X213349Y390197D01*
X213809Y390381D01*
X215173Y390381D01*
X215656Y389607D01*
X216355Y388010D01*
X216373Y388000D01*
X216375Y387988D01*
X216875Y387688D01*
X216899Y387690D01*
X216908Y387681D01*
X217508Y387781D01*
X217517Y387791D01*
X217524Y387787D01*
X218224Y388187D01*
X218231Y388203D01*
X218242Y388205D01*
X218542Y388705D01*
X218539Y388733D01*
X218547Y388744D01*
X218347Y389444D01*
X218339Y389450D01*
X218341Y389457D01*
X218144Y389753D01*
X217647Y391044D01*
X217553Y391517D01*
X217938Y391999D01*
X217939Y392007D01*
X217944Y392008D01*
X218244Y392608D01*
X218243Y392615D01*
X218247Y392616D01*
X218447Y393316D01*
X218444Y393326D01*
X218449Y393330D01*
X218449Y394030D01*
X218446Y394034D01*
X218449Y394037D01*
X218349Y394737D01*
X218344Y394742D01*
X218347Y394746D01*
X218147Y395346D01*
X218139Y395351D01*
X218141Y395357D01*
X217741Y395957D01*
X217734Y395960D01*
X217735Y395965D01*
X217335Y396365D01*
X217276Y396373D01*
X217275Y396364D01*
X217265Y396365D01*
X216781Y395880D01*
X217237Y396397D01*
X217241Y396457D01*
X217231Y396458D01*
X217231Y396468D01*
X216731Y396868D01*
X216721Y396869D01*
X216719Y396875D01*
X216019Y397175D01*
X216011Y397173D01*
X216008Y397179D01*
X214808Y397379D01*
X214803Y397376D01*
X214800Y397379D01*
X212000Y397379D01*
X211992Y397373D01*
X211986Y397377D01*
X211286Y397177D01*
X211271Y397157D01*
X211258Y397155D01*
X210958Y396655D01*
X210960Y396637D01*
X210951Y396630D01*
X210951Y389130D01*
X210954Y389126D01*
X210951Y389123D01*
X211051Y388423D01*
X211057Y388417D01*
X211054Y388412D01*
X211254Y387912D01*
X211282Y387895D01*
X211286Y387883D01*
X211986Y387683D01*
X212000Y387688D01*
X212006Y387681D01*
X212806Y387781D01*
G37*
%LPC*%
G36*
X24432Y313042D02*
X24432Y313042D01*
X24149Y313514D01*
X24149Y321591D01*
X24346Y322082D01*
X24330Y322139D01*
X24322Y322137D01*
X24321Y322145D01*
X24292Y322158D01*
X24305Y322161D01*
X24316Y322153D01*
X24908Y322351D01*
X28293Y322351D01*
X28982Y322154D01*
X29575Y321857D01*
X30171Y321460D01*
X30663Y321066D01*
X31055Y320478D01*
X31252Y319889D01*
X31351Y319197D01*
X31351Y318504D01*
X31252Y317911D01*
X31055Y317223D01*
X30662Y316731D01*
X30661Y316723D01*
X30659Y316722D01*
X30661Y316719D01*
X30661Y316714D01*
X30652Y316710D01*
X30552Y316210D01*
X30561Y316191D01*
X30555Y316181D01*
X31054Y314983D01*
X31253Y314384D01*
X31448Y313802D01*
X31261Y313334D01*
X30583Y312947D01*
X30008Y312851D01*
X29438Y313136D01*
X28745Y314720D01*
X28743Y314721D01*
X28744Y314722D01*
X28344Y315522D01*
X28307Y315541D01*
X28300Y315549D01*
X26900Y315549D01*
X26889Y315541D01*
X26882Y315546D01*
X26382Y315346D01*
X26357Y315305D01*
X26351Y315300D01*
X26351Y314003D01*
X26254Y313323D01*
X25877Y312947D01*
X25104Y312850D01*
X24432Y313042D01*
G37*
%LPD*%
%LPC*%
G36*
X210820Y287449D02*
X210820Y287449D01*
X210446Y287824D01*
X210349Y288404D01*
X210349Y295892D01*
X210542Y296471D01*
X211017Y296851D01*
X211693Y296851D01*
X212369Y296658D01*
X212759Y296073D01*
X212761Y296072D01*
X212761Y296070D01*
X215861Y291970D01*
X216161Y291570D01*
X216166Y291569D01*
X216165Y291565D01*
X216365Y291365D01*
X216379Y291363D01*
X216387Y291353D01*
X216394Y291358D01*
X216400Y291358D01*
X216403Y291360D01*
X216424Y291357D01*
X216427Y291378D01*
X216447Y291394D01*
X216445Y291397D01*
X216449Y291400D01*
X216449Y296180D01*
X217120Y296851D01*
X217886Y296851D01*
X218364Y296564D01*
X218651Y296086D01*
X218651Y288600D01*
X218687Y288553D01*
X218693Y288557D01*
X218698Y288551D01*
X218729Y288549D01*
X218700Y288549D01*
X218653Y288513D01*
X218655Y288510D01*
X218651Y288508D01*
X218554Y287924D01*
X218177Y287546D01*
X217497Y287449D01*
X216820Y287449D01*
X216237Y288032D01*
X212639Y292830D01*
X212623Y292834D01*
X212613Y292847D01*
X212603Y292840D01*
X212582Y292846D01*
X212574Y292818D01*
X212551Y292800D01*
X212551Y288109D01*
X212363Y287641D01*
X211693Y287449D01*
X210820Y287449D01*
G37*
%LPD*%
%LPC*%
G36*
X161204Y32949D02*
X161204Y32949D01*
X160633Y33044D01*
X160349Y33612D01*
X160349Y34288D01*
X160641Y34871D01*
X161132Y35362D01*
X163929Y37360D01*
X163929Y37361D01*
X163930Y37361D01*
X165630Y38661D01*
X165634Y38676D01*
X165644Y38678D01*
X165744Y38878D01*
X165743Y38883D01*
X165747Y38887D01*
X165741Y38895D01*
X165733Y38936D01*
X165713Y38933D01*
X165700Y38949D01*
X161603Y38949D01*
X160910Y39048D01*
X160538Y39141D01*
X160349Y39708D01*
X160349Y40486D01*
X160633Y40959D01*
X161208Y41151D01*
X168696Y41151D01*
X169276Y41054D01*
X169653Y40677D01*
X169751Y39897D01*
X169751Y39320D01*
X169168Y38737D01*
X164370Y35139D01*
X164366Y35123D01*
X164353Y35113D01*
X164360Y35103D01*
X164354Y35082D01*
X164382Y35074D01*
X164400Y35051D01*
X169191Y35051D01*
X169655Y34865D01*
X169751Y34197D01*
X169751Y33320D01*
X169380Y32949D01*
X161204Y32949D01*
G37*
%LPD*%
G36*
X188821Y387697D02*
X188821Y387697D01*
X188835Y387695D01*
X189235Y388095D01*
X189236Y388107D01*
X189241Y388111D01*
X189238Y388116D01*
X189249Y388122D01*
X189349Y388722D01*
X189346Y388727D01*
X189349Y388730D01*
X189349Y390100D01*
X189712Y390281D01*
X191100Y390281D01*
X191105Y390284D01*
X191108Y390281D01*
X191708Y390381D01*
X191712Y390386D01*
X191716Y390383D01*
X192316Y390583D01*
X192321Y390591D01*
X192327Y390589D01*
X193527Y391389D01*
X193531Y391399D01*
X193538Y391399D01*
X193938Y391899D01*
X193939Y391909D01*
X193945Y391911D01*
X194245Y392611D01*
X194243Y392619D01*
X194249Y392622D01*
X194349Y393222D01*
X194348Y393223D01*
X194349Y393223D01*
X194449Y393923D01*
X194446Y393928D01*
X194449Y393930D01*
X194449Y394630D01*
X194440Y394643D01*
X194444Y394652D01*
X194044Y395452D01*
X194037Y395455D01*
X194038Y395461D01*
X193638Y395961D01*
X193634Y395962D01*
X193635Y395965D01*
X193135Y396465D01*
X193128Y396466D01*
X193127Y396471D01*
X192527Y396871D01*
X192523Y396871D01*
X192522Y396874D01*
X191922Y397174D01*
X191911Y397172D01*
X191907Y397179D01*
X191207Y397279D01*
X191202Y397276D01*
X191200Y397279D01*
X187800Y397279D01*
X187791Y397272D01*
X187784Y397277D01*
X187184Y397077D01*
X187167Y397052D01*
X187154Y397048D01*
X186954Y396548D01*
X186958Y396535D01*
X186951Y396530D01*
X186951Y388330D01*
X186960Y388317D01*
X186956Y388308D01*
X187156Y387908D01*
X187182Y387895D01*
X187186Y387883D01*
X187886Y387683D01*
X187896Y387686D01*
X187900Y387681D01*
X188800Y387681D01*
X188821Y387697D01*
G37*
%LPC*%
G36*
X59704Y34549D02*
X59704Y34549D01*
X59129Y34645D01*
X58749Y35215D01*
X58749Y35892D01*
X58942Y36471D01*
X59531Y36962D01*
X63626Y40058D01*
X64022Y40256D01*
X64027Y40266D01*
X64035Y40265D01*
X64235Y40465D01*
X64237Y40479D01*
X64247Y40487D01*
X64239Y40497D01*
X64243Y40524D01*
X64216Y40528D01*
X64200Y40549D01*
X60103Y40549D01*
X59423Y40646D01*
X58749Y41320D01*
X58749Y41988D01*
X59036Y42561D01*
X59509Y42751D01*
X67000Y42751D01*
X67047Y42787D01*
X67043Y42793D01*
X67049Y42798D01*
X67051Y42830D01*
X67051Y42800D01*
X67087Y42753D01*
X67094Y42758D01*
X67100Y42751D01*
X67680Y42751D01*
X68053Y42377D01*
X68151Y41597D01*
X68151Y40923D01*
X67570Y40439D01*
X62770Y36839D01*
X62767Y36827D01*
X62755Y36821D01*
X62762Y36809D01*
X62754Y36782D01*
X62780Y36775D01*
X62792Y36751D01*
X63392Y36651D01*
X63397Y36654D01*
X63400Y36651D01*
X67491Y36651D01*
X67961Y36463D01*
X68151Y35892D01*
X68151Y35020D01*
X67776Y34646D01*
X67196Y34549D01*
X59704Y34549D01*
G37*
%LPD*%
%LPC*%
G36*
X35020Y287449D02*
X35020Y287449D01*
X34646Y287824D01*
X34549Y288404D01*
X34549Y295896D01*
X34645Y296471D01*
X35215Y296851D01*
X35892Y296851D01*
X36471Y296658D01*
X36962Y296069D01*
X40058Y291974D01*
X40256Y291578D01*
X40266Y291573D01*
X40265Y291565D01*
X40465Y291365D01*
X40479Y291363D01*
X40487Y291353D01*
X40494Y291358D01*
X40500Y291358D01*
X40503Y291360D01*
X40524Y291357D01*
X40527Y291378D01*
X40547Y291394D01*
X40545Y291397D01*
X40549Y291400D01*
X40549Y295497D01*
X40646Y296177D01*
X41320Y296851D01*
X41988Y296851D01*
X42561Y296564D01*
X42751Y296091D01*
X42751Y288600D01*
X42787Y288553D01*
X42793Y288557D01*
X42798Y288551D01*
X42830Y288549D01*
X42800Y288549D01*
X42753Y288513D01*
X42758Y288506D01*
X42751Y288500D01*
X42751Y287920D01*
X42377Y287547D01*
X41597Y287449D01*
X40923Y287449D01*
X40439Y288031D01*
X36839Y292830D01*
X36827Y292833D01*
X36821Y292845D01*
X36809Y292838D01*
X36782Y292846D01*
X36775Y292820D01*
X36751Y292808D01*
X36651Y292208D01*
X36654Y292203D01*
X36651Y292200D01*
X36651Y288109D01*
X36463Y287640D01*
X35892Y287449D01*
X35020Y287449D01*
G37*
%LPD*%
%LPC*%
G36*
X161109Y23449D02*
X161109Y23449D01*
X160618Y23646D01*
X160561Y23630D01*
X160562Y23625D01*
X160557Y23624D01*
X160541Y23595D01*
X160539Y23604D01*
X160547Y23616D01*
X160349Y24208D01*
X160349Y29597D01*
X160447Y30281D01*
X160729Y30656D01*
X161445Y30836D01*
X161451Y30793D01*
X161493Y30752D01*
X161493Y30751D01*
X162173Y30654D01*
X162453Y30281D01*
X162551Y29597D01*
X162551Y26200D01*
X162559Y26189D01*
X162554Y26182D01*
X162754Y25682D01*
X162795Y25657D01*
X162800Y25651D01*
X163400Y25651D01*
X163405Y25655D01*
X163409Y25655D01*
X163413Y25657D01*
X163418Y25654D01*
X163918Y25854D01*
X163931Y25875D01*
X163947Y25887D01*
X163942Y25894D01*
X163943Y25895D01*
X163949Y25900D01*
X163949Y28588D01*
X164236Y29161D01*
X164709Y29351D01*
X165583Y29351D01*
X166055Y28973D01*
X166151Y28494D01*
X166251Y25698D01*
X166288Y25652D01*
X166295Y25657D01*
X166300Y25651D01*
X166900Y25651D01*
X166905Y25655D01*
X166911Y25655D01*
X166912Y25655D01*
X166916Y25653D01*
X167516Y25853D01*
X167530Y25874D01*
X167547Y25887D01*
X167543Y25893D01*
X167546Y25897D01*
X167549Y25900D01*
X167549Y29992D01*
X167740Y30563D01*
X168209Y30751D01*
X169092Y30751D01*
X169656Y30563D01*
X169751Y29996D01*
X169751Y24603D01*
X169654Y23827D01*
X169281Y23547D01*
X168597Y23449D01*
X161109Y23449D01*
G37*
%LPD*%
%LPC*%
G36*
X28304Y287449D02*
X28304Y287449D01*
X27708Y287549D01*
X27707Y287548D01*
X27707Y287549D01*
X27015Y287648D01*
X26427Y287942D01*
X25931Y288338D01*
X25335Y288835D01*
X24938Y289331D01*
X24542Y289827D01*
X24246Y290418D01*
X24048Y291111D01*
X23949Y291704D01*
X23949Y293093D01*
X24147Y293785D01*
X24346Y294381D01*
X24641Y294971D01*
X25633Y295963D01*
X26127Y296358D01*
X26722Y296656D01*
X27315Y296952D01*
X28007Y297051D01*
X28008Y297052D01*
X28008Y297051D01*
X28601Y297150D01*
X29292Y297051D01*
X29889Y296952D01*
X30582Y296754D01*
X31175Y296457D01*
X31759Y296068D01*
X31947Y295504D01*
X31659Y294927D01*
X31173Y294345D01*
X30706Y294251D01*
X29421Y294845D01*
X29410Y294843D01*
X29407Y294849D01*
X28707Y294949D01*
X28698Y294944D01*
X28693Y294949D01*
X27993Y294849D01*
X27988Y294844D01*
X27984Y294847D01*
X27384Y294647D01*
X27377Y294636D01*
X27369Y294638D01*
X26869Y294238D01*
X26867Y294228D01*
X26859Y294227D01*
X26459Y293627D01*
X26459Y293623D01*
X26456Y293622D01*
X26156Y293022D01*
X26159Y293006D01*
X26151Y293000D01*
X26151Y292300D01*
X26154Y292296D01*
X26151Y292293D01*
X26251Y291593D01*
X26256Y291588D01*
X26253Y291584D01*
X26453Y290984D01*
X26464Y290977D01*
X26462Y290969D01*
X26862Y290469D01*
X26869Y290467D01*
X26868Y290462D01*
X27468Y289962D01*
X27477Y289962D01*
X27478Y289956D01*
X28078Y289656D01*
X28094Y289659D01*
X28100Y289651D01*
X29400Y289651D01*
X29413Y289660D01*
X29422Y289656D01*
X30022Y289956D01*
X30041Y289993D01*
X30049Y290000D01*
X30049Y291300D01*
X30013Y291347D01*
X30008Y291343D01*
X30004Y291349D01*
X28622Y291448D01*
X28246Y291823D01*
X28151Y292492D01*
X28435Y293060D01*
X29008Y293251D01*
X31193Y293251D01*
X31871Y293057D01*
X32153Y292681D01*
X32251Y291997D01*
X32251Y289300D01*
X32279Y289262D01*
X32281Y289254D01*
X32308Y289244D01*
X32260Y289229D01*
X32263Y289219D01*
X32253Y289216D01*
X32058Y288629D01*
X31572Y288240D01*
X31077Y287943D01*
X30485Y287648D01*
X29793Y287549D01*
X29097Y287449D01*
X28304Y287449D01*
G37*
%LPD*%
%LPC*%
G36*
X62507Y23949D02*
X62507Y23949D01*
X61815Y24147D01*
X61219Y24346D01*
X60629Y24641D01*
X59637Y25633D01*
X59242Y26127D01*
X58944Y26722D01*
X58648Y27315D01*
X58549Y28007D01*
X58548Y28008D01*
X58549Y28008D01*
X58450Y28601D01*
X58549Y29292D01*
X58648Y29889D01*
X58846Y30582D01*
X59143Y31175D01*
X59532Y31759D01*
X60096Y31947D01*
X60673Y31659D01*
X61255Y31173D01*
X61349Y30706D01*
X60755Y29421D01*
X60757Y29414D01*
X60752Y29411D01*
X60754Y29409D01*
X60751Y29407D01*
X60651Y28707D01*
X60656Y28698D01*
X60651Y28693D01*
X60751Y27993D01*
X60756Y27988D01*
X60753Y27984D01*
X60953Y27384D01*
X60964Y27377D01*
X60962Y27369D01*
X61362Y26869D01*
X61372Y26867D01*
X61373Y26859D01*
X61973Y26459D01*
X61977Y26459D01*
X61978Y26456D01*
X62578Y26156D01*
X62594Y26159D01*
X62600Y26151D01*
X63300Y26151D01*
X63304Y26154D01*
X63307Y26151D01*
X64007Y26251D01*
X64012Y26256D01*
X64016Y26253D01*
X64616Y26453D01*
X64623Y26464D01*
X64631Y26462D01*
X65131Y26862D01*
X65133Y26869D01*
X65138Y26868D01*
X65638Y27468D01*
X65638Y27477D01*
X65644Y27478D01*
X65944Y28078D01*
X65941Y28094D01*
X65949Y28100D01*
X65949Y29400D01*
X65940Y29413D01*
X65944Y29422D01*
X65644Y30022D01*
X65607Y30041D01*
X65600Y30049D01*
X64300Y30049D01*
X64253Y30013D01*
X64257Y30008D01*
X64251Y30004D01*
X64152Y28622D01*
X63777Y28246D01*
X63108Y28151D01*
X62540Y28435D01*
X62349Y29008D01*
X62349Y31193D01*
X62543Y31871D01*
X62920Y32153D01*
X63603Y32251D01*
X66300Y32251D01*
X66338Y32279D01*
X66346Y32281D01*
X66356Y32308D01*
X66371Y32260D01*
X66381Y32263D01*
X66384Y32253D01*
X66971Y32058D01*
X67360Y31572D01*
X67657Y31077D01*
X67952Y30485D01*
X68051Y29793D01*
X68151Y29097D01*
X68151Y28304D01*
X68051Y27708D01*
X68052Y27707D01*
X68051Y27707D01*
X67952Y27015D01*
X67658Y26427D01*
X67262Y25931D01*
X66765Y25335D01*
X66269Y24938D01*
X65773Y24542D01*
X65182Y24246D01*
X64489Y24048D01*
X63896Y23949D01*
X62507Y23949D01*
G37*
%LPD*%
%LPC*%
G36*
X223108Y262049D02*
X223108Y262049D01*
X222537Y262240D01*
X222349Y262709D01*
X222349Y270791D01*
X222537Y271259D01*
X223207Y271451D01*
X226593Y271451D01*
X227282Y271254D01*
X227875Y270957D01*
X228466Y270563D01*
X228862Y270069D01*
X229257Y269574D01*
X229551Y268890D01*
X229551Y267503D01*
X229452Y266815D01*
X229158Y266227D01*
X228766Y265737D01*
X228173Y265341D01*
X227578Y264945D01*
X226989Y264748D01*
X226297Y264649D01*
X225000Y264649D01*
X224987Y264640D01*
X224978Y264644D01*
X224578Y264444D01*
X224560Y264407D01*
X224551Y264400D01*
X224551Y263007D01*
X224357Y262330D01*
X223984Y262049D01*
X223108Y262049D01*
G37*
%LPD*%
%LPC*%
G36*
X204203Y287449D02*
X204203Y287449D01*
X203508Y287549D01*
X202915Y287647D01*
X202325Y287943D01*
X201731Y288338D01*
X200739Y289331D01*
X200443Y289823D01*
X200146Y290418D01*
X199947Y291114D01*
X199946Y291115D01*
X199947Y291116D01*
X199749Y291708D01*
X199749Y292397D01*
X199849Y293093D01*
X199948Y293785D01*
X200244Y294378D01*
X200542Y294973D01*
X200937Y295467D01*
X201433Y295963D01*
X201927Y296358D01*
X202522Y296656D01*
X203115Y296952D01*
X203807Y297051D01*
X204499Y297150D01*
X205092Y297051D01*
X205093Y297052D01*
X205093Y297051D01*
X205789Y296952D01*
X206381Y296754D01*
X206975Y296457D01*
X207559Y296068D01*
X207748Y295500D01*
X207557Y294927D01*
X206976Y294345D01*
X206507Y294252D01*
X205322Y294844D01*
X205311Y294842D01*
X205307Y294849D01*
X204607Y294949D01*
X204598Y294944D01*
X204593Y294949D01*
X203893Y294849D01*
X203888Y294844D01*
X203884Y294847D01*
X203284Y294647D01*
X203279Y294639D01*
X203273Y294641D01*
X202673Y294241D01*
X202668Y294228D01*
X202659Y294227D01*
X202259Y293627D01*
X202260Y293618D01*
X202253Y293616D01*
X202053Y293016D01*
X202055Y293009D01*
X202051Y293007D01*
X201951Y292307D01*
X201956Y292298D01*
X201951Y292293D01*
X202051Y291593D01*
X202059Y291585D01*
X202056Y291578D01*
X202356Y290978D01*
X202363Y290975D01*
X202362Y290969D01*
X202762Y290469D01*
X202766Y290468D01*
X202765Y290465D01*
X203265Y289965D01*
X203277Y289964D01*
X203278Y289956D01*
X203878Y289656D01*
X203894Y289659D01*
X203900Y289651D01*
X205300Y289651D01*
X205315Y289662D01*
X205325Y289658D01*
X205825Y289958D01*
X205839Y289992D01*
X205849Y290000D01*
X205849Y291300D01*
X205813Y291347D01*
X205808Y291343D01*
X205804Y291349D01*
X204422Y291448D01*
X204049Y291820D01*
X204049Y292492D01*
X204239Y293061D01*
X204808Y293251D01*
X206993Y293251D01*
X207671Y293057D01*
X207953Y292681D01*
X208051Y291997D01*
X208051Y289300D01*
X208079Y289262D01*
X208081Y289254D01*
X208108Y289244D01*
X208060Y289229D01*
X208063Y289219D01*
X208053Y289216D01*
X207858Y288629D01*
X207372Y288240D01*
X206877Y287943D01*
X206285Y287647D01*
X205693Y287549D01*
X204897Y287449D01*
X204203Y287449D01*
G37*
%LPD*%
%LPC*%
G36*
X207008Y312849D02*
X207008Y312849D01*
X206429Y313042D01*
X206049Y313517D01*
X206049Y314192D01*
X206245Y314778D01*
X206638Y315369D01*
X207031Y315762D01*
X207626Y316158D01*
X208825Y316857D01*
X208826Y316860D01*
X208827Y316859D01*
X209427Y317259D01*
X209428Y317262D01*
X209431Y317262D01*
X209931Y317662D01*
X209933Y317669D01*
X209938Y317669D01*
X210338Y318169D01*
X210339Y318177D01*
X210344Y318178D01*
X210644Y318778D01*
X210640Y318798D01*
X210649Y318807D01*
X210549Y319507D01*
X210533Y319522D01*
X210535Y319535D01*
X210135Y319935D01*
X210117Y319937D01*
X210114Y319947D01*
X209414Y320147D01*
X209399Y320142D01*
X209392Y320149D01*
X208792Y320049D01*
X208773Y320028D01*
X208759Y320027D01*
X208359Y319427D01*
X208360Y319415D01*
X208352Y319411D01*
X208056Y318129D01*
X207684Y317849D01*
X206808Y317849D01*
X206237Y318040D01*
X206049Y318509D01*
X206049Y319197D01*
X206148Y319889D01*
X206345Y320478D01*
X206740Y321071D01*
X207135Y321565D01*
X207627Y321958D01*
X208215Y322252D01*
X208903Y322351D01*
X209597Y322351D01*
X210289Y322252D01*
X210881Y322054D01*
X211471Y321759D01*
X211963Y321267D01*
X212358Y320773D01*
X212654Y320182D01*
X212851Y319493D01*
X212851Y318207D01*
X212655Y317521D01*
X212262Y316931D01*
X211269Y315938D01*
X210677Y315544D01*
X210182Y315346D01*
X210174Y315334D01*
X210165Y315335D01*
X209965Y315135D01*
X209963Y315121D01*
X209953Y315113D01*
X209961Y315103D01*
X209957Y315076D01*
X209984Y315072D01*
X210000Y315051D01*
X211995Y315051D01*
X212490Y314952D01*
X212491Y314952D01*
X212492Y314951D01*
X213063Y314856D01*
X213251Y314292D01*
X213251Y313508D01*
X213063Y312944D01*
X212496Y312849D01*
X207008Y312849D01*
G37*
%LPD*%
%LPC*%
G36*
X35724Y262145D02*
X35724Y262145D01*
X35139Y262731D01*
X34856Y263202D01*
X35142Y263773D01*
X35637Y264368D01*
X37936Y266867D01*
X37937Y266877D01*
X37941Y266880D01*
X37938Y266885D01*
X37942Y266926D01*
X37937Y266926D01*
X37938Y266931D01*
X37538Y267431D01*
X37536Y267431D01*
X37536Y267433D01*
X35241Y269928D01*
X34952Y270507D01*
X35045Y270976D01*
X35627Y271557D01*
X36203Y271749D01*
X36673Y271655D01*
X37162Y271068D01*
X37163Y271068D01*
X37163Y271067D01*
X39363Y268567D01*
X39421Y268556D01*
X39423Y268564D01*
X39431Y268562D01*
X39931Y268962D01*
X39932Y268967D01*
X39937Y268967D01*
X41737Y270967D01*
X41737Y270969D01*
X41738Y270968D01*
X42230Y271559D01*
X42700Y271747D01*
X43176Y271557D01*
X43860Y271068D01*
X44046Y270602D01*
X43759Y270028D01*
X40963Y266933D01*
X40961Y266909D01*
X40959Y266907D01*
X40961Y266904D01*
X40958Y266874D01*
X40965Y266873D01*
X40964Y266867D01*
X43264Y264367D01*
X43265Y264366D01*
X43265Y264365D01*
X43759Y263871D01*
X44046Y263298D01*
X43858Y262828D01*
X43273Y262243D01*
X42702Y262052D01*
X42229Y262241D01*
X39537Y265332D01*
X39479Y265345D01*
X39477Y265336D01*
X39469Y265338D01*
X38969Y264938D01*
X38967Y264931D01*
X38962Y264931D01*
X37262Y262831D01*
X36771Y262242D01*
X36197Y262051D01*
X35724Y262145D01*
G37*
%LPD*%
%LPC*%
G36*
X117514Y42448D02*
X117514Y42448D01*
X116820Y42745D01*
X110127Y46042D01*
X109642Y46429D01*
X109451Y47004D01*
X109546Y47576D01*
X110029Y48059D01*
X117415Y51653D01*
X117995Y51749D01*
X118466Y51561D01*
X118853Y50883D01*
X118949Y50308D01*
X118663Y49737D01*
X116878Y48844D01*
X116868Y48824D01*
X116857Y48815D01*
X116861Y48810D01*
X116860Y48807D01*
X116851Y48800D01*
X116851Y45400D01*
X116870Y45374D01*
X116870Y45361D01*
X117270Y45061D01*
X117278Y45061D01*
X117279Y45055D01*
X118569Y44460D01*
X118951Y43983D01*
X118951Y43413D01*
X118562Y42733D01*
X118086Y42352D01*
X117514Y42448D01*
G37*
%LPD*%
%LPC*%
G36*
X40629Y313041D02*
X40629Y313041D01*
X37937Y316132D01*
X37879Y316145D01*
X37877Y316136D01*
X37869Y316138D01*
X37369Y315738D01*
X37368Y315732D01*
X37363Y315732D01*
X35563Y313632D01*
X35562Y313632D01*
X35070Y313041D01*
X34600Y312853D01*
X34124Y313044D01*
X33440Y313532D01*
X33246Y314018D01*
X33205Y314043D01*
X33200Y314049D01*
X33198Y314049D01*
X33196Y314048D01*
X33195Y314049D01*
X33194Y314049D01*
X33193Y314049D01*
X33209Y314052D01*
X33229Y314073D01*
X33242Y314075D01*
X33540Y314571D01*
X34038Y315168D01*
X36237Y317667D01*
X36238Y317677D01*
X36242Y317680D01*
X36238Y317685D01*
X36241Y317722D01*
X36242Y317725D01*
X35942Y318225D01*
X35935Y318228D01*
X35936Y318233D01*
X33639Y320731D01*
X33255Y321306D01*
X33442Y321772D01*
X34028Y322358D01*
X34502Y322548D01*
X35073Y322357D01*
X35564Y321867D01*
X37762Y319268D01*
X37820Y319255D01*
X37823Y319267D01*
X37835Y319265D01*
X38335Y319765D01*
X38335Y319768D01*
X38338Y319768D01*
X40036Y321767D01*
X40628Y322358D01*
X41100Y322547D01*
X41576Y322357D01*
X42255Y321872D01*
X42349Y321308D01*
X42059Y320728D01*
X39764Y318233D01*
X39764Y318231D01*
X39762Y318231D01*
X39362Y317731D01*
X39361Y317709D01*
X39359Y317707D01*
X39361Y317704D01*
X39360Y317671D01*
X39365Y317671D01*
X39364Y317667D01*
X41664Y315167D01*
X41665Y315166D01*
X41665Y315165D01*
X42157Y314673D01*
X42348Y314102D01*
X42157Y313626D01*
X41671Y313042D01*
X41102Y312852D01*
X40629Y313041D01*
G37*
%LPD*%
%LPC*%
G36*
X90516Y45049D02*
X90516Y45049D01*
X90143Y45330D01*
X89950Y46004D01*
X90047Y46777D01*
X90429Y47159D01*
X91022Y47456D01*
X91030Y47472D01*
X91041Y47473D01*
X91441Y48073D01*
X91440Y48093D01*
X91449Y48100D01*
X91449Y48800D01*
X91443Y48808D01*
X91447Y48814D01*
X91247Y49514D01*
X91230Y49526D01*
X91231Y49538D01*
X90731Y49938D01*
X90695Y49939D01*
X90684Y49947D01*
X90084Y49747D01*
X90073Y49730D01*
X90062Y49731D01*
X89662Y49231D01*
X89661Y49216D01*
X89652Y49209D01*
X89654Y49207D01*
X89651Y49206D01*
X89551Y48408D01*
X89456Y47931D01*
X88984Y47648D01*
X88109Y47551D01*
X87544Y47833D01*
X87449Y48308D01*
X87349Y49106D01*
X87339Y49117D01*
X87342Y49125D01*
X87042Y49625D01*
X86998Y49643D01*
X86992Y49649D01*
X86392Y49549D01*
X86371Y49527D01*
X86358Y49525D01*
X86058Y49025D01*
X86059Y49017D01*
X86053Y49012D01*
X86058Y49005D01*
X86051Y49000D01*
X86051Y48300D01*
X86063Y48284D01*
X86059Y48273D01*
X86459Y47673D01*
X86469Y47669D01*
X86469Y47662D01*
X86962Y47267D01*
X87248Y46790D01*
X87153Y46218D01*
X86768Y45641D01*
X86196Y45451D01*
X85618Y45547D01*
X85031Y45938D01*
X84539Y46431D01*
X84244Y46922D01*
X83948Y47613D01*
X83849Y48303D01*
X83849Y50178D01*
X84833Y51063D01*
X84833Y51065D01*
X84835Y51065D01*
X85327Y51557D01*
X85915Y51753D01*
X86603Y51950D01*
X87289Y51852D01*
X87871Y51658D01*
X88262Y51169D01*
X88292Y51162D01*
X88300Y51151D01*
X88700Y51151D01*
X88721Y51167D01*
X88735Y51165D01*
X89231Y51662D01*
X89818Y52053D01*
X90401Y52150D01*
X91090Y52052D01*
X91780Y51854D01*
X92270Y51561D01*
X92762Y51069D01*
X93155Y50478D01*
X93353Y49884D01*
X93551Y49292D01*
X93551Y47808D01*
X93353Y47216D01*
X93155Y46622D01*
X92762Y46031D01*
X92369Y45638D01*
X91779Y45245D01*
X91093Y45049D01*
X90516Y45049D01*
G37*
%LPD*%
%LPC*%
G36*
X90238Y24043D02*
X90238Y24043D01*
X90048Y24611D01*
X89951Y25489D01*
X90235Y25962D01*
X90822Y26256D01*
X90825Y26263D01*
X90831Y26262D01*
X91331Y26662D01*
X91337Y26687D01*
X91349Y26693D01*
X91449Y27393D01*
X91444Y27402D01*
X91449Y27407D01*
X91349Y28107D01*
X91341Y28115D01*
X91344Y28122D01*
X91044Y28722D01*
X91014Y28737D01*
X91008Y28749D01*
X90408Y28849D01*
X90385Y28837D01*
X90373Y28841D01*
X89773Y28441D01*
X89765Y28418D01*
X89753Y28414D01*
X89553Y27714D01*
X89556Y27704D01*
X89551Y27700D01*
X89551Y27114D01*
X89270Y26645D01*
X88599Y26550D01*
X87727Y26647D01*
X87447Y27020D01*
X87349Y27707D01*
X87249Y28407D01*
X87222Y28434D01*
X87218Y28446D01*
X86718Y28646D01*
X86681Y28636D01*
X86669Y28638D01*
X86169Y28238D01*
X86163Y28213D01*
X86151Y28207D01*
X86051Y27507D01*
X86057Y27497D01*
X86051Y27492D01*
X86151Y26892D01*
X86167Y26877D01*
X86165Y26865D01*
X86665Y26365D01*
X86672Y26364D01*
X86673Y26359D01*
X87251Y25974D01*
X87251Y25410D01*
X86960Y24731D01*
X86483Y24349D01*
X85912Y24349D01*
X85322Y24644D01*
X85264Y24633D01*
X85265Y24627D01*
X85258Y24626D01*
X85240Y24597D01*
X85236Y24634D01*
X85235Y24633D01*
X85235Y24635D01*
X84737Y25133D01*
X84342Y25627D01*
X84048Y26215D01*
X83949Y26907D01*
X83849Y27603D01*
X83849Y28886D01*
X84138Y29367D01*
X84631Y29762D01*
X84632Y29766D01*
X84635Y29765D01*
X85131Y30262D01*
X85722Y30655D01*
X86308Y30851D01*
X86897Y30851D01*
X87580Y30753D01*
X88065Y30365D01*
X88462Y29869D01*
X88519Y29855D01*
X88523Y29869D01*
X88538Y29868D01*
X89035Y30465D01*
X89524Y30856D01*
X90108Y31051D01*
X90797Y31051D01*
X91485Y30952D01*
X92073Y30658D01*
X92563Y30266D01*
X92958Y29674D01*
X93254Y29180D01*
X93452Y28490D01*
X93551Y27797D01*
X93551Y27103D01*
X93452Y26411D01*
X93254Y25819D01*
X92958Y25227D01*
X92565Y24735D01*
X92074Y24343D01*
X91387Y24048D01*
X90701Y23950D01*
X90238Y24043D01*
G37*
%LPD*%
%LPC*%
G36*
X141537Y24334D02*
X141537Y24334D01*
X141149Y24915D01*
X141149Y25384D01*
X142039Y26570D01*
X142039Y26576D01*
X142040Y26577D01*
X142044Y26578D01*
X142344Y27178D01*
X142340Y27198D01*
X142349Y27206D01*
X142249Y28006D01*
X142230Y28025D01*
X142231Y28038D01*
X141731Y28438D01*
X141708Y28439D01*
X141700Y28449D01*
X141100Y28449D01*
X141075Y28430D01*
X141062Y28431D01*
X140662Y27931D01*
X140661Y27918D01*
X140653Y27916D01*
X140453Y27316D01*
X140455Y27309D01*
X140451Y27307D01*
X140352Y26615D01*
X140056Y26022D01*
X140057Y26017D01*
X140053Y26016D01*
X139855Y25422D01*
X139463Y24834D01*
X138973Y24442D01*
X138385Y24148D01*
X137700Y24050D01*
X137007Y24149D01*
X136320Y24247D01*
X135833Y24637D01*
X135337Y25133D01*
X134944Y25624D01*
X134748Y26211D01*
X134649Y26903D01*
X134649Y27696D01*
X134748Y28286D01*
X135044Y28978D01*
X135340Y29471D01*
X135827Y30055D01*
X136293Y30148D01*
X136869Y29861D01*
X137351Y29282D01*
X137351Y28813D01*
X136657Y27625D01*
X136660Y27602D01*
X136651Y27593D01*
X136751Y26893D01*
X136764Y26880D01*
X136762Y26869D01*
X137162Y26369D01*
X137192Y26362D01*
X137200Y26351D01*
X137800Y26351D01*
X137825Y26370D01*
X137838Y26369D01*
X138238Y26869D01*
X138239Y26883D01*
X138247Y26886D01*
X138847Y28886D01*
X139045Y29478D01*
X139437Y30066D01*
X139924Y30456D01*
X140511Y30652D01*
X141200Y30750D01*
X141989Y30652D01*
X142581Y30454D01*
X143171Y30159D01*
X143661Y29670D01*
X143956Y29178D01*
X144252Y28486D01*
X144351Y27896D01*
X144351Y26507D01*
X144154Y25820D01*
X143860Y25329D01*
X143363Y24733D01*
X142968Y24337D01*
X142580Y24047D01*
X142014Y23952D01*
X141537Y24334D01*
G37*
%LPD*%
%LPC*%
G36*
X116233Y23538D02*
X116233Y23538D01*
X115749Y24118D01*
X115749Y24683D01*
X116138Y25169D01*
X116139Y25173D01*
X116141Y25173D01*
X116941Y26373D01*
X116941Y26378D01*
X116943Y26380D01*
X116940Y26383D01*
X116940Y26397D01*
X116949Y26406D01*
X116849Y27206D01*
X116839Y27217D01*
X116842Y27225D01*
X116542Y27725D01*
X116514Y27737D01*
X116507Y27749D01*
X115807Y27849D01*
X115782Y27835D01*
X115769Y27838D01*
X115269Y27438D01*
X115264Y27419D01*
X115253Y27416D01*
X115053Y26816D01*
X115055Y26809D01*
X115051Y26807D01*
X114952Y26110D01*
X114754Y25418D01*
X114457Y24823D01*
X114161Y24331D01*
X113671Y23841D01*
X113085Y23548D01*
X112397Y23449D01*
X111704Y23449D01*
X111115Y23547D01*
X110529Y23841D01*
X110037Y24333D01*
X109644Y24824D01*
X109447Y25415D01*
X109249Y26107D01*
X109249Y26797D01*
X109348Y27490D01*
X109546Y28182D01*
X109842Y28773D01*
X110233Y29262D01*
X110702Y29544D01*
X111273Y29259D01*
X111858Y28771D01*
X112047Y28204D01*
X111758Y27627D01*
X111362Y27131D01*
X111361Y27112D01*
X111351Y27107D01*
X111251Y26407D01*
X111261Y26389D01*
X111256Y26378D01*
X111556Y25778D01*
X111587Y25763D01*
X111593Y25751D01*
X112293Y25651D01*
X112299Y25655D01*
X112304Y25655D01*
X112317Y25665D01*
X112321Y25667D01*
X112335Y25665D01*
X112735Y26065D01*
X112736Y26077D01*
X112744Y26078D01*
X113044Y26678D01*
X113042Y26689D01*
X113049Y26693D01*
X113148Y27390D01*
X113347Y28085D01*
X113546Y28681D01*
X113838Y29266D01*
X114425Y29657D01*
X115015Y29953D01*
X115604Y30051D01*
X116392Y30051D01*
X116981Y29854D01*
X117573Y29558D01*
X118065Y29165D01*
X118457Y28674D01*
X118754Y27982D01*
X118951Y27392D01*
X118951Y26004D01*
X118853Y25415D01*
X118556Y24823D01*
X118162Y24133D01*
X117670Y23739D01*
X117277Y23444D01*
X116706Y23254D01*
X116233Y23538D01*
G37*
%LPD*%
%LPC*%
G36*
X138808Y32949D02*
X138808Y32949D01*
X138212Y33048D01*
X137618Y33246D01*
X136926Y33543D01*
X136433Y33937D01*
X135937Y34433D01*
X135542Y34927D01*
X135245Y35521D01*
X134948Y36214D01*
X134849Y36808D01*
X134749Y37503D01*
X134749Y38097D01*
X134848Y38790D01*
X135046Y39482D01*
X135342Y40073D01*
X135735Y40565D01*
X136211Y40946D01*
X136876Y40756D01*
X137459Y40270D01*
X137647Y39800D01*
X137455Y39320D01*
X137156Y38722D01*
X137156Y38720D01*
X137155Y38719D01*
X137157Y38717D01*
X137157Y38715D01*
X137153Y38714D01*
X136953Y38014D01*
X136956Y38004D01*
X136951Y38000D01*
X136951Y37300D01*
X136958Y37291D01*
X136953Y37284D01*
X137153Y36684D01*
X137158Y36681D01*
X137156Y36678D01*
X137456Y36078D01*
X137466Y36073D01*
X137465Y36065D01*
X137965Y35565D01*
X137977Y35564D01*
X137978Y35556D01*
X138578Y35256D01*
X138585Y35257D01*
X138586Y35253D01*
X139286Y35053D01*
X139296Y35056D01*
X139300Y35051D01*
X140000Y35051D01*
X140009Y35058D01*
X140016Y35053D01*
X140616Y35253D01*
X140619Y35258D01*
X140622Y35256D01*
X141222Y35556D01*
X141230Y35572D01*
X141241Y35573D01*
X142041Y36773D01*
X142040Y36787D01*
X142049Y36792D01*
X142149Y37392D01*
X142146Y37397D01*
X142149Y37400D01*
X142149Y38100D01*
X142143Y38108D01*
X142147Y38114D01*
X141947Y38814D01*
X141939Y38820D01*
X141941Y38827D01*
X141744Y39123D01*
X141454Y39798D01*
X141639Y40169D01*
X142224Y40656D01*
X142816Y40853D01*
X142840Y40888D01*
X142849Y40894D01*
X142852Y40920D01*
X142851Y40904D01*
X142874Y40868D01*
X142875Y40858D01*
X143367Y40562D01*
X143760Y40072D01*
X144054Y39581D01*
X144252Y38790D01*
X144351Y38097D01*
X144351Y37503D01*
X144251Y36808D01*
X144153Y36215D01*
X143557Y35025D01*
X143162Y34431D01*
X142671Y33941D01*
X142078Y33644D01*
X142076Y33640D01*
X142073Y33641D01*
X141478Y33245D01*
X140888Y33048D01*
X140292Y32949D01*
X140253Y32908D01*
X140251Y32905D01*
X140256Y32900D01*
X140251Y32896D01*
X140252Y32882D01*
X140249Y32907D01*
X140207Y32949D01*
X140201Y32943D01*
X140201Y32944D01*
X140198Y32944D01*
X140193Y32949D01*
X139500Y32850D01*
X138808Y32949D01*
G37*
%LPD*%
%LPC*%
G36*
X219908Y312849D02*
X219908Y312849D01*
X219332Y313041D01*
X218943Y313625D01*
X215349Y320911D01*
X215349Y321483D01*
X215731Y321960D01*
X216410Y322251D01*
X216976Y322251D01*
X217358Y321773D01*
X217556Y321379D01*
X219655Y316780D01*
X219955Y316081D01*
X220006Y316051D01*
X220012Y316061D01*
X220022Y316056D01*
X220222Y316156D01*
X220232Y316176D01*
X220245Y316179D01*
X222545Y321079D01*
X222544Y321080D01*
X222545Y321081D01*
X222843Y321774D01*
X223224Y322251D01*
X223795Y322251D01*
X224276Y322155D01*
X224758Y321672D01*
X224947Y321201D01*
X224655Y320520D01*
X221356Y313822D01*
X221061Y313232D01*
X220583Y312849D01*
X219908Y312849D01*
G37*
%LPD*%
%LPC*%
G36*
X85345Y33120D02*
X85345Y33120D01*
X85306Y33141D01*
X85300Y33149D01*
X84820Y33149D01*
X84342Y33628D01*
X84053Y34302D01*
X84242Y34870D01*
X84626Y35158D01*
X85221Y35456D01*
X89820Y37555D01*
X89821Y37556D01*
X89822Y37556D01*
X90422Y37856D01*
X90425Y37862D01*
X90432Y37863D01*
X90431Y37875D01*
X90448Y37909D01*
X90429Y37919D01*
X90427Y37941D01*
X90127Y38141D01*
X90122Y38141D01*
X90121Y38145D01*
X85121Y40445D01*
X85117Y40444D01*
X85116Y40447D01*
X84529Y40642D01*
X84149Y41117D01*
X84149Y41691D01*
X84342Y42172D01*
X84820Y42651D01*
X85293Y42651D01*
X85982Y42454D01*
X92675Y39157D01*
X93263Y38765D01*
X93551Y38286D01*
X93551Y37612D01*
X93263Y37037D01*
X92678Y36744D01*
X85978Y33444D01*
X85378Y33144D01*
X85360Y33107D01*
X85356Y33105D01*
X85358Y33103D01*
X85355Y33098D01*
X85345Y33120D01*
G37*
%LPD*%
%LPC*%
G36*
X240248Y71306D02*
X240248Y71306D01*
X238697Y71573D01*
X238255Y71832D01*
X237368Y72394D01*
X237013Y72750D01*
X236440Y73629D01*
X236186Y74073D01*
X235912Y75619D01*
X235897Y76129D01*
X236169Y77678D01*
X236377Y78139D01*
X237033Y79121D01*
X237033Y79132D01*
X237258Y79423D01*
X238577Y80266D01*
X239069Y80398D01*
X240622Y80669D01*
X241161Y80649D01*
X241167Y80257D01*
X241167Y78237D01*
X240817Y78256D01*
X240811Y78253D01*
X240801Y78255D01*
X240283Y78158D01*
X240279Y78153D01*
X240270Y78154D01*
X239796Y77952D01*
X239792Y77946D01*
X239781Y77943D01*
X239366Y77617D01*
X239363Y77607D01*
X239349Y77597D01*
X239100Y77131D01*
X239100Y77126D01*
X239096Y77121D01*
X238928Y76628D01*
X238929Y76623D01*
X238925Y76617D01*
X238848Y76094D01*
X238850Y76089D01*
X238847Y76081D01*
X238879Y75558D01*
X238880Y75556D01*
X238880Y75552D01*
X238956Y75029D01*
X238962Y75023D01*
X238962Y75010D01*
X239200Y74540D01*
X239205Y74537D01*
X239207Y74530D01*
X239524Y74121D01*
X239530Y74118D01*
X239535Y74109D01*
X239952Y73785D01*
X239963Y73784D01*
X239977Y73773D01*
X240494Y73661D01*
X240498Y73662D01*
X240504Y73659D01*
X241169Y73626D01*
X241167Y73390D01*
X241167Y73389D01*
X241167Y71259D01*
X240765Y71249D01*
X240248Y71306D01*
G37*
%LPD*%
%LPC*%
G36*
X27909Y262049D02*
X27909Y262049D01*
X27440Y262237D01*
X27249Y262808D01*
X27249Y269600D01*
X27213Y269647D01*
X27206Y269642D01*
X27200Y269649D01*
X24512Y269649D01*
X23940Y269935D01*
X23750Y270505D01*
X23846Y271173D01*
X23877Y271156D01*
X23914Y271163D01*
X23925Y271158D01*
X24414Y271451D01*
X32092Y271451D01*
X32656Y271263D01*
X32751Y270597D01*
X32751Y269930D01*
X32188Y269649D01*
X29500Y269649D01*
X29453Y269613D01*
X29455Y269610D01*
X29451Y269608D01*
X29351Y269008D01*
X29354Y269003D01*
X29351Y269000D01*
X29351Y262908D01*
X29159Y262333D01*
X28686Y262049D01*
X27909Y262049D01*
G37*
%LPD*%
%LPC*%
G36*
X135614Y43249D02*
X135614Y43249D01*
X135141Y43533D01*
X134950Y44105D01*
X135047Y44981D01*
X135328Y45355D01*
X135905Y45451D01*
X142001Y45551D01*
X142500Y45551D01*
X142547Y45587D01*
X142542Y45595D01*
X142549Y45600D01*
X142549Y48897D01*
X142646Y49574D01*
X143117Y49951D01*
X143786Y49951D01*
X144255Y49670D01*
X144351Y48997D01*
X144351Y44203D01*
X144255Y43535D01*
X143787Y43348D01*
X143097Y43249D01*
X135614Y43249D01*
G37*
%LPD*%
%LPC*%
G36*
X228564Y71349D02*
X228564Y71349D01*
X228570Y71719D01*
X228570Y71720D01*
X228570Y80568D01*
X228586Y80568D01*
X228587Y80568D01*
X231502Y80568D01*
X231502Y71446D01*
X231503Y71444D01*
X231502Y71441D01*
X231509Y71349D01*
X228564Y71349D01*
G37*
%LPD*%
%LPC*%
G36*
X232243Y71349D02*
X232243Y71349D01*
X232249Y71770D01*
X232248Y71771D01*
X232249Y71771D01*
X232274Y80568D01*
X232316Y80568D01*
X235180Y80568D01*
X235180Y71399D01*
X235174Y71349D01*
X232243Y71349D01*
G37*
%LPD*%
%LPC*%
G36*
X201923Y312947D02*
X201923Y312947D01*
X201549Y313320D01*
X201549Y318000D01*
X201544Y318007D01*
X201548Y318012D01*
X201448Y318412D01*
X201401Y318449D01*
X201391Y318436D01*
X201376Y318443D01*
X200687Y318049D01*
X200218Y318049D01*
X199639Y318531D01*
X199352Y319107D01*
X199446Y319578D01*
X199935Y320165D01*
X201432Y321463D01*
X201445Y321521D01*
X201435Y321523D01*
X201437Y321532D01*
X201416Y321557D01*
X201422Y321556D01*
X201423Y321563D01*
X201430Y321561D01*
X202317Y322251D01*
X202992Y322251D01*
X203561Y322061D01*
X203751Y321492D01*
X203751Y313414D01*
X203470Y312946D01*
X202700Y312850D01*
X201923Y312947D01*
G37*
%LPD*%
%LPC*%
G36*
X186704Y24149D02*
X186704Y24149D01*
X186128Y24245D01*
X185847Y24619D01*
X185750Y25495D01*
X185941Y26067D01*
X186414Y26351D01*
X193897Y26351D01*
X194587Y26252D01*
X195055Y26065D01*
X195150Y25300D01*
X195053Y24519D01*
X194775Y24149D01*
X186704Y24149D01*
G37*
%LPD*%
%LPC*%
G36*
X227916Y312849D02*
X227916Y312849D01*
X227545Y313128D01*
X227449Y313705D01*
X227349Y320500D01*
X227349Y321100D01*
X227313Y321147D01*
X227307Y321142D01*
X227302Y321149D01*
X227267Y321151D01*
X227300Y321151D01*
X227347Y321187D01*
X227345Y321190D01*
X227349Y321192D01*
X227446Y321776D01*
X227823Y322153D01*
X228596Y322250D01*
X229271Y322057D01*
X229551Y321684D01*
X229551Y313509D01*
X229363Y313040D01*
X228792Y312849D01*
X227916Y312849D01*
G37*
%LPD*%
G36*
X116533Y34576D02*
X116533Y34576D01*
X116544Y34578D01*
X116744Y34978D01*
X116744Y34980D01*
X116744Y34981D01*
X116743Y34982D01*
X116741Y34994D01*
X116749Y35000D01*
X116749Y36400D01*
X116740Y36413D01*
X116744Y36422D01*
X116344Y37222D01*
X116337Y37225D01*
X116338Y37231D01*
X115938Y37731D01*
X115928Y37733D01*
X115927Y37741D01*
X115327Y38141D01*
X115318Y38140D01*
X115316Y38147D01*
X114716Y38347D01*
X114705Y38343D01*
X114700Y38349D01*
X114000Y38349D01*
X113992Y38343D01*
X113986Y38347D01*
X113286Y38147D01*
X113282Y38142D01*
X113278Y38144D01*
X112678Y37844D01*
X112671Y37831D01*
X112662Y37831D01*
X112262Y37331D01*
X112261Y37327D01*
X112259Y37327D01*
X111859Y36727D01*
X111860Y36713D01*
X111851Y36708D01*
X111751Y36108D01*
X111754Y36103D01*
X111751Y36100D01*
X111751Y34700D01*
X111787Y34653D01*
X111790Y34655D01*
X111792Y34651D01*
X112392Y34551D01*
X112397Y34554D01*
X112400Y34551D01*
X116500Y34551D01*
X116533Y34576D01*
G37*
G36*
X225109Y289658D02*
X225109Y289658D01*
X225116Y289653D01*
X225416Y289753D01*
X225425Y289767D01*
X225435Y289765D01*
X225935Y290265D01*
X225935Y290269D01*
X225938Y290269D01*
X226338Y290769D01*
X226339Y290777D01*
X226344Y290778D01*
X226644Y291378D01*
X226642Y291389D01*
X226649Y291393D01*
X226749Y292093D01*
X226745Y292100D01*
X226746Y292100D01*
X226744Y292102D01*
X226749Y292107D01*
X226649Y292807D01*
X226641Y292815D01*
X226644Y292822D01*
X226344Y293422D01*
X226337Y293425D01*
X226338Y293431D01*
X225938Y293931D01*
X225931Y293933D01*
X225931Y293938D01*
X225431Y294338D01*
X225423Y294339D01*
X225422Y294344D01*
X224822Y294644D01*
X224806Y294641D01*
X224800Y294649D01*
X223400Y294649D01*
X223382Y294636D01*
X223370Y294639D01*
X222970Y294339D01*
X222962Y294308D01*
X222951Y294300D01*
X222951Y290300D01*
X222954Y290295D01*
X222951Y290292D01*
X223051Y289692D01*
X223095Y289651D01*
X223098Y289654D01*
X223100Y289651D01*
X225100Y289651D01*
X225109Y289658D01*
G37*
G36*
X65305Y47154D02*
X65305Y47154D01*
X65308Y47151D01*
X65908Y47251D01*
X65949Y47295D01*
X65946Y47298D01*
X65949Y47300D01*
X65949Y49300D01*
X65940Y49313D01*
X65944Y49322D01*
X65844Y49522D01*
X65834Y49527D01*
X65835Y49535D01*
X64835Y50535D01*
X64819Y50537D01*
X64816Y50547D01*
X64216Y50747D01*
X64211Y50745D01*
X64210Y50746D01*
X64209Y50746D01*
X64207Y50749D01*
X63507Y50849D01*
X63502Y50846D01*
X63500Y50849D01*
X62800Y50849D01*
X62794Y50845D01*
X62791Y50845D01*
X62785Y50841D01*
X62778Y50844D01*
X62178Y50544D01*
X62175Y50537D01*
X62169Y50538D01*
X61669Y50138D01*
X61667Y50131D01*
X61662Y50131D01*
X61262Y49631D01*
X61261Y49621D01*
X61255Y49619D01*
X60955Y48919D01*
X60958Y48906D01*
X60951Y48900D01*
X60951Y47600D01*
X60964Y47582D01*
X60961Y47570D01*
X61261Y47170D01*
X61292Y47162D01*
X61300Y47151D01*
X65300Y47151D01*
X65305Y47154D01*
G37*
G36*
X49313Y289660D02*
X49313Y289660D01*
X49322Y289656D01*
X49522Y289756D01*
X49527Y289766D01*
X49535Y289765D01*
X50535Y290765D01*
X50537Y290781D01*
X50547Y290784D01*
X50747Y291384D01*
X50745Y291391D01*
X50749Y291393D01*
X50849Y292093D01*
X50846Y292098D01*
X50849Y292100D01*
X50849Y292800D01*
X50840Y292813D01*
X50844Y292822D01*
X50544Y293422D01*
X50537Y293425D01*
X50538Y293431D01*
X50138Y293931D01*
X50131Y293933D01*
X50131Y293938D01*
X49631Y294338D01*
X49621Y294339D01*
X49619Y294345D01*
X48919Y294645D01*
X48906Y294642D01*
X48900Y294649D01*
X47600Y294649D01*
X47582Y294636D01*
X47570Y294639D01*
X47170Y294339D01*
X47162Y294308D01*
X47151Y294300D01*
X47151Y290300D01*
X47154Y290295D01*
X47151Y290292D01*
X47251Y289692D01*
X47295Y289651D01*
X47298Y289654D01*
X47300Y289651D01*
X49300Y289651D01*
X49313Y289660D01*
G37*
G36*
X206476Y73594D02*
X206476Y73594D01*
X206480Y73597D01*
X206487Y73596D01*
X206995Y73724D01*
X207002Y73731D01*
X207017Y73735D01*
X207439Y74053D01*
X207442Y74060D01*
X207450Y74064D01*
X207774Y74468D01*
X207774Y74473D01*
X207779Y74477D01*
X208036Y74939D01*
X208035Y74948D01*
X208043Y74960D01*
X208123Y75483D01*
X208122Y75484D01*
X208123Y75486D01*
X208173Y76009D01*
X208170Y76015D01*
X208173Y76024D01*
X208093Y76547D01*
X208091Y76550D01*
X208091Y76555D01*
X207947Y77055D01*
X207943Y77059D01*
X207942Y77068D01*
X207685Y77530D01*
X207677Y77534D01*
X207672Y77546D01*
X207287Y77896D01*
X207281Y77897D01*
X207276Y77904D01*
X206827Y78163D01*
X206819Y78163D01*
X206808Y78170D01*
X206291Y78277D01*
X206284Y78274D01*
X206273Y78278D01*
X205755Y78235D01*
X205751Y78232D01*
X205745Y78234D01*
X205237Y78105D01*
X205230Y78098D01*
X205215Y78094D01*
X204792Y77778D01*
X204789Y77771D01*
X204780Y77767D01*
X204456Y77364D01*
X204455Y77359D01*
X204450Y77355D01*
X204192Y76893D01*
X204193Y76884D01*
X204185Y76872D01*
X204105Y76350D01*
X204105Y76348D01*
X204104Y76346D01*
X204054Y75824D01*
X204057Y75818D01*
X204054Y75808D01*
X204135Y75286D01*
X204137Y75283D01*
X204137Y75278D01*
X204283Y74778D01*
X204288Y74774D01*
X204289Y74765D01*
X204546Y74303D01*
X204554Y74299D01*
X204559Y74287D01*
X204945Y73938D01*
X204951Y73937D01*
X204956Y73931D01*
X205405Y73671D01*
X205413Y73671D01*
X205423Y73663D01*
X205941Y73557D01*
X205948Y73560D01*
X205958Y73556D01*
X206476Y73594D01*
G37*
G36*
X27904Y317754D02*
X27904Y317754D01*
X27907Y317751D01*
X28607Y317851D01*
X28622Y317867D01*
X28635Y317865D01*
X29035Y318265D01*
X29036Y318277D01*
X29040Y318279D01*
X29037Y318283D01*
X29047Y318286D01*
X29247Y318986D01*
X29238Y319010D01*
X29244Y319022D01*
X28944Y319622D01*
X28928Y319630D01*
X28927Y319641D01*
X28327Y320041D01*
X28313Y320040D01*
X28308Y320049D01*
X27708Y320149D01*
X27703Y320146D01*
X27700Y320149D01*
X27000Y320149D01*
X26995Y320146D01*
X26992Y320149D01*
X26392Y320049D01*
X26351Y320005D01*
X26354Y320003D01*
X26351Y320000D01*
X26351Y318000D01*
X26367Y317979D01*
X26365Y317965D01*
X26565Y317765D01*
X26592Y317762D01*
X26600Y317751D01*
X27900Y317751D01*
X27904Y317754D01*
G37*
G36*
X226111Y266859D02*
X226111Y266859D01*
X226118Y266854D01*
X227118Y267254D01*
X227133Y267278D01*
X227146Y267282D01*
X227346Y267782D01*
X227341Y267799D01*
X227349Y267807D01*
X227249Y268507D01*
X227236Y268520D01*
X227238Y268531D01*
X226838Y269031D01*
X226819Y269036D01*
X226816Y269047D01*
X226216Y269247D01*
X226205Y269243D01*
X226200Y269249D01*
X224800Y269249D01*
X224767Y269224D01*
X224756Y269222D01*
X224556Y268822D01*
X224559Y268806D01*
X224551Y268800D01*
X224551Y267400D01*
X224555Y267394D01*
X224552Y267390D01*
X224652Y266890D01*
X224696Y266851D01*
X224698Y266853D01*
X224700Y266851D01*
X226100Y266851D01*
X226111Y266859D01*
G37*
%LPC*%
G36*
X213349Y392779D02*
X213349Y392779D01*
X213349Y394705D01*
X213716Y394981D01*
X215088Y394981D01*
X215666Y394692D01*
X216051Y394115D01*
X216051Y393447D01*
X215671Y392973D01*
X214993Y392779D01*
X213349Y392779D01*
G37*
%LPD*%
%LPC*%
G36*
X189349Y392679D02*
X189349Y392679D01*
X189349Y394605D01*
X189716Y394881D01*
X190992Y394881D01*
X191568Y394689D01*
X191951Y394115D01*
X191951Y393444D01*
X191663Y392964D01*
X191284Y392679D01*
X189349Y392679D01*
G37*
%LPD*%
G36*
X114995Y46159D02*
X114995Y46159D01*
X115037Y46168D01*
X115033Y46188D01*
X115049Y46200D01*
X115049Y47600D01*
X115028Y47628D01*
X115027Y47641D01*
X114727Y47841D01*
X114689Y47839D01*
X114678Y47844D01*
X113478Y47244D01*
X113452Y47191D01*
X113460Y47187D01*
X113456Y47178D01*
X113656Y46778D01*
X113677Y46768D01*
X113679Y46755D01*
X114979Y46155D01*
X114984Y46156D01*
X114987Y46153D01*
X114995Y46159D01*
G37*
D10*
X85852Y129540D02*
X85852Y99060D01*
X35560Y354330D02*
X35560Y384810D01*
X219710Y384810D02*
X219710Y354330D01*
D11*
X78000Y383150D02*
X56000Y383150D01*
X56000Y361150D01*
X56000Y261150D02*
X56000Y239150D01*
X77000Y239150D01*
X177000Y239150D02*
X198000Y239150D01*
X198000Y261150D01*
X198000Y361150D02*
X198000Y383150D01*
X177000Y383150D01*
D12*
X66000Y394150D03*
D13*
X4800Y142000D02*
X4800Y112000D01*
X30800Y157000D02*
X47300Y157000D01*
X47300Y104500D02*
X47300Y97000D01*
X30800Y97000D01*
X47300Y149500D02*
X47300Y157000D01*
X52784Y152000D02*
X52786Y152063D01*
X52792Y152126D01*
X52802Y152189D01*
X52815Y152250D01*
X52833Y152311D01*
X52854Y152370D01*
X52879Y152429D01*
X52907Y152485D01*
X52939Y152540D01*
X52974Y152592D01*
X53013Y152642D01*
X53054Y152690D01*
X53099Y152735D01*
X53146Y152777D01*
X53195Y152816D01*
X53247Y152852D01*
X53301Y152885D01*
X53357Y152914D01*
X53415Y152940D01*
X53474Y152962D01*
X53534Y152981D01*
X53596Y152995D01*
X53658Y153006D01*
X53721Y153013D01*
X53784Y153016D01*
X53847Y153015D01*
X53910Y153010D01*
X53973Y153001D01*
X54035Y152988D01*
X54096Y152972D01*
X54156Y152952D01*
X54214Y152928D01*
X54271Y152900D01*
X54326Y152869D01*
X54379Y152835D01*
X54430Y152797D01*
X54478Y152756D01*
X54524Y152713D01*
X54567Y152666D01*
X54607Y152617D01*
X54644Y152566D01*
X54677Y152513D01*
X54707Y152457D01*
X54734Y152400D01*
X54757Y152341D01*
X54776Y152281D01*
X54792Y152219D01*
X54804Y152157D01*
X54812Y152095D01*
X54816Y152032D01*
X54816Y151968D01*
X54812Y151905D01*
X54804Y151843D01*
X54792Y151781D01*
X54776Y151719D01*
X54757Y151659D01*
X54734Y151600D01*
X54707Y151543D01*
X54677Y151487D01*
X54644Y151434D01*
X54607Y151383D01*
X54567Y151334D01*
X54524Y151287D01*
X54478Y151244D01*
X54430Y151203D01*
X54379Y151165D01*
X54326Y151131D01*
X54271Y151100D01*
X54214Y151072D01*
X54156Y151048D01*
X54096Y151028D01*
X54035Y151012D01*
X53973Y150999D01*
X53910Y150990D01*
X53847Y150985D01*
X53784Y150984D01*
X53721Y150987D01*
X53658Y150994D01*
X53596Y151005D01*
X53534Y151019D01*
X53474Y151038D01*
X53415Y151060D01*
X53357Y151086D01*
X53301Y151115D01*
X53247Y151148D01*
X53195Y151184D01*
X53146Y151223D01*
X53099Y151265D01*
X53054Y151310D01*
X53013Y151358D01*
X52974Y151408D01*
X52939Y151460D01*
X52907Y151515D01*
X52879Y151571D01*
X52854Y151630D01*
X52833Y151689D01*
X52815Y151750D01*
X52802Y151811D01*
X52792Y151874D01*
X52786Y151937D01*
X52784Y152000D01*
X249200Y142000D02*
X249200Y112000D01*
X223200Y97000D02*
X206700Y97000D01*
X206700Y149500D02*
X206700Y157000D01*
X223200Y157000D01*
X206700Y104500D02*
X206700Y97000D01*
X199184Y102000D02*
X199186Y102063D01*
X199192Y102126D01*
X199202Y102189D01*
X199215Y102250D01*
X199233Y102311D01*
X199254Y102370D01*
X199279Y102429D01*
X199307Y102485D01*
X199339Y102540D01*
X199374Y102592D01*
X199413Y102642D01*
X199454Y102690D01*
X199499Y102735D01*
X199546Y102777D01*
X199595Y102816D01*
X199647Y102852D01*
X199701Y102885D01*
X199757Y102914D01*
X199815Y102940D01*
X199874Y102962D01*
X199934Y102981D01*
X199996Y102995D01*
X200058Y103006D01*
X200121Y103013D01*
X200184Y103016D01*
X200247Y103015D01*
X200310Y103010D01*
X200373Y103001D01*
X200435Y102988D01*
X200496Y102972D01*
X200556Y102952D01*
X200614Y102928D01*
X200671Y102900D01*
X200726Y102869D01*
X200779Y102835D01*
X200830Y102797D01*
X200878Y102756D01*
X200924Y102713D01*
X200967Y102666D01*
X201007Y102617D01*
X201044Y102566D01*
X201077Y102513D01*
X201107Y102457D01*
X201134Y102400D01*
X201157Y102341D01*
X201176Y102281D01*
X201192Y102219D01*
X201204Y102157D01*
X201212Y102095D01*
X201216Y102032D01*
X201216Y101968D01*
X201212Y101905D01*
X201204Y101843D01*
X201192Y101781D01*
X201176Y101719D01*
X201157Y101659D01*
X201134Y101600D01*
X201107Y101543D01*
X201077Y101487D01*
X201044Y101434D01*
X201007Y101383D01*
X200967Y101334D01*
X200924Y101287D01*
X200878Y101244D01*
X200830Y101203D01*
X200779Y101165D01*
X200726Y101131D01*
X200671Y101100D01*
X200614Y101072D01*
X200556Y101048D01*
X200496Y101028D01*
X200435Y101012D01*
X200373Y100999D01*
X200310Y100990D01*
X200247Y100985D01*
X200184Y100984D01*
X200121Y100987D01*
X200058Y100994D01*
X199996Y101005D01*
X199934Y101019D01*
X199874Y101038D01*
X199815Y101060D01*
X199757Y101086D01*
X199701Y101115D01*
X199647Y101148D01*
X199595Y101184D01*
X199546Y101223D01*
X199499Y101265D01*
X199454Y101310D01*
X199413Y101358D01*
X199374Y101408D01*
X199339Y101460D01*
X199307Y101515D01*
X199279Y101571D01*
X199254Y101630D01*
X199233Y101689D01*
X199215Y101750D01*
X199202Y101811D01*
X199192Y101874D01*
X199186Y101937D01*
X199184Y102000D01*
D14*
X112337Y131986D03*
D13*
X118250Y130086D02*
X135750Y130086D01*
X135750Y98514D02*
X118250Y98514D01*
X80090Y139800D02*
X80090Y152300D01*
X88790Y152300D02*
X106790Y152300D01*
X106790Y139800D02*
X88790Y139800D01*
X159500Y164350D02*
X159500Y187350D01*
X159500Y164350D02*
X111500Y164350D01*
X94500Y181350D01*
X94500Y187350D01*
X94500Y206350D02*
X94500Y212350D01*
X111500Y229350D01*
X159500Y229350D01*
X159500Y206350D01*
X156500Y187350D02*
X156259Y186632D01*
X156000Y185919D01*
X155724Y185214D01*
X155431Y184515D01*
X155121Y183823D01*
X154794Y183140D01*
X154451Y182464D01*
X154091Y181797D01*
X153715Y181139D01*
X153323Y180491D01*
X152915Y179852D01*
X152492Y179224D01*
X152053Y178606D01*
X151600Y177999D01*
X151131Y177403D01*
X150649Y176819D01*
X150152Y176247D01*
X149641Y175687D01*
X149117Y175140D01*
X148580Y174605D01*
X148029Y174084D01*
X147466Y173577D01*
X146891Y173084D01*
X146304Y172604D01*
X145706Y172140D01*
X145096Y171690D01*
X144475Y171255D01*
X143844Y170835D01*
X143203Y170431D01*
X142553Y170043D01*
X141892Y169671D01*
X141224Y169315D01*
X140546Y168975D01*
X139860Y168652D01*
X139167Y168346D01*
X138467Y168057D01*
X137759Y167786D01*
X137046Y167531D01*
X136326Y167294D01*
X135600Y167075D01*
X134870Y166874D01*
X134135Y166690D01*
X133395Y166525D01*
X132652Y166378D01*
X131905Y166249D01*
X131155Y166138D01*
X130403Y166045D01*
X129649Y165971D01*
X128893Y165916D01*
X128136Y165879D01*
X127379Y165860D01*
X126621Y165860D01*
X125864Y165879D01*
X125107Y165916D01*
X124351Y165971D01*
X123597Y166045D01*
X122845Y166138D01*
X122095Y166249D01*
X121348Y166378D01*
X120605Y166525D01*
X119865Y166690D01*
X119130Y166874D01*
X118400Y167075D01*
X117674Y167294D01*
X116954Y167531D01*
X116241Y167786D01*
X115533Y168057D01*
X114833Y168346D01*
X114140Y168652D01*
X113454Y168975D01*
X112776Y169315D01*
X112108Y169671D01*
X111447Y170043D01*
X110797Y170431D01*
X110156Y170835D01*
X109525Y171255D01*
X108904Y171690D01*
X108294Y172140D01*
X107696Y172604D01*
X107109Y173084D01*
X106534Y173577D01*
X105971Y174084D01*
X105420Y174605D01*
X104883Y175140D01*
X104359Y175687D01*
X103848Y176247D01*
X103351Y176819D01*
X102869Y177403D01*
X102400Y177999D01*
X101947Y178606D01*
X101508Y179224D01*
X101085Y179852D01*
X100677Y180491D01*
X100285Y181139D01*
X99909Y181797D01*
X99549Y182464D01*
X99206Y183140D01*
X98879Y183823D01*
X98569Y184515D01*
X98276Y185214D01*
X98000Y185919D01*
X97741Y186632D01*
X97500Y187350D01*
X97500Y206350D02*
X97741Y207068D01*
X98000Y207781D01*
X98276Y208486D01*
X98569Y209185D01*
X98879Y209877D01*
X99206Y210560D01*
X99549Y211236D01*
X99909Y211903D01*
X100285Y212561D01*
X100677Y213209D01*
X101085Y213848D01*
X101508Y214476D01*
X101947Y215094D01*
X102400Y215701D01*
X102869Y216297D01*
X103351Y216881D01*
X103848Y217453D01*
X104359Y218013D01*
X104883Y218560D01*
X105420Y219095D01*
X105971Y219616D01*
X106534Y220123D01*
X107109Y220616D01*
X107696Y221096D01*
X108294Y221560D01*
X108904Y222010D01*
X109525Y222445D01*
X110156Y222865D01*
X110797Y223269D01*
X111447Y223657D01*
X112108Y224029D01*
X112776Y224385D01*
X113454Y224725D01*
X114140Y225048D01*
X114833Y225354D01*
X115533Y225643D01*
X116241Y225914D01*
X116954Y226169D01*
X117674Y226406D01*
X118400Y226625D01*
X119130Y226826D01*
X119865Y227010D01*
X120605Y227175D01*
X121348Y227322D01*
X122095Y227451D01*
X122845Y227562D01*
X123597Y227655D01*
X124351Y227729D01*
X125107Y227784D01*
X125864Y227821D01*
X126621Y227840D01*
X127379Y227840D01*
X128136Y227821D01*
X128893Y227784D01*
X129649Y227729D01*
X130403Y227655D01*
X131155Y227562D01*
X131905Y227451D01*
X132652Y227322D01*
X133395Y227175D01*
X134135Y227010D01*
X134870Y226826D01*
X135600Y226625D01*
X136326Y226406D01*
X137046Y226169D01*
X137759Y225914D01*
X138467Y225643D01*
X139167Y225354D01*
X139860Y225048D01*
X140546Y224725D01*
X141224Y224385D01*
X141892Y224029D01*
X142553Y223657D01*
X143203Y223269D01*
X143844Y222865D01*
X144475Y222445D01*
X145096Y222010D01*
X145706Y221560D01*
X146304Y221096D01*
X146891Y220616D01*
X147466Y220123D01*
X148029Y219616D01*
X148580Y219095D01*
X149117Y218560D01*
X149641Y218013D01*
X150152Y217453D01*
X150649Y216881D01*
X151131Y216297D01*
X151600Y215701D01*
X152053Y215094D01*
X152492Y214476D01*
X152915Y213848D01*
X153323Y213209D01*
X153715Y212561D01*
X154091Y211903D01*
X154451Y211236D01*
X154794Y210560D01*
X155121Y209877D01*
X155431Y209185D01*
X155724Y208486D01*
X156000Y207781D01*
X156259Y207068D01*
X156500Y206350D01*
X183515Y387668D02*
X183515Y397193D01*
M02*
