G04 EAGLE Gerber RS-274X export*
G75*
%MOMM*%
%FSLAX34Y34*%
%LPD*%
%INSolderpaste Top*%
%IPPOS*%
%AMOC8*
5,1,8,0,0,1.08239X$1,22.5*%
G01*
%ADD10R,1.500000X1.850000*%
%ADD11R,1.500000X1.300000*%
%ADD12R,1.210000X1.100000*%
%ADD13R,1.160000X1.160000*%
%ADD14C,0.104000*%
%ADD15C,0.096000*%
%ADD16C,0.102000*%
%ADD17C,0.100653*%
%ADD18C,0.100000*%
%ADD19C,0.100800*%
%ADD20C,0.098000*%
%ADD21C,0.300000*%


D10*
X77500Y361950D03*
X77500Y260350D03*
X176500Y361950D03*
X176500Y260350D03*
D11*
X176500Y336550D03*
X176500Y311150D03*
X176500Y285750D03*
X77500Y336550D03*
X77500Y311150D03*
X77500Y285750D03*
D12*
X156500Y344200D03*
X156500Y331200D03*
X142400Y344200D03*
X142400Y331200D03*
X111600Y355700D03*
X111600Y342700D03*
X97500Y355700D03*
X97500Y342700D03*
D13*
X157950Y282450D03*
X157950Y268850D03*
X144350Y282450D03*
X144350Y268850D03*
X109650Y282450D03*
X109650Y268850D03*
X96050Y282450D03*
X96050Y268850D03*
D14*
X136330Y151530D02*
X143290Y151530D01*
X143290Y140570D01*
X136330Y140570D01*
X136330Y151530D01*
X136330Y141558D02*
X143290Y141558D01*
X143290Y142546D02*
X136330Y142546D01*
X136330Y143534D02*
X143290Y143534D01*
X143290Y144522D02*
X136330Y144522D01*
X136330Y145510D02*
X143290Y145510D01*
X143290Y146498D02*
X136330Y146498D01*
X136330Y147486D02*
X143290Y147486D01*
X143290Y148474D02*
X136330Y148474D01*
X136330Y149462D02*
X143290Y149462D01*
X143290Y150450D02*
X136330Y150450D01*
X136330Y151438D02*
X143290Y151438D01*
X125290Y151530D02*
X118330Y151530D01*
X125290Y151530D02*
X125290Y140570D01*
X118330Y140570D01*
X118330Y151530D01*
X118330Y141558D02*
X125290Y141558D01*
X125290Y142546D02*
X118330Y142546D01*
X118330Y143534D02*
X125290Y143534D01*
X125290Y144522D02*
X118330Y144522D01*
X118330Y145510D02*
X125290Y145510D01*
X125290Y146498D02*
X118330Y146498D01*
X118330Y147486D02*
X125290Y147486D01*
X125290Y148474D02*
X118330Y148474D01*
X118330Y149462D02*
X125290Y149462D01*
X125290Y150450D02*
X118330Y150450D01*
X118330Y151438D02*
X125290Y151438D01*
D15*
X4530Y149480D02*
X4530Y160520D01*
X23570Y160520D01*
X23570Y149480D01*
X4530Y149480D01*
X4530Y150392D02*
X23570Y150392D01*
X23570Y151304D02*
X4530Y151304D01*
X4530Y152216D02*
X23570Y152216D01*
X23570Y153128D02*
X4530Y153128D01*
X4530Y154040D02*
X23570Y154040D01*
X23570Y154952D02*
X4530Y154952D01*
X4530Y155864D02*
X23570Y155864D01*
X23570Y156776D02*
X4530Y156776D01*
X4530Y157688D02*
X23570Y157688D01*
X23570Y158600D02*
X4530Y158600D01*
X4530Y159512D02*
X23570Y159512D01*
X23570Y160424D02*
X4530Y160424D01*
X4530Y104520D02*
X4530Y93480D01*
X4530Y104520D02*
X23570Y104520D01*
X23570Y93480D01*
X4530Y93480D01*
X4530Y94392D02*
X23570Y94392D01*
X23570Y95304D02*
X4530Y95304D01*
X4530Y96216D02*
X23570Y96216D01*
X23570Y97128D02*
X4530Y97128D01*
X4530Y98040D02*
X23570Y98040D01*
X23570Y98952D02*
X4530Y98952D01*
X4530Y99864D02*
X23570Y99864D01*
X23570Y100776D02*
X4530Y100776D01*
X4530Y101688D02*
X23570Y101688D01*
X23570Y102600D02*
X4530Y102600D01*
X4530Y103512D02*
X23570Y103512D01*
X23570Y104424D02*
X4530Y104424D01*
D16*
X44560Y139510D02*
X44560Y144490D01*
X57040Y144490D01*
X57040Y139510D01*
X44560Y139510D01*
X44560Y140479D02*
X57040Y140479D01*
X57040Y141448D02*
X44560Y141448D01*
X44560Y142417D02*
X57040Y142417D01*
X57040Y143386D02*
X44560Y143386D01*
X44560Y144355D02*
X57040Y144355D01*
X44560Y134490D02*
X44560Y129510D01*
X44560Y134490D02*
X57040Y134490D01*
X57040Y129510D01*
X44560Y129510D01*
X44560Y130479D02*
X57040Y130479D01*
X57040Y131448D02*
X44560Y131448D01*
X44560Y132417D02*
X57040Y132417D01*
X57040Y133386D02*
X44560Y133386D01*
X44560Y134355D02*
X57040Y134355D01*
X44560Y124490D02*
X44560Y119510D01*
X44560Y124490D02*
X57040Y124490D01*
X57040Y119510D01*
X44560Y119510D01*
X44560Y120479D02*
X57040Y120479D01*
X57040Y121448D02*
X44560Y121448D01*
X44560Y122417D02*
X57040Y122417D01*
X57040Y123386D02*
X44560Y123386D01*
X44560Y124355D02*
X57040Y124355D01*
X44560Y114490D02*
X44560Y109510D01*
X44560Y114490D02*
X57040Y114490D01*
X57040Y109510D01*
X44560Y109510D01*
X44560Y110479D02*
X57040Y110479D01*
X57040Y111448D02*
X44560Y111448D01*
X44560Y112417D02*
X57040Y112417D01*
X57040Y113386D02*
X44560Y113386D01*
X44560Y114355D02*
X57040Y114355D01*
D15*
X249470Y104520D02*
X249470Y93480D01*
X230430Y93480D01*
X230430Y104520D01*
X249470Y104520D01*
X249470Y94392D02*
X230430Y94392D01*
X230430Y95304D02*
X249470Y95304D01*
X249470Y96216D02*
X230430Y96216D01*
X230430Y97128D02*
X249470Y97128D01*
X249470Y98040D02*
X230430Y98040D01*
X230430Y98952D02*
X249470Y98952D01*
X249470Y99864D02*
X230430Y99864D01*
X230430Y100776D02*
X249470Y100776D01*
X249470Y101688D02*
X230430Y101688D01*
X230430Y102600D02*
X249470Y102600D01*
X249470Y103512D02*
X230430Y103512D01*
X230430Y104424D02*
X249470Y104424D01*
X249470Y149480D02*
X249470Y160520D01*
X249470Y149480D02*
X230430Y149480D01*
X230430Y160520D01*
X249470Y160520D01*
X249470Y150392D02*
X230430Y150392D01*
X230430Y151304D02*
X249470Y151304D01*
X249470Y152216D02*
X230430Y152216D01*
X230430Y153128D02*
X249470Y153128D01*
X249470Y154040D02*
X230430Y154040D01*
X230430Y154952D02*
X249470Y154952D01*
X249470Y155864D02*
X230430Y155864D01*
X230430Y156776D02*
X249470Y156776D01*
X249470Y157688D02*
X230430Y157688D01*
X230430Y158600D02*
X249470Y158600D01*
X249470Y159512D02*
X230430Y159512D01*
X230430Y160424D02*
X249470Y160424D01*
D16*
X209440Y114490D02*
X209440Y109510D01*
X196960Y109510D01*
X196960Y114490D01*
X209440Y114490D01*
X209440Y110479D02*
X196960Y110479D01*
X196960Y111448D02*
X209440Y111448D01*
X209440Y112417D02*
X196960Y112417D01*
X196960Y113386D02*
X209440Y113386D01*
X209440Y114355D02*
X196960Y114355D01*
X209440Y119510D02*
X209440Y124490D01*
X209440Y119510D02*
X196960Y119510D01*
X196960Y124490D01*
X209440Y124490D01*
X209440Y120479D02*
X196960Y120479D01*
X196960Y121448D02*
X209440Y121448D01*
X209440Y122417D02*
X196960Y122417D01*
X196960Y123386D02*
X209440Y123386D01*
X209440Y124355D02*
X196960Y124355D01*
X209440Y129510D02*
X209440Y134490D01*
X209440Y129510D02*
X196960Y129510D01*
X196960Y134490D01*
X209440Y134490D01*
X209440Y130479D02*
X196960Y130479D01*
X196960Y131448D02*
X209440Y131448D01*
X209440Y132417D02*
X196960Y132417D01*
X196960Y133386D02*
X209440Y133386D01*
X209440Y134355D02*
X196960Y134355D01*
X209440Y139510D02*
X209440Y144490D01*
X209440Y139510D02*
X196960Y139510D01*
X196960Y144490D01*
X209440Y144490D01*
X209440Y140479D02*
X196960Y140479D01*
X196960Y141448D02*
X209440Y141448D01*
X209440Y142417D02*
X196960Y142417D01*
X196960Y143386D02*
X209440Y143386D01*
X209440Y144355D02*
X196960Y144355D01*
D17*
X121008Y121158D02*
X106926Y121158D01*
X106926Y126442D01*
X121008Y126442D01*
X121008Y121158D01*
X121008Y122115D02*
X106926Y122115D01*
X106926Y123072D02*
X121008Y123072D01*
X121008Y124029D02*
X106926Y124029D01*
X106926Y124986D02*
X121008Y124986D01*
X121008Y125943D02*
X106926Y125943D01*
X106926Y111658D02*
X121008Y111658D01*
X106926Y111658D02*
X106926Y116942D01*
X121008Y116942D01*
X121008Y111658D01*
X121008Y112615D02*
X106926Y112615D01*
X106926Y113572D02*
X121008Y113572D01*
X121008Y114529D02*
X106926Y114529D01*
X106926Y115486D02*
X121008Y115486D01*
X121008Y116443D02*
X106926Y116443D01*
X106926Y102158D02*
X121008Y102158D01*
X106926Y102158D02*
X106926Y107442D01*
X121008Y107442D01*
X121008Y102158D01*
X121008Y103115D02*
X106926Y103115D01*
X106926Y104072D02*
X121008Y104072D01*
X121008Y105029D02*
X106926Y105029D01*
X106926Y105986D02*
X121008Y105986D01*
X121008Y106943D02*
X106926Y106943D01*
X132992Y102158D02*
X147074Y102158D01*
X132992Y102158D02*
X132992Y107442D01*
X147074Y107442D01*
X147074Y102158D01*
X147074Y103115D02*
X132992Y103115D01*
X132992Y104072D02*
X147074Y104072D01*
X147074Y105029D02*
X132992Y105029D01*
X132992Y105986D02*
X147074Y105986D01*
X147074Y106943D02*
X132992Y106943D01*
X132992Y121158D02*
X147074Y121158D01*
X132992Y121158D02*
X132992Y126442D01*
X147074Y126442D01*
X147074Y121158D01*
X147074Y122115D02*
X132992Y122115D01*
X132992Y123072D02*
X147074Y123072D01*
X147074Y124029D02*
X132992Y124029D01*
X132992Y124986D02*
X147074Y124986D01*
X147074Y125943D02*
X132992Y125943D01*
D14*
X180740Y126560D02*
X180740Y119600D01*
X169780Y119600D01*
X169780Y126560D01*
X180740Y126560D01*
X180740Y120588D02*
X169780Y120588D01*
X169780Y121576D02*
X180740Y121576D01*
X180740Y122564D02*
X169780Y122564D01*
X169780Y123552D02*
X180740Y123552D01*
X180740Y124540D02*
X169780Y124540D01*
X169780Y125528D02*
X180740Y125528D01*
X180740Y126516D02*
X169780Y126516D01*
X180740Y137600D02*
X180740Y144560D01*
X180740Y137600D02*
X169780Y137600D01*
X169780Y144560D01*
X180740Y144560D01*
X180740Y138588D02*
X169780Y138588D01*
X169780Y139576D02*
X180740Y139576D01*
X180740Y140564D02*
X169780Y140564D01*
X169780Y141552D02*
X180740Y141552D01*
X180740Y142540D02*
X169780Y142540D01*
X169780Y143528D02*
X180740Y143528D01*
X180740Y144516D02*
X169780Y144516D01*
D18*
X91850Y167060D02*
X81850Y167060D01*
X91850Y167060D02*
X91850Y158060D01*
X81850Y158060D01*
X81850Y167060D01*
X81850Y159010D02*
X91850Y159010D01*
X91850Y159960D02*
X81850Y159960D01*
X81850Y160910D02*
X91850Y160910D01*
X91850Y161860D02*
X81850Y161860D01*
X81850Y162810D02*
X91850Y162810D01*
X91850Y163760D02*
X81850Y163760D01*
X81850Y164710D02*
X91850Y164710D01*
X91850Y165660D02*
X81850Y165660D01*
X81850Y166610D02*
X91850Y166610D01*
X74850Y167060D02*
X64850Y167060D01*
X74850Y167060D02*
X74850Y158060D01*
X64850Y158060D01*
X64850Y167060D01*
X64850Y159010D02*
X74850Y159010D01*
X74850Y159960D02*
X64850Y159960D01*
X64850Y160910D02*
X74850Y160910D01*
X74850Y161860D02*
X64850Y161860D01*
X64850Y162810D02*
X74850Y162810D01*
X74850Y163760D02*
X64850Y163760D01*
X64850Y164710D02*
X74850Y164710D01*
X74850Y165660D02*
X64850Y165660D01*
X64850Y166610D02*
X74850Y166610D01*
X90750Y127800D02*
X90750Y117800D01*
X90750Y127800D02*
X99750Y127800D01*
X99750Y117800D01*
X90750Y117800D01*
X90750Y118750D02*
X99750Y118750D01*
X99750Y119700D02*
X90750Y119700D01*
X90750Y120650D02*
X99750Y120650D01*
X99750Y121600D02*
X90750Y121600D01*
X90750Y122550D02*
X99750Y122550D01*
X99750Y123500D02*
X90750Y123500D01*
X90750Y124450D02*
X99750Y124450D01*
X99750Y125400D02*
X90750Y125400D01*
X90750Y126350D02*
X99750Y126350D01*
X99750Y127300D02*
X90750Y127300D01*
X90750Y110800D02*
X90750Y100800D01*
X90750Y110800D02*
X99750Y110800D01*
X99750Y100800D01*
X90750Y100800D01*
X90750Y101750D02*
X99750Y101750D01*
X99750Y102700D02*
X90750Y102700D01*
X90750Y103650D02*
X99750Y103650D01*
X99750Y104600D02*
X90750Y104600D01*
X90750Y105550D02*
X99750Y105550D01*
X99750Y106500D02*
X90750Y106500D01*
X90750Y107450D02*
X99750Y107450D01*
X99750Y108400D02*
X90750Y108400D01*
X90750Y109350D02*
X99750Y109350D01*
X99750Y110300D02*
X90750Y110300D01*
X80700Y110800D02*
X80700Y100800D01*
X71700Y100800D01*
X71700Y110800D01*
X80700Y110800D01*
X80700Y101750D02*
X71700Y101750D01*
X71700Y102700D02*
X80700Y102700D01*
X80700Y103650D02*
X71700Y103650D01*
X71700Y104600D02*
X80700Y104600D01*
X80700Y105550D02*
X71700Y105550D01*
X71700Y106500D02*
X80700Y106500D01*
X80700Y107450D02*
X71700Y107450D01*
X71700Y108400D02*
X80700Y108400D01*
X80700Y109350D02*
X71700Y109350D01*
X71700Y110300D02*
X80700Y110300D01*
X80700Y117800D02*
X80700Y127800D01*
X80700Y117800D02*
X71700Y117800D01*
X71700Y127800D01*
X80700Y127800D01*
X80700Y118750D02*
X71700Y118750D01*
X71700Y119700D02*
X80700Y119700D01*
X80700Y120650D02*
X71700Y120650D01*
X71700Y121600D02*
X80700Y121600D01*
X80700Y122550D02*
X71700Y122550D01*
X71700Y123500D02*
X80700Y123500D01*
X80700Y124450D02*
X71700Y124450D01*
X71700Y125400D02*
X80700Y125400D01*
X80700Y126350D02*
X71700Y126350D01*
X71700Y127300D02*
X80700Y127300D01*
X107386Y93400D02*
X117386Y93400D01*
X117386Y84400D01*
X107386Y84400D01*
X107386Y93400D01*
X107386Y85350D02*
X117386Y85350D01*
X117386Y86300D02*
X107386Y86300D01*
X107386Y87250D02*
X117386Y87250D01*
X117386Y88200D02*
X107386Y88200D01*
X107386Y89150D02*
X117386Y89150D01*
X117386Y90100D02*
X107386Y90100D01*
X107386Y91050D02*
X117386Y91050D01*
X117386Y92000D02*
X107386Y92000D01*
X107386Y92950D02*
X117386Y92950D01*
X100386Y93400D02*
X90386Y93400D01*
X100386Y93400D02*
X100386Y84400D01*
X90386Y84400D01*
X90386Y93400D01*
X90386Y85350D02*
X100386Y85350D01*
X100386Y86300D02*
X90386Y86300D01*
X90386Y87250D02*
X100386Y87250D01*
X100386Y88200D02*
X90386Y88200D01*
X90386Y89150D02*
X100386Y89150D01*
X100386Y90100D02*
X90386Y90100D01*
X90386Y91050D02*
X100386Y91050D01*
X100386Y92000D02*
X90386Y92000D01*
X90386Y92950D02*
X100386Y92950D01*
D19*
X88936Y142404D02*
X83644Y142404D01*
X83644Y149696D01*
X88936Y149696D01*
X88936Y142404D01*
X88936Y143362D02*
X83644Y143362D01*
X83644Y144320D02*
X88936Y144320D01*
X88936Y145278D02*
X83644Y145278D01*
X83644Y146236D02*
X88936Y146236D01*
X88936Y147194D02*
X83644Y147194D01*
X83644Y148152D02*
X88936Y148152D01*
X88936Y149110D02*
X83644Y149110D01*
X106644Y142404D02*
X111936Y142404D01*
X106644Y142404D02*
X106644Y149696D01*
X111936Y149696D01*
X111936Y142404D01*
X111936Y143362D02*
X106644Y143362D01*
X106644Y144320D02*
X111936Y144320D01*
X111936Y145278D02*
X106644Y145278D01*
X106644Y146236D02*
X111936Y146236D01*
X111936Y147194D02*
X106644Y147194D01*
X106644Y148152D02*
X111936Y148152D01*
X111936Y149110D02*
X106644Y149110D01*
D18*
X163250Y110800D02*
X163250Y100800D01*
X154250Y100800D01*
X154250Y110800D01*
X163250Y110800D01*
X163250Y101750D02*
X154250Y101750D01*
X154250Y102700D02*
X163250Y102700D01*
X163250Y103650D02*
X154250Y103650D01*
X154250Y104600D02*
X163250Y104600D01*
X163250Y105550D02*
X154250Y105550D01*
X154250Y106500D02*
X163250Y106500D01*
X163250Y107450D02*
X154250Y107450D01*
X154250Y108400D02*
X163250Y108400D01*
X163250Y109350D02*
X154250Y109350D01*
X154250Y110300D02*
X163250Y110300D01*
X163250Y117800D02*
X163250Y127800D01*
X163250Y117800D02*
X154250Y117800D01*
X154250Y127800D01*
X163250Y127800D01*
X163250Y118750D02*
X154250Y118750D01*
X154250Y119700D02*
X163250Y119700D01*
X163250Y120650D02*
X154250Y120650D01*
X154250Y121600D02*
X163250Y121600D01*
X163250Y122550D02*
X154250Y122550D01*
X154250Y123500D02*
X163250Y123500D01*
X163250Y124450D02*
X154250Y124450D01*
X154250Y125400D02*
X163250Y125400D01*
X163250Y126350D02*
X154250Y126350D01*
X154250Y127300D02*
X163250Y127300D01*
D20*
X117510Y203360D02*
X88490Y203360D01*
X117510Y203360D02*
X117510Y190340D01*
X88490Y190340D01*
X88490Y203360D01*
X88490Y191271D02*
X117510Y191271D01*
X117510Y192202D02*
X88490Y192202D01*
X88490Y193133D02*
X117510Y193133D01*
X117510Y194064D02*
X88490Y194064D01*
X88490Y194995D02*
X117510Y194995D01*
X117510Y195926D02*
X88490Y195926D01*
X88490Y196857D02*
X117510Y196857D01*
X117510Y197788D02*
X88490Y197788D01*
X88490Y198719D02*
X117510Y198719D01*
X117510Y199650D02*
X88490Y199650D01*
X88490Y200581D02*
X117510Y200581D01*
X117510Y201512D02*
X88490Y201512D01*
X88490Y202443D02*
X117510Y202443D01*
X136490Y203360D02*
X165510Y203360D01*
X165510Y190340D01*
X136490Y190340D01*
X136490Y203360D01*
X136490Y191271D02*
X165510Y191271D01*
X165510Y192202D02*
X136490Y192202D01*
X136490Y193133D02*
X165510Y193133D01*
X165510Y194064D02*
X136490Y194064D01*
X136490Y194995D02*
X165510Y194995D01*
X165510Y195926D02*
X136490Y195926D01*
X136490Y196857D02*
X165510Y196857D01*
X165510Y197788D02*
X136490Y197788D01*
X136490Y198719D02*
X165510Y198719D01*
X165510Y199650D02*
X136490Y199650D01*
X136490Y200581D02*
X165510Y200581D01*
X165510Y201512D02*
X136490Y201512D01*
X136490Y202443D02*
X165510Y202443D01*
D18*
X234370Y356070D02*
X234370Y366070D01*
X234370Y356070D02*
X225370Y356070D01*
X225370Y366070D01*
X234370Y366070D01*
X234370Y357020D02*
X225370Y357020D01*
X225370Y357970D02*
X234370Y357970D01*
X234370Y358920D02*
X225370Y358920D01*
X225370Y359870D02*
X234370Y359870D01*
X234370Y360820D02*
X225370Y360820D01*
X225370Y361770D02*
X234370Y361770D01*
X234370Y362720D02*
X225370Y362720D01*
X225370Y363670D02*
X234370Y363670D01*
X234370Y364620D02*
X225370Y364620D01*
X225370Y365570D02*
X234370Y365570D01*
X234370Y373070D02*
X234370Y383070D01*
X234370Y373070D02*
X225370Y373070D01*
X225370Y383070D01*
X234370Y383070D01*
X234370Y374020D02*
X225370Y374020D01*
X225370Y374970D02*
X234370Y374970D01*
X234370Y375920D02*
X225370Y375920D01*
X225370Y376870D02*
X234370Y376870D01*
X234370Y377820D02*
X225370Y377820D01*
X225370Y378770D02*
X234370Y378770D01*
X234370Y379720D02*
X225370Y379720D01*
X225370Y380670D02*
X234370Y380670D01*
X234370Y381620D02*
X225370Y381620D01*
X225370Y382570D02*
X234370Y382570D01*
X214050Y366070D02*
X214050Y356070D01*
X205050Y356070D01*
X205050Y366070D01*
X214050Y366070D01*
X214050Y357020D02*
X205050Y357020D01*
X205050Y357970D02*
X214050Y357970D01*
X214050Y358920D02*
X205050Y358920D01*
X205050Y359870D02*
X214050Y359870D01*
X214050Y360820D02*
X205050Y360820D01*
X205050Y361770D02*
X214050Y361770D01*
X214050Y362720D02*
X205050Y362720D01*
X205050Y363670D02*
X214050Y363670D01*
X214050Y364620D02*
X205050Y364620D01*
X205050Y365570D02*
X214050Y365570D01*
X214050Y373070D02*
X214050Y383070D01*
X214050Y373070D02*
X205050Y373070D01*
X205050Y383070D01*
X214050Y383070D01*
X214050Y374020D02*
X205050Y374020D01*
X205050Y374970D02*
X214050Y374970D01*
X214050Y375920D02*
X205050Y375920D01*
X205050Y376870D02*
X214050Y376870D01*
X214050Y377820D02*
X205050Y377820D01*
X205050Y378770D02*
X214050Y378770D01*
X214050Y379720D02*
X205050Y379720D01*
X205050Y380670D02*
X214050Y380670D01*
X214050Y381620D02*
X205050Y381620D01*
X205050Y382570D02*
X214050Y382570D01*
X50220Y366070D02*
X50220Y356070D01*
X41220Y356070D01*
X41220Y366070D01*
X50220Y366070D01*
X50220Y357020D02*
X41220Y357020D01*
X41220Y357970D02*
X50220Y357970D01*
X50220Y358920D02*
X41220Y358920D01*
X41220Y359870D02*
X50220Y359870D01*
X50220Y360820D02*
X41220Y360820D01*
X41220Y361770D02*
X50220Y361770D01*
X50220Y362720D02*
X41220Y362720D01*
X41220Y363670D02*
X50220Y363670D01*
X50220Y364620D02*
X41220Y364620D01*
X41220Y365570D02*
X50220Y365570D01*
X50220Y373070D02*
X50220Y383070D01*
X50220Y373070D02*
X41220Y373070D01*
X41220Y383070D01*
X50220Y383070D01*
X50220Y374020D02*
X41220Y374020D01*
X41220Y374970D02*
X50220Y374970D01*
X50220Y375920D02*
X41220Y375920D01*
X41220Y376870D02*
X50220Y376870D01*
X50220Y377820D02*
X41220Y377820D01*
X41220Y378770D02*
X50220Y378770D01*
X50220Y379720D02*
X41220Y379720D01*
X41220Y380670D02*
X50220Y380670D01*
X50220Y381620D02*
X41220Y381620D01*
X41220Y382570D02*
X50220Y382570D01*
X29900Y366070D02*
X29900Y356070D01*
X20900Y356070D01*
X20900Y366070D01*
X29900Y366070D01*
X29900Y357020D02*
X20900Y357020D01*
X20900Y357970D02*
X29900Y357970D01*
X29900Y358920D02*
X20900Y358920D01*
X20900Y359870D02*
X29900Y359870D01*
X29900Y360820D02*
X20900Y360820D01*
X20900Y361770D02*
X29900Y361770D01*
X29900Y362720D02*
X20900Y362720D01*
X20900Y363670D02*
X29900Y363670D01*
X29900Y364620D02*
X20900Y364620D01*
X20900Y365570D02*
X29900Y365570D01*
X29900Y373070D02*
X29900Y383070D01*
X29900Y373070D02*
X20900Y373070D01*
X20900Y383070D01*
X29900Y383070D01*
X29900Y374020D02*
X20900Y374020D01*
X20900Y374970D02*
X29900Y374970D01*
X29900Y375920D02*
X20900Y375920D01*
X20900Y376870D02*
X29900Y376870D01*
X29900Y377820D02*
X20900Y377820D01*
X20900Y378770D02*
X29900Y378770D01*
X29900Y379720D02*
X20900Y379720D01*
X20900Y380670D02*
X29900Y380670D01*
X29900Y381620D02*
X20900Y381620D01*
X20900Y382570D02*
X29900Y382570D01*
X156900Y54920D02*
X156900Y44920D01*
X147900Y44920D01*
X147900Y54920D01*
X156900Y54920D01*
X156900Y45870D02*
X147900Y45870D01*
X147900Y46820D02*
X156900Y46820D01*
X156900Y47770D02*
X147900Y47770D01*
X147900Y48720D02*
X156900Y48720D01*
X156900Y49670D02*
X147900Y49670D01*
X147900Y50620D02*
X156900Y50620D01*
X156900Y51570D02*
X147900Y51570D01*
X147900Y52520D02*
X156900Y52520D01*
X156900Y53470D02*
X147900Y53470D01*
X147900Y54420D02*
X156900Y54420D01*
X156900Y61920D02*
X156900Y71920D01*
X156900Y61920D02*
X147900Y61920D01*
X147900Y71920D01*
X156900Y71920D01*
X156900Y62870D02*
X147900Y62870D01*
X147900Y63820D02*
X156900Y63820D01*
X156900Y64770D02*
X147900Y64770D01*
X147900Y65720D02*
X156900Y65720D01*
X156900Y66670D02*
X147900Y66670D01*
X147900Y67620D02*
X156900Y67620D01*
X156900Y68570D02*
X147900Y68570D01*
X147900Y69520D02*
X156900Y69520D01*
X156900Y70470D02*
X147900Y70470D01*
X147900Y71420D02*
X156900Y71420D01*
X106100Y54920D02*
X106100Y44920D01*
X97100Y44920D01*
X97100Y54920D01*
X106100Y54920D01*
X106100Y45870D02*
X97100Y45870D01*
X97100Y46820D02*
X106100Y46820D01*
X106100Y47770D02*
X97100Y47770D01*
X97100Y48720D02*
X106100Y48720D01*
X106100Y49670D02*
X97100Y49670D01*
X97100Y50620D02*
X106100Y50620D01*
X106100Y51570D02*
X97100Y51570D01*
X97100Y52520D02*
X106100Y52520D01*
X106100Y53470D02*
X97100Y53470D01*
X97100Y54420D02*
X106100Y54420D01*
X106100Y61920D02*
X106100Y71920D01*
X106100Y61920D02*
X97100Y61920D01*
X97100Y71920D01*
X106100Y71920D01*
X106100Y62870D02*
X97100Y62870D01*
X97100Y63820D02*
X106100Y63820D01*
X106100Y64770D02*
X97100Y64770D01*
X97100Y65720D02*
X106100Y65720D01*
X106100Y66670D02*
X97100Y66670D01*
X97100Y67620D02*
X106100Y67620D01*
X106100Y68570D02*
X97100Y68570D01*
X97100Y69520D02*
X106100Y69520D01*
X106100Y70470D02*
X97100Y70470D01*
X97100Y71420D02*
X106100Y71420D01*
X130500Y396930D02*
X140500Y396930D01*
X140500Y387930D01*
X130500Y387930D01*
X130500Y396930D01*
X130500Y388880D02*
X140500Y388880D01*
X140500Y389830D02*
X130500Y389830D01*
X130500Y390780D02*
X140500Y390780D01*
X140500Y391730D02*
X130500Y391730D01*
X130500Y392680D02*
X140500Y392680D01*
X140500Y393630D02*
X130500Y393630D01*
X130500Y394580D02*
X140500Y394580D01*
X140500Y395530D02*
X130500Y395530D01*
X130500Y396480D02*
X140500Y396480D01*
X123500Y396930D02*
X113500Y396930D01*
X123500Y396930D02*
X123500Y387930D01*
X113500Y387930D01*
X113500Y396930D01*
X113500Y388880D02*
X123500Y388880D01*
X123500Y389830D02*
X113500Y389830D01*
X113500Y390780D02*
X123500Y390780D01*
X123500Y391730D02*
X113500Y391730D01*
X113500Y392680D02*
X123500Y392680D01*
X123500Y393630D02*
X113500Y393630D01*
X113500Y394580D02*
X123500Y394580D01*
X123500Y395530D02*
X113500Y395530D01*
X113500Y396480D02*
X123500Y396480D01*
D21*
X172910Y395930D02*
X172910Y388930D01*
X172910Y395930D02*
X179910Y395930D01*
X179910Y388930D01*
X172910Y388930D01*
X172910Y391780D02*
X179910Y391780D01*
X179910Y394630D02*
X172910Y394630D01*
X155370Y395930D02*
X155370Y388930D01*
X155370Y395930D02*
X162370Y395930D01*
X162370Y388930D01*
X155370Y388930D01*
X155370Y391780D02*
X162370Y391780D01*
X162370Y394630D02*
X155370Y394630D01*
D18*
X99860Y396930D02*
X89860Y396930D01*
X99860Y396930D02*
X99860Y387930D01*
X89860Y387930D01*
X89860Y396930D01*
X89860Y388880D02*
X99860Y388880D01*
X99860Y389830D02*
X89860Y389830D01*
X89860Y390780D02*
X99860Y390780D01*
X99860Y391730D02*
X89860Y391730D01*
X89860Y392680D02*
X99860Y392680D01*
X99860Y393630D02*
X89860Y393630D01*
X89860Y394580D02*
X99860Y394580D01*
X99860Y395530D02*
X89860Y395530D01*
X89860Y396480D02*
X99860Y396480D01*
X82860Y396930D02*
X72860Y396930D01*
X82860Y396930D02*
X82860Y387930D01*
X72860Y387930D01*
X72860Y396930D01*
X72860Y388880D02*
X82860Y388880D01*
X82860Y389830D02*
X72860Y389830D01*
X72860Y390780D02*
X82860Y390780D01*
X82860Y391730D02*
X72860Y391730D01*
X72860Y392680D02*
X82860Y392680D01*
X82860Y393630D02*
X72860Y393630D01*
X72860Y394580D02*
X82860Y394580D01*
X82860Y395530D02*
X72860Y395530D01*
X72860Y396480D02*
X82860Y396480D01*
M02*
