G04 EAGLE Gerber RS-274X export*
G75*
%MOMM*%
%FSLAX34Y34*%
%LPD*%
%INSoldermask Bottom*%
%IPPOS*%
%AMOC8*
5,1,8,0,0,1.08239X$1,22.5*%
G01*
%ADD10C,3.454400*%
%ADD11C,0.787400*%
%ADD12C,0.251966*%
%ADD13C,2.032000*%

G36*
X236247Y355417D02*
X236247Y355417D01*
X236242Y355424D01*
X236249Y355430D01*
X236249Y368230D01*
X236247Y368233D01*
X236249Y368235D01*
X236049Y370035D01*
X236044Y370041D01*
X236047Y370046D01*
X235847Y370646D01*
X235842Y370649D01*
X235844Y370652D01*
X235544Y371252D01*
X235541Y371253D01*
X235542Y371255D01*
X235242Y371755D01*
X235227Y371762D01*
X235225Y371772D01*
X234728Y372071D01*
X234330Y372369D01*
X234320Y372369D01*
X234318Y372376D01*
X233318Y372776D01*
X233311Y372774D01*
X233308Y372779D01*
X232708Y372879D01*
X232703Y372876D01*
X232700Y372879D01*
X231900Y372879D01*
X231893Y372874D01*
X231888Y372878D01*
X231494Y372779D01*
X231300Y372779D01*
X231287Y372770D01*
X231278Y372774D01*
X231078Y372674D01*
X231077Y372673D01*
X231076Y372673D01*
X231075Y372669D01*
X231052Y372621D01*
X231068Y372613D01*
X231065Y372595D01*
X231165Y372495D01*
X231177Y372494D01*
X231178Y372486D01*
X231578Y372286D01*
X231583Y372287D01*
X231584Y372283D01*
X231873Y372187D01*
X232262Y371799D01*
X232455Y371508D01*
X232551Y371222D01*
X232551Y370938D01*
X232454Y370649D01*
X232259Y370259D01*
X231969Y369968D01*
X231677Y369774D01*
X231186Y369577D01*
X230695Y369479D01*
X229906Y369479D01*
X229120Y369676D01*
X228534Y370067D01*
X228144Y370554D01*
X227949Y371138D01*
X227949Y371820D01*
X228242Y372503D01*
X228937Y373297D01*
X229737Y374197D01*
X229737Y374198D01*
X230437Y374998D01*
X230438Y375005D01*
X230443Y375006D01*
X230943Y375906D01*
X230942Y375916D01*
X230948Y375919D01*
X231148Y376819D01*
X231145Y376827D01*
X231149Y376830D01*
X231149Y377630D01*
X231142Y377639D01*
X231147Y377646D01*
X230847Y378546D01*
X230838Y378552D01*
X230840Y378559D01*
X230340Y379259D01*
X230332Y379261D01*
X230333Y379267D01*
X229433Y380067D01*
X229424Y380067D01*
X229424Y380073D01*
X228324Y380673D01*
X228312Y380672D01*
X228309Y380678D01*
X227209Y380878D01*
X227203Y380875D01*
X227200Y380879D01*
X226200Y380879D01*
X226191Y380872D01*
X226184Y380877D01*
X225284Y380577D01*
X225284Y380576D01*
X225283Y380576D01*
X224483Y380276D01*
X224481Y380273D01*
X224478Y380274D01*
X223878Y379974D01*
X223875Y379968D01*
X223870Y379969D01*
X223470Y379669D01*
X223469Y379664D01*
X223465Y379665D01*
X223365Y379565D01*
X223363Y379551D01*
X223353Y379543D01*
X223361Y379533D01*
X223357Y379506D01*
X223384Y379502D01*
X223400Y379481D01*
X223700Y379481D01*
X223709Y379488D01*
X223716Y379483D01*
X224008Y379581D01*
X224294Y379581D01*
X224688Y379482D01*
X224690Y379483D01*
X224690Y379482D01*
X225184Y379383D01*
X225574Y379188D01*
X225964Y378896D01*
X226155Y378608D01*
X226253Y378314D01*
X226258Y378311D01*
X226256Y378308D01*
X226354Y378111D01*
X226448Y377830D01*
X226353Y377546D01*
X226354Y377543D01*
X226352Y377542D01*
X226254Y377150D01*
X226059Y376857D01*
X226059Y376853D01*
X226056Y376852D01*
X225859Y376459D01*
X225569Y376168D01*
X225273Y375971D01*
X225272Y375969D01*
X225270Y375969D01*
X224871Y375670D01*
X224575Y375473D01*
X223788Y375079D01*
X223108Y375079D01*
X222822Y375175D01*
X222541Y375362D01*
X222349Y375938D01*
X222349Y376730D01*
X222346Y376734D01*
X222348Y376739D01*
X222339Y376744D01*
X222313Y376777D01*
X222297Y376765D01*
X222278Y376774D01*
X221478Y376374D01*
X221472Y376362D01*
X221463Y376363D01*
X220663Y375463D01*
X220663Y375455D01*
X220657Y375455D01*
X219957Y374255D01*
X219958Y374248D01*
X219954Y374247D01*
X219454Y372847D01*
X219455Y372841D01*
X219452Y372839D01*
X219152Y371239D01*
X219156Y371231D01*
X219151Y371227D01*
X219251Y369427D01*
X219256Y369421D01*
X219253Y369417D01*
X219753Y367617D01*
X219759Y367612D01*
X219757Y367606D01*
X220757Y365806D01*
X220762Y365804D01*
X220761Y365800D01*
X221461Y364900D01*
X221466Y364899D01*
X221465Y364895D01*
X222265Y364095D01*
X222268Y364095D01*
X222268Y364093D01*
X223068Y363393D01*
X223074Y363392D01*
X223075Y363388D01*
X224075Y362788D01*
X224081Y362788D01*
X224082Y362784D01*
X225082Y362384D01*
X225086Y362385D01*
X225087Y362383D01*
X226187Y362083D01*
X226191Y362084D01*
X226192Y362081D01*
X227392Y361881D01*
X227394Y361882D01*
X227399Y361882D01*
X227400Y361881D01*
X229296Y361881D01*
X229883Y361783D01*
X230372Y361490D01*
X231365Y360695D01*
X231862Y360098D01*
X231866Y360098D01*
X231865Y360095D01*
X233162Y358798D01*
X233660Y358101D01*
X233666Y358100D01*
X233665Y358095D01*
X234263Y357497D01*
X234762Y356898D01*
X234766Y356898D01*
X234765Y356895D01*
X235263Y356398D01*
X235561Y356000D01*
X235566Y355999D01*
X235565Y355995D01*
X235862Y355699D01*
X236059Y355403D01*
X236092Y355391D01*
X236100Y355381D01*
X236200Y355381D01*
X236247Y355417D01*
G37*
G36*
X128335Y303542D02*
X128335Y303542D01*
X128401Y303544D01*
X128444Y303562D01*
X128491Y303570D01*
X128548Y303604D01*
X128608Y303629D01*
X128643Y303660D01*
X128684Y303685D01*
X128726Y303736D01*
X128774Y303780D01*
X128796Y303822D01*
X128825Y303859D01*
X128846Y303921D01*
X128877Y303980D01*
X128885Y304034D01*
X128897Y304071D01*
X128896Y304111D01*
X128904Y304165D01*
X128904Y307975D01*
X128893Y308040D01*
X128891Y308106D01*
X128873Y308149D01*
X128865Y308196D01*
X128831Y308253D01*
X128806Y308313D01*
X128775Y308348D01*
X128750Y308389D01*
X128699Y308431D01*
X128655Y308479D01*
X128613Y308501D01*
X128576Y308530D01*
X128514Y308551D01*
X128455Y308582D01*
X128401Y308590D01*
X128364Y308602D01*
X128324Y308601D01*
X128270Y308609D01*
X125730Y308609D01*
X125665Y308598D01*
X125599Y308596D01*
X125556Y308578D01*
X125509Y308570D01*
X125452Y308536D01*
X125392Y308511D01*
X125357Y308480D01*
X125316Y308455D01*
X125275Y308404D01*
X125226Y308360D01*
X125204Y308318D01*
X125175Y308281D01*
X125154Y308219D01*
X125123Y308160D01*
X125115Y308106D01*
X125103Y308069D01*
X125103Y308065D01*
X125103Y308064D01*
X125104Y308029D01*
X125096Y307975D01*
X125096Y304165D01*
X125107Y304100D01*
X125109Y304034D01*
X125127Y303991D01*
X125135Y303944D01*
X125169Y303887D01*
X125194Y303827D01*
X125225Y303792D01*
X125250Y303751D01*
X125301Y303710D01*
X125345Y303661D01*
X125387Y303639D01*
X125424Y303610D01*
X125486Y303589D01*
X125545Y303558D01*
X125599Y303550D01*
X125636Y303538D01*
X125676Y303539D01*
X125730Y303531D01*
X128270Y303531D01*
X128335Y303542D01*
G37*
G36*
X128970Y389267D02*
X128970Y389267D01*
X129036Y389269D01*
X129079Y389287D01*
X129126Y389295D01*
X129183Y389329D01*
X129243Y389354D01*
X129278Y389385D01*
X129319Y389410D01*
X129361Y389461D01*
X129409Y389505D01*
X129431Y389547D01*
X129460Y389584D01*
X129481Y389646D01*
X129512Y389705D01*
X129520Y389759D01*
X129532Y389796D01*
X129531Y389836D01*
X129539Y389890D01*
X129539Y392430D01*
X129528Y392495D01*
X129526Y392561D01*
X129508Y392604D01*
X129500Y392651D01*
X129466Y392708D01*
X129441Y392768D01*
X129410Y392803D01*
X129385Y392844D01*
X129334Y392886D01*
X129290Y392934D01*
X129248Y392956D01*
X129211Y392985D01*
X129149Y393006D01*
X129090Y393037D01*
X129036Y393045D01*
X128999Y393057D01*
X128959Y393056D01*
X128905Y393064D01*
X125095Y393064D01*
X125030Y393053D01*
X124964Y393051D01*
X124921Y393033D01*
X124874Y393025D01*
X124817Y392991D01*
X124757Y392966D01*
X124722Y392935D01*
X124681Y392910D01*
X124640Y392859D01*
X124591Y392815D01*
X124569Y392773D01*
X124540Y392736D01*
X124519Y392674D01*
X124488Y392615D01*
X124480Y392561D01*
X124468Y392524D01*
X124468Y392521D01*
X124469Y392484D01*
X124461Y392430D01*
X124461Y389890D01*
X124472Y389825D01*
X124474Y389759D01*
X124492Y389716D01*
X124500Y389669D01*
X124534Y389612D01*
X124559Y389552D01*
X124590Y389517D01*
X124615Y389476D01*
X124666Y389435D01*
X124710Y389386D01*
X124752Y389364D01*
X124789Y389335D01*
X124851Y389314D01*
X124910Y389283D01*
X124964Y389275D01*
X125001Y389263D01*
X125041Y389264D01*
X125095Y389256D01*
X128905Y389256D01*
X128970Y389267D01*
G37*
G36*
X134050Y71767D02*
X134050Y71767D01*
X134116Y71769D01*
X134159Y71787D01*
X134206Y71795D01*
X134263Y71829D01*
X134323Y71854D01*
X134358Y71885D01*
X134399Y71910D01*
X134441Y71961D01*
X134489Y72005D01*
X134511Y72047D01*
X134540Y72084D01*
X134561Y72146D01*
X134592Y72205D01*
X134600Y72259D01*
X134612Y72296D01*
X134611Y72336D01*
X134619Y72390D01*
X134619Y74930D01*
X134608Y74995D01*
X134606Y75061D01*
X134588Y75104D01*
X134580Y75151D01*
X134546Y75208D01*
X134521Y75268D01*
X134490Y75303D01*
X134465Y75344D01*
X134414Y75386D01*
X134370Y75434D01*
X134328Y75456D01*
X134291Y75485D01*
X134229Y75506D01*
X134170Y75537D01*
X134116Y75545D01*
X134079Y75557D01*
X134039Y75556D01*
X133985Y75564D01*
X130175Y75564D01*
X130110Y75553D01*
X130044Y75551D01*
X130001Y75533D01*
X129954Y75525D01*
X129897Y75491D01*
X129837Y75466D01*
X129802Y75435D01*
X129761Y75410D01*
X129720Y75359D01*
X129671Y75315D01*
X129649Y75273D01*
X129620Y75236D01*
X129599Y75174D01*
X129568Y75115D01*
X129560Y75061D01*
X129548Y75024D01*
X129548Y75021D01*
X129549Y74984D01*
X129541Y74930D01*
X129541Y72390D01*
X129552Y72325D01*
X129554Y72259D01*
X129572Y72216D01*
X129580Y72169D01*
X129614Y72112D01*
X129639Y72052D01*
X129670Y72017D01*
X129695Y71976D01*
X129746Y71935D01*
X129790Y71886D01*
X129832Y71864D01*
X129869Y71835D01*
X129931Y71814D01*
X129990Y71783D01*
X130044Y71775D01*
X130081Y71763D01*
X130121Y71764D01*
X130175Y71756D01*
X133985Y71756D01*
X134050Y71767D01*
G37*
G36*
X123890Y71767D02*
X123890Y71767D01*
X123956Y71769D01*
X123999Y71787D01*
X124046Y71795D01*
X124103Y71829D01*
X124163Y71854D01*
X124198Y71885D01*
X124239Y71910D01*
X124281Y71961D01*
X124329Y72005D01*
X124351Y72047D01*
X124380Y72084D01*
X124401Y72146D01*
X124432Y72205D01*
X124440Y72259D01*
X124452Y72296D01*
X124451Y72336D01*
X124459Y72390D01*
X124459Y74930D01*
X124448Y74995D01*
X124446Y75061D01*
X124428Y75104D01*
X124420Y75151D01*
X124386Y75208D01*
X124361Y75268D01*
X124330Y75303D01*
X124305Y75344D01*
X124254Y75386D01*
X124210Y75434D01*
X124168Y75456D01*
X124131Y75485D01*
X124069Y75506D01*
X124010Y75537D01*
X123956Y75545D01*
X123919Y75557D01*
X123879Y75556D01*
X123825Y75564D01*
X120015Y75564D01*
X119950Y75553D01*
X119884Y75551D01*
X119841Y75533D01*
X119794Y75525D01*
X119737Y75491D01*
X119677Y75466D01*
X119642Y75435D01*
X119601Y75410D01*
X119560Y75359D01*
X119511Y75315D01*
X119489Y75273D01*
X119460Y75236D01*
X119439Y75174D01*
X119408Y75115D01*
X119400Y75061D01*
X119388Y75024D01*
X119388Y75021D01*
X119389Y74984D01*
X119381Y74930D01*
X119381Y72390D01*
X119392Y72325D01*
X119394Y72259D01*
X119412Y72216D01*
X119420Y72169D01*
X119454Y72112D01*
X119479Y72052D01*
X119510Y72017D01*
X119535Y71976D01*
X119586Y71935D01*
X119630Y71886D01*
X119672Y71864D01*
X119709Y71835D01*
X119771Y71814D01*
X119830Y71783D01*
X119884Y71775D01*
X119921Y71763D01*
X119961Y71764D01*
X120015Y71756D01*
X123825Y71756D01*
X123890Y71767D01*
G37*
D10*
X25400Y25400D03*
X228600Y25400D03*
X25400Y228600D03*
X228600Y228600D03*
D11*
X247650Y6350D03*
X6350Y400050D03*
D12*
X113782Y67808D02*
X119390Y67808D01*
X113782Y67808D02*
X113782Y79512D01*
X119390Y79512D01*
X119390Y67808D01*
X119390Y70202D02*
X113782Y70202D01*
X113782Y72596D02*
X119390Y72596D01*
X119390Y74990D02*
X113782Y74990D01*
X113782Y77384D02*
X119390Y77384D01*
X124196Y67808D02*
X129804Y67808D01*
X124196Y67808D02*
X124196Y79512D01*
X129804Y79512D01*
X129804Y67808D01*
X129804Y70202D02*
X124196Y70202D01*
X124196Y72596D02*
X129804Y72596D01*
X129804Y74990D02*
X124196Y74990D01*
X124196Y77384D02*
X129804Y77384D01*
X134610Y67808D02*
X140218Y67808D01*
X134610Y67808D02*
X134610Y79512D01*
X140218Y79512D01*
X140218Y67808D01*
X140218Y70202D02*
X134610Y70202D01*
X134610Y72596D02*
X140218Y72596D01*
X140218Y74990D02*
X134610Y74990D01*
X134610Y77384D02*
X140218Y77384D01*
X121148Y318760D02*
X121148Y324368D01*
X132852Y324368D01*
X132852Y318760D01*
X121148Y318760D01*
X121148Y321154D02*
X132852Y321154D01*
X132852Y323548D02*
X121148Y323548D01*
X121148Y313954D02*
X121148Y308346D01*
X121148Y313954D02*
X132852Y313954D01*
X132852Y308346D01*
X121148Y308346D01*
X121148Y310740D02*
X132852Y310740D01*
X132852Y313134D02*
X121148Y313134D01*
X121148Y303540D02*
X121148Y297932D01*
X121148Y303540D02*
X132852Y303540D01*
X132852Y297932D01*
X121148Y297932D01*
X121148Y300326D02*
X132852Y300326D01*
X132852Y302720D02*
X121148Y302720D01*
D13*
X190500Y12700D03*
X165100Y12700D03*
X139700Y12700D03*
X114300Y12700D03*
X88900Y12700D03*
X63500Y12700D03*
X12700Y317500D03*
X12700Y292100D03*
X12700Y266700D03*
X241300Y317500D03*
X241300Y292100D03*
X241300Y266700D03*
D12*
X124597Y385308D02*
X118989Y385308D01*
X118989Y397012D01*
X124597Y397012D01*
X124597Y385308D01*
X124597Y387702D02*
X118989Y387702D01*
X118989Y390096D02*
X124597Y390096D01*
X124597Y392490D02*
X118989Y392490D01*
X118989Y394884D02*
X124597Y394884D01*
X129403Y385308D02*
X135011Y385308D01*
X129403Y385308D02*
X129403Y397012D01*
X135011Y397012D01*
X135011Y385308D01*
X135011Y387702D02*
X129403Y387702D01*
X129403Y390096D02*
X135011Y390096D01*
X135011Y392490D02*
X129403Y392490D01*
X129403Y394884D02*
X135011Y394884D01*
X133741Y249692D02*
X128387Y249692D01*
X133741Y249692D02*
X133741Y237988D01*
X128387Y237988D01*
X128387Y249692D01*
X128387Y240382D02*
X133741Y240382D01*
X133741Y242776D02*
X128387Y242776D01*
X128387Y245170D02*
X133741Y245170D01*
X133741Y247564D02*
X128387Y247564D01*
X125613Y249692D02*
X120259Y249692D01*
X125613Y249692D02*
X125613Y237988D01*
X120259Y237988D01*
X120259Y249692D01*
X120259Y240382D02*
X125613Y240382D01*
X125613Y242776D02*
X120259Y242776D01*
X120259Y245170D02*
X125613Y245170D01*
X125613Y247564D02*
X120259Y247564D01*
M02*
