G04 EAGLE Gerber RS-274X export*
G75*
%MOMM*%
%FSLAX34Y34*%
%LPD*%
%INSoldermask Top*%
%IPPOS*%
%AMOC8*
5,1,8,0,0,1.08239X$1,22.5*%
G01*
%ADD10R,1.900000X2.200000*%
%ADD11R,1.900000X1.600000*%
%ADD12R,2.890000X3.000000*%
%ADD13R,3.050000X2.800000*%
%ADD14C,0.257147*%
%ADD15C,0.243431*%
%ADD16C,0.255816*%
%ADD17C,0.250078*%
%ADD18C,0.253525*%
%ADD19C,0.250366*%
%ADD20C,3.454400*%
%ADD21C,0.787400*%
%ADD22C,0.248381*%
%ADD23C,2.032000*%
%ADD24C,0.449434*%


D10*
X76500Y361950D03*
D11*
X76500Y336550D03*
X76500Y311150D03*
X76500Y285750D03*
D10*
X76500Y260350D03*
D12*
X102850Y275650D03*
D13*
X104550Y349250D03*
X149450Y337750D03*
D12*
X151150Y275650D03*
D10*
X177500Y361950D03*
D11*
X177500Y336550D03*
X177500Y311150D03*
X177500Y285750D03*
D10*
X177500Y260350D03*
D14*
X143287Y151527D02*
X136333Y151527D01*
X143287Y151527D02*
X143287Y140573D01*
X136333Y140573D01*
X136333Y151527D01*
X136333Y143015D02*
X143287Y143015D01*
X143287Y145457D02*
X136333Y145457D01*
X136333Y147899D02*
X143287Y147899D01*
X143287Y150341D02*
X136333Y150341D01*
X125287Y151527D02*
X118333Y151527D01*
X125287Y151527D02*
X125287Y140573D01*
X118333Y140573D01*
X118333Y151527D01*
X118333Y143015D02*
X125287Y143015D01*
X125287Y145457D02*
X118333Y145457D01*
X118333Y147899D02*
X125287Y147899D01*
X125287Y150341D02*
X118333Y150341D01*
D15*
X4505Y149455D02*
X4505Y160545D01*
X23595Y160545D01*
X23595Y149455D01*
X4505Y149455D01*
X4505Y151767D02*
X23595Y151767D01*
X23595Y154079D02*
X4505Y154079D01*
X4505Y156391D02*
X23595Y156391D01*
X23595Y158703D02*
X4505Y158703D01*
X4505Y104545D02*
X4505Y93455D01*
X4505Y104545D02*
X23595Y104545D01*
X23595Y93455D01*
X4505Y93455D01*
X4505Y95767D02*
X23595Y95767D01*
X23595Y98079D02*
X4505Y98079D01*
X4505Y100391D02*
X23595Y100391D01*
X23595Y102703D02*
X4505Y102703D01*
D16*
X44567Y139517D02*
X44567Y144483D01*
X57033Y144483D01*
X57033Y139517D01*
X44567Y139517D01*
X44567Y141947D02*
X57033Y141947D01*
X57033Y144377D02*
X44567Y144377D01*
X44567Y134483D02*
X44567Y129517D01*
X44567Y134483D02*
X57033Y134483D01*
X57033Y129517D01*
X44567Y129517D01*
X44567Y131947D02*
X57033Y131947D01*
X57033Y134377D02*
X44567Y134377D01*
X44567Y124483D02*
X44567Y119517D01*
X44567Y124483D02*
X57033Y124483D01*
X57033Y119517D01*
X44567Y119517D01*
X44567Y121947D02*
X57033Y121947D01*
X57033Y124377D02*
X44567Y124377D01*
X44567Y114483D02*
X44567Y109517D01*
X44567Y114483D02*
X57033Y114483D01*
X57033Y109517D01*
X44567Y109517D01*
X44567Y111947D02*
X57033Y111947D01*
X57033Y114377D02*
X44567Y114377D01*
D15*
X249495Y104545D02*
X249495Y93455D01*
X230405Y93455D01*
X230405Y104545D01*
X249495Y104545D01*
X249495Y95767D02*
X230405Y95767D01*
X230405Y98079D02*
X249495Y98079D01*
X249495Y100391D02*
X230405Y100391D01*
X230405Y102703D02*
X249495Y102703D01*
X249495Y149455D02*
X249495Y160545D01*
X249495Y149455D02*
X230405Y149455D01*
X230405Y160545D01*
X249495Y160545D01*
X249495Y151767D02*
X230405Y151767D01*
X230405Y154079D02*
X249495Y154079D01*
X249495Y156391D02*
X230405Y156391D01*
X230405Y158703D02*
X249495Y158703D01*
D16*
X209433Y114483D02*
X209433Y109517D01*
X196967Y109517D01*
X196967Y114483D01*
X209433Y114483D01*
X209433Y111947D02*
X196967Y111947D01*
X196967Y114377D02*
X209433Y114377D01*
X209433Y119517D02*
X209433Y124483D01*
X209433Y119517D02*
X196967Y119517D01*
X196967Y124483D01*
X209433Y124483D01*
X209433Y121947D02*
X196967Y121947D01*
X196967Y124377D02*
X209433Y124377D01*
X209433Y129517D02*
X209433Y134483D01*
X209433Y129517D02*
X196967Y129517D01*
X196967Y134483D01*
X209433Y134483D01*
X209433Y131947D02*
X196967Y131947D01*
X196967Y134377D02*
X209433Y134377D01*
X209433Y139517D02*
X209433Y144483D01*
X209433Y139517D02*
X196967Y139517D01*
X196967Y144483D01*
X209433Y144483D01*
X209433Y141947D02*
X196967Y141947D01*
X196967Y144377D02*
X209433Y144377D01*
D17*
X121023Y121143D02*
X106911Y121143D01*
X106911Y126457D01*
X121023Y126457D01*
X121023Y121143D01*
X121023Y123519D02*
X106911Y123519D01*
X106911Y125895D02*
X121023Y125895D01*
X121023Y111643D02*
X106911Y111643D01*
X106911Y116957D01*
X121023Y116957D01*
X121023Y111643D01*
X121023Y114019D02*
X106911Y114019D01*
X106911Y116395D02*
X121023Y116395D01*
X121023Y102143D02*
X106911Y102143D01*
X106911Y107457D01*
X121023Y107457D01*
X121023Y102143D01*
X121023Y104519D02*
X106911Y104519D01*
X106911Y106895D02*
X121023Y106895D01*
X132977Y102143D02*
X147089Y102143D01*
X132977Y102143D02*
X132977Y107457D01*
X147089Y107457D01*
X147089Y102143D01*
X147089Y104519D02*
X132977Y104519D01*
X132977Y106895D02*
X147089Y106895D01*
X147089Y121143D02*
X132977Y121143D01*
X132977Y126457D01*
X147089Y126457D01*
X147089Y121143D01*
X147089Y123519D02*
X132977Y123519D01*
X132977Y125895D02*
X147089Y125895D01*
D14*
X180737Y126557D02*
X180737Y119603D01*
X169783Y119603D01*
X169783Y126557D01*
X180737Y126557D01*
X180737Y122045D02*
X169783Y122045D01*
X169783Y124487D02*
X180737Y124487D01*
X180737Y137603D02*
X180737Y144557D01*
X180737Y137603D02*
X169783Y137603D01*
X169783Y144557D01*
X180737Y144557D01*
X180737Y140045D02*
X169783Y140045D01*
X169783Y142487D02*
X180737Y142487D01*
D18*
X91845Y167055D02*
X81855Y167055D01*
X91845Y167055D02*
X91845Y158065D01*
X81855Y158065D01*
X81855Y167055D01*
X81855Y160473D02*
X91845Y160473D01*
X91845Y162881D02*
X81855Y162881D01*
X81855Y165289D02*
X91845Y165289D01*
X74845Y167055D02*
X64855Y167055D01*
X74845Y167055D02*
X74845Y158065D01*
X64855Y158065D01*
X64855Y167055D01*
X64855Y160473D02*
X74845Y160473D01*
X74845Y162881D02*
X64855Y162881D01*
X64855Y165289D02*
X74845Y165289D01*
X90755Y127795D02*
X90755Y117805D01*
X90755Y127795D02*
X99745Y127795D01*
X99745Y117805D01*
X90755Y117805D01*
X90755Y120213D02*
X99745Y120213D01*
X99745Y122621D02*
X90755Y122621D01*
X90755Y125029D02*
X99745Y125029D01*
X99745Y127437D02*
X90755Y127437D01*
X90755Y110795D02*
X90755Y100805D01*
X90755Y110795D02*
X99745Y110795D01*
X99745Y100805D01*
X90755Y100805D01*
X90755Y103213D02*
X99745Y103213D01*
X99745Y105621D02*
X90755Y105621D01*
X90755Y108029D02*
X99745Y108029D01*
X99745Y110437D02*
X90755Y110437D01*
X80695Y110795D02*
X80695Y100805D01*
X71705Y100805D01*
X71705Y110795D01*
X80695Y110795D01*
X80695Y103213D02*
X71705Y103213D01*
X71705Y105621D02*
X80695Y105621D01*
X80695Y108029D02*
X71705Y108029D01*
X71705Y110437D02*
X80695Y110437D01*
X80695Y117805D02*
X80695Y127795D01*
X80695Y117805D02*
X71705Y117805D01*
X71705Y127795D01*
X80695Y127795D01*
X80695Y120213D02*
X71705Y120213D01*
X71705Y122621D02*
X80695Y122621D01*
X80695Y125029D02*
X71705Y125029D01*
X71705Y127437D02*
X80695Y127437D01*
X107391Y93395D02*
X117381Y93395D01*
X117381Y84405D01*
X107391Y84405D01*
X107391Y93395D01*
X107391Y86813D02*
X117381Y86813D01*
X117381Y89221D02*
X107391Y89221D01*
X107391Y91629D02*
X117381Y91629D01*
X100381Y93395D02*
X90391Y93395D01*
X100381Y93395D02*
X100381Y84405D01*
X90391Y84405D01*
X90391Y93395D01*
X90391Y86813D02*
X100381Y86813D01*
X100381Y89221D02*
X90391Y89221D01*
X90391Y91629D02*
X100381Y91629D01*
D19*
X88950Y142390D02*
X83630Y142390D01*
X83630Y149710D01*
X88950Y149710D01*
X88950Y142390D01*
X88950Y144769D02*
X83630Y144769D01*
X83630Y147148D02*
X88950Y147148D01*
X88950Y149527D02*
X83630Y149527D01*
X106630Y142390D02*
X111950Y142390D01*
X106630Y142390D02*
X106630Y149710D01*
X111950Y149710D01*
X111950Y142390D01*
X111950Y144769D02*
X106630Y144769D01*
X106630Y147148D02*
X111950Y147148D01*
X111950Y149527D02*
X106630Y149527D01*
D18*
X163245Y110795D02*
X163245Y100805D01*
X154255Y100805D01*
X154255Y110795D01*
X163245Y110795D01*
X163245Y103213D02*
X154255Y103213D01*
X154255Y105621D02*
X163245Y105621D01*
X163245Y108029D02*
X154255Y108029D01*
X154255Y110437D02*
X163245Y110437D01*
X163245Y117805D02*
X163245Y127795D01*
X163245Y117805D02*
X154255Y117805D01*
X154255Y127795D01*
X163245Y127795D01*
X163245Y120213D02*
X154255Y120213D01*
X154255Y122621D02*
X163245Y122621D01*
X163245Y125029D02*
X154255Y125029D01*
X154255Y127437D02*
X163245Y127437D01*
D20*
X25400Y25400D03*
X228600Y25400D03*
X25400Y228600D03*
X228600Y228600D03*
D21*
X6350Y400050D03*
X247650Y6350D03*
D22*
X117520Y203370D02*
X88480Y203370D01*
X117520Y203370D02*
X117520Y190330D01*
X88480Y190330D01*
X88480Y203370D01*
X88480Y192690D02*
X117520Y192690D01*
X117520Y195050D02*
X88480Y195050D01*
X88480Y197410D02*
X117520Y197410D01*
X117520Y199770D02*
X88480Y199770D01*
X88480Y202130D02*
X117520Y202130D01*
X136480Y203370D02*
X165520Y203370D01*
X165520Y190330D01*
X136480Y190330D01*
X136480Y203370D01*
X136480Y192690D02*
X165520Y192690D01*
X165520Y195050D02*
X136480Y195050D01*
X136480Y197410D02*
X165520Y197410D01*
X165520Y199770D02*
X136480Y199770D01*
X136480Y202130D02*
X165520Y202130D01*
D18*
X234365Y356075D02*
X234365Y366065D01*
X234365Y356075D02*
X225375Y356075D01*
X225375Y366065D01*
X234365Y366065D01*
X234365Y358483D02*
X225375Y358483D01*
X225375Y360891D02*
X234365Y360891D01*
X234365Y363299D02*
X225375Y363299D01*
X225375Y365707D02*
X234365Y365707D01*
X234365Y373075D02*
X234365Y383065D01*
X234365Y373075D02*
X225375Y373075D01*
X225375Y383065D01*
X234365Y383065D01*
X234365Y375483D02*
X225375Y375483D01*
X225375Y377891D02*
X234365Y377891D01*
X234365Y380299D02*
X225375Y380299D01*
X225375Y382707D02*
X234365Y382707D01*
X214045Y366065D02*
X214045Y356075D01*
X205055Y356075D01*
X205055Y366065D01*
X214045Y366065D01*
X214045Y358483D02*
X205055Y358483D01*
X205055Y360891D02*
X214045Y360891D01*
X214045Y363299D02*
X205055Y363299D01*
X205055Y365707D02*
X214045Y365707D01*
X214045Y373075D02*
X214045Y383065D01*
X214045Y373075D02*
X205055Y373075D01*
X205055Y383065D01*
X214045Y383065D01*
X214045Y375483D02*
X205055Y375483D01*
X205055Y377891D02*
X214045Y377891D01*
X214045Y380299D02*
X205055Y380299D01*
X205055Y382707D02*
X214045Y382707D01*
X50215Y366065D02*
X50215Y356075D01*
X41225Y356075D01*
X41225Y366065D01*
X50215Y366065D01*
X50215Y358483D02*
X41225Y358483D01*
X41225Y360891D02*
X50215Y360891D01*
X50215Y363299D02*
X41225Y363299D01*
X41225Y365707D02*
X50215Y365707D01*
X50215Y373075D02*
X50215Y383065D01*
X50215Y373075D02*
X41225Y373075D01*
X41225Y383065D01*
X50215Y383065D01*
X50215Y375483D02*
X41225Y375483D01*
X41225Y377891D02*
X50215Y377891D01*
X50215Y380299D02*
X41225Y380299D01*
X41225Y382707D02*
X50215Y382707D01*
X29895Y366065D02*
X29895Y356075D01*
X20905Y356075D01*
X20905Y366065D01*
X29895Y366065D01*
X29895Y358483D02*
X20905Y358483D01*
X20905Y360891D02*
X29895Y360891D01*
X29895Y363299D02*
X20905Y363299D01*
X20905Y365707D02*
X29895Y365707D01*
X29895Y373075D02*
X29895Y383065D01*
X29895Y373075D02*
X20905Y373075D01*
X20905Y383065D01*
X29895Y383065D01*
X29895Y375483D02*
X20905Y375483D01*
X20905Y377891D02*
X29895Y377891D01*
X29895Y380299D02*
X20905Y380299D01*
X20905Y382707D02*
X29895Y382707D01*
X156895Y54915D02*
X156895Y44925D01*
X147905Y44925D01*
X147905Y54915D01*
X156895Y54915D01*
X156895Y47333D02*
X147905Y47333D01*
X147905Y49741D02*
X156895Y49741D01*
X156895Y52149D02*
X147905Y52149D01*
X147905Y54557D02*
X156895Y54557D01*
X156895Y61925D02*
X156895Y71915D01*
X156895Y61925D02*
X147905Y61925D01*
X147905Y71915D01*
X156895Y71915D01*
X156895Y64333D02*
X147905Y64333D01*
X147905Y66741D02*
X156895Y66741D01*
X156895Y69149D02*
X147905Y69149D01*
X147905Y71557D02*
X156895Y71557D01*
X106095Y54915D02*
X106095Y44925D01*
X97105Y44925D01*
X97105Y54915D01*
X106095Y54915D01*
X106095Y47333D02*
X97105Y47333D01*
X97105Y49741D02*
X106095Y49741D01*
X106095Y52149D02*
X97105Y52149D01*
X97105Y54557D02*
X106095Y54557D01*
X106095Y61925D02*
X106095Y71915D01*
X106095Y61925D02*
X97105Y61925D01*
X97105Y71915D01*
X106095Y71915D01*
X106095Y64333D02*
X97105Y64333D01*
X97105Y66741D02*
X106095Y66741D01*
X106095Y69149D02*
X97105Y69149D01*
X97105Y71557D02*
X106095Y71557D01*
D23*
X190500Y12700D03*
X165100Y12700D03*
X139700Y12700D03*
X114300Y12700D03*
X88900Y12700D03*
X63500Y12700D03*
X12700Y317500D03*
X12700Y292100D03*
X12700Y266700D03*
X241300Y317500D03*
X241300Y292100D03*
X241300Y266700D03*
D18*
X140495Y396925D02*
X130505Y396925D01*
X140495Y396925D02*
X140495Y387935D01*
X130505Y387935D01*
X130505Y396925D01*
X130505Y390343D02*
X140495Y390343D01*
X140495Y392751D02*
X130505Y392751D01*
X130505Y395159D02*
X140495Y395159D01*
X123495Y396925D02*
X113505Y396925D01*
X123495Y396925D02*
X123495Y387935D01*
X113505Y387935D01*
X113505Y396925D01*
X113505Y390343D02*
X123495Y390343D01*
X123495Y392751D02*
X113505Y392751D01*
X113505Y395159D02*
X123495Y395159D01*
D24*
X172895Y395945D02*
X172895Y388915D01*
X172895Y395945D02*
X179925Y395945D01*
X179925Y388915D01*
X172895Y388915D01*
X172895Y393184D02*
X179925Y393184D01*
X155355Y395945D02*
X155355Y388915D01*
X155355Y395945D02*
X162385Y395945D01*
X162385Y388915D01*
X155355Y388915D01*
X155355Y393184D02*
X162385Y393184D01*
D18*
X99855Y396925D02*
X89865Y396925D01*
X99855Y396925D02*
X99855Y387935D01*
X89865Y387935D01*
X89865Y396925D01*
X89865Y390343D02*
X99855Y390343D01*
X99855Y392751D02*
X89865Y392751D01*
X89865Y395159D02*
X99855Y395159D01*
X82855Y396925D02*
X72865Y396925D01*
X82855Y396925D02*
X82855Y387935D01*
X72865Y387935D01*
X72865Y396925D01*
X72865Y390343D02*
X82855Y390343D01*
X82855Y392751D02*
X72865Y392751D01*
X72865Y395159D02*
X82855Y395159D01*
M02*
