G04 EAGLE Gerber RS-274X export*
G75*
%MOMM*%
%FSLAX34Y34*%
%LPD*%
%INTop Copper*%
%IPPOS*%
%AMOC8*
5,1,8,0,0,1.08239X$1,22.5*%
G01*
%ADD10C,0.108000*%
%ADD11C,0.105000*%
%ADD12C,0.112000*%
%ADD13C,0.104000*%
%ADD14C,0.096000*%
%ADD15C,0.102000*%
%ADD16C,0.100653*%
%ADD17C,0.100000*%
%ADD18C,0.100800*%
%ADD19C,0.635000*%
%ADD20C,0.098000*%
%ADD21C,1.879600*%
%ADD22C,0.300000*%
%ADD23C,0.635000*%
%ADD24C,0.381000*%
%ADD25C,0.736600*%
%ADD26C,0.177800*%
%ADD27C,0.254000*%
%ADD28C,0.762000*%
%ADD29C,1.270000*%

G36*
X167199Y129485D02*
X167199Y129485D01*
X167318Y129489D01*
X167357Y129500D01*
X167397Y129504D01*
X167509Y129544D01*
X167624Y129577D01*
X167658Y129598D01*
X167696Y129612D01*
X167795Y129678D01*
X167898Y129739D01*
X167943Y129779D01*
X167960Y129790D01*
X167973Y129805D01*
X168018Y129845D01*
X168302Y130129D01*
X182499Y130129D01*
X182617Y130144D01*
X182736Y130151D01*
X182774Y130164D01*
X182815Y130169D01*
X182925Y130212D01*
X183038Y130249D01*
X183073Y130271D01*
X183110Y130286D01*
X183206Y130355D01*
X183307Y130419D01*
X183335Y130449D01*
X183368Y130472D01*
X183444Y130564D01*
X183525Y130651D01*
X183545Y130686D01*
X183570Y130717D01*
X183621Y130825D01*
X183679Y130929D01*
X183689Y130969D01*
X183706Y131005D01*
X183728Y131122D01*
X183758Y131237D01*
X183762Y131297D01*
X183766Y131317D01*
X183764Y131338D01*
X183768Y131398D01*
X183768Y133616D01*
X183752Y133747D01*
X183741Y133879D01*
X183732Y133905D01*
X183728Y133931D01*
X183680Y134054D01*
X183636Y134180D01*
X183621Y134202D01*
X183611Y134227D01*
X183533Y134334D01*
X183460Y134445D01*
X183440Y134463D01*
X183425Y134484D01*
X183322Y134569D01*
X183224Y134658D01*
X183200Y134670D01*
X183180Y134687D01*
X183060Y134744D01*
X182942Y134805D01*
X182916Y134811D01*
X182892Y134823D01*
X182762Y134848D01*
X182633Y134878D01*
X182606Y134877D01*
X182580Y134882D01*
X182448Y134874D01*
X182315Y134872D01*
X182289Y134864D01*
X182262Y134863D01*
X182136Y134822D01*
X182008Y134786D01*
X181974Y134769D01*
X181960Y134765D01*
X181942Y134753D01*
X181143Y134539D01*
X177259Y134539D01*
X177259Y139081D01*
X183801Y139081D01*
X183801Y137965D01*
X183818Y137827D01*
X183831Y137689D01*
X183838Y137670D01*
X183841Y137650D01*
X183892Y137520D01*
X183939Y137389D01*
X183950Y137373D01*
X183958Y137354D01*
X184039Y137241D01*
X184117Y137126D01*
X184133Y137113D01*
X184144Y137096D01*
X184252Y137008D01*
X184356Y136916D01*
X184374Y136907D01*
X184389Y136894D01*
X184515Y136834D01*
X184639Y136771D01*
X184659Y136767D01*
X184677Y136758D01*
X184814Y136732D01*
X184949Y136702D01*
X184970Y136702D01*
X184989Y136698D01*
X185128Y136707D01*
X185267Y136711D01*
X185287Y136717D01*
X185307Y136718D01*
X185439Y136761D01*
X185573Y136800D01*
X185590Y136810D01*
X185609Y136816D01*
X185727Y136890D01*
X185847Y136961D01*
X185868Y136980D01*
X185878Y136986D01*
X185892Y137001D01*
X185967Y137068D01*
X186687Y137787D01*
X189161Y138812D01*
X191938Y138812D01*
X191952Y138808D01*
X192002Y138807D01*
X192052Y138797D01*
X192161Y138804D01*
X192270Y138802D01*
X192319Y138814D01*
X192369Y138817D01*
X192473Y138851D01*
X192579Y138876D01*
X192624Y138900D01*
X192671Y138915D01*
X192764Y138974D01*
X192861Y139025D01*
X192898Y139059D01*
X192940Y139085D01*
X193015Y139165D01*
X193096Y139239D01*
X193124Y139280D01*
X193158Y139317D01*
X193211Y139413D01*
X193271Y139504D01*
X193287Y139552D01*
X193312Y139596D01*
X193339Y139701D01*
X193375Y139805D01*
X193379Y139855D01*
X193391Y139903D01*
X193401Y140064D01*
X193401Y145964D01*
X195486Y148049D01*
X209660Y148049D01*
X209798Y148066D01*
X209936Y148079D01*
X209955Y148086D01*
X209975Y148089D01*
X210105Y148140D01*
X210236Y148187D01*
X210252Y148198D01*
X210271Y148206D01*
X210383Y148287D01*
X210499Y148365D01*
X210512Y148381D01*
X210529Y148392D01*
X210617Y148500D01*
X210709Y148604D01*
X210718Y148622D01*
X210731Y148637D01*
X210791Y148763D01*
X210854Y148887D01*
X210858Y148907D01*
X210867Y148925D01*
X210893Y149061D01*
X210923Y149197D01*
X210923Y149218D01*
X210927Y149237D01*
X210918Y149376D01*
X210914Y149515D01*
X210908Y149535D01*
X210907Y149555D01*
X210864Y149686D01*
X210825Y149821D01*
X210815Y149838D01*
X210809Y149857D01*
X210735Y149975D01*
X210664Y150095D01*
X210645Y150116D01*
X210639Y150126D01*
X210624Y150140D01*
X210557Y150215D01*
X192635Y168137D01*
X191063Y169710D01*
X190309Y171530D01*
X190309Y247318D01*
X190292Y247456D01*
X190279Y247595D01*
X190272Y247614D01*
X190269Y247634D01*
X190218Y247763D01*
X190171Y247894D01*
X190160Y247911D01*
X190152Y247929D01*
X190071Y248042D01*
X189993Y248157D01*
X189977Y248170D01*
X189966Y248187D01*
X189859Y248275D01*
X189754Y248368D01*
X189736Y248377D01*
X189721Y248390D01*
X189595Y248449D01*
X189471Y248512D01*
X189451Y248517D01*
X189433Y248525D01*
X189297Y248551D01*
X189161Y248582D01*
X189140Y248581D01*
X189121Y248585D01*
X188982Y248576D01*
X188843Y248572D01*
X188823Y248566D01*
X188803Y248565D01*
X188671Y248522D01*
X188537Y248484D01*
X188520Y248473D01*
X188501Y248467D01*
X188383Y248393D01*
X188263Y248322D01*
X188242Y248304D01*
X188232Y248297D01*
X188218Y248282D01*
X188142Y248216D01*
X187852Y247925D01*
X187149Y247519D01*
X186366Y247309D01*
X180039Y247309D01*
X180039Y259080D01*
X180024Y259198D01*
X180017Y259317D01*
X180004Y259355D01*
X179999Y259395D01*
X179956Y259506D01*
X179919Y259619D01*
X179897Y259654D01*
X179882Y259691D01*
X179812Y259787D01*
X179749Y259888D01*
X179719Y259916D01*
X179695Y259948D01*
X179604Y260024D01*
X179517Y260106D01*
X179482Y260125D01*
X179450Y260151D01*
X179343Y260202D01*
X179239Y260259D01*
X179199Y260270D01*
X179163Y260287D01*
X179046Y260309D01*
X178931Y260339D01*
X178870Y260343D01*
X178850Y260347D01*
X178830Y260345D01*
X178770Y260349D01*
X176230Y260349D01*
X176112Y260334D01*
X175993Y260327D01*
X175955Y260314D01*
X175915Y260309D01*
X175804Y260265D01*
X175691Y260229D01*
X175656Y260207D01*
X175619Y260192D01*
X175523Y260122D01*
X175422Y260059D01*
X175394Y260029D01*
X175361Y260005D01*
X175286Y259914D01*
X175204Y259827D01*
X175184Y259792D01*
X175159Y259760D01*
X175108Y259653D01*
X175050Y259549D01*
X175040Y259509D01*
X175023Y259473D01*
X175001Y259356D01*
X174971Y259241D01*
X174967Y259180D01*
X174963Y259160D01*
X174965Y259140D01*
X174961Y259080D01*
X174961Y247309D01*
X168634Y247309D01*
X167851Y247519D01*
X167148Y247925D01*
X166575Y248498D01*
X166169Y249201D01*
X165959Y249984D01*
X165959Y257340D01*
X165944Y257458D01*
X165937Y257577D01*
X165924Y257615D01*
X165919Y257656D01*
X165876Y257766D01*
X165839Y257879D01*
X165817Y257914D01*
X165802Y257951D01*
X165733Y258047D01*
X165669Y258148D01*
X165639Y258176D01*
X165616Y258209D01*
X165524Y258285D01*
X165437Y258366D01*
X165402Y258386D01*
X165371Y258411D01*
X165263Y258462D01*
X165159Y258520D01*
X165119Y258530D01*
X165083Y258547D01*
X164966Y258569D01*
X164851Y258599D01*
X164791Y258603D01*
X164771Y258607D01*
X164750Y258605D01*
X164690Y258609D01*
X153689Y258609D01*
X153689Y274380D01*
X153674Y274498D01*
X153667Y274617D01*
X153654Y274655D01*
X153649Y274695D01*
X153605Y274806D01*
X153569Y274919D01*
X153547Y274954D01*
X153532Y274991D01*
X153462Y275087D01*
X153399Y275188D01*
X153369Y275216D01*
X153345Y275248D01*
X153254Y275324D01*
X153167Y275406D01*
X153132Y275425D01*
X153100Y275451D01*
X152993Y275502D01*
X152889Y275559D01*
X152849Y275570D01*
X152813Y275587D01*
X152696Y275609D01*
X152581Y275639D01*
X152520Y275643D01*
X152500Y275647D01*
X152480Y275645D01*
X152420Y275649D01*
X151149Y275649D01*
X151149Y275651D01*
X152420Y275651D01*
X152538Y275666D01*
X152657Y275673D01*
X152695Y275686D01*
X152735Y275691D01*
X152846Y275735D01*
X152959Y275771D01*
X152994Y275793D01*
X153031Y275808D01*
X153127Y275878D01*
X153228Y275941D01*
X153256Y275971D01*
X153288Y275995D01*
X153364Y276086D01*
X153446Y276173D01*
X153465Y276208D01*
X153491Y276240D01*
X153542Y276347D01*
X153599Y276451D01*
X153610Y276491D01*
X153627Y276527D01*
X153649Y276644D01*
X153679Y276759D01*
X153683Y276820D01*
X153687Y276840D01*
X153685Y276860D01*
X153686Y276870D01*
X153687Y276873D01*
X153686Y276876D01*
X153689Y276920D01*
X153689Y292691D01*
X164182Y292691D01*
X164300Y292706D01*
X164419Y292713D01*
X164457Y292726D01*
X164498Y292731D01*
X164608Y292774D01*
X164721Y292811D01*
X164756Y292833D01*
X164793Y292848D01*
X164889Y292917D01*
X164990Y292981D01*
X165018Y293011D01*
X165051Y293034D01*
X165127Y293126D01*
X165208Y293213D01*
X165228Y293248D01*
X165253Y293279D01*
X165304Y293387D01*
X165362Y293491D01*
X165372Y293531D01*
X165389Y293567D01*
X165411Y293684D01*
X165441Y293799D01*
X165445Y293859D01*
X165449Y293879D01*
X165447Y293900D01*
X165451Y293960D01*
X165451Y294205D01*
X167545Y296299D01*
X187455Y296299D01*
X189549Y294205D01*
X189549Y291973D01*
X189564Y291855D01*
X189571Y291736D01*
X189584Y291698D01*
X189589Y291657D01*
X189632Y291547D01*
X189669Y291434D01*
X189691Y291399D01*
X189706Y291362D01*
X189775Y291266D01*
X189839Y291165D01*
X189869Y291137D01*
X189892Y291104D01*
X189984Y291028D01*
X190071Y290947D01*
X190106Y290927D01*
X190137Y290902D01*
X190245Y290851D01*
X190349Y290793D01*
X190389Y290783D01*
X190425Y290766D01*
X190542Y290744D01*
X190657Y290714D01*
X190717Y290710D01*
X190737Y290706D01*
X190758Y290708D01*
X190818Y290704D01*
X191185Y290704D01*
X193006Y289950D01*
X199463Y283493D01*
X200217Y281672D01*
X200217Y175093D01*
X200229Y174995D01*
X200232Y174896D01*
X200249Y174838D01*
X200257Y174778D01*
X200293Y174686D01*
X200321Y174591D01*
X200351Y174538D01*
X200374Y174482D01*
X200432Y174402D01*
X200482Y174317D01*
X200548Y174241D01*
X200560Y174225D01*
X200570Y174217D01*
X200588Y174196D01*
X224735Y150050D01*
X224844Y149964D01*
X224951Y149876D01*
X224970Y149867D01*
X224986Y149855D01*
X225114Y149799D01*
X225239Y149740D01*
X225259Y149736D01*
X225278Y149728D01*
X225416Y149706D01*
X225552Y149680D01*
X225572Y149682D01*
X225592Y149679D01*
X225731Y149692D01*
X225869Y149700D01*
X225888Y149706D01*
X225908Y149708D01*
X226040Y149756D01*
X226171Y149798D01*
X226189Y149809D01*
X226208Y149816D01*
X226323Y149894D01*
X226440Y149968D01*
X226454Y149983D01*
X226471Y149995D01*
X226563Y150099D01*
X226658Y150200D01*
X226668Y150218D01*
X226681Y150233D01*
X226745Y150357D01*
X226812Y150479D01*
X226817Y150498D01*
X226826Y150516D01*
X226856Y150652D01*
X226891Y150786D01*
X226893Y150815D01*
X226896Y150827D01*
X226895Y150847D01*
X226901Y150947D01*
X226901Y161982D01*
X228968Y164049D01*
X248666Y164049D01*
X248784Y164064D01*
X248903Y164071D01*
X248941Y164084D01*
X248982Y164089D01*
X249092Y164132D01*
X249205Y164169D01*
X249240Y164191D01*
X249277Y164206D01*
X249373Y164275D01*
X249474Y164339D01*
X249502Y164369D01*
X249535Y164392D01*
X249611Y164484D01*
X249692Y164571D01*
X249712Y164606D01*
X249737Y164637D01*
X249788Y164745D01*
X249846Y164849D01*
X249856Y164889D01*
X249873Y164925D01*
X249895Y165042D01*
X249925Y165157D01*
X249929Y165217D01*
X249933Y165237D01*
X249931Y165258D01*
X249935Y165318D01*
X249935Y215603D01*
X249917Y215748D01*
X249902Y215893D01*
X249897Y215906D01*
X249895Y215919D01*
X249842Y216054D01*
X249791Y216191D01*
X249783Y216202D01*
X249778Y216215D01*
X249693Y216332D01*
X249610Y216452D01*
X249599Y216461D01*
X249592Y216472D01*
X249480Y216565D01*
X249369Y216660D01*
X249357Y216666D01*
X249347Y216675D01*
X249215Y216737D01*
X249084Y216802D01*
X249071Y216805D01*
X249059Y216810D01*
X248917Y216838D01*
X248773Y216868D01*
X248760Y216868D01*
X248747Y216870D01*
X248602Y216861D01*
X248456Y216855D01*
X248442Y216851D01*
X248429Y216850D01*
X248291Y216806D01*
X248151Y216763D01*
X248139Y216756D01*
X248127Y216752D01*
X248004Y216675D01*
X247879Y216599D01*
X247869Y216589D01*
X247858Y216582D01*
X247758Y216476D01*
X247656Y216372D01*
X247646Y216357D01*
X247640Y216351D01*
X247632Y216336D01*
X247567Y216238D01*
X246185Y213845D01*
X240078Y208720D01*
X232586Y205993D01*
X224614Y205993D01*
X217122Y208720D01*
X211015Y213844D01*
X207029Y220749D01*
X205645Y228600D01*
X207029Y236451D01*
X211015Y243355D01*
X217122Y248480D01*
X224614Y251207D01*
X232586Y251207D01*
X240078Y248480D01*
X246185Y243356D01*
X247567Y240962D01*
X247655Y240846D01*
X247740Y240728D01*
X247751Y240719D01*
X247759Y240709D01*
X247873Y240618D01*
X247985Y240525D01*
X247998Y240519D01*
X248008Y240511D01*
X248142Y240451D01*
X248273Y240390D01*
X248286Y240387D01*
X248299Y240382D01*
X248443Y240357D01*
X248586Y240330D01*
X248599Y240331D01*
X248612Y240328D01*
X248758Y240341D01*
X248903Y240350D01*
X248916Y240354D01*
X248929Y240355D01*
X249067Y240403D01*
X249205Y240448D01*
X249217Y240455D01*
X249230Y240459D01*
X249351Y240540D01*
X249474Y240618D01*
X249483Y240628D01*
X249495Y240635D01*
X249592Y240743D01*
X249692Y240849D01*
X249699Y240861D01*
X249708Y240871D01*
X249775Y241001D01*
X249846Y241128D01*
X249849Y241141D01*
X249855Y241153D01*
X249889Y241295D01*
X249925Y241436D01*
X249926Y241454D01*
X249928Y241463D01*
X249928Y241480D01*
X249935Y241597D01*
X249935Y254905D01*
X249929Y254954D01*
X249931Y255004D01*
X249909Y255111D01*
X249895Y255221D01*
X249877Y255267D01*
X249867Y255315D01*
X249819Y255414D01*
X249778Y255516D01*
X249749Y255556D01*
X249727Y255601D01*
X249656Y255685D01*
X249592Y255774D01*
X249553Y255805D01*
X249521Y255843D01*
X249431Y255906D01*
X249347Y255976D01*
X249302Y255998D01*
X249261Y256026D01*
X249158Y256065D01*
X249059Y256112D01*
X249010Y256121D01*
X248964Y256139D01*
X248854Y256151D01*
X248747Y256172D01*
X248697Y256169D01*
X248648Y256174D01*
X248539Y256159D01*
X248429Y256152D01*
X248382Y256137D01*
X248333Y256130D01*
X248180Y256078D01*
X243776Y254253D01*
X238824Y254253D01*
X234250Y256148D01*
X230748Y259650D01*
X230204Y260963D01*
X230195Y260980D01*
X230190Y260993D01*
X230186Y261000D01*
X230180Y261016D01*
X230111Y261126D01*
X230047Y261239D01*
X230026Y261260D01*
X230010Y261285D01*
X229916Y261374D01*
X229825Y261467D01*
X229800Y261483D01*
X229779Y261503D01*
X229665Y261566D01*
X229554Y261634D01*
X229526Y261642D01*
X229500Y261657D01*
X229374Y261689D01*
X229250Y261727D01*
X229221Y261729D01*
X229192Y261736D01*
X229032Y261746D01*
X223805Y261746D01*
X221984Y262500D01*
X209160Y275324D01*
X208406Y277145D01*
X208406Y325082D01*
X208394Y325181D01*
X208391Y325280D01*
X208374Y325338D01*
X208366Y325398D01*
X208330Y325490D01*
X208302Y325585D01*
X208272Y325637D01*
X208249Y325694D01*
X208191Y325774D01*
X208141Y325859D01*
X208075Y325934D01*
X208063Y325951D01*
X208053Y325959D01*
X208035Y325980D01*
X202790Y331225D01*
X202712Y331285D01*
X202639Y331353D01*
X202586Y331382D01*
X202539Y331419D01*
X202448Y331459D01*
X202361Y331507D01*
X202302Y331522D01*
X202247Y331546D01*
X202149Y331561D01*
X202053Y331586D01*
X201953Y331592D01*
X201933Y331596D01*
X201920Y331594D01*
X201892Y331596D01*
X190818Y331596D01*
X190700Y331581D01*
X190581Y331574D01*
X190543Y331561D01*
X190502Y331556D01*
X190392Y331513D01*
X190279Y331476D01*
X190244Y331454D01*
X190207Y331439D01*
X190111Y331370D01*
X190010Y331306D01*
X189982Y331276D01*
X189949Y331253D01*
X189873Y331161D01*
X189792Y331074D01*
X189772Y331039D01*
X189747Y331008D01*
X189696Y330900D01*
X189638Y330796D01*
X189628Y330756D01*
X189611Y330720D01*
X189589Y330603D01*
X189559Y330488D01*
X189555Y330428D01*
X189551Y330408D01*
X189553Y330387D01*
X189549Y330327D01*
X189549Y328095D01*
X187455Y326001D01*
X168010Y326001D01*
X167892Y325986D01*
X167773Y325979D01*
X167735Y325966D01*
X167694Y325961D01*
X167584Y325918D01*
X167471Y325881D01*
X167436Y325859D01*
X167399Y325844D01*
X167303Y325775D01*
X167202Y325711D01*
X167174Y325681D01*
X167141Y325658D01*
X167065Y325566D01*
X166984Y325479D01*
X166964Y325444D01*
X166939Y325413D01*
X166888Y325305D01*
X166830Y325201D01*
X166820Y325161D01*
X166803Y325125D01*
X166781Y325008D01*
X166751Y324893D01*
X166747Y324833D01*
X166743Y324813D01*
X166745Y324792D01*
X166741Y324732D01*
X166741Y324334D01*
X166517Y323498D01*
X166509Y323480D01*
X166453Y323361D01*
X166448Y323334D01*
X166437Y323310D01*
X166418Y323178D01*
X166393Y323048D01*
X166395Y323022D01*
X166391Y322995D01*
X166405Y322863D01*
X166413Y322731D01*
X166421Y322706D01*
X166424Y322679D01*
X166470Y322554D01*
X166511Y322429D01*
X166525Y322406D01*
X166535Y322381D01*
X166610Y322271D01*
X166681Y322160D01*
X166701Y322141D01*
X166716Y322119D01*
X166816Y322033D01*
X166913Y321942D01*
X166936Y321929D01*
X166957Y321911D01*
X167075Y321852D01*
X167191Y321788D01*
X167217Y321782D01*
X167241Y321770D01*
X167371Y321742D01*
X167499Y321709D01*
X167537Y321707D01*
X167552Y321703D01*
X167574Y321704D01*
X167660Y321699D01*
X187455Y321699D01*
X189549Y319605D01*
X189549Y302695D01*
X187455Y300601D01*
X167545Y300601D01*
X165448Y302698D01*
X165445Y302720D01*
X165447Y302769D01*
X165425Y302877D01*
X165411Y302986D01*
X165393Y303032D01*
X165383Y303081D01*
X165335Y303179D01*
X165294Y303282D01*
X165265Y303322D01*
X165243Y303366D01*
X165172Y303450D01*
X165108Y303539D01*
X165069Y303571D01*
X165037Y303608D01*
X164947Y303672D01*
X164863Y303742D01*
X164818Y303763D01*
X164777Y303792D01*
X164674Y303831D01*
X164575Y303877D01*
X164526Y303887D01*
X164480Y303904D01*
X164370Y303916D01*
X164263Y303937D01*
X164213Y303934D01*
X164164Y303940D01*
X164055Y303924D01*
X163945Y303917D01*
X163898Y303902D01*
X163849Y303895D01*
X163696Y303843D01*
X163245Y303656D01*
X156222Y303656D01*
X156124Y303644D01*
X156025Y303641D01*
X155967Y303624D01*
X155907Y303616D01*
X155815Y303580D01*
X155719Y303552D01*
X155667Y303522D01*
X155611Y303499D01*
X155531Y303441D01*
X155445Y303391D01*
X155370Y303325D01*
X155354Y303313D01*
X155346Y303303D01*
X155325Y303285D01*
X154943Y302903D01*
X152469Y301878D01*
X149791Y301878D01*
X147317Y302903D01*
X145423Y304797D01*
X144398Y307271D01*
X144398Y309949D01*
X145423Y312423D01*
X147317Y314317D01*
X149791Y315342D01*
X152469Y315342D01*
X154943Y314317D01*
X155325Y313935D01*
X155403Y313875D01*
X155475Y313807D01*
X155528Y313778D01*
X155576Y313741D01*
X155667Y313701D01*
X155754Y313653D01*
X155812Y313638D01*
X155868Y313614D01*
X155966Y313599D01*
X156061Y313574D01*
X156161Y313568D01*
X156182Y313564D01*
X156194Y313566D01*
X156222Y313564D01*
X159682Y313564D01*
X159781Y313576D01*
X159880Y313579D01*
X159938Y313596D01*
X159998Y313604D01*
X160090Y313640D01*
X160185Y313668D01*
X160237Y313698D01*
X160294Y313721D01*
X160374Y313779D01*
X160459Y313829D01*
X160534Y313895D01*
X160551Y313907D01*
X160559Y313917D01*
X160580Y313935D01*
X161994Y315350D01*
X163815Y316104D01*
X164182Y316104D01*
X164300Y316119D01*
X164419Y316126D01*
X164457Y316139D01*
X164498Y316144D01*
X164608Y316187D01*
X164721Y316224D01*
X164756Y316246D01*
X164793Y316261D01*
X164889Y316330D01*
X164990Y316394D01*
X165018Y316424D01*
X165051Y316447D01*
X165127Y316539D01*
X165208Y316626D01*
X165228Y316661D01*
X165253Y316692D01*
X165304Y316800D01*
X165362Y316904D01*
X165372Y316944D01*
X165389Y316980D01*
X165411Y317097D01*
X165441Y317212D01*
X165445Y317272D01*
X165449Y317292D01*
X165447Y317313D01*
X165451Y317373D01*
X165451Y319616D01*
X165504Y319684D01*
X165596Y319797D01*
X165601Y319809D01*
X165610Y319820D01*
X165668Y319954D01*
X165728Y320086D01*
X165731Y320099D01*
X165736Y320112D01*
X165759Y320256D01*
X165785Y320399D01*
X165784Y320413D01*
X165786Y320426D01*
X165772Y320571D01*
X165762Y320716D01*
X165757Y320729D01*
X165756Y320743D01*
X165707Y320880D01*
X165660Y321018D01*
X165653Y321029D01*
X165649Y321042D01*
X165566Y321163D01*
X165487Y321285D01*
X165478Y321294D01*
X165470Y321305D01*
X165360Y321402D01*
X165253Y321500D01*
X165242Y321507D01*
X165232Y321515D01*
X165101Y321582D01*
X164973Y321651D01*
X164960Y321654D01*
X164948Y321660D01*
X164805Y321692D01*
X164665Y321727D01*
X164651Y321727D01*
X164638Y321730D01*
X164492Y321725D01*
X164347Y321724D01*
X164329Y321720D01*
X164320Y321720D01*
X164304Y321715D01*
X164189Y321692D01*
X164066Y321659D01*
X151989Y321659D01*
X151989Y336430D01*
X151974Y336548D01*
X151967Y336667D01*
X151954Y336705D01*
X151949Y336745D01*
X151905Y336856D01*
X151869Y336969D01*
X151847Y337004D01*
X151832Y337041D01*
X151762Y337137D01*
X151699Y337238D01*
X151669Y337266D01*
X151645Y337298D01*
X151554Y337374D01*
X151467Y337456D01*
X151432Y337475D01*
X151400Y337501D01*
X151293Y337552D01*
X151189Y337609D01*
X151149Y337620D01*
X151113Y337637D01*
X150996Y337659D01*
X150881Y337689D01*
X150820Y337693D01*
X150800Y337697D01*
X150780Y337695D01*
X150720Y337699D01*
X148180Y337699D01*
X148062Y337684D01*
X147943Y337677D01*
X147905Y337664D01*
X147865Y337659D01*
X147754Y337615D01*
X147641Y337579D01*
X147606Y337557D01*
X147569Y337542D01*
X147473Y337472D01*
X147372Y337409D01*
X147344Y337379D01*
X147311Y337355D01*
X147236Y337264D01*
X147154Y337177D01*
X147134Y337142D01*
X147109Y337110D01*
X147058Y337003D01*
X147000Y336899D01*
X146990Y336859D01*
X146973Y336823D01*
X146951Y336706D01*
X146921Y336591D01*
X146917Y336530D01*
X146913Y336510D01*
X146915Y336490D01*
X146911Y336430D01*
X146911Y321659D01*
X134834Y321659D01*
X134051Y321869D01*
X133348Y322275D01*
X132775Y322848D01*
X132369Y323551D01*
X132159Y324334D01*
X132159Y329501D01*
X132153Y329550D01*
X132155Y329600D01*
X132133Y329707D01*
X132119Y329817D01*
X132101Y329863D01*
X132091Y329911D01*
X132043Y330010D01*
X132002Y330112D01*
X131973Y330153D01*
X131951Y330197D01*
X131880Y330281D01*
X131816Y330370D01*
X131777Y330401D01*
X131745Y330439D01*
X131655Y330502D01*
X131571Y330572D01*
X131526Y330594D01*
X131485Y330622D01*
X131382Y330661D01*
X131283Y330708D01*
X131234Y330717D01*
X131188Y330735D01*
X131078Y330747D01*
X130971Y330768D01*
X130921Y330765D01*
X130872Y330770D01*
X130763Y330755D01*
X130653Y330748D01*
X130606Y330733D01*
X130557Y330726D01*
X130404Y330674D01*
X128339Y329818D01*
X125661Y329818D01*
X123187Y330843D01*
X121244Y332786D01*
X121192Y332878D01*
X121166Y332904D01*
X121147Y332935D01*
X121056Y333018D01*
X120970Y333106D01*
X120939Y333125D01*
X120913Y333150D01*
X120804Y333208D01*
X120699Y333273D01*
X120665Y333283D01*
X120633Y333301D01*
X120513Y333330D01*
X120395Y333366D01*
X120359Y333368D01*
X120324Y333377D01*
X120201Y333376D01*
X120078Y333381D01*
X120042Y333374D01*
X120006Y333374D01*
X119848Y333342D01*
X119166Y333159D01*
X107089Y333159D01*
X107089Y347930D01*
X107074Y348048D01*
X107067Y348167D01*
X107054Y348205D01*
X107049Y348245D01*
X107005Y348356D01*
X106969Y348469D01*
X106947Y348504D01*
X106932Y348541D01*
X106862Y348637D01*
X106799Y348738D01*
X106769Y348766D01*
X106745Y348798D01*
X106654Y348874D01*
X106567Y348956D01*
X106532Y348975D01*
X106500Y349001D01*
X106393Y349052D01*
X106289Y349109D01*
X106249Y349120D01*
X106213Y349137D01*
X106096Y349159D01*
X105981Y349189D01*
X105920Y349193D01*
X105900Y349197D01*
X105880Y349195D01*
X105820Y349199D01*
X103280Y349199D01*
X103162Y349184D01*
X103043Y349177D01*
X103005Y349164D01*
X102965Y349159D01*
X102854Y349115D01*
X102741Y349079D01*
X102706Y349057D01*
X102669Y349042D01*
X102573Y348972D01*
X102472Y348909D01*
X102444Y348879D01*
X102411Y348855D01*
X102336Y348764D01*
X102254Y348677D01*
X102234Y348642D01*
X102209Y348610D01*
X102158Y348503D01*
X102100Y348399D01*
X102090Y348359D01*
X102073Y348323D01*
X102051Y348206D01*
X102021Y348091D01*
X102017Y348030D01*
X102013Y348010D01*
X102015Y347990D01*
X102011Y347930D01*
X102011Y333159D01*
X89818Y333159D01*
X89700Y333144D01*
X89581Y333137D01*
X89543Y333124D01*
X89502Y333119D01*
X89392Y333076D01*
X89279Y333039D01*
X89244Y333017D01*
X89207Y333002D01*
X89111Y332933D01*
X89010Y332869D01*
X88982Y332839D01*
X88949Y332816D01*
X88873Y332724D01*
X88792Y332637D01*
X88772Y332602D01*
X88747Y332571D01*
X88696Y332463D01*
X88638Y332359D01*
X88628Y332319D01*
X88611Y332283D01*
X88589Y332166D01*
X88559Y332051D01*
X88555Y331991D01*
X88551Y331971D01*
X88553Y331950D01*
X88549Y331890D01*
X88549Y328095D01*
X86455Y326001D01*
X66545Y326001D01*
X64451Y328095D01*
X64451Y330327D01*
X64436Y330445D01*
X64429Y330564D01*
X64416Y330602D01*
X64411Y330643D01*
X64368Y330753D01*
X64331Y330866D01*
X64309Y330901D01*
X64294Y330938D01*
X64225Y331034D01*
X64161Y331135D01*
X64131Y331163D01*
X64108Y331196D01*
X64016Y331272D01*
X63929Y331353D01*
X63894Y331373D01*
X63863Y331398D01*
X63755Y331449D01*
X63651Y331507D01*
X63611Y331517D01*
X63575Y331534D01*
X63458Y331556D01*
X63343Y331586D01*
X63283Y331590D01*
X63263Y331594D01*
X63242Y331592D01*
X63182Y331596D01*
X60998Y331596D01*
X60899Y331584D01*
X60800Y331581D01*
X60742Y331564D01*
X60682Y331556D01*
X60590Y331520D01*
X60495Y331492D01*
X60443Y331462D01*
X60386Y331439D01*
X60306Y331381D01*
X60221Y331331D01*
X60146Y331265D01*
X60129Y331253D01*
X60121Y331243D01*
X60100Y331225D01*
X42176Y313300D01*
X40355Y312546D01*
X24968Y312546D01*
X24939Y312543D01*
X24910Y312545D01*
X24782Y312523D01*
X24653Y312506D01*
X24625Y312496D01*
X24596Y312491D01*
X24478Y312437D01*
X24357Y312389D01*
X24333Y312372D01*
X24306Y312360D01*
X24205Y312279D01*
X24100Y312203D01*
X24081Y312180D01*
X24058Y312161D01*
X23980Y312058D01*
X23897Y311958D01*
X23884Y311931D01*
X23867Y311907D01*
X23796Y311763D01*
X23252Y310450D01*
X19750Y306948D01*
X16725Y305695D01*
X16699Y305680D01*
X16670Y305671D01*
X16561Y305601D01*
X16448Y305537D01*
X16427Y305516D01*
X16402Y305500D01*
X16313Y305406D01*
X16220Y305316D01*
X16204Y305290D01*
X16184Y305269D01*
X16121Y305155D01*
X16054Y305045D01*
X16045Y305016D01*
X16031Y304990D01*
X15998Y304865D01*
X15960Y304741D01*
X15959Y304711D01*
X15951Y304682D01*
X15951Y304552D01*
X15945Y304423D01*
X15951Y304394D01*
X15951Y304364D01*
X15983Y304239D01*
X16009Y304112D01*
X16022Y304085D01*
X16030Y304056D01*
X16092Y303943D01*
X16149Y303826D01*
X16168Y303803D01*
X16183Y303777D01*
X16271Y303683D01*
X16355Y303584D01*
X16380Y303567D01*
X16400Y303545D01*
X16509Y303476D01*
X16615Y303401D01*
X16643Y303390D01*
X16669Y303374D01*
X16818Y303315D01*
X17283Y303164D01*
X18957Y302311D01*
X20478Y301206D01*
X21806Y299878D01*
X22911Y298357D01*
X23764Y296683D01*
X24345Y294896D01*
X24385Y294639D01*
X13970Y294639D01*
X13852Y294624D01*
X13733Y294617D01*
X13695Y294604D01*
X13655Y294599D01*
X13544Y294556D01*
X13431Y294519D01*
X13397Y294497D01*
X13359Y294482D01*
X13263Y294412D01*
X13162Y294349D01*
X13134Y294319D01*
X13102Y294295D01*
X13026Y294204D01*
X12944Y294117D01*
X12925Y294082D01*
X12899Y294051D01*
X12848Y293943D01*
X12791Y293839D01*
X12780Y293799D01*
X12763Y293763D01*
X12741Y293646D01*
X12711Y293531D01*
X12707Y293470D01*
X12703Y293450D01*
X12705Y293430D01*
X12701Y293370D01*
X12701Y290830D01*
X12716Y290712D01*
X12723Y290593D01*
X12736Y290555D01*
X12741Y290514D01*
X12785Y290404D01*
X12821Y290291D01*
X12843Y290256D01*
X12858Y290219D01*
X12928Y290123D01*
X12991Y290022D01*
X13021Y289994D01*
X13045Y289961D01*
X13136Y289886D01*
X13223Y289804D01*
X13258Y289784D01*
X13290Y289759D01*
X13397Y289708D01*
X13502Y289650D01*
X13541Y289640D01*
X13577Y289623D01*
X13694Y289601D01*
X13809Y289571D01*
X13870Y289567D01*
X13890Y289563D01*
X13910Y289565D01*
X13970Y289561D01*
X24385Y289561D01*
X24345Y289304D01*
X23764Y287517D01*
X22911Y285843D01*
X21806Y284322D01*
X20478Y282994D01*
X18957Y281889D01*
X17283Y281036D01*
X16818Y280885D01*
X16791Y280872D01*
X16762Y280865D01*
X16647Y280805D01*
X16530Y280750D01*
X16507Y280731D01*
X16481Y280717D01*
X16385Y280629D01*
X16285Y280547D01*
X16268Y280523D01*
X16246Y280503D01*
X16174Y280394D01*
X16098Y280290D01*
X16087Y280262D01*
X16071Y280237D01*
X16029Y280114D01*
X15981Y279994D01*
X15977Y279964D01*
X15968Y279936D01*
X15957Y279807D01*
X15941Y279679D01*
X15945Y279649D01*
X15942Y279619D01*
X15965Y279491D01*
X15981Y279363D01*
X15992Y279335D01*
X15997Y279306D01*
X16050Y279188D01*
X16098Y279067D01*
X16115Y279043D01*
X16127Y279016D01*
X16208Y278915D01*
X16284Y278810D01*
X16307Y278791D01*
X16326Y278767D01*
X16429Y278690D01*
X16529Y278607D01*
X16556Y278594D01*
X16580Y278576D01*
X16725Y278505D01*
X19750Y277252D01*
X23252Y273750D01*
X23796Y272437D01*
X23810Y272412D01*
X23820Y272384D01*
X23889Y272274D01*
X23953Y272161D01*
X23974Y272140D01*
X23990Y272115D01*
X24084Y272026D01*
X24175Y271933D01*
X24200Y271917D01*
X24221Y271897D01*
X24335Y271834D01*
X24446Y271766D01*
X24474Y271758D01*
X24500Y271743D01*
X24626Y271711D01*
X24750Y271673D01*
X24779Y271671D01*
X24808Y271664D01*
X24968Y271654D01*
X35522Y271654D01*
X35621Y271666D01*
X35720Y271669D01*
X35778Y271686D01*
X35838Y271694D01*
X35930Y271730D01*
X36025Y271758D01*
X36077Y271788D01*
X36134Y271811D01*
X36214Y271869D01*
X36299Y271919D01*
X36374Y271985D01*
X36391Y271997D01*
X36399Y272007D01*
X36420Y272025D01*
X54344Y289950D01*
X56165Y290704D01*
X63182Y290704D01*
X63300Y290719D01*
X63419Y290726D01*
X63457Y290739D01*
X63498Y290744D01*
X63608Y290787D01*
X63721Y290824D01*
X63756Y290846D01*
X63793Y290861D01*
X63889Y290930D01*
X63990Y290994D01*
X64018Y291024D01*
X64051Y291047D01*
X64127Y291139D01*
X64208Y291226D01*
X64228Y291261D01*
X64253Y291292D01*
X64304Y291400D01*
X64362Y291504D01*
X64372Y291544D01*
X64389Y291580D01*
X64411Y291697D01*
X64441Y291812D01*
X64445Y291872D01*
X64449Y291892D01*
X64447Y291913D01*
X64451Y291973D01*
X64451Y294205D01*
X66545Y296299D01*
X86455Y296299D01*
X88549Y294205D01*
X88549Y293960D01*
X88564Y293842D01*
X88571Y293723D01*
X88584Y293685D01*
X88589Y293644D01*
X88632Y293534D01*
X88669Y293421D01*
X88691Y293386D01*
X88706Y293349D01*
X88775Y293253D01*
X88839Y293152D01*
X88869Y293124D01*
X88892Y293091D01*
X88984Y293015D01*
X89071Y292934D01*
X89106Y292914D01*
X89137Y292889D01*
X89245Y292838D01*
X89349Y292780D01*
X89389Y292770D01*
X89425Y292753D01*
X89542Y292731D01*
X89657Y292701D01*
X89717Y292697D01*
X89737Y292693D01*
X89758Y292695D01*
X89818Y292691D01*
X100311Y292691D01*
X100311Y276920D01*
X100326Y276802D01*
X100333Y276683D01*
X100346Y276645D01*
X100351Y276605D01*
X100394Y276494D01*
X100431Y276381D01*
X100453Y276346D01*
X100468Y276309D01*
X100538Y276213D01*
X100601Y276112D01*
X100631Y276084D01*
X100655Y276052D01*
X100746Y275976D01*
X100833Y275894D01*
X100868Y275875D01*
X100899Y275849D01*
X101007Y275798D01*
X101111Y275741D01*
X101151Y275730D01*
X101187Y275713D01*
X101304Y275691D01*
X101419Y275661D01*
X101480Y275657D01*
X101500Y275653D01*
X101520Y275655D01*
X101580Y275651D01*
X102851Y275651D01*
X102851Y275649D01*
X101580Y275649D01*
X101462Y275634D01*
X101343Y275627D01*
X101305Y275614D01*
X101265Y275609D01*
X101154Y275565D01*
X101041Y275529D01*
X101006Y275507D01*
X100969Y275492D01*
X100873Y275422D01*
X100772Y275359D01*
X100744Y275329D01*
X100711Y275305D01*
X100636Y275214D01*
X100554Y275127D01*
X100534Y275092D01*
X100509Y275060D01*
X100458Y274953D01*
X100400Y274849D01*
X100390Y274809D01*
X100373Y274773D01*
X100351Y274656D01*
X100321Y274541D01*
X100317Y274480D01*
X100313Y274460D01*
X100315Y274440D01*
X100311Y274380D01*
X100311Y258609D01*
X89818Y258609D01*
X89700Y258594D01*
X89581Y258587D01*
X89543Y258574D01*
X89502Y258569D01*
X89392Y258526D01*
X89279Y258489D01*
X89244Y258467D01*
X89207Y258452D01*
X89111Y258383D01*
X89010Y258319D01*
X88982Y258289D01*
X88949Y258266D01*
X88873Y258174D01*
X88792Y258087D01*
X88772Y258052D01*
X88747Y258021D01*
X88696Y257913D01*
X88638Y257809D01*
X88628Y257769D01*
X88611Y257733D01*
X88589Y257616D01*
X88559Y257501D01*
X88555Y257441D01*
X88551Y257421D01*
X88553Y257400D01*
X88549Y257340D01*
X88549Y255833D01*
X88561Y255734D01*
X88564Y255635D01*
X88581Y255577D01*
X88589Y255517D01*
X88625Y255425D01*
X88653Y255330D01*
X88683Y255278D01*
X88706Y255221D01*
X88764Y255141D01*
X88814Y255056D01*
X88880Y254981D01*
X88892Y254964D01*
X88902Y254956D01*
X88920Y254935D01*
X92912Y250943D01*
X92990Y250883D01*
X93063Y250815D01*
X93116Y250786D01*
X93163Y250749D01*
X93254Y250709D01*
X93341Y250661D01*
X93400Y250646D01*
X93455Y250622D01*
X93553Y250607D01*
X93649Y250582D01*
X93749Y250576D01*
X93769Y250572D01*
X93782Y250574D01*
X93810Y250572D01*
X94049Y250572D01*
X96523Y249547D01*
X98417Y247653D01*
X99442Y245179D01*
X99442Y242501D01*
X98417Y240027D01*
X96523Y238133D01*
X94049Y237108D01*
X91371Y237108D01*
X88897Y238133D01*
X87003Y240027D01*
X85978Y242501D01*
X85978Y243340D01*
X85966Y243439D01*
X85963Y243538D01*
X85946Y243596D01*
X85938Y243656D01*
X85902Y243748D01*
X85874Y243843D01*
X85844Y243895D01*
X85821Y243952D01*
X85763Y244032D01*
X85713Y244117D01*
X85647Y244192D01*
X85635Y244209D01*
X85625Y244217D01*
X85607Y244238D01*
X83415Y246430D01*
X83337Y246490D01*
X83264Y246558D01*
X83211Y246587D01*
X83164Y246624D01*
X83073Y246664D01*
X82986Y246712D01*
X82927Y246727D01*
X82872Y246751D01*
X82774Y246766D01*
X82678Y246791D01*
X82578Y246797D01*
X82558Y246801D01*
X82545Y246799D01*
X82517Y246801D01*
X66417Y246801D01*
X66306Y246854D01*
X66286Y246857D01*
X66268Y246866D01*
X66130Y246887D01*
X65993Y246913D01*
X65973Y246912D01*
X65953Y246915D01*
X65815Y246902D01*
X65676Y246894D01*
X65657Y246888D01*
X65637Y246886D01*
X65506Y246839D01*
X65374Y246796D01*
X65356Y246785D01*
X65338Y246778D01*
X65223Y246700D01*
X65105Y246626D01*
X65091Y246611D01*
X65074Y246600D01*
X64982Y246495D01*
X64887Y246394D01*
X64877Y246376D01*
X64864Y246361D01*
X64800Y246237D01*
X64733Y246115D01*
X64728Y246096D01*
X64719Y246078D01*
X64689Y245942D01*
X64654Y245807D01*
X64652Y245780D01*
X64649Y245768D01*
X64650Y245747D01*
X64644Y245647D01*
X64644Y214915D01*
X63890Y213094D01*
X40885Y190090D01*
X40825Y190012D01*
X40757Y189939D01*
X40728Y189886D01*
X40691Y189839D01*
X40651Y189748D01*
X40603Y189661D01*
X40588Y189602D01*
X40564Y189547D01*
X40549Y189449D01*
X40524Y189353D01*
X40518Y189253D01*
X40514Y189233D01*
X40516Y189220D01*
X40514Y189192D01*
X40514Y147822D01*
X40531Y147684D01*
X40544Y147546D01*
X40551Y147527D01*
X40554Y147507D01*
X40605Y147378D01*
X40652Y147247D01*
X40663Y147230D01*
X40671Y147211D01*
X40752Y147099D01*
X40830Y146983D01*
X40846Y146970D01*
X40857Y146954D01*
X40965Y146865D01*
X41069Y146773D01*
X41087Y146764D01*
X41102Y146751D01*
X41228Y146692D01*
X41352Y146628D01*
X41372Y146624D01*
X41390Y146615D01*
X41526Y146589D01*
X41662Y146559D01*
X41683Y146559D01*
X41702Y146556D01*
X41841Y146564D01*
X41980Y146569D01*
X42000Y146574D01*
X42020Y146575D01*
X42152Y146618D01*
X42286Y146657D01*
X42303Y146667D01*
X42322Y146673D01*
X42440Y146748D01*
X42560Y146819D01*
X42581Y146837D01*
X42591Y146844D01*
X42605Y146859D01*
X42681Y146925D01*
X42687Y146931D01*
X43382Y147333D01*
X44158Y147541D01*
X49301Y147541D01*
X49301Y142230D01*
X49316Y142112D01*
X49323Y141993D01*
X49335Y141955D01*
X49341Y141915D01*
X49384Y141804D01*
X49421Y141691D01*
X49443Y141657D01*
X49458Y141619D01*
X49527Y141523D01*
X49591Y141422D01*
X49621Y141394D01*
X49644Y141362D01*
X49736Y141286D01*
X49823Y141204D01*
X49858Y141185D01*
X49889Y141159D01*
X49933Y141139D01*
X49988Y141062D01*
X50051Y140962D01*
X50081Y140934D01*
X50105Y140901D01*
X50196Y140825D01*
X50283Y140744D01*
X50318Y140724D01*
X50350Y140699D01*
X50457Y140648D01*
X50562Y140590D01*
X50601Y140580D01*
X50637Y140563D01*
X50754Y140541D01*
X50870Y140511D01*
X50930Y140507D01*
X50950Y140503D01*
X50970Y140505D01*
X51030Y140501D01*
X60091Y140501D01*
X60091Y139854D01*
X60097Y139804D01*
X60095Y139755D01*
X60111Y139678D01*
X60113Y139638D01*
X60121Y139612D01*
X60131Y139538D01*
X60149Y139492D01*
X60159Y139443D01*
X60207Y139345D01*
X60248Y139243D01*
X60277Y139202D01*
X60299Y139158D01*
X60370Y139074D01*
X60434Y138985D01*
X60473Y138953D01*
X60505Y138916D01*
X60595Y138852D01*
X60679Y138782D01*
X60724Y138761D01*
X60765Y138733D01*
X60868Y138694D01*
X60967Y138647D01*
X61016Y138638D01*
X61062Y138620D01*
X61172Y138608D01*
X61279Y138587D01*
X61329Y138590D01*
X61378Y138585D01*
X61487Y138600D01*
X61597Y138607D01*
X61644Y138622D01*
X61693Y138629D01*
X61846Y138681D01*
X62161Y138812D01*
X64839Y138812D01*
X67313Y137787D01*
X69207Y135893D01*
X69856Y134326D01*
X69881Y134283D01*
X69898Y134236D01*
X69959Y134145D01*
X70014Y134049D01*
X70048Y134014D01*
X70076Y133973D01*
X70159Y133900D01*
X70235Y133821D01*
X70277Y133795D01*
X70315Y133762D01*
X70413Y133712D01*
X70506Y133655D01*
X70554Y133640D01*
X70598Y133618D01*
X70705Y133594D01*
X70810Y133561D01*
X70860Y133559D01*
X70908Y133548D01*
X71018Y133551D01*
X71128Y133546D01*
X71176Y133556D01*
X71226Y133558D01*
X71331Y133588D01*
X71439Y133610D01*
X71484Y133632D01*
X71532Y133646D01*
X71626Y133702D01*
X71725Y133750D01*
X71763Y133782D01*
X71805Y133808D01*
X71926Y133914D01*
X77860Y139847D01*
X77920Y139925D01*
X77988Y139998D01*
X78017Y140051D01*
X78054Y140098D01*
X78094Y140189D01*
X78142Y140276D01*
X78157Y140335D01*
X78181Y140390D01*
X78196Y140488D01*
X78221Y140584D01*
X78227Y140684D01*
X78231Y140704D01*
X78229Y140717D01*
X78231Y140745D01*
X78231Y154303D01*
X78215Y154434D01*
X78204Y154566D01*
X78195Y154591D01*
X78191Y154618D01*
X78143Y154741D01*
X78099Y154866D01*
X78084Y154889D01*
X78074Y154914D01*
X77997Y155021D01*
X77923Y155131D01*
X77903Y155149D01*
X77888Y155171D01*
X77786Y155256D01*
X77687Y155344D01*
X77663Y155357D01*
X77643Y155374D01*
X77523Y155430D01*
X77406Y155492D01*
X77379Y155498D01*
X77355Y155510D01*
X77225Y155534D01*
X77096Y155565D01*
X77069Y155564D01*
X77043Y155569D01*
X76911Y155561D01*
X76778Y155558D01*
X76752Y155551D01*
X76725Y155550D01*
X76599Y155509D01*
X76472Y155473D01*
X76437Y155456D01*
X76423Y155452D01*
X76404Y155440D01*
X76327Y155402D01*
X76024Y155226D01*
X75250Y155019D01*
X72349Y155019D01*
X72349Y161330D01*
X72334Y161448D01*
X72327Y161567D01*
X72314Y161605D01*
X72309Y161645D01*
X72266Y161756D01*
X72229Y161869D01*
X72207Y161903D01*
X72192Y161941D01*
X72123Y162037D01*
X72059Y162138D01*
X72029Y162166D01*
X72006Y162198D01*
X71914Y162274D01*
X71827Y162356D01*
X71792Y162375D01*
X71761Y162401D01*
X71653Y162452D01*
X71549Y162509D01*
X71509Y162519D01*
X71473Y162537D01*
X71366Y162557D01*
X71396Y162561D01*
X71506Y162605D01*
X71619Y162641D01*
X71654Y162663D01*
X71691Y162678D01*
X71787Y162748D01*
X71888Y162811D01*
X71916Y162841D01*
X71949Y162865D01*
X72025Y162956D01*
X72106Y163043D01*
X72126Y163078D01*
X72151Y163110D01*
X72202Y163217D01*
X72260Y163322D01*
X72270Y163361D01*
X72287Y163397D01*
X72309Y163514D01*
X72339Y163630D01*
X72343Y163690D01*
X72347Y163710D01*
X72345Y163730D01*
X72349Y163790D01*
X72349Y170101D01*
X75250Y170101D01*
X76024Y169894D01*
X76327Y169718D01*
X76450Y169667D01*
X76569Y169610D01*
X76596Y169605D01*
X76621Y169595D01*
X76752Y169576D01*
X76882Y169551D01*
X76908Y169552D01*
X76935Y169548D01*
X77067Y169562D01*
X77199Y169570D01*
X77225Y169579D01*
X77251Y169582D01*
X77376Y169628D01*
X77501Y169668D01*
X77524Y169683D01*
X77550Y169692D01*
X77658Y169768D01*
X77770Y169839D01*
X77789Y169858D01*
X77811Y169874D01*
X77897Y169974D01*
X77988Y170070D01*
X78001Y170094D01*
X78019Y170114D01*
X78078Y170233D01*
X78142Y170349D01*
X78148Y170375D01*
X78160Y170399D01*
X78188Y170529D01*
X78221Y170657D01*
X78223Y170695D01*
X78227Y170710D01*
X78226Y170732D01*
X78231Y170817D01*
X78231Y185939D01*
X84210Y191917D01*
X84270Y191995D01*
X84338Y192068D01*
X84367Y192121D01*
X84404Y192168D01*
X84444Y192259D01*
X84492Y192346D01*
X84507Y192405D01*
X84531Y192460D01*
X84546Y192558D01*
X84571Y192654D01*
X84577Y192754D01*
X84581Y192774D01*
X84579Y192787D01*
X84581Y192815D01*
X84581Y227849D01*
X89651Y232919D01*
X116089Y232919D01*
X121159Y227849D01*
X121159Y188711D01*
X97400Y164953D01*
X97340Y164875D01*
X97272Y164802D01*
X97243Y164749D01*
X97206Y164702D01*
X97166Y164611D01*
X97118Y164524D01*
X97103Y164465D01*
X97079Y164410D01*
X97064Y164312D01*
X97039Y164216D01*
X97033Y164116D01*
X97029Y164096D01*
X97031Y164083D01*
X97029Y164055D01*
X97029Y154178D01*
X97044Y154060D01*
X97051Y153941D01*
X97064Y153903D01*
X97069Y153862D01*
X97112Y153752D01*
X97149Y153639D01*
X97171Y153604D01*
X97186Y153567D01*
X97255Y153471D01*
X97319Y153370D01*
X97349Y153342D01*
X97372Y153309D01*
X97464Y153233D01*
X97551Y153152D01*
X97586Y153132D01*
X97617Y153107D01*
X97725Y153056D01*
X97829Y152998D01*
X97869Y152988D01*
X97905Y152971D01*
X98022Y152949D01*
X98137Y152919D01*
X98197Y152915D01*
X98217Y152911D01*
X98238Y152913D01*
X98298Y152909D01*
X103095Y152909D01*
X103194Y152921D01*
X103293Y152924D01*
X103351Y152941D01*
X103411Y152949D01*
X103503Y152985D01*
X103598Y153013D01*
X103650Y153043D01*
X103707Y153066D01*
X103787Y153124D01*
X103872Y153174D01*
X103947Y153240D01*
X103964Y153252D01*
X103972Y153262D01*
X103993Y153280D01*
X106161Y155449D01*
X127519Y155449D01*
X129913Y153055D01*
X130007Y152982D01*
X130096Y152903D01*
X130132Y152885D01*
X130164Y152860D01*
X130273Y152813D01*
X130379Y152759D01*
X130418Y152750D01*
X130456Y152734D01*
X130573Y152715D01*
X130689Y152689D01*
X130730Y152690D01*
X130770Y152684D01*
X130888Y152695D01*
X131007Y152699D01*
X131046Y152710D01*
X131086Y152714D01*
X131198Y152754D01*
X131313Y152787D01*
X131348Y152808D01*
X131386Y152821D01*
X131484Y152888D01*
X131587Y152949D01*
X131632Y152989D01*
X131649Y153000D01*
X131662Y153015D01*
X131708Y153055D01*
X134101Y155449D01*
X145299Y155449D01*
X151639Y149109D01*
X151639Y132618D01*
X151654Y132500D01*
X151661Y132381D01*
X151674Y132343D01*
X151679Y132302D01*
X151722Y132192D01*
X151759Y132079D01*
X151781Y132044D01*
X151796Y132007D01*
X151865Y131911D01*
X151929Y131810D01*
X151959Y131782D01*
X151982Y131749D01*
X152074Y131673D01*
X152161Y131592D01*
X152196Y131572D01*
X152227Y131547D01*
X152335Y131496D01*
X152439Y131438D01*
X152479Y131428D01*
X152515Y131411D01*
X152632Y131389D01*
X152747Y131359D01*
X152807Y131355D01*
X152827Y131351D01*
X152848Y131353D01*
X152908Y131349D01*
X164720Y131349D01*
X166223Y129845D01*
X166318Y129772D01*
X166407Y129694D01*
X166443Y129675D01*
X166475Y129650D01*
X166584Y129603D01*
X166690Y129549D01*
X166729Y129540D01*
X166766Y129524D01*
X166884Y129505D01*
X167000Y129479D01*
X167041Y129480D01*
X167081Y129474D01*
X167199Y129485D01*
G37*
G36*
X52565Y4070D02*
X52565Y4070D01*
X52605Y4067D01*
X52723Y4090D01*
X52841Y4105D01*
X52878Y4119D01*
X52917Y4127D01*
X53026Y4178D01*
X53137Y4222D01*
X53169Y4245D01*
X53205Y4262D01*
X53297Y4338D01*
X53394Y4408D01*
X53420Y4439D01*
X53450Y4464D01*
X53521Y4561D01*
X53597Y4653D01*
X53614Y4689D01*
X53638Y4722D01*
X53682Y4833D01*
X53733Y4941D01*
X53740Y4980D01*
X53755Y5017D01*
X53770Y5136D01*
X53792Y5253D01*
X53790Y5293D01*
X53795Y5333D01*
X53780Y5452D01*
X53773Y5571D01*
X53760Y5609D01*
X53755Y5648D01*
X53712Y5760D01*
X53675Y5873D01*
X53653Y5907D01*
X53639Y5944D01*
X53553Y6080D01*
X53289Y6443D01*
X52436Y8117D01*
X51855Y9904D01*
X51815Y10161D01*
X62230Y10161D01*
X62348Y10176D01*
X62467Y10183D01*
X62505Y10196D01*
X62545Y10201D01*
X62656Y10244D01*
X62769Y10281D01*
X62803Y10303D01*
X62841Y10318D01*
X62937Y10388D01*
X63038Y10451D01*
X63066Y10481D01*
X63098Y10504D01*
X63174Y10596D01*
X63256Y10683D01*
X63275Y10718D01*
X63301Y10749D01*
X63352Y10857D01*
X63409Y10961D01*
X63420Y11001D01*
X63437Y11037D01*
X63459Y11154D01*
X63489Y11269D01*
X63493Y11330D01*
X63497Y11350D01*
X63495Y11370D01*
X63499Y11430D01*
X63499Y12701D01*
X64770Y12701D01*
X64888Y12716D01*
X65007Y12723D01*
X65045Y12736D01*
X65085Y12741D01*
X65196Y12785D01*
X65309Y12821D01*
X65344Y12843D01*
X65381Y12858D01*
X65477Y12928D01*
X65578Y12991D01*
X65606Y13021D01*
X65639Y13045D01*
X65714Y13136D01*
X65796Y13223D01*
X65816Y13258D01*
X65841Y13290D01*
X65892Y13397D01*
X65950Y13502D01*
X65960Y13541D01*
X65977Y13577D01*
X65999Y13694D01*
X66029Y13809D01*
X66033Y13870D01*
X66037Y13890D01*
X66035Y13910D01*
X66039Y13970D01*
X66039Y24385D01*
X66296Y24345D01*
X68083Y23764D01*
X69757Y22911D01*
X71278Y21806D01*
X72606Y20478D01*
X73711Y18957D01*
X74564Y17283D01*
X74715Y16818D01*
X74728Y16791D01*
X74735Y16762D01*
X74795Y16648D01*
X74850Y16530D01*
X74869Y16507D01*
X74883Y16481D01*
X74970Y16385D01*
X75053Y16285D01*
X75077Y16268D01*
X75097Y16246D01*
X75206Y16174D01*
X75310Y16098D01*
X75338Y16087D01*
X75363Y16071D01*
X75486Y16029D01*
X75606Y15981D01*
X75636Y15977D01*
X75664Y15968D01*
X75793Y15957D01*
X75921Y15941D01*
X75951Y15945D01*
X75981Y15942D01*
X76109Y15965D01*
X76237Y15981D01*
X76265Y15992D01*
X76294Y15997D01*
X76412Y16050D01*
X76533Y16098D01*
X76557Y16115D01*
X76584Y16127D01*
X76685Y16208D01*
X76790Y16284D01*
X76809Y16307D01*
X76833Y16326D01*
X76911Y16430D01*
X76993Y16529D01*
X77006Y16556D01*
X77024Y16580D01*
X77095Y16725D01*
X78348Y19750D01*
X81850Y23252D01*
X86424Y25147D01*
X91376Y25147D01*
X93113Y24427D01*
X93161Y24414D01*
X93206Y24393D01*
X93314Y24372D01*
X93420Y24343D01*
X93470Y24342D01*
X93519Y24333D01*
X93628Y24340D01*
X93738Y24338D01*
X93786Y24350D01*
X93836Y24353D01*
X93940Y24387D01*
X94047Y24412D01*
X94091Y24435D01*
X94138Y24451D01*
X94231Y24510D01*
X94328Y24561D01*
X94365Y24594D01*
X94407Y24621D01*
X94482Y24701D01*
X94564Y24775D01*
X94591Y24816D01*
X94625Y24853D01*
X94678Y24949D01*
X94738Y25041D01*
X94755Y25088D01*
X94779Y25131D01*
X94806Y25237D01*
X94842Y25341D01*
X94846Y25391D01*
X94858Y25439D01*
X94868Y25600D01*
X94868Y25870D01*
X94856Y25969D01*
X94853Y26068D01*
X94836Y26126D01*
X94828Y26186D01*
X94792Y26278D01*
X94764Y26373D01*
X94734Y26425D01*
X94711Y26482D01*
X94653Y26562D01*
X94603Y26647D01*
X94537Y26722D01*
X94525Y26739D01*
X94515Y26747D01*
X94497Y26768D01*
X46600Y74664D01*
X45846Y76485D01*
X45846Y104682D01*
X45831Y104800D01*
X45824Y104919D01*
X45811Y104957D01*
X45806Y104998D01*
X45763Y105108D01*
X45726Y105221D01*
X45704Y105256D01*
X45689Y105293D01*
X45620Y105389D01*
X45556Y105490D01*
X45526Y105518D01*
X45503Y105551D01*
X45411Y105627D01*
X45324Y105708D01*
X45289Y105728D01*
X45258Y105753D01*
X45150Y105804D01*
X45046Y105862D01*
X45006Y105872D01*
X44970Y105889D01*
X44853Y105911D01*
X44738Y105941D01*
X44678Y105945D01*
X44658Y105949D01*
X44637Y105947D01*
X44577Y105951D01*
X43086Y105951D01*
X42363Y106674D01*
X42285Y106735D01*
X42212Y106803D01*
X42159Y106832D01*
X42111Y106869D01*
X42021Y106909D01*
X41934Y106957D01*
X41875Y106972D01*
X41820Y106996D01*
X41722Y107011D01*
X41626Y107036D01*
X41526Y107042D01*
X41505Y107046D01*
X41493Y107044D01*
X41465Y107046D01*
X40892Y107046D01*
X40794Y107034D01*
X40695Y107031D01*
X40637Y107014D01*
X40577Y107006D01*
X40485Y106970D01*
X40389Y106942D01*
X40337Y106912D01*
X40281Y106889D01*
X40201Y106831D01*
X40115Y106781D01*
X40040Y106715D01*
X40024Y106703D01*
X40016Y106693D01*
X39995Y106674D01*
X39373Y106053D01*
X36899Y105028D01*
X34221Y105028D01*
X31747Y106053D01*
X29853Y107947D01*
X28828Y110421D01*
X28828Y113099D01*
X29853Y115573D01*
X31747Y117467D01*
X34386Y118560D01*
X34443Y118583D01*
X34574Y118630D01*
X34591Y118641D01*
X34610Y118649D01*
X34722Y118730D01*
X34837Y118808D01*
X34851Y118824D01*
X34867Y118835D01*
X34956Y118943D01*
X35048Y119047D01*
X35057Y119065D01*
X35070Y119080D01*
X35129Y119206D01*
X35192Y119330D01*
X35197Y119350D01*
X35205Y119368D01*
X35231Y119505D01*
X35262Y119640D01*
X35261Y119661D01*
X35265Y119680D01*
X35256Y119819D01*
X35252Y119958D01*
X35247Y119978D01*
X35245Y119998D01*
X35203Y120130D01*
X35164Y120264D01*
X35154Y120281D01*
X35147Y120300D01*
X35073Y120418D01*
X35002Y120538D01*
X34984Y120559D01*
X34977Y120569D01*
X34962Y120583D01*
X34896Y120658D01*
X32932Y122622D01*
X31360Y124194D01*
X30606Y126015D01*
X30606Y192755D01*
X31360Y194576D01*
X54365Y217580D01*
X54425Y217658D01*
X54493Y217731D01*
X54522Y217784D01*
X54559Y217831D01*
X54599Y217922D01*
X54647Y218009D01*
X54662Y218068D01*
X54686Y218123D01*
X54701Y218221D01*
X54726Y218317D01*
X54732Y218417D01*
X54736Y218437D01*
X54734Y218450D01*
X54736Y218478D01*
X54736Y242532D01*
X54724Y242631D01*
X54721Y242730D01*
X54704Y242788D01*
X54696Y242848D01*
X54660Y242940D01*
X54632Y243035D01*
X54602Y243087D01*
X54579Y243144D01*
X54521Y243224D01*
X54471Y243309D01*
X54405Y243384D01*
X54393Y243401D01*
X54383Y243409D01*
X54365Y243430D01*
X36420Y261375D01*
X36342Y261435D01*
X36269Y261503D01*
X36216Y261532D01*
X36169Y261569D01*
X36078Y261609D01*
X35991Y261657D01*
X35932Y261672D01*
X35877Y261696D01*
X35779Y261711D01*
X35683Y261736D01*
X35583Y261742D01*
X35563Y261746D01*
X35550Y261744D01*
X35522Y261746D01*
X24968Y261746D01*
X24939Y261743D01*
X24910Y261745D01*
X24782Y261723D01*
X24653Y261706D01*
X24625Y261696D01*
X24596Y261691D01*
X24478Y261637D01*
X24357Y261589D01*
X24333Y261572D01*
X24306Y261560D01*
X24205Y261479D01*
X24100Y261403D01*
X24081Y261380D01*
X24058Y261361D01*
X23980Y261258D01*
X23897Y261158D01*
X23884Y261131D01*
X23867Y261107D01*
X23796Y260963D01*
X23252Y259650D01*
X19750Y256148D01*
X15176Y254253D01*
X10224Y254253D01*
X5820Y256078D01*
X5772Y256091D01*
X5727Y256112D01*
X5619Y256133D01*
X5513Y256162D01*
X5463Y256162D01*
X5414Y256172D01*
X5305Y256165D01*
X5195Y256167D01*
X5147Y256155D01*
X5097Y256152D01*
X4993Y256118D01*
X4886Y256093D01*
X4842Y256069D01*
X4795Y256054D01*
X4702Y255995D01*
X4605Y255944D01*
X4568Y255910D01*
X4526Y255884D01*
X4451Y255804D01*
X4369Y255730D01*
X4342Y255688D01*
X4308Y255652D01*
X4255Y255556D01*
X4195Y255464D01*
X4178Y255417D01*
X4154Y255374D01*
X4127Y255267D01*
X4091Y255163D01*
X4087Y255114D01*
X4075Y255066D01*
X4065Y254905D01*
X4065Y241597D01*
X4083Y241452D01*
X4098Y241307D01*
X4103Y241294D01*
X4105Y241281D01*
X4158Y241146D01*
X4209Y241009D01*
X4217Y240998D01*
X4222Y240985D01*
X4307Y240868D01*
X4390Y240748D01*
X4401Y240739D01*
X4408Y240728D01*
X4521Y240635D01*
X4631Y240540D01*
X4643Y240534D01*
X4653Y240525D01*
X4785Y240463D01*
X4916Y240398D01*
X4929Y240395D01*
X4941Y240390D01*
X5083Y240362D01*
X5227Y240332D01*
X5240Y240332D01*
X5253Y240330D01*
X5398Y240339D01*
X5544Y240345D01*
X5558Y240349D01*
X5571Y240350D01*
X5709Y240394D01*
X5849Y240437D01*
X5861Y240444D01*
X5873Y240448D01*
X5996Y240525D01*
X6121Y240601D01*
X6131Y240611D01*
X6142Y240618D01*
X6242Y240724D01*
X6344Y240828D01*
X6354Y240843D01*
X6360Y240849D01*
X6368Y240864D01*
X6433Y240962D01*
X7815Y243355D01*
X13922Y248480D01*
X21414Y251207D01*
X29386Y251207D01*
X36878Y248480D01*
X42985Y243356D01*
X46971Y236451D01*
X48355Y228600D01*
X46971Y220749D01*
X42985Y213845D01*
X36878Y208720D01*
X29386Y205993D01*
X21414Y205993D01*
X13922Y208720D01*
X7815Y213844D01*
X6433Y216238D01*
X6345Y216354D01*
X6260Y216472D01*
X6249Y216481D01*
X6241Y216491D01*
X6127Y216582D01*
X6015Y216675D01*
X6002Y216681D01*
X5992Y216689D01*
X5858Y216749D01*
X5727Y216810D01*
X5714Y216813D01*
X5701Y216818D01*
X5557Y216843D01*
X5414Y216870D01*
X5401Y216869D01*
X5388Y216872D01*
X5242Y216859D01*
X5097Y216850D01*
X5084Y216846D01*
X5071Y216845D01*
X4933Y216797D01*
X4795Y216752D01*
X4783Y216745D01*
X4770Y216741D01*
X4649Y216660D01*
X4526Y216582D01*
X4517Y216572D01*
X4505Y216565D01*
X4408Y216457D01*
X4308Y216351D01*
X4301Y216339D01*
X4292Y216329D01*
X4225Y216199D01*
X4154Y216072D01*
X4151Y216059D01*
X4145Y216047D01*
X4111Y215905D01*
X4075Y215764D01*
X4074Y215746D01*
X4072Y215737D01*
X4072Y215720D01*
X4065Y215603D01*
X4065Y165318D01*
X4080Y165200D01*
X4087Y165081D01*
X4100Y165043D01*
X4105Y165002D01*
X4148Y164892D01*
X4185Y164779D01*
X4207Y164744D01*
X4222Y164707D01*
X4291Y164611D01*
X4355Y164510D01*
X4385Y164482D01*
X4408Y164449D01*
X4500Y164373D01*
X4587Y164292D01*
X4622Y164272D01*
X4653Y164247D01*
X4761Y164196D01*
X4865Y164138D01*
X4905Y164128D01*
X4941Y164111D01*
X5058Y164089D01*
X5173Y164059D01*
X5233Y164055D01*
X5253Y164051D01*
X5274Y164053D01*
X5334Y164049D01*
X25032Y164049D01*
X27099Y161982D01*
X27099Y148018D01*
X25032Y145951D01*
X5334Y145951D01*
X5216Y145936D01*
X5097Y145929D01*
X5059Y145916D01*
X5018Y145911D01*
X4908Y145868D01*
X4795Y145831D01*
X4760Y145809D01*
X4723Y145794D01*
X4627Y145725D01*
X4526Y145661D01*
X4498Y145631D01*
X4465Y145608D01*
X4389Y145516D01*
X4308Y145429D01*
X4288Y145394D01*
X4263Y145363D01*
X4212Y145255D01*
X4154Y145151D01*
X4144Y145111D01*
X4127Y145075D01*
X4105Y144958D01*
X4075Y144843D01*
X4071Y144783D01*
X4067Y144763D01*
X4069Y144742D01*
X4065Y144682D01*
X4065Y109318D01*
X4080Y109200D01*
X4087Y109081D01*
X4100Y109043D01*
X4105Y109002D01*
X4148Y108892D01*
X4185Y108779D01*
X4207Y108744D01*
X4222Y108707D01*
X4291Y108611D01*
X4355Y108510D01*
X4385Y108482D01*
X4408Y108449D01*
X4500Y108373D01*
X4587Y108292D01*
X4622Y108272D01*
X4653Y108247D01*
X4761Y108196D01*
X4865Y108138D01*
X4905Y108128D01*
X4941Y108111D01*
X5058Y108089D01*
X5173Y108059D01*
X5233Y108055D01*
X5253Y108051D01*
X5274Y108053D01*
X5334Y108049D01*
X25032Y108049D01*
X27099Y105982D01*
X27099Y92018D01*
X25032Y89951D01*
X5334Y89951D01*
X5216Y89936D01*
X5097Y89929D01*
X5059Y89916D01*
X5018Y89911D01*
X4908Y89868D01*
X4795Y89831D01*
X4760Y89809D01*
X4723Y89794D01*
X4627Y89725D01*
X4526Y89661D01*
X4498Y89631D01*
X4465Y89608D01*
X4389Y89516D01*
X4308Y89429D01*
X4288Y89394D01*
X4263Y89363D01*
X4212Y89255D01*
X4154Y89151D01*
X4144Y89111D01*
X4127Y89075D01*
X4105Y88958D01*
X4075Y88843D01*
X4071Y88783D01*
X4067Y88763D01*
X4069Y88742D01*
X4065Y88682D01*
X4065Y38397D01*
X4083Y38252D01*
X4098Y38107D01*
X4103Y38094D01*
X4105Y38081D01*
X4158Y37946D01*
X4209Y37809D01*
X4217Y37798D01*
X4222Y37785D01*
X4307Y37668D01*
X4390Y37548D01*
X4401Y37539D01*
X4408Y37528D01*
X4521Y37435D01*
X4631Y37340D01*
X4643Y37334D01*
X4653Y37325D01*
X4785Y37263D01*
X4916Y37198D01*
X4929Y37195D01*
X4941Y37190D01*
X5083Y37162D01*
X5227Y37132D01*
X5240Y37132D01*
X5253Y37130D01*
X5398Y37139D01*
X5544Y37145D01*
X5558Y37149D01*
X5571Y37150D01*
X5709Y37194D01*
X5849Y37237D01*
X5861Y37244D01*
X5873Y37248D01*
X5996Y37325D01*
X6121Y37401D01*
X6131Y37411D01*
X6142Y37418D01*
X6242Y37524D01*
X6344Y37628D01*
X6354Y37643D01*
X6360Y37649D01*
X6368Y37664D01*
X6433Y37762D01*
X7815Y40156D01*
X13922Y45280D01*
X21414Y48007D01*
X29386Y48007D01*
X36878Y45280D01*
X42985Y40156D01*
X46971Y33251D01*
X48355Y25400D01*
X46971Y17549D01*
X42985Y10645D01*
X37815Y6306D01*
X37791Y6280D01*
X37762Y6260D01*
X37683Y6164D01*
X37599Y6073D01*
X37582Y6042D01*
X37559Y6015D01*
X37506Y5902D01*
X37447Y5793D01*
X37439Y5759D01*
X37424Y5727D01*
X37401Y5605D01*
X37370Y5485D01*
X37371Y5449D01*
X37364Y5414D01*
X37372Y5291D01*
X37373Y5167D01*
X37382Y5132D01*
X37384Y5097D01*
X37422Y4979D01*
X37454Y4859D01*
X37471Y4828D01*
X37482Y4795D01*
X37548Y4690D01*
X37609Y4581D01*
X37633Y4556D01*
X37652Y4526D01*
X37742Y4441D01*
X37828Y4351D01*
X37858Y4332D01*
X37884Y4308D01*
X37992Y4248D01*
X38097Y4182D01*
X38131Y4171D01*
X38162Y4154D01*
X38282Y4123D01*
X38400Y4086D01*
X38436Y4084D01*
X38470Y4075D01*
X38631Y4065D01*
X52526Y4065D01*
X52565Y4070D01*
G37*
G36*
X150838Y337716D02*
X150838Y337716D01*
X150957Y337723D01*
X150995Y337736D01*
X151035Y337741D01*
X151146Y337785D01*
X151259Y337821D01*
X151294Y337843D01*
X151331Y337858D01*
X151427Y337928D01*
X151528Y337991D01*
X151556Y338021D01*
X151588Y338045D01*
X151664Y338136D01*
X151746Y338223D01*
X151765Y338258D01*
X151791Y338290D01*
X151842Y338397D01*
X151899Y338501D01*
X151910Y338541D01*
X151927Y338577D01*
X151949Y338694D01*
X151979Y338809D01*
X151983Y338870D01*
X151987Y338890D01*
X151985Y338910D01*
X151989Y338970D01*
X151989Y353741D01*
X164182Y353741D01*
X164300Y353756D01*
X164419Y353763D01*
X164457Y353776D01*
X164498Y353781D01*
X164608Y353824D01*
X164721Y353861D01*
X164756Y353883D01*
X164793Y353898D01*
X164889Y353967D01*
X164990Y354031D01*
X165018Y354061D01*
X165051Y354084D01*
X165127Y354176D01*
X165208Y354263D01*
X165228Y354298D01*
X165253Y354329D01*
X165304Y354437D01*
X165362Y354541D01*
X165372Y354581D01*
X165389Y354617D01*
X165411Y354734D01*
X165441Y354849D01*
X165445Y354909D01*
X165449Y354929D01*
X165447Y354950D01*
X165451Y355010D01*
X165451Y373397D01*
X167553Y375499D01*
X187447Y375499D01*
X189549Y373397D01*
X189549Y371738D01*
X189564Y371620D01*
X189571Y371501D01*
X189584Y371463D01*
X189589Y371422D01*
X189632Y371312D01*
X189669Y371199D01*
X189691Y371164D01*
X189706Y371127D01*
X189775Y371031D01*
X189839Y370930D01*
X189869Y370902D01*
X189892Y370869D01*
X189984Y370793D01*
X190071Y370712D01*
X190106Y370692D01*
X190137Y370667D01*
X190245Y370616D01*
X190349Y370558D01*
X190389Y370548D01*
X190425Y370531D01*
X190542Y370509D01*
X190657Y370479D01*
X190717Y370475D01*
X190737Y370471D01*
X190758Y370473D01*
X190818Y370469D01*
X200945Y370469D01*
X201070Y370484D01*
X201195Y370494D01*
X201227Y370504D01*
X201260Y370509D01*
X201377Y370555D01*
X201496Y370595D01*
X201525Y370613D01*
X201556Y370626D01*
X201658Y370700D01*
X201763Y370768D01*
X201786Y370793D01*
X201813Y370812D01*
X201894Y370909D01*
X201979Y371002D01*
X201995Y371031D01*
X202016Y371057D01*
X202070Y371171D01*
X202129Y371282D01*
X202137Y371315D01*
X202152Y371345D01*
X202175Y371469D01*
X202206Y371591D01*
X202205Y371624D01*
X202212Y371657D01*
X202204Y371783D01*
X202203Y371909D01*
X202193Y371957D01*
X202192Y371975D01*
X202185Y371995D01*
X202171Y372066D01*
X202009Y372670D01*
X202009Y375571D01*
X208320Y375571D01*
X208438Y375586D01*
X208557Y375593D01*
X208595Y375605D01*
X208635Y375611D01*
X208746Y375654D01*
X208859Y375691D01*
X208893Y375713D01*
X208931Y375728D01*
X209027Y375797D01*
X209128Y375861D01*
X209156Y375891D01*
X209188Y375914D01*
X209264Y376006D01*
X209346Y376093D01*
X209365Y376128D01*
X209391Y376159D01*
X209442Y376267D01*
X209499Y376371D01*
X209509Y376411D01*
X209527Y376447D01*
X209547Y376554D01*
X209551Y376524D01*
X209595Y376414D01*
X209631Y376301D01*
X209653Y376266D01*
X209668Y376229D01*
X209738Y376132D01*
X209801Y376032D01*
X209831Y376004D01*
X209855Y375971D01*
X209946Y375895D01*
X210033Y375814D01*
X210068Y375794D01*
X210100Y375769D01*
X210207Y375718D01*
X210312Y375660D01*
X210351Y375650D01*
X210387Y375633D01*
X210504Y375611D01*
X210620Y375581D01*
X210680Y375577D01*
X210700Y375573D01*
X210720Y375575D01*
X210780Y375571D01*
X217091Y375571D01*
X217091Y372670D01*
X216929Y372066D01*
X216912Y371942D01*
X216888Y371818D01*
X216891Y371785D01*
X216886Y371751D01*
X216900Y371626D01*
X216908Y371501D01*
X216919Y371469D01*
X216922Y371435D01*
X216968Y371318D01*
X217006Y371199D01*
X217024Y371170D01*
X217036Y371139D01*
X217109Y371036D01*
X217176Y370930D01*
X217201Y370907D01*
X217220Y370879D01*
X217316Y370798D01*
X217408Y370712D01*
X217438Y370696D01*
X217463Y370674D01*
X217576Y370619D01*
X217686Y370558D01*
X217719Y370550D01*
X217750Y370535D01*
X217873Y370510D01*
X217994Y370479D01*
X218043Y370476D01*
X218061Y370472D01*
X218083Y370473D01*
X218155Y370469D01*
X221265Y370469D01*
X221390Y370484D01*
X221515Y370494D01*
X221547Y370504D01*
X221580Y370509D01*
X221697Y370555D01*
X221816Y370595D01*
X221845Y370613D01*
X221876Y370626D01*
X221978Y370700D01*
X222083Y370768D01*
X222106Y370793D01*
X222133Y370812D01*
X222214Y370909D01*
X222299Y371002D01*
X222315Y371031D01*
X222336Y371057D01*
X222390Y371171D01*
X222449Y371282D01*
X222457Y371315D01*
X222472Y371345D01*
X222495Y371469D01*
X222526Y371591D01*
X222525Y371624D01*
X222532Y371657D01*
X222524Y371783D01*
X222523Y371909D01*
X222513Y371957D01*
X222512Y371975D01*
X222505Y371995D01*
X222491Y372066D01*
X222329Y372670D01*
X222329Y375571D01*
X228640Y375571D01*
X228758Y375586D01*
X228877Y375593D01*
X228915Y375605D01*
X228955Y375611D01*
X229066Y375654D01*
X229179Y375691D01*
X229213Y375713D01*
X229251Y375728D01*
X229347Y375797D01*
X229448Y375861D01*
X229476Y375891D01*
X229508Y375914D01*
X229584Y376006D01*
X229666Y376093D01*
X229685Y376128D01*
X229711Y376159D01*
X229762Y376267D01*
X229819Y376371D01*
X229829Y376411D01*
X229847Y376447D01*
X229867Y376554D01*
X229871Y376524D01*
X229915Y376414D01*
X229951Y376301D01*
X229973Y376266D01*
X229988Y376229D01*
X230058Y376132D01*
X230121Y376032D01*
X230151Y376004D01*
X230175Y375971D01*
X230266Y375895D01*
X230353Y375814D01*
X230388Y375794D01*
X230420Y375769D01*
X230527Y375718D01*
X230632Y375660D01*
X230671Y375650D01*
X230707Y375633D01*
X230824Y375611D01*
X230940Y375581D01*
X231000Y375577D01*
X231020Y375573D01*
X231040Y375575D01*
X231100Y375571D01*
X237411Y375571D01*
X237411Y372670D01*
X237204Y371896D01*
X236803Y371203D01*
X236427Y370827D01*
X236354Y370733D01*
X236275Y370643D01*
X236257Y370607D01*
X236232Y370575D01*
X236185Y370466D01*
X236131Y370360D01*
X236122Y370321D01*
X236106Y370284D01*
X236087Y370166D01*
X236061Y370050D01*
X236062Y370010D01*
X236056Y369970D01*
X236067Y369851D01*
X236071Y369732D01*
X236082Y369693D01*
X236086Y369653D01*
X236126Y369541D01*
X236159Y369426D01*
X236180Y369392D01*
X236193Y369354D01*
X236260Y369255D01*
X236321Y369153D01*
X236360Y369107D01*
X236372Y369090D01*
X236387Y369077D01*
X236427Y369032D01*
X237919Y367540D01*
X237919Y366839D01*
X237931Y366741D01*
X237934Y366642D01*
X237951Y366583D01*
X237959Y366523D01*
X237995Y366431D01*
X238023Y366336D01*
X238053Y366284D01*
X238076Y366228D01*
X238134Y366147D01*
X238184Y366062D01*
X238250Y365987D01*
X238262Y365970D01*
X238272Y365962D01*
X238290Y365941D01*
X246445Y357786D01*
X247769Y356463D01*
X247878Y356378D01*
X247985Y356289D01*
X248004Y356281D01*
X248020Y356268D01*
X248147Y356213D01*
X248273Y356154D01*
X248293Y356150D01*
X248312Y356142D01*
X248450Y356120D01*
X248586Y356094D01*
X248606Y356095D01*
X248626Y356092D01*
X248765Y356105D01*
X248903Y356114D01*
X248922Y356120D01*
X248942Y356122D01*
X249074Y356169D01*
X249205Y356212D01*
X249223Y356223D01*
X249242Y356230D01*
X249357Y356308D01*
X249474Y356382D01*
X249488Y356397D01*
X249505Y356408D01*
X249597Y356512D01*
X249692Y356614D01*
X249702Y356631D01*
X249715Y356647D01*
X249779Y356771D01*
X249846Y356892D01*
X249851Y356912D01*
X249860Y356930D01*
X249890Y357066D01*
X249925Y357200D01*
X249927Y357228D01*
X249930Y357240D01*
X249929Y357261D01*
X249935Y357361D01*
X249935Y401066D01*
X249920Y401184D01*
X249913Y401303D01*
X249900Y401341D01*
X249895Y401382D01*
X249852Y401492D01*
X249815Y401605D01*
X249793Y401640D01*
X249778Y401677D01*
X249709Y401773D01*
X249645Y401874D01*
X249615Y401902D01*
X249592Y401935D01*
X249500Y402011D01*
X249413Y402092D01*
X249378Y402112D01*
X249347Y402137D01*
X249239Y402188D01*
X249135Y402246D01*
X249095Y402256D01*
X249059Y402273D01*
X248942Y402295D01*
X248827Y402325D01*
X248767Y402329D01*
X248747Y402333D01*
X248726Y402331D01*
X248666Y402335D01*
X181258Y402335D01*
X181107Y402316D01*
X180956Y402299D01*
X180949Y402296D01*
X180943Y402295D01*
X180800Y402239D01*
X180659Y402185D01*
X180653Y402181D01*
X180647Y402178D01*
X180523Y402089D01*
X180399Y402001D01*
X180395Y401996D01*
X180390Y401992D01*
X180292Y401874D01*
X180194Y401758D01*
X180191Y401752D01*
X180187Y401747D01*
X180123Y401610D01*
X180055Y401472D01*
X180054Y401465D01*
X180051Y401459D01*
X180023Y401310D01*
X179992Y401160D01*
X179993Y401153D01*
X179992Y401147D01*
X180001Y400995D01*
X180009Y400842D01*
X180011Y400836D01*
X180011Y400829D01*
X180058Y400685D01*
X180104Y400539D01*
X180107Y400533D01*
X180109Y400527D01*
X180191Y400398D01*
X180271Y400268D01*
X180276Y400264D01*
X180279Y400258D01*
X180391Y400153D01*
X180500Y400048D01*
X180506Y400045D01*
X180511Y400040D01*
X180644Y399966D01*
X180777Y399891D01*
X180786Y399889D01*
X180790Y399886D01*
X180800Y399884D01*
X180930Y399840D01*
X181470Y399695D01*
X182391Y399163D01*
X183143Y398411D01*
X183675Y397490D01*
X183951Y396462D01*
X183951Y394929D01*
X177640Y394929D01*
X177522Y394914D01*
X177403Y394907D01*
X177365Y394894D01*
X177325Y394889D01*
X177214Y394846D01*
X177101Y394809D01*
X177067Y394787D01*
X177029Y394772D01*
X176933Y394703D01*
X176832Y394639D01*
X176804Y394609D01*
X176772Y394586D01*
X176696Y394494D01*
X176614Y394407D01*
X176595Y394372D01*
X176569Y394341D01*
X176518Y394233D01*
X176461Y394129D01*
X176451Y394089D01*
X176433Y394053D01*
X176411Y393936D01*
X176381Y393821D01*
X176377Y393761D01*
X176374Y393741D01*
X176375Y393720D01*
X176371Y393660D01*
X176371Y392469D01*
X175180Y392469D01*
X175062Y392454D01*
X174943Y392447D01*
X174905Y392434D01*
X174864Y392429D01*
X174754Y392385D01*
X174641Y392349D01*
X174606Y392327D01*
X174569Y392312D01*
X174472Y392242D01*
X174372Y392179D01*
X174344Y392149D01*
X174311Y392125D01*
X174235Y392034D01*
X174154Y391947D01*
X174134Y391912D01*
X174109Y391880D01*
X174058Y391773D01*
X174000Y391668D01*
X173990Y391629D01*
X173973Y391593D01*
X173951Y391476D01*
X173921Y391360D01*
X173917Y391300D01*
X173913Y391280D01*
X173914Y391270D01*
X173913Y391266D01*
X173914Y391253D01*
X173911Y391200D01*
X173911Y384889D01*
X172378Y384889D01*
X171350Y385165D01*
X170429Y385697D01*
X169677Y386449D01*
X169276Y387143D01*
X169200Y387244D01*
X169129Y387347D01*
X169104Y387370D01*
X169083Y387397D01*
X168985Y387475D01*
X168891Y387558D01*
X168861Y387573D01*
X168834Y387594D01*
X168719Y387645D01*
X168607Y387703D01*
X168575Y387710D01*
X168544Y387724D01*
X168420Y387745D01*
X168297Y387772D01*
X168264Y387771D01*
X168230Y387777D01*
X168105Y387766D01*
X167979Y387763D01*
X167947Y387753D01*
X167913Y387750D01*
X167794Y387709D01*
X167674Y387674D01*
X167645Y387657D01*
X167613Y387646D01*
X167508Y387576D01*
X167400Y387513D01*
X167363Y387480D01*
X167348Y387470D01*
X167333Y387454D01*
X167279Y387406D01*
X164254Y384381D01*
X153486Y384381D01*
X150763Y387105D01*
X150684Y387165D01*
X150612Y387233D01*
X150559Y387262D01*
X150511Y387299D01*
X150420Y387339D01*
X150334Y387387D01*
X150275Y387402D01*
X150220Y387426D01*
X150122Y387441D01*
X150026Y387466D01*
X149926Y387472D01*
X149905Y387476D01*
X149893Y387474D01*
X149865Y387476D01*
X145318Y387476D01*
X145200Y387461D01*
X145081Y387454D01*
X145043Y387441D01*
X145002Y387436D01*
X144892Y387393D01*
X144779Y387356D01*
X144744Y387334D01*
X144707Y387319D01*
X144611Y387250D01*
X144510Y387186D01*
X144482Y387156D01*
X144449Y387133D01*
X144373Y387041D01*
X144292Y386954D01*
X144272Y386919D01*
X144247Y386888D01*
X144196Y386780D01*
X144138Y386676D01*
X144128Y386636D01*
X144111Y386600D01*
X144093Y386504D01*
X141970Y384381D01*
X129030Y384381D01*
X127898Y385514D01*
X127803Y385587D01*
X127714Y385666D01*
X127678Y385684D01*
X127646Y385709D01*
X127537Y385756D01*
X127431Y385810D01*
X127392Y385819D01*
X127354Y385835D01*
X127237Y385854D01*
X127121Y385880D01*
X127080Y385879D01*
X127040Y385885D01*
X126922Y385874D01*
X126803Y385870D01*
X126764Y385859D01*
X126724Y385855D01*
X126611Y385815D01*
X126497Y385782D01*
X126463Y385761D01*
X126424Y385748D01*
X126326Y385681D01*
X126223Y385620D01*
X126178Y385580D01*
X126161Y385569D01*
X126148Y385554D01*
X126103Y385514D01*
X124970Y384381D01*
X112979Y384381D01*
X112841Y384364D01*
X112702Y384351D01*
X112683Y384344D01*
X112663Y384341D01*
X112534Y384290D01*
X112403Y384243D01*
X112386Y384232D01*
X112367Y384224D01*
X112255Y384143D01*
X112140Y384065D01*
X112126Y384049D01*
X112110Y384038D01*
X112021Y383930D01*
X111929Y383826D01*
X111920Y383808D01*
X111907Y383793D01*
X111848Y383667D01*
X111785Y383543D01*
X111780Y383523D01*
X111772Y383505D01*
X111746Y383369D01*
X111715Y383233D01*
X111716Y383212D01*
X111712Y383193D01*
X111721Y383054D01*
X111725Y382915D01*
X111730Y382895D01*
X111732Y382875D01*
X111774Y382743D01*
X111813Y382609D01*
X111823Y382592D01*
X111830Y382573D01*
X111904Y382455D01*
X111975Y382335D01*
X111993Y382314D01*
X112000Y382304D01*
X112015Y382290D01*
X112081Y382215D01*
X129628Y364668D01*
X131200Y363096D01*
X131954Y361275D01*
X131954Y354518D01*
X131970Y354387D01*
X131981Y354255D01*
X131990Y354230D01*
X131994Y354203D01*
X132042Y354080D01*
X132086Y353955D01*
X132101Y353932D01*
X132111Y353907D01*
X132188Y353800D01*
X132262Y353690D01*
X132282Y353672D01*
X132297Y353650D01*
X132399Y353565D01*
X132498Y353477D01*
X132522Y353464D01*
X132542Y353447D01*
X132662Y353391D01*
X132780Y353329D01*
X132806Y353323D01*
X132830Y353311D01*
X132960Y353287D01*
X133089Y353256D01*
X133116Y353257D01*
X133142Y353252D01*
X133274Y353260D01*
X133407Y353263D01*
X133433Y353270D01*
X133460Y353271D01*
X133586Y353312D01*
X133713Y353348D01*
X133748Y353365D01*
X133762Y353369D01*
X133781Y353381D01*
X133858Y353419D01*
X134051Y353531D01*
X134834Y353741D01*
X146911Y353741D01*
X146911Y338970D01*
X146926Y338852D01*
X146933Y338733D01*
X146946Y338695D01*
X146951Y338655D01*
X146994Y338544D01*
X147031Y338431D01*
X147053Y338396D01*
X147068Y338359D01*
X147138Y338263D01*
X147201Y338162D01*
X147231Y338134D01*
X147255Y338102D01*
X147346Y338026D01*
X147433Y337944D01*
X147468Y337925D01*
X147499Y337899D01*
X147607Y337848D01*
X147711Y337791D01*
X147751Y337780D01*
X147787Y337763D01*
X147904Y337741D01*
X148019Y337711D01*
X148080Y337707D01*
X148100Y337703D01*
X148120Y337705D01*
X148180Y337701D01*
X150720Y337701D01*
X150838Y337716D01*
G37*
G36*
X99178Y116856D02*
X99178Y116856D01*
X99297Y116863D01*
X99335Y116876D01*
X99376Y116881D01*
X99486Y116924D01*
X99599Y116961D01*
X99634Y116983D01*
X99671Y116998D01*
X99767Y117068D01*
X99868Y117131D01*
X99896Y117161D01*
X99929Y117184D01*
X100005Y117276D01*
X100086Y117363D01*
X100106Y117398D01*
X100131Y117429D01*
X100182Y117537D01*
X100240Y117641D01*
X100250Y117681D01*
X100267Y117717D01*
X100289Y117834D01*
X100319Y117949D01*
X100323Y118010D01*
X100327Y118030D01*
X100325Y118050D01*
X100329Y118110D01*
X100329Y132080D01*
X100317Y132178D01*
X100314Y132277D01*
X100308Y132299D01*
X100307Y132309D01*
X100296Y132342D01*
X100289Y132396D01*
X100253Y132488D01*
X100225Y132583D01*
X100209Y132610D01*
X100209Y132611D01*
X100205Y132617D01*
X100195Y132635D01*
X100172Y132691D01*
X100114Y132771D01*
X100064Y132857D01*
X99998Y132932D01*
X99986Y132949D01*
X99976Y132956D01*
X99958Y132978D01*
X93979Y138956D01*
X93979Y165844D01*
X117738Y189603D01*
X117798Y189681D01*
X117866Y189753D01*
X117895Y189806D01*
X117932Y189854D01*
X117972Y189945D01*
X118020Y190031D01*
X118035Y190090D01*
X118059Y190146D01*
X118074Y190244D01*
X118099Y190339D01*
X118105Y190439D01*
X118109Y190460D01*
X118107Y190472D01*
X118109Y190500D01*
X118109Y226060D01*
X118097Y226158D01*
X118094Y226257D01*
X118077Y226315D01*
X118069Y226376D01*
X118033Y226468D01*
X118005Y226563D01*
X117975Y226615D01*
X117952Y226671D01*
X117894Y226751D01*
X117844Y226837D01*
X117778Y226912D01*
X117766Y226929D01*
X117756Y226936D01*
X117738Y226958D01*
X115198Y229498D01*
X115119Y229558D01*
X115047Y229626D01*
X114994Y229655D01*
X114946Y229692D01*
X114855Y229732D01*
X114769Y229780D01*
X114710Y229795D01*
X114654Y229819D01*
X114556Y229834D01*
X114461Y229859D01*
X114361Y229865D01*
X114340Y229869D01*
X114328Y229867D01*
X114300Y229869D01*
X91440Y229869D01*
X91342Y229857D01*
X91243Y229854D01*
X91185Y229837D01*
X91124Y229829D01*
X91032Y229793D01*
X90937Y229765D01*
X90885Y229735D01*
X90829Y229712D01*
X90749Y229654D01*
X90663Y229604D01*
X90588Y229538D01*
X90571Y229526D01*
X90564Y229516D01*
X90543Y229498D01*
X88003Y226958D01*
X87942Y226879D01*
X87874Y226807D01*
X87845Y226754D01*
X87808Y226706D01*
X87768Y226615D01*
X87720Y226529D01*
X87705Y226470D01*
X87681Y226414D01*
X87666Y226316D01*
X87641Y226221D01*
X87635Y226121D01*
X87631Y226100D01*
X87633Y226088D01*
X87631Y226060D01*
X87631Y191026D01*
X81653Y185048D01*
X81592Y184969D01*
X81524Y184897D01*
X81495Y184844D01*
X81458Y184796D01*
X81418Y184705D01*
X81370Y184619D01*
X81355Y184560D01*
X81331Y184504D01*
X81316Y184406D01*
X81291Y184311D01*
X81285Y184211D01*
X81281Y184190D01*
X81283Y184178D01*
X81281Y184150D01*
X81281Y138956D01*
X71493Y129168D01*
X71432Y129089D01*
X71364Y129017D01*
X71335Y128964D01*
X71333Y128962D01*
X71319Y128945D01*
X71317Y128942D01*
X71298Y128916D01*
X71258Y128825D01*
X71210Y128739D01*
X71197Y128686D01*
X71183Y128657D01*
X71181Y128648D01*
X71171Y128624D01*
X71156Y128526D01*
X71131Y128431D01*
X71127Y128362D01*
X71123Y128345D01*
X71124Y128329D01*
X71121Y128310D01*
X71123Y128298D01*
X71121Y128270D01*
X71121Y118110D01*
X71136Y117992D01*
X71143Y117873D01*
X71156Y117835D01*
X71161Y117794D01*
X71204Y117684D01*
X71241Y117571D01*
X71263Y117536D01*
X71278Y117499D01*
X71348Y117403D01*
X71411Y117302D01*
X71441Y117274D01*
X71464Y117241D01*
X71556Y117166D01*
X71643Y117084D01*
X71678Y117064D01*
X71709Y117039D01*
X71817Y116988D01*
X71921Y116930D01*
X71961Y116920D01*
X71997Y116903D01*
X72114Y116881D01*
X72229Y116851D01*
X72290Y116847D01*
X72310Y116843D01*
X72330Y116845D01*
X72390Y116841D01*
X99060Y116841D01*
X99178Y116856D01*
G37*
G36*
X127079Y16617D02*
X127079Y16617D01*
X127099Y16616D01*
X127235Y16644D01*
X127372Y16668D01*
X127391Y16676D01*
X127410Y16680D01*
X127536Y16741D01*
X127662Y16798D01*
X127678Y16811D01*
X127696Y16820D01*
X127802Y16910D01*
X127910Y16997D01*
X127923Y17013D01*
X127938Y17026D01*
X128018Y17140D01*
X128102Y17251D01*
X128114Y17276D01*
X128121Y17286D01*
X128128Y17305D01*
X128173Y17395D01*
X129148Y19750D01*
X132650Y23252D01*
X133963Y23796D01*
X133988Y23810D01*
X134016Y23820D01*
X134126Y23889D01*
X134239Y23953D01*
X134260Y23974D01*
X134285Y23990D01*
X134374Y24084D01*
X134467Y24175D01*
X134483Y24200D01*
X134503Y24221D01*
X134566Y24335D01*
X134634Y24446D01*
X134642Y24474D01*
X134657Y24500D01*
X134689Y24625D01*
X134727Y24750D01*
X134729Y24779D01*
X134736Y24808D01*
X134746Y24968D01*
X134746Y38205D01*
X135500Y40026D01*
X143980Y48505D01*
X144040Y48583D01*
X144108Y48656D01*
X144137Y48709D01*
X144174Y48756D01*
X144214Y48847D01*
X144262Y48934D01*
X144277Y48993D01*
X144301Y49048D01*
X144316Y49146D01*
X144341Y49242D01*
X144347Y49342D01*
X144351Y49362D01*
X144349Y49375D01*
X144351Y49403D01*
X144351Y56390D01*
X145484Y57522D01*
X145557Y57617D01*
X145636Y57706D01*
X145654Y57742D01*
X145679Y57774D01*
X145726Y57883D01*
X145780Y57989D01*
X145789Y58028D01*
X145805Y58066D01*
X145824Y58183D01*
X145850Y58299D01*
X145849Y58340D01*
X145855Y58380D01*
X145844Y58498D01*
X145840Y58617D01*
X145829Y58656D01*
X145825Y58696D01*
X145785Y58809D01*
X145752Y58923D01*
X145731Y58957D01*
X145718Y58996D01*
X145651Y59094D01*
X145590Y59197D01*
X145550Y59242D01*
X145539Y59259D01*
X145524Y59272D01*
X145484Y59317D01*
X144351Y60450D01*
X144351Y73390D01*
X145858Y74896D01*
X145876Y74920D01*
X145898Y74939D01*
X145973Y75045D01*
X146053Y75148D01*
X146064Y75175D01*
X146081Y75199D01*
X146127Y75320D01*
X146179Y75439D01*
X146184Y75469D01*
X146194Y75496D01*
X146208Y75625D01*
X146229Y75754D01*
X146226Y75783D01*
X146229Y75812D01*
X146211Y75941D01*
X146199Y76070D01*
X146189Y76098D01*
X146185Y76127D01*
X146133Y76280D01*
X145668Y77401D01*
X145668Y80079D01*
X146693Y82553D01*
X148587Y84447D01*
X151061Y85472D01*
X153739Y85472D01*
X154627Y85104D01*
X154694Y85085D01*
X154758Y85058D01*
X154847Y85044D01*
X154934Y85020D01*
X155004Y85019D01*
X155073Y85008D01*
X155162Y85016D01*
X155252Y85015D01*
X155320Y85031D01*
X155389Y85038D01*
X155474Y85068D01*
X155561Y85089D01*
X155623Y85122D01*
X155688Y85145D01*
X155763Y85196D01*
X155842Y85238D01*
X155894Y85285D01*
X155952Y85324D01*
X156011Y85391D01*
X156078Y85452D01*
X156116Y85510D01*
X156162Y85562D01*
X156203Y85642D01*
X156252Y85717D01*
X156275Y85783D01*
X156307Y85846D01*
X156326Y85933D01*
X156356Y86018D01*
X156361Y86088D01*
X156376Y86156D01*
X156374Y86246D01*
X156381Y86335D01*
X156369Y86404D01*
X156367Y86474D01*
X156342Y86560D01*
X156326Y86649D01*
X156298Y86712D01*
X156278Y86779D01*
X156233Y86856D01*
X156196Y86939D01*
X156152Y86993D01*
X156117Y87053D01*
X156010Y87174D01*
X154550Y88634D01*
X153796Y90455D01*
X153796Y95982D01*
X153781Y96100D01*
X153774Y96219D01*
X153761Y96257D01*
X153756Y96298D01*
X153713Y96408D01*
X153676Y96521D01*
X153654Y96556D01*
X153639Y96593D01*
X153570Y96689D01*
X153506Y96790D01*
X153476Y96818D01*
X153453Y96851D01*
X153361Y96927D01*
X153274Y97008D01*
X153239Y97028D01*
X153208Y97053D01*
X153100Y97104D01*
X152996Y97162D01*
X152956Y97172D01*
X152920Y97189D01*
X152824Y97207D01*
X151827Y98205D01*
X151749Y98265D01*
X151676Y98333D01*
X151623Y98362D01*
X151576Y98399D01*
X151485Y98439D01*
X151398Y98487D01*
X151339Y98502D01*
X151284Y98526D01*
X151186Y98541D01*
X151090Y98566D01*
X150990Y98572D01*
X150970Y98576D01*
X150957Y98574D01*
X150929Y98576D01*
X138712Y98576D01*
X138651Y98593D01*
X138641Y98593D01*
X138632Y98596D01*
X138471Y98606D01*
X131521Y98606D01*
X129440Y100686D01*
X129440Y108914D01*
X131521Y110994D01*
X138471Y110994D01*
X138481Y110995D01*
X138490Y110994D01*
X138638Y111015D01*
X138705Y111024D01*
X149432Y111024D01*
X149550Y111039D01*
X149669Y111046D01*
X149707Y111059D01*
X149748Y111064D01*
X149858Y111107D01*
X149971Y111144D01*
X150006Y111166D01*
X150043Y111181D01*
X150139Y111250D01*
X150240Y111314D01*
X150268Y111344D01*
X150301Y111367D01*
X150377Y111459D01*
X150458Y111546D01*
X150478Y111581D01*
X150503Y111612D01*
X150554Y111720D01*
X150612Y111824D01*
X150622Y111864D01*
X150639Y111900D01*
X150661Y112017D01*
X150691Y112132D01*
X150695Y112192D01*
X150699Y112212D01*
X150697Y112233D01*
X150700Y112268D01*
X151834Y113402D01*
X151907Y113497D01*
X151986Y113586D01*
X152004Y113622D01*
X152029Y113654D01*
X152076Y113763D01*
X152130Y113869D01*
X152139Y113908D01*
X152155Y113946D01*
X152174Y114063D01*
X152200Y114179D01*
X152199Y114220D01*
X152205Y114260D01*
X152194Y114378D01*
X152190Y114497D01*
X152179Y114536D01*
X152175Y114576D01*
X152135Y114689D01*
X152102Y114803D01*
X152081Y114837D01*
X152068Y114876D01*
X152001Y114974D01*
X151940Y115077D01*
X151900Y115122D01*
X151889Y115139D01*
X151874Y115152D01*
X151834Y115197D01*
X150698Y116333D01*
X150686Y116425D01*
X150679Y116544D01*
X150666Y116582D01*
X150661Y116623D01*
X150618Y116733D01*
X150581Y116846D01*
X150559Y116881D01*
X150544Y116918D01*
X150475Y117014D01*
X150411Y117115D01*
X150381Y117143D01*
X150358Y117176D01*
X150266Y117252D01*
X150179Y117333D01*
X150144Y117353D01*
X150113Y117378D01*
X150005Y117429D01*
X149901Y117487D01*
X149861Y117497D01*
X149825Y117514D01*
X149708Y117536D01*
X149593Y117566D01*
X149533Y117570D01*
X149513Y117574D01*
X149492Y117572D01*
X149432Y117576D01*
X138706Y117576D01*
X138661Y117589D01*
X138652Y117589D01*
X138643Y117591D01*
X138482Y117601D01*
X131525Y117601D01*
X129205Y119921D01*
X129175Y119973D01*
X129109Y120048D01*
X129097Y120065D01*
X129087Y120073D01*
X129069Y120094D01*
X129031Y120131D01*
X129031Y126209D01*
X129014Y126347D01*
X129001Y126486D01*
X128994Y126505D01*
X128991Y126525D01*
X128940Y126654D01*
X128893Y126785D01*
X128882Y126802D01*
X128874Y126821D01*
X128793Y126933D01*
X128715Y127048D01*
X128699Y127062D01*
X128688Y127078D01*
X128580Y127167D01*
X128476Y127259D01*
X128458Y127268D01*
X128443Y127281D01*
X128317Y127340D01*
X128193Y127403D01*
X128173Y127408D01*
X128155Y127416D01*
X128018Y127442D01*
X127883Y127473D01*
X127862Y127472D01*
X127843Y127476D01*
X127704Y127467D01*
X127565Y127463D01*
X127545Y127458D01*
X127525Y127456D01*
X127393Y127414D01*
X127259Y127375D01*
X127242Y127365D01*
X127223Y127358D01*
X127105Y127284D01*
X126985Y127213D01*
X126964Y127195D01*
X126954Y127188D01*
X126940Y127173D01*
X126865Y127107D01*
X125340Y125583D01*
X125280Y125505D01*
X125212Y125432D01*
X125183Y125379D01*
X125146Y125332D01*
X125106Y125241D01*
X125058Y125154D01*
X125043Y125095D01*
X125019Y125040D01*
X125004Y124942D01*
X124979Y124846D01*
X124973Y124746D01*
X124969Y124726D01*
X124971Y124713D01*
X124969Y124685D01*
X124969Y120131D01*
X124932Y120094D01*
X124871Y120016D01*
X124803Y119944D01*
X124786Y119913D01*
X124182Y119309D01*
X124117Y119225D01*
X124046Y119147D01*
X124020Y119100D01*
X123987Y119057D01*
X123945Y118960D01*
X123895Y118867D01*
X123882Y118815D01*
X123861Y118766D01*
X123844Y118661D01*
X123819Y118559D01*
X123819Y118505D01*
X123811Y118452D01*
X123821Y118346D01*
X123822Y118241D01*
X123839Y118157D01*
X123841Y118135D01*
X123846Y118120D01*
X123854Y118083D01*
X124052Y117343D01*
X124052Y115872D01*
X114270Y115872D01*
X114152Y115857D01*
X114033Y115850D01*
X113995Y115837D01*
X113954Y115832D01*
X113844Y115788D01*
X113731Y115752D01*
X113696Y115730D01*
X113659Y115715D01*
X113562Y115645D01*
X113462Y115582D01*
X113434Y115552D01*
X113401Y115528D01*
X113325Y115437D01*
X113244Y115350D01*
X113224Y115314D01*
X113199Y115283D01*
X113148Y115176D01*
X113090Y115071D01*
X113080Y115032D01*
X113063Y114996D01*
X113041Y114879D01*
X113011Y114763D01*
X113007Y114703D01*
X113003Y114683D01*
X113005Y114663D01*
X113001Y114603D01*
X113001Y113997D01*
X113016Y113879D01*
X113023Y113760D01*
X113035Y113722D01*
X113041Y113682D01*
X113084Y113571D01*
X113121Y113458D01*
X113143Y113424D01*
X113158Y113386D01*
X113227Y113290D01*
X113291Y113189D01*
X113321Y113161D01*
X113344Y113129D01*
X113436Y113053D01*
X113523Y112971D01*
X113558Y112952D01*
X113589Y112926D01*
X113697Y112875D01*
X113801Y112818D01*
X113841Y112808D01*
X113877Y112790D01*
X113994Y112768D01*
X114109Y112738D01*
X114169Y112734D01*
X114189Y112731D01*
X114210Y112732D01*
X114270Y112728D01*
X124052Y112728D01*
X124052Y111257D01*
X123854Y110517D01*
X123839Y110412D01*
X123816Y110309D01*
X123818Y110256D01*
X123810Y110202D01*
X123822Y110097D01*
X123826Y109992D01*
X123841Y109940D01*
X123847Y109886D01*
X123885Y109787D01*
X123914Y109686D01*
X123941Y109640D01*
X123961Y109589D01*
X124022Y109503D01*
X124076Y109412D01*
X124132Y109348D01*
X124145Y109330D01*
X124157Y109320D01*
X124182Y109291D01*
X124560Y108914D01*
X124560Y100686D01*
X122479Y98606D01*
X119188Y98606D01*
X119044Y98588D01*
X118898Y98572D01*
X118886Y98568D01*
X118872Y98566D01*
X118737Y98513D01*
X118600Y98462D01*
X118589Y98454D01*
X118576Y98449D01*
X118459Y98363D01*
X118339Y98280D01*
X118330Y98270D01*
X118319Y98262D01*
X118226Y98149D01*
X118131Y98040D01*
X118125Y98028D01*
X118116Y98017D01*
X118054Y97885D01*
X117989Y97755D01*
X117987Y97742D01*
X117981Y97729D01*
X117954Y97587D01*
X117923Y97444D01*
X117924Y97430D01*
X117921Y97417D01*
X117930Y97272D01*
X117936Y97126D01*
X117940Y97113D01*
X117941Y97100D01*
X117985Y96962D01*
X118028Y96821D01*
X118035Y96810D01*
X118039Y96797D01*
X118117Y96674D01*
X118192Y96549D01*
X118202Y96540D01*
X118209Y96528D01*
X118315Y96428D01*
X118419Y96326D01*
X118434Y96316D01*
X118441Y96310D01*
X118456Y96302D01*
X118553Y96237D01*
X119253Y95833D01*
X119819Y95267D01*
X120220Y94574D01*
X120427Y93800D01*
X120427Y91399D01*
X113616Y91399D01*
X113498Y91384D01*
X113379Y91377D01*
X113341Y91364D01*
X113301Y91359D01*
X113190Y91316D01*
X113077Y91279D01*
X113043Y91257D01*
X113005Y91242D01*
X112909Y91173D01*
X112808Y91109D01*
X112780Y91079D01*
X112748Y91056D01*
X112672Y90964D01*
X112590Y90877D01*
X112571Y90842D01*
X112545Y90811D01*
X112494Y90703D01*
X112437Y90599D01*
X112427Y90559D01*
X112409Y90523D01*
X112387Y90406D01*
X112357Y90291D01*
X112353Y90231D01*
X112350Y90211D01*
X112351Y90190D01*
X112347Y90130D01*
X112347Y88939D01*
X111156Y88939D01*
X111038Y88924D01*
X110919Y88917D01*
X110881Y88904D01*
X110840Y88899D01*
X110730Y88855D01*
X110617Y88819D01*
X110582Y88797D01*
X110545Y88782D01*
X110448Y88712D01*
X110348Y88649D01*
X110320Y88619D01*
X110287Y88595D01*
X110211Y88504D01*
X110130Y88417D01*
X110110Y88382D01*
X110085Y88350D01*
X110034Y88243D01*
X109976Y88138D01*
X109966Y88099D01*
X109949Y88063D01*
X109927Y87946D01*
X109897Y87830D01*
X109893Y87770D01*
X109889Y87750D01*
X109891Y87730D01*
X109887Y87670D01*
X109887Y81359D01*
X109576Y81359D01*
X109527Y81353D01*
X109477Y81355D01*
X109370Y81333D01*
X109261Y81319D01*
X109215Y81301D01*
X109166Y81291D01*
X109067Y81243D01*
X108965Y81202D01*
X108925Y81173D01*
X108880Y81151D01*
X108797Y81080D01*
X108708Y81016D01*
X108676Y80977D01*
X108638Y80945D01*
X108575Y80855D01*
X108505Y80771D01*
X108484Y80726D01*
X108455Y80685D01*
X108416Y80582D01*
X108369Y80483D01*
X108360Y80434D01*
X108342Y80387D01*
X108330Y80278D01*
X108310Y80171D01*
X108313Y80121D01*
X108307Y80071D01*
X108323Y79963D01*
X108329Y79853D01*
X108332Y79846D01*
X108332Y77100D01*
X107955Y76191D01*
X107948Y76163D01*
X107934Y76137D01*
X107906Y76010D01*
X107871Y75885D01*
X107871Y75855D01*
X107865Y75826D01*
X107868Y75697D01*
X107866Y75567D01*
X107873Y75538D01*
X107874Y75508D01*
X107910Y75384D01*
X107941Y75257D01*
X107954Y75231D01*
X107963Y75203D01*
X108028Y75091D01*
X108089Y74976D01*
X108109Y74954D01*
X108124Y74929D01*
X108231Y74808D01*
X109649Y73390D01*
X109649Y60450D01*
X108516Y59317D01*
X108443Y59223D01*
X108364Y59134D01*
X108346Y59098D01*
X108321Y59066D01*
X108274Y58957D01*
X108220Y58851D01*
X108211Y58812D01*
X108195Y58774D01*
X108176Y58657D01*
X108150Y58541D01*
X108151Y58500D01*
X108145Y58460D01*
X108156Y58342D01*
X108160Y58223D01*
X108171Y58184D01*
X108175Y58144D01*
X108215Y58032D01*
X108248Y57917D01*
X108269Y57882D01*
X108282Y57844D01*
X108349Y57746D01*
X108410Y57643D01*
X108450Y57598D01*
X108461Y57581D01*
X108476Y57568D01*
X108516Y57522D01*
X109649Y56390D01*
X109649Y49403D01*
X109661Y49304D01*
X109664Y49205D01*
X109681Y49147D01*
X109689Y49087D01*
X109725Y48995D01*
X109753Y48900D01*
X109783Y48848D01*
X109806Y48791D01*
X109864Y48711D01*
X109914Y48626D01*
X109980Y48551D01*
X109992Y48534D01*
X110002Y48526D01*
X110020Y48505D01*
X114202Y44323D01*
X114280Y44263D01*
X114353Y44195D01*
X114406Y44166D01*
X114453Y44129D01*
X114544Y44089D01*
X114631Y44041D01*
X114690Y44026D01*
X114745Y44002D01*
X114843Y43987D01*
X114939Y43962D01*
X115039Y43956D01*
X115059Y43952D01*
X115072Y43954D01*
X115100Y43952D01*
X115639Y43952D01*
X118113Y42927D01*
X120007Y41033D01*
X121032Y38559D01*
X121032Y35881D01*
X120007Y33407D01*
X119625Y33025D01*
X119565Y32947D01*
X119497Y32875D01*
X119468Y32822D01*
X119431Y32774D01*
X119391Y32683D01*
X119343Y32596D01*
X119328Y32538D01*
X119304Y32482D01*
X119289Y32384D01*
X119264Y32289D01*
X119258Y32189D01*
X119254Y32168D01*
X119256Y32156D01*
X119254Y32128D01*
X119254Y24968D01*
X119257Y24939D01*
X119255Y24910D01*
X119277Y24782D01*
X119294Y24653D01*
X119304Y24625D01*
X119309Y24596D01*
X119363Y24478D01*
X119411Y24357D01*
X119428Y24333D01*
X119440Y24306D01*
X119521Y24205D01*
X119597Y24100D01*
X119620Y24081D01*
X119639Y24058D01*
X119742Y23980D01*
X119842Y23897D01*
X119869Y23884D01*
X119893Y23867D01*
X120037Y23796D01*
X121350Y23252D01*
X124852Y19750D01*
X125827Y17395D01*
X125896Y17275D01*
X125961Y17152D01*
X125975Y17137D01*
X125985Y17119D01*
X126082Y17019D01*
X126175Y16916D01*
X126192Y16905D01*
X126206Y16891D01*
X126325Y16818D01*
X126441Y16742D01*
X126460Y16735D01*
X126477Y16724D01*
X126610Y16684D01*
X126742Y16638D01*
X126762Y16637D01*
X126781Y16631D01*
X126920Y16624D01*
X127059Y16613D01*
X127079Y16617D01*
G37*
G36*
X190561Y54496D02*
X190561Y54496D01*
X190660Y54499D01*
X190718Y54516D01*
X190778Y54524D01*
X190870Y54560D01*
X190965Y54588D01*
X191017Y54618D01*
X191074Y54641D01*
X191154Y54699D01*
X191239Y54749D01*
X191314Y54815D01*
X191331Y54827D01*
X191339Y54837D01*
X191360Y54855D01*
X210575Y74070D01*
X210635Y74148D01*
X210703Y74221D01*
X210732Y74274D01*
X210769Y74321D01*
X210809Y74412D01*
X210857Y74499D01*
X210872Y74558D01*
X210896Y74613D01*
X210911Y74711D01*
X210936Y74807D01*
X210942Y74907D01*
X210946Y74927D01*
X210944Y74940D01*
X210946Y74968D01*
X210946Y105190D01*
X210931Y105308D01*
X210924Y105427D01*
X210911Y105465D01*
X210906Y105506D01*
X210863Y105616D01*
X210826Y105729D01*
X210804Y105764D01*
X210789Y105801D01*
X210720Y105897D01*
X210656Y105998D01*
X210626Y106026D01*
X210603Y106059D01*
X210511Y106135D01*
X210424Y106216D01*
X210389Y106236D01*
X210358Y106261D01*
X210250Y106312D01*
X210146Y106370D01*
X210106Y106380D01*
X210070Y106397D01*
X209953Y106419D01*
X209838Y106449D01*
X209778Y106453D01*
X209758Y106457D01*
X209737Y106455D01*
X209677Y106459D01*
X204699Y106459D01*
X204699Y111770D01*
X204684Y111888D01*
X204677Y112007D01*
X204664Y112045D01*
X204659Y112085D01*
X204616Y112196D01*
X204579Y112309D01*
X204557Y112343D01*
X204542Y112381D01*
X204473Y112477D01*
X204409Y112578D01*
X204379Y112606D01*
X204356Y112638D01*
X204264Y112714D01*
X204177Y112796D01*
X204142Y112815D01*
X204111Y112841D01*
X204067Y112861D01*
X204012Y112937D01*
X203949Y113038D01*
X203919Y113066D01*
X203895Y113099D01*
X203804Y113175D01*
X203717Y113256D01*
X203682Y113276D01*
X203650Y113301D01*
X203543Y113352D01*
X203438Y113410D01*
X203399Y113420D01*
X203363Y113437D01*
X203246Y113459D01*
X203130Y113489D01*
X203070Y113493D01*
X203050Y113497D01*
X203030Y113495D01*
X202970Y113499D01*
X193909Y113499D01*
X193909Y114507D01*
X193894Y114625D01*
X193887Y114744D01*
X193874Y114782D01*
X193869Y114823D01*
X193826Y114933D01*
X193789Y115046D01*
X193767Y115081D01*
X193752Y115118D01*
X193683Y115214D01*
X193619Y115315D01*
X193589Y115343D01*
X193566Y115376D01*
X193474Y115452D01*
X193387Y115533D01*
X193352Y115553D01*
X193321Y115578D01*
X193213Y115629D01*
X193109Y115687D01*
X193069Y115697D01*
X193033Y115714D01*
X192916Y115736D01*
X192801Y115766D01*
X192741Y115770D01*
X192721Y115774D01*
X192700Y115772D01*
X192640Y115776D01*
X182753Y115776D01*
X182635Y115761D01*
X182516Y115754D01*
X182478Y115741D01*
X182437Y115736D01*
X182327Y115693D01*
X182214Y115656D01*
X182179Y115634D01*
X182142Y115619D01*
X182046Y115550D01*
X181945Y115486D01*
X181917Y115456D01*
X181884Y115433D01*
X181808Y115341D01*
X181727Y115254D01*
X181707Y115219D01*
X181682Y115188D01*
X181631Y115080D01*
X181573Y114976D01*
X181563Y114936D01*
X181546Y114900D01*
X181524Y114783D01*
X181494Y114668D01*
X181490Y114608D01*
X181486Y114588D01*
X181487Y114574D01*
X181486Y114570D01*
X181487Y114558D01*
X181484Y114507D01*
X181484Y96798D01*
X181485Y96789D01*
X181484Y96779D01*
X181505Y96631D01*
X181524Y96482D01*
X181527Y96474D01*
X181528Y96465D01*
X181580Y96312D01*
X181992Y95319D01*
X181992Y92641D01*
X180967Y90167D01*
X179073Y88273D01*
X176599Y87248D01*
X173921Y87248D01*
X171497Y88252D01*
X171363Y88289D01*
X171230Y88330D01*
X171210Y88331D01*
X171191Y88336D01*
X171051Y88338D01*
X170913Y88345D01*
X170893Y88341D01*
X170873Y88341D01*
X170737Y88309D01*
X170601Y88281D01*
X170583Y88272D01*
X170563Y88267D01*
X170441Y88202D01*
X170316Y88141D01*
X170300Y88128D01*
X170282Y88118D01*
X170179Y88025D01*
X170074Y87935D01*
X170062Y87918D01*
X170047Y87904D01*
X169970Y87788D01*
X169890Y87675D01*
X169883Y87656D01*
X169872Y87639D01*
X169827Y87507D01*
X169778Y87377D01*
X169775Y87357D01*
X169769Y87338D01*
X169758Y87199D01*
X169742Y87061D01*
X169745Y87041D01*
X169744Y87021D01*
X169768Y86884D01*
X169787Y86746D01*
X169796Y86720D01*
X169798Y86707D01*
X169807Y86689D01*
X169839Y86594D01*
X170054Y86075D01*
X170054Y62242D01*
X170066Y62144D01*
X170069Y62045D01*
X170086Y61987D01*
X170094Y61927D01*
X170130Y61835D01*
X170158Y61739D01*
X170188Y61687D01*
X170211Y61631D01*
X170269Y61551D01*
X170319Y61465D01*
X170385Y61390D01*
X170397Y61374D01*
X170407Y61366D01*
X170425Y61345D01*
X170807Y60963D01*
X171832Y58489D01*
X171832Y55753D01*
X171847Y55635D01*
X171854Y55516D01*
X171867Y55478D01*
X171872Y55437D01*
X171915Y55327D01*
X171952Y55214D01*
X171974Y55179D01*
X171989Y55142D01*
X172058Y55046D01*
X172122Y54945D01*
X172152Y54917D01*
X172175Y54884D01*
X172267Y54808D01*
X172354Y54727D01*
X172389Y54707D01*
X172420Y54682D01*
X172528Y54631D01*
X172632Y54573D01*
X172672Y54563D01*
X172708Y54546D01*
X172825Y54524D01*
X172940Y54494D01*
X173000Y54490D01*
X173020Y54486D01*
X173041Y54488D01*
X173101Y54484D01*
X190462Y54484D01*
X190561Y54496D01*
G37*
G36*
X36891Y322466D02*
X36891Y322466D01*
X36990Y322469D01*
X37048Y322486D01*
X37108Y322494D01*
X37200Y322530D01*
X37295Y322558D01*
X37347Y322588D01*
X37404Y322611D01*
X37484Y322669D01*
X37569Y322719D01*
X37644Y322785D01*
X37661Y322797D01*
X37669Y322807D01*
X37690Y322825D01*
X55614Y340750D01*
X57435Y341504D01*
X63182Y341504D01*
X63300Y341519D01*
X63419Y341526D01*
X63457Y341539D01*
X63498Y341544D01*
X63608Y341587D01*
X63721Y341624D01*
X63756Y341646D01*
X63793Y341661D01*
X63889Y341730D01*
X63990Y341794D01*
X64018Y341824D01*
X64051Y341847D01*
X64127Y341939D01*
X64208Y342026D01*
X64228Y342061D01*
X64253Y342092D01*
X64304Y342200D01*
X64362Y342304D01*
X64372Y342344D01*
X64389Y342380D01*
X64411Y342497D01*
X64441Y342612D01*
X64445Y342672D01*
X64449Y342692D01*
X64447Y342713D01*
X64451Y342773D01*
X64451Y345005D01*
X66303Y346857D01*
X66376Y346951D01*
X66455Y347040D01*
X66473Y347076D01*
X66498Y347108D01*
X66545Y347218D01*
X66599Y347323D01*
X66608Y347363D01*
X66624Y347400D01*
X66643Y347518D01*
X66669Y347634D01*
X66668Y347674D01*
X66674Y347714D01*
X66663Y347833D01*
X66659Y347952D01*
X66648Y347990D01*
X66644Y348031D01*
X66604Y348143D01*
X66571Y348257D01*
X66550Y348292D01*
X66537Y348330D01*
X66470Y348429D01*
X66409Y348531D01*
X66369Y348576D01*
X66358Y348593D01*
X66343Y348607D01*
X66303Y348652D01*
X64451Y350503D01*
X64451Y353577D01*
X64436Y353695D01*
X64429Y353814D01*
X64416Y353852D01*
X64411Y353893D01*
X64368Y354003D01*
X64331Y354116D01*
X64309Y354151D01*
X64294Y354188D01*
X64225Y354284D01*
X64161Y354385D01*
X64131Y354413D01*
X64108Y354446D01*
X64016Y354522D01*
X63929Y354603D01*
X63894Y354623D01*
X63863Y354648D01*
X63755Y354699D01*
X63651Y354757D01*
X63611Y354767D01*
X63575Y354784D01*
X63458Y354806D01*
X63343Y354836D01*
X63283Y354840D01*
X63263Y354844D01*
X63242Y354842D01*
X63182Y354846D01*
X54541Y354846D01*
X54442Y354834D01*
X54343Y354831D01*
X54285Y354814D01*
X54225Y354806D01*
X54133Y354770D01*
X54038Y354742D01*
X53986Y354712D01*
X53929Y354689D01*
X53849Y354631D01*
X53764Y354581D01*
X53689Y354515D01*
X53672Y354503D01*
X53664Y354493D01*
X53643Y354475D01*
X51690Y352521D01*
X39750Y352521D01*
X37797Y354475D01*
X37719Y354535D01*
X37646Y354603D01*
X37593Y354632D01*
X37546Y354669D01*
X37455Y354709D01*
X37368Y354757D01*
X37309Y354772D01*
X37254Y354796D01*
X37156Y354811D01*
X37060Y354836D01*
X36960Y354842D01*
X36940Y354846D01*
X36927Y354844D01*
X36899Y354846D01*
X34221Y354846D01*
X34122Y354834D01*
X34023Y354831D01*
X33965Y354814D01*
X33905Y354806D01*
X33813Y354770D01*
X33718Y354742D01*
X33666Y354712D01*
X33609Y354689D01*
X33529Y354631D01*
X33444Y354581D01*
X33369Y354515D01*
X33352Y354503D01*
X33344Y354493D01*
X33323Y354475D01*
X31370Y352521D01*
X19430Y352521D01*
X17814Y354138D01*
X17790Y354156D01*
X17771Y354178D01*
X17665Y354253D01*
X17562Y354333D01*
X17535Y354344D01*
X17511Y354361D01*
X17390Y354407D01*
X17271Y354459D01*
X17241Y354464D01*
X17214Y354474D01*
X17085Y354488D01*
X16956Y354509D01*
X16927Y354506D01*
X16898Y354509D01*
X16769Y354491D01*
X16640Y354479D01*
X16612Y354469D01*
X16583Y354465D01*
X16430Y354413D01*
X15309Y353948D01*
X12631Y353948D01*
X10157Y354973D01*
X8263Y356867D01*
X7238Y359341D01*
X7238Y362019D01*
X8263Y364493D01*
X8644Y364875D01*
X8705Y364953D01*
X8773Y365025D01*
X8802Y365078D01*
X8839Y365126D01*
X8879Y365217D01*
X8927Y365303D01*
X8942Y365362D01*
X8966Y365418D01*
X8981Y365516D01*
X9006Y365611D01*
X9012Y365711D01*
X9016Y365732D01*
X9014Y365744D01*
X9016Y365772D01*
X9016Y392557D01*
X9001Y392675D01*
X8994Y392794D01*
X8981Y392832D01*
X8976Y392873D01*
X8933Y392983D01*
X8896Y393096D01*
X8874Y393131D01*
X8859Y393168D01*
X8790Y393264D01*
X8726Y393365D01*
X8696Y393393D01*
X8673Y393426D01*
X8581Y393502D01*
X8494Y393583D01*
X8459Y393603D01*
X8428Y393628D01*
X8320Y393679D01*
X8216Y393737D01*
X8176Y393747D01*
X8140Y393764D01*
X8023Y393786D01*
X7908Y393816D01*
X7848Y393820D01*
X7828Y393824D01*
X7807Y393822D01*
X7747Y393826D01*
X5334Y393826D01*
X5216Y393811D01*
X5097Y393804D01*
X5059Y393791D01*
X5018Y393786D01*
X4908Y393743D01*
X4795Y393706D01*
X4760Y393684D01*
X4723Y393669D01*
X4627Y393600D01*
X4526Y393536D01*
X4498Y393506D01*
X4465Y393483D01*
X4389Y393391D01*
X4308Y393304D01*
X4288Y393269D01*
X4263Y393238D01*
X4212Y393130D01*
X4154Y393026D01*
X4144Y392986D01*
X4127Y392950D01*
X4105Y392833D01*
X4075Y392718D01*
X4071Y392658D01*
X4067Y392638D01*
X4069Y392617D01*
X4065Y392557D01*
X4065Y329295D01*
X4071Y329246D01*
X4069Y329196D01*
X4091Y329089D01*
X4105Y328979D01*
X4123Y328933D01*
X4133Y328885D01*
X4181Y328786D01*
X4222Y328684D01*
X4251Y328644D01*
X4273Y328599D01*
X4344Y328515D01*
X4408Y328426D01*
X4447Y328395D01*
X4479Y328357D01*
X4569Y328294D01*
X4653Y328224D01*
X4698Y328202D01*
X4739Y328174D01*
X4842Y328135D01*
X4941Y328088D01*
X4990Y328079D01*
X5036Y328061D01*
X5146Y328049D01*
X5253Y328028D01*
X5303Y328031D01*
X5352Y328026D01*
X5461Y328041D01*
X5571Y328048D01*
X5618Y328063D01*
X5667Y328070D01*
X5820Y328122D01*
X10224Y329947D01*
X15176Y329947D01*
X19750Y328052D01*
X23252Y324550D01*
X23796Y323237D01*
X23810Y323212D01*
X23820Y323184D01*
X23889Y323074D01*
X23953Y322961D01*
X23974Y322940D01*
X23990Y322915D01*
X24084Y322826D01*
X24175Y322733D01*
X24200Y322717D01*
X24221Y322697D01*
X24335Y322634D01*
X24446Y322566D01*
X24474Y322558D01*
X24500Y322543D01*
X24626Y322511D01*
X24750Y322473D01*
X24779Y322471D01*
X24808Y322464D01*
X24968Y322454D01*
X36792Y322454D01*
X36891Y322466D01*
G37*
G36*
X105938Y349216D02*
X105938Y349216D01*
X106057Y349223D01*
X106095Y349236D01*
X106135Y349241D01*
X106246Y349285D01*
X106359Y349321D01*
X106394Y349343D01*
X106431Y349358D01*
X106527Y349428D01*
X106628Y349491D01*
X106656Y349521D01*
X106688Y349545D01*
X106764Y349636D01*
X106846Y349723D01*
X106865Y349758D01*
X106891Y349790D01*
X106942Y349897D01*
X106999Y350001D01*
X107010Y350041D01*
X107027Y350077D01*
X107049Y350194D01*
X107079Y350309D01*
X107083Y350370D01*
X107087Y350390D01*
X107085Y350410D01*
X107089Y350470D01*
X107089Y365241D01*
X111979Y365241D01*
X112117Y365258D01*
X112256Y365271D01*
X112275Y365278D01*
X112295Y365281D01*
X112424Y365332D01*
X112555Y365379D01*
X112572Y365390D01*
X112591Y365398D01*
X112703Y365479D01*
X112818Y365557D01*
X112832Y365573D01*
X112848Y365584D01*
X112937Y365692D01*
X113029Y365796D01*
X113038Y365814D01*
X113051Y365829D01*
X113110Y365955D01*
X113173Y366079D01*
X113178Y366099D01*
X113186Y366117D01*
X113212Y366253D01*
X113243Y366389D01*
X113242Y366410D01*
X113246Y366429D01*
X113237Y366568D01*
X113233Y366707D01*
X113228Y366727D01*
X113226Y366747D01*
X113184Y366879D01*
X113145Y367013D01*
X113135Y367030D01*
X113128Y367049D01*
X113054Y367167D01*
X112983Y367287D01*
X112965Y367308D01*
X112958Y367318D01*
X112943Y367332D01*
X112877Y367407D01*
X96275Y384010D01*
X96197Y384070D01*
X96124Y384138D01*
X96071Y384167D01*
X96024Y384204D01*
X95933Y384244D01*
X95846Y384292D01*
X95787Y384307D01*
X95732Y384331D01*
X95634Y384346D01*
X95538Y384371D01*
X95438Y384377D01*
X95418Y384381D01*
X95405Y384379D01*
X95377Y384381D01*
X88390Y384381D01*
X87258Y385514D01*
X87163Y385587D01*
X87074Y385666D01*
X87038Y385684D01*
X87006Y385709D01*
X86897Y385756D01*
X86791Y385810D01*
X86752Y385819D01*
X86714Y385835D01*
X86597Y385854D01*
X86481Y385880D01*
X86440Y385879D01*
X86400Y385885D01*
X86282Y385874D01*
X86163Y385870D01*
X86124Y385859D01*
X86084Y385855D01*
X85971Y385815D01*
X85857Y385782D01*
X85823Y385761D01*
X85784Y385748D01*
X85686Y385681D01*
X85583Y385620D01*
X85538Y385580D01*
X85521Y385569D01*
X85508Y385554D01*
X85463Y385514D01*
X84330Y384381D01*
X71390Y384381D01*
X69275Y386497D01*
X69271Y386523D01*
X69228Y386633D01*
X69191Y386746D01*
X69169Y386781D01*
X69154Y386818D01*
X69085Y386914D01*
X69021Y387015D01*
X68991Y387043D01*
X68968Y387076D01*
X68876Y387152D01*
X68789Y387233D01*
X68754Y387253D01*
X68723Y387278D01*
X68615Y387329D01*
X68511Y387387D01*
X68471Y387397D01*
X68435Y387414D01*
X68318Y387436D01*
X68203Y387466D01*
X68143Y387470D01*
X68123Y387474D01*
X68102Y387472D01*
X68042Y387476D01*
X56422Y387476D01*
X54601Y388230D01*
X48361Y394471D01*
X48283Y394531D01*
X48211Y394599D01*
X48158Y394628D01*
X48110Y394665D01*
X48019Y394705D01*
X47932Y394753D01*
X47874Y394768D01*
X47818Y394792D01*
X47720Y394807D01*
X47624Y394832D01*
X47524Y394838D01*
X47504Y394842D01*
X47491Y394840D01*
X47463Y394842D01*
X23657Y394842D01*
X23558Y394830D01*
X23459Y394827D01*
X23401Y394810D01*
X23341Y394802D01*
X23249Y394766D01*
X23154Y394738D01*
X23102Y394708D01*
X23045Y394685D01*
X22965Y394627D01*
X22880Y394577D01*
X22804Y394511D01*
X22788Y394499D01*
X22780Y394489D01*
X22759Y394471D01*
X19295Y391007D01*
X19235Y390929D01*
X19167Y390857D01*
X19138Y390804D01*
X19101Y390756D01*
X19061Y390665D01*
X19013Y390578D01*
X18998Y390519D01*
X18974Y390464D01*
X18959Y390366D01*
X18934Y390270D01*
X18928Y390170D01*
X18924Y390150D01*
X18926Y390137D01*
X18924Y390109D01*
X18924Y387343D01*
X18939Y387218D01*
X18949Y387092D01*
X18959Y387060D01*
X18964Y387027D01*
X19010Y386910D01*
X19050Y386791D01*
X19068Y386763D01*
X19081Y386731D01*
X19154Y386630D01*
X19223Y386524D01*
X19248Y386501D01*
X19267Y386474D01*
X19364Y386394D01*
X19457Y386308D01*
X19487Y386293D01*
X19512Y386271D01*
X19626Y386218D01*
X19737Y386158D01*
X19770Y386150D01*
X19800Y386136D01*
X19924Y386112D01*
X20046Y386082D01*
X20079Y386082D01*
X20112Y386076D01*
X20238Y386084D01*
X20364Y386085D01*
X20412Y386094D01*
X20430Y386096D01*
X20450Y386102D01*
X20493Y386111D01*
X22901Y386111D01*
X22901Y379300D01*
X22916Y379182D01*
X22923Y379063D01*
X22935Y379025D01*
X22941Y378985D01*
X22984Y378874D01*
X23021Y378761D01*
X23043Y378727D01*
X23058Y378689D01*
X23127Y378593D01*
X23191Y378492D01*
X23221Y378464D01*
X23244Y378432D01*
X23336Y378356D01*
X23423Y378274D01*
X23458Y378255D01*
X23489Y378229D01*
X23597Y378178D01*
X23701Y378121D01*
X23741Y378111D01*
X23777Y378093D01*
X23894Y378071D01*
X24009Y378041D01*
X24069Y378037D01*
X24089Y378034D01*
X24110Y378035D01*
X24170Y378031D01*
X25361Y378031D01*
X25361Y376840D01*
X25376Y376722D01*
X25383Y376603D01*
X25396Y376565D01*
X25401Y376524D01*
X25445Y376414D01*
X25481Y376301D01*
X25503Y376266D01*
X25518Y376229D01*
X25588Y376132D01*
X25651Y376032D01*
X25681Y376004D01*
X25705Y375971D01*
X25796Y375895D01*
X25883Y375814D01*
X25918Y375794D01*
X25950Y375769D01*
X26057Y375718D01*
X26162Y375660D01*
X26201Y375650D01*
X26237Y375633D01*
X26354Y375611D01*
X26470Y375581D01*
X26530Y375577D01*
X26550Y375573D01*
X26570Y375575D01*
X26630Y375571D01*
X32941Y375571D01*
X32941Y372670D01*
X32734Y371896D01*
X32333Y371203D01*
X31957Y370827D01*
X31884Y370733D01*
X31805Y370643D01*
X31787Y370607D01*
X31762Y370575D01*
X31715Y370466D01*
X31661Y370360D01*
X31652Y370321D01*
X31636Y370284D01*
X31617Y370166D01*
X31591Y370050D01*
X31592Y370010D01*
X31586Y369970D01*
X31597Y369851D01*
X31601Y369732D01*
X31612Y369693D01*
X31616Y369653D01*
X31656Y369541D01*
X31689Y369426D01*
X31710Y369392D01*
X31723Y369354D01*
X31790Y369255D01*
X31851Y369153D01*
X31890Y369107D01*
X31902Y369090D01*
X31917Y369077D01*
X31957Y369032D01*
X33323Y367665D01*
X33401Y367605D01*
X33474Y367537D01*
X33527Y367508D01*
X33574Y367471D01*
X33665Y367431D01*
X33752Y367383D01*
X33811Y367368D01*
X33866Y367344D01*
X33964Y367329D01*
X34060Y367304D01*
X34160Y367298D01*
X34180Y367294D01*
X34193Y367296D01*
X34221Y367294D01*
X36899Y367294D01*
X36998Y367306D01*
X37097Y367309D01*
X37155Y367326D01*
X37215Y367334D01*
X37307Y367370D01*
X37402Y367398D01*
X37454Y367428D01*
X37511Y367451D01*
X37591Y367509D01*
X37676Y367559D01*
X37751Y367625D01*
X37768Y367637D01*
X37776Y367647D01*
X37797Y367665D01*
X39163Y369032D01*
X39236Y369126D01*
X39315Y369215D01*
X39333Y369251D01*
X39358Y369283D01*
X39405Y369392D01*
X39459Y369498D01*
X39468Y369538D01*
X39484Y369575D01*
X39503Y369693D01*
X39529Y369809D01*
X39528Y369849D01*
X39534Y369889D01*
X39523Y370008D01*
X39519Y370126D01*
X39508Y370165D01*
X39504Y370206D01*
X39464Y370318D01*
X39431Y370432D01*
X39410Y370467D01*
X39397Y370505D01*
X39330Y370603D01*
X39269Y370706D01*
X39230Y370751D01*
X39218Y370768D01*
X39203Y370781D01*
X39163Y370827D01*
X38787Y371203D01*
X38386Y371896D01*
X38179Y372670D01*
X38179Y375571D01*
X44490Y375571D01*
X44608Y375586D01*
X44727Y375593D01*
X44765Y375605D01*
X44805Y375611D01*
X44916Y375654D01*
X45029Y375691D01*
X45063Y375713D01*
X45101Y375728D01*
X45197Y375797D01*
X45298Y375861D01*
X45326Y375891D01*
X45358Y375914D01*
X45434Y376006D01*
X45516Y376093D01*
X45535Y376128D01*
X45561Y376159D01*
X45612Y376267D01*
X45669Y376371D01*
X45679Y376411D01*
X45697Y376447D01*
X45717Y376554D01*
X45721Y376524D01*
X45765Y376414D01*
X45801Y376301D01*
X45823Y376266D01*
X45838Y376229D01*
X45908Y376132D01*
X45971Y376032D01*
X46001Y376004D01*
X46025Y375971D01*
X46116Y375895D01*
X46203Y375814D01*
X46238Y375794D01*
X46270Y375769D01*
X46377Y375718D01*
X46482Y375660D01*
X46521Y375650D01*
X46557Y375633D01*
X46674Y375611D01*
X46790Y375581D01*
X46850Y375577D01*
X46870Y375573D01*
X46890Y375575D01*
X46950Y375571D01*
X53261Y375571D01*
X53261Y372670D01*
X53054Y371896D01*
X52653Y371203D01*
X52277Y370827D01*
X52204Y370733D01*
X52125Y370643D01*
X52107Y370607D01*
X52082Y370575D01*
X52035Y370466D01*
X51981Y370360D01*
X51972Y370321D01*
X51956Y370284D01*
X51937Y370166D01*
X51911Y370050D01*
X51912Y370010D01*
X51906Y369970D01*
X51917Y369851D01*
X51921Y369732D01*
X51932Y369693D01*
X51936Y369653D01*
X51976Y369541D01*
X52009Y369426D01*
X52030Y369392D01*
X52043Y369354D01*
X52110Y369255D01*
X52171Y369153D01*
X52210Y369107D01*
X52222Y369090D01*
X52237Y369077D01*
X52277Y369032D01*
X53643Y367665D01*
X53721Y367605D01*
X53794Y367537D01*
X53847Y367508D01*
X53894Y367471D01*
X53985Y367431D01*
X54072Y367383D01*
X54131Y367368D01*
X54186Y367344D01*
X54284Y367329D01*
X54380Y367304D01*
X54480Y367298D01*
X54500Y367294D01*
X54513Y367296D01*
X54541Y367294D01*
X63182Y367294D01*
X63300Y367309D01*
X63419Y367316D01*
X63457Y367329D01*
X63498Y367334D01*
X63608Y367377D01*
X63721Y367414D01*
X63756Y367436D01*
X63793Y367451D01*
X63889Y367520D01*
X63990Y367584D01*
X64018Y367614D01*
X64051Y367637D01*
X64127Y367729D01*
X64208Y367816D01*
X64228Y367851D01*
X64253Y367882D01*
X64304Y367990D01*
X64362Y368094D01*
X64372Y368134D01*
X64389Y368170D01*
X64411Y368287D01*
X64441Y368402D01*
X64445Y368462D01*
X64449Y368482D01*
X64447Y368503D01*
X64451Y368563D01*
X64451Y373397D01*
X66553Y375499D01*
X86447Y375499D01*
X88549Y373397D01*
X88549Y366510D01*
X88564Y366392D01*
X88571Y366273D01*
X88584Y366235D01*
X88589Y366194D01*
X88632Y366084D01*
X88669Y365971D01*
X88691Y365936D01*
X88706Y365899D01*
X88775Y365803D01*
X88839Y365702D01*
X88869Y365674D01*
X88892Y365641D01*
X88984Y365565D01*
X89071Y365484D01*
X89106Y365464D01*
X89137Y365439D01*
X89245Y365388D01*
X89349Y365330D01*
X89389Y365320D01*
X89425Y365303D01*
X89542Y365281D01*
X89657Y365251D01*
X89717Y365247D01*
X89737Y365243D01*
X89758Y365245D01*
X89818Y365241D01*
X102011Y365241D01*
X102011Y350470D01*
X102026Y350352D01*
X102033Y350233D01*
X102046Y350195D01*
X102051Y350155D01*
X102094Y350044D01*
X102131Y349931D01*
X102153Y349896D01*
X102168Y349859D01*
X102238Y349763D01*
X102301Y349662D01*
X102331Y349634D01*
X102355Y349602D01*
X102446Y349526D01*
X102533Y349444D01*
X102568Y349425D01*
X102599Y349399D01*
X102707Y349348D01*
X102811Y349291D01*
X102851Y349280D01*
X102887Y349263D01*
X103004Y349241D01*
X103119Y349211D01*
X103180Y349207D01*
X103200Y349203D01*
X103220Y349205D01*
X103280Y349201D01*
X105820Y349201D01*
X105938Y349216D01*
G37*
G36*
X215405Y4069D02*
X215405Y4069D01*
X215440Y4067D01*
X215562Y4089D01*
X215685Y4105D01*
X215718Y4118D01*
X215753Y4124D01*
X215865Y4176D01*
X215981Y4222D01*
X216009Y4242D01*
X216041Y4257D01*
X216138Y4336D01*
X216238Y4408D01*
X216261Y4436D01*
X216288Y4458D01*
X216361Y4558D01*
X216441Y4653D01*
X216456Y4685D01*
X216477Y4714D01*
X216523Y4829D01*
X216576Y4941D01*
X216583Y4976D01*
X216596Y5009D01*
X216613Y5132D01*
X216636Y5253D01*
X216634Y5289D01*
X216639Y5324D01*
X216624Y5447D01*
X216616Y5571D01*
X216605Y5605D01*
X216601Y5640D01*
X216556Y5756D01*
X216518Y5873D01*
X216499Y5903D01*
X216487Y5936D01*
X216414Y6037D01*
X216348Y6142D01*
X216322Y6166D01*
X216302Y6195D01*
X216185Y6306D01*
X211015Y10644D01*
X207029Y17549D01*
X205645Y25400D01*
X207029Y33251D01*
X211015Y40155D01*
X217122Y45280D01*
X224614Y48007D01*
X232586Y48007D01*
X240078Y45280D01*
X246185Y40156D01*
X247567Y37762D01*
X247655Y37646D01*
X247740Y37528D01*
X247751Y37519D01*
X247759Y37509D01*
X247873Y37418D01*
X247985Y37325D01*
X247998Y37319D01*
X248008Y37311D01*
X248142Y37251D01*
X248273Y37190D01*
X248286Y37187D01*
X248299Y37182D01*
X248443Y37157D01*
X248586Y37130D01*
X248599Y37131D01*
X248612Y37128D01*
X248758Y37141D01*
X248903Y37150D01*
X248916Y37154D01*
X248929Y37155D01*
X249067Y37203D01*
X249205Y37248D01*
X249217Y37255D01*
X249230Y37259D01*
X249351Y37340D01*
X249474Y37418D01*
X249483Y37428D01*
X249495Y37435D01*
X249592Y37543D01*
X249692Y37649D01*
X249699Y37661D01*
X249708Y37671D01*
X249775Y37801D01*
X249846Y37928D01*
X249849Y37941D01*
X249855Y37953D01*
X249889Y38095D01*
X249925Y38236D01*
X249926Y38254D01*
X249928Y38263D01*
X249928Y38280D01*
X249935Y38397D01*
X249935Y88682D01*
X249920Y88800D01*
X249913Y88919D01*
X249900Y88957D01*
X249895Y88998D01*
X249852Y89108D01*
X249815Y89221D01*
X249793Y89256D01*
X249778Y89293D01*
X249709Y89389D01*
X249645Y89490D01*
X249615Y89518D01*
X249592Y89551D01*
X249500Y89627D01*
X249413Y89708D01*
X249378Y89728D01*
X249347Y89753D01*
X249239Y89804D01*
X249135Y89862D01*
X249095Y89872D01*
X249059Y89889D01*
X248942Y89911D01*
X248827Y89941D01*
X248767Y89945D01*
X248747Y89949D01*
X248726Y89947D01*
X248666Y89951D01*
X230251Y89951D01*
X230133Y89936D01*
X230014Y89929D01*
X229976Y89916D01*
X229935Y89911D01*
X229825Y89868D01*
X229712Y89831D01*
X229677Y89809D01*
X229640Y89794D01*
X229544Y89725D01*
X229443Y89661D01*
X229415Y89631D01*
X229382Y89608D01*
X229306Y89516D01*
X229225Y89429D01*
X229205Y89394D01*
X229180Y89363D01*
X229129Y89255D01*
X229071Y89151D01*
X229061Y89111D01*
X229044Y89075D01*
X229022Y88958D01*
X228992Y88843D01*
X228988Y88783D01*
X228984Y88763D01*
X228986Y88742D01*
X228982Y88682D01*
X228982Y65280D01*
X228228Y63459D01*
X195825Y31057D01*
X195765Y30979D01*
X195697Y30907D01*
X195668Y30854D01*
X195631Y30806D01*
X195591Y30715D01*
X195543Y30628D01*
X195528Y30570D01*
X195504Y30514D01*
X195489Y30416D01*
X195464Y30320D01*
X195458Y30220D01*
X195454Y30200D01*
X195456Y30188D01*
X195454Y30160D01*
X195454Y24968D01*
X195457Y24939D01*
X195455Y24910D01*
X195477Y24782D01*
X195494Y24653D01*
X195504Y24625D01*
X195509Y24596D01*
X195563Y24478D01*
X195611Y24357D01*
X195628Y24333D01*
X195640Y24306D01*
X195721Y24205D01*
X195797Y24100D01*
X195820Y24081D01*
X195839Y24058D01*
X195942Y23980D01*
X196042Y23897D01*
X196069Y23884D01*
X196093Y23867D01*
X196237Y23796D01*
X197550Y23252D01*
X201052Y19750D01*
X202947Y15176D01*
X202947Y10224D01*
X201122Y5820D01*
X201109Y5772D01*
X201088Y5727D01*
X201067Y5619D01*
X201038Y5513D01*
X201038Y5463D01*
X201028Y5414D01*
X201035Y5305D01*
X201033Y5195D01*
X201045Y5147D01*
X201048Y5097D01*
X201082Y4993D01*
X201107Y4886D01*
X201131Y4842D01*
X201146Y4795D01*
X201205Y4702D01*
X201256Y4605D01*
X201290Y4568D01*
X201316Y4526D01*
X201396Y4451D01*
X201470Y4369D01*
X201512Y4342D01*
X201548Y4308D01*
X201644Y4255D01*
X201736Y4195D01*
X201783Y4178D01*
X201826Y4154D01*
X201933Y4127D01*
X202037Y4091D01*
X202086Y4087D01*
X202134Y4075D01*
X202295Y4065D01*
X215369Y4065D01*
X215405Y4069D01*
G37*
G36*
X229061Y271657D02*
X229061Y271657D01*
X229090Y271655D01*
X229218Y271677D01*
X229347Y271694D01*
X229375Y271704D01*
X229404Y271709D01*
X229522Y271763D01*
X229643Y271811D01*
X229667Y271828D01*
X229694Y271840D01*
X229795Y271921D01*
X229900Y271997D01*
X229919Y272020D01*
X229942Y272039D01*
X230020Y272142D01*
X230103Y272242D01*
X230116Y272269D01*
X230133Y272293D01*
X230204Y272437D01*
X230748Y273750D01*
X234250Y277252D01*
X237275Y278505D01*
X237301Y278520D01*
X237330Y278529D01*
X237439Y278599D01*
X237552Y278663D01*
X237573Y278684D01*
X237598Y278699D01*
X237687Y278794D01*
X237780Y278884D01*
X237796Y278909D01*
X237816Y278931D01*
X237879Y279045D01*
X237946Y279155D01*
X237955Y279184D01*
X237969Y279210D01*
X238002Y279335D01*
X238040Y279459D01*
X238041Y279489D01*
X238049Y279518D01*
X238049Y279647D01*
X238055Y279777D01*
X238049Y279806D01*
X238049Y279836D01*
X238017Y279961D01*
X237991Y280088D01*
X237978Y280115D01*
X237970Y280144D01*
X237908Y280257D01*
X237851Y280374D01*
X237832Y280397D01*
X237817Y280423D01*
X237729Y280517D01*
X237645Y280616D01*
X237620Y280633D01*
X237600Y280655D01*
X237491Y280724D01*
X237385Y280799D01*
X237357Y280810D01*
X237332Y280826D01*
X237182Y280885D01*
X236717Y281036D01*
X235043Y281889D01*
X233522Y282994D01*
X232194Y284322D01*
X231089Y285843D01*
X230236Y287517D01*
X229655Y289304D01*
X229615Y289561D01*
X240030Y289561D01*
X240148Y289576D01*
X240267Y289583D01*
X240305Y289596D01*
X240345Y289601D01*
X240456Y289644D01*
X240569Y289681D01*
X240603Y289703D01*
X240641Y289718D01*
X240737Y289788D01*
X240838Y289851D01*
X240866Y289881D01*
X240898Y289904D01*
X240974Y289996D01*
X241056Y290083D01*
X241075Y290118D01*
X241101Y290149D01*
X241152Y290257D01*
X241209Y290361D01*
X241220Y290401D01*
X241237Y290437D01*
X241259Y290554D01*
X241289Y290669D01*
X241293Y290730D01*
X241297Y290750D01*
X241295Y290770D01*
X241299Y290830D01*
X241299Y293370D01*
X241284Y293488D01*
X241277Y293607D01*
X241264Y293645D01*
X241259Y293685D01*
X241215Y293796D01*
X241179Y293909D01*
X241157Y293944D01*
X241142Y293981D01*
X241072Y294077D01*
X241009Y294178D01*
X240979Y294206D01*
X240955Y294239D01*
X240864Y294314D01*
X240777Y294396D01*
X240742Y294416D01*
X240710Y294441D01*
X240603Y294492D01*
X240498Y294550D01*
X240459Y294560D01*
X240423Y294577D01*
X240306Y294599D01*
X240191Y294629D01*
X240130Y294633D01*
X240110Y294637D01*
X240090Y294635D01*
X240030Y294639D01*
X229615Y294639D01*
X229655Y294896D01*
X230236Y296683D01*
X231089Y298357D01*
X232194Y299878D01*
X233522Y301206D01*
X235043Y302311D01*
X236717Y303164D01*
X237182Y303315D01*
X237209Y303328D01*
X237238Y303335D01*
X237353Y303395D01*
X237470Y303450D01*
X237493Y303469D01*
X237519Y303483D01*
X237615Y303571D01*
X237715Y303653D01*
X237732Y303677D01*
X237754Y303697D01*
X237826Y303806D01*
X237902Y303910D01*
X237913Y303938D01*
X237929Y303963D01*
X237971Y304086D01*
X238019Y304206D01*
X238023Y304236D01*
X238032Y304264D01*
X238043Y304393D01*
X238059Y304521D01*
X238055Y304551D01*
X238058Y304581D01*
X238035Y304709D01*
X238019Y304837D01*
X238008Y304865D01*
X238003Y304894D01*
X237950Y305012D01*
X237902Y305133D01*
X237885Y305157D01*
X237873Y305184D01*
X237792Y305285D01*
X237716Y305390D01*
X237693Y305409D01*
X237674Y305433D01*
X237571Y305510D01*
X237471Y305593D01*
X237444Y305606D01*
X237420Y305624D01*
X237275Y305695D01*
X234250Y306948D01*
X230748Y310450D01*
X228853Y315024D01*
X228853Y319976D01*
X230748Y324550D01*
X231530Y325332D01*
X231590Y325410D01*
X231658Y325482D01*
X231687Y325535D01*
X231724Y325583D01*
X231764Y325674D01*
X231812Y325761D01*
X231827Y325819D01*
X231851Y325875D01*
X231866Y325973D01*
X231891Y326069D01*
X231897Y326169D01*
X231901Y326189D01*
X231899Y326201D01*
X231901Y326229D01*
X231901Y345221D01*
X231889Y345319D01*
X231886Y345418D01*
X231869Y345477D01*
X231861Y345537D01*
X231825Y345629D01*
X231797Y345724D01*
X231767Y345776D01*
X231744Y345832D01*
X231686Y345912D01*
X231636Y345998D01*
X231570Y346073D01*
X231558Y346090D01*
X231548Y346098D01*
X231530Y346119D01*
X226349Y351300D01*
X226270Y351360D01*
X226198Y351428D01*
X226145Y351457D01*
X226097Y351494D01*
X226006Y351534D01*
X225920Y351582D01*
X225861Y351597D01*
X225806Y351621D01*
X225708Y351636D01*
X225612Y351661D01*
X225512Y351667D01*
X225491Y351671D01*
X225479Y351669D01*
X225451Y351671D01*
X190818Y351671D01*
X190700Y351656D01*
X190581Y351649D01*
X190543Y351636D01*
X190502Y351631D01*
X190392Y351588D01*
X190279Y351551D01*
X190244Y351529D01*
X190207Y351514D01*
X190111Y351445D01*
X190010Y351381D01*
X189982Y351351D01*
X189949Y351328D01*
X189873Y351236D01*
X189792Y351149D01*
X189772Y351114D01*
X189747Y351083D01*
X189696Y350975D01*
X189638Y350871D01*
X189628Y350831D01*
X189611Y350795D01*
X189589Y350678D01*
X189559Y350563D01*
X189556Y350510D01*
X187697Y348652D01*
X187624Y348558D01*
X187545Y348469D01*
X187527Y348433D01*
X187502Y348401D01*
X187455Y348291D01*
X187401Y348185D01*
X187392Y348146D01*
X187376Y348109D01*
X187357Y347991D01*
X187331Y347875D01*
X187332Y347835D01*
X187326Y347795D01*
X187337Y347676D01*
X187341Y347557D01*
X187352Y347518D01*
X187356Y347478D01*
X187396Y347366D01*
X187429Y347252D01*
X187450Y347217D01*
X187463Y347179D01*
X187530Y347080D01*
X187591Y346978D01*
X187631Y346933D01*
X187642Y346916D01*
X187657Y346902D01*
X187697Y346857D01*
X189549Y345005D01*
X189549Y342773D01*
X189564Y342655D01*
X189571Y342536D01*
X189584Y342498D01*
X189589Y342457D01*
X189632Y342347D01*
X189669Y342234D01*
X189691Y342199D01*
X189706Y342162D01*
X189775Y342066D01*
X189839Y341965D01*
X189869Y341937D01*
X189892Y341904D01*
X189984Y341828D01*
X190071Y341747D01*
X190106Y341727D01*
X190137Y341702D01*
X190245Y341651D01*
X190349Y341593D01*
X190389Y341583D01*
X190425Y341566D01*
X190542Y341544D01*
X190657Y341514D01*
X190717Y341510D01*
X190737Y341506D01*
X190758Y341508D01*
X190818Y341504D01*
X205455Y341504D01*
X207276Y340750D01*
X217560Y330466D01*
X218314Y328645D01*
X218314Y280708D01*
X218326Y280609D01*
X218329Y280510D01*
X218346Y280452D01*
X218354Y280392D01*
X218390Y280300D01*
X218418Y280205D01*
X218448Y280153D01*
X218471Y280096D01*
X218529Y280016D01*
X218579Y279931D01*
X218645Y279856D01*
X218657Y279839D01*
X218667Y279831D01*
X218685Y279810D01*
X226470Y272025D01*
X226548Y271965D01*
X226621Y271897D01*
X226674Y271868D01*
X226721Y271831D01*
X226812Y271791D01*
X226899Y271743D01*
X226958Y271728D01*
X227013Y271704D01*
X227111Y271689D01*
X227207Y271664D01*
X227307Y271658D01*
X227327Y271654D01*
X227340Y271656D01*
X227368Y271654D01*
X229032Y271654D01*
X229061Y271657D01*
G37*
G36*
X177879Y16617D02*
X177879Y16617D01*
X177899Y16616D01*
X178035Y16644D01*
X178172Y16668D01*
X178191Y16676D01*
X178210Y16680D01*
X178336Y16741D01*
X178462Y16798D01*
X178478Y16811D01*
X178496Y16820D01*
X178602Y16910D01*
X178710Y16997D01*
X178723Y17013D01*
X178738Y17026D01*
X178818Y17140D01*
X178902Y17251D01*
X178914Y17276D01*
X178921Y17286D01*
X178928Y17305D01*
X178973Y17395D01*
X179948Y19750D01*
X183450Y23252D01*
X184763Y23796D01*
X184788Y23810D01*
X184816Y23820D01*
X184926Y23889D01*
X185039Y23953D01*
X185060Y23974D01*
X185085Y23990D01*
X185174Y24084D01*
X185267Y24175D01*
X185283Y24200D01*
X185303Y24221D01*
X185366Y24335D01*
X185434Y24446D01*
X185442Y24474D01*
X185457Y24500D01*
X185489Y24625D01*
X185527Y24750D01*
X185529Y24779D01*
X185536Y24808D01*
X185546Y24968D01*
X185546Y33723D01*
X186300Y35543D01*
X187872Y37115D01*
X193167Y42410D01*
X193252Y42519D01*
X193340Y42626D01*
X193349Y42645D01*
X193362Y42661D01*
X193417Y42789D01*
X193476Y42914D01*
X193480Y42934D01*
X193488Y42953D01*
X193510Y43091D01*
X193536Y43227D01*
X193535Y43247D01*
X193538Y43267D01*
X193525Y43406D01*
X193516Y43544D01*
X193510Y43563D01*
X193508Y43583D01*
X193461Y43715D01*
X193418Y43846D01*
X193407Y43864D01*
X193400Y43883D01*
X193322Y43998D01*
X193248Y44115D01*
X193233Y44129D01*
X193222Y44146D01*
X193117Y44238D01*
X193016Y44333D01*
X192999Y44343D01*
X192983Y44356D01*
X192859Y44420D01*
X192738Y44487D01*
X192718Y44492D01*
X192700Y44501D01*
X192564Y44531D01*
X192430Y44566D01*
X192402Y44568D01*
X192390Y44571D01*
X192369Y44570D01*
X192269Y44576D01*
X161718Y44576D01*
X161600Y44561D01*
X161481Y44554D01*
X161443Y44541D01*
X161402Y44536D01*
X161292Y44493D01*
X161179Y44456D01*
X161144Y44434D01*
X161107Y44419D01*
X161011Y44350D01*
X160910Y44286D01*
X160882Y44256D01*
X160849Y44233D01*
X160773Y44141D01*
X160692Y44054D01*
X160672Y44019D01*
X160647Y43988D01*
X160596Y43880D01*
X160538Y43776D01*
X160528Y43736D01*
X160511Y43700D01*
X160489Y43583D01*
X160459Y43468D01*
X160458Y43460D01*
X158370Y41371D01*
X151383Y41371D01*
X151284Y41359D01*
X151185Y41356D01*
X151127Y41339D01*
X151067Y41331D01*
X150975Y41295D01*
X150880Y41267D01*
X150828Y41237D01*
X150771Y41214D01*
X150691Y41156D01*
X150606Y41106D01*
X150531Y41040D01*
X150514Y41028D01*
X150506Y41018D01*
X150485Y41000D01*
X145025Y35540D01*
X144965Y35462D01*
X144897Y35389D01*
X144868Y35336D01*
X144831Y35289D01*
X144791Y35198D01*
X144743Y35111D01*
X144728Y35052D01*
X144704Y34997D01*
X144689Y34899D01*
X144664Y34803D01*
X144658Y34703D01*
X144654Y34683D01*
X144656Y34670D01*
X144654Y34642D01*
X144654Y24968D01*
X144657Y24939D01*
X144655Y24910D01*
X144677Y24782D01*
X144694Y24653D01*
X144704Y24625D01*
X144709Y24596D01*
X144763Y24478D01*
X144811Y24357D01*
X144828Y24333D01*
X144840Y24306D01*
X144921Y24205D01*
X144997Y24100D01*
X145020Y24081D01*
X145039Y24058D01*
X145142Y23980D01*
X145242Y23897D01*
X145269Y23884D01*
X145293Y23867D01*
X145437Y23796D01*
X146750Y23252D01*
X150252Y19750D01*
X151227Y17395D01*
X151296Y17275D01*
X151361Y17152D01*
X151375Y17137D01*
X151385Y17119D01*
X151482Y17019D01*
X151575Y16916D01*
X151592Y16905D01*
X151606Y16891D01*
X151725Y16818D01*
X151841Y16742D01*
X151860Y16735D01*
X151877Y16724D01*
X152010Y16684D01*
X152142Y16638D01*
X152162Y16637D01*
X152181Y16631D01*
X152320Y16624D01*
X152459Y16613D01*
X152479Y16617D01*
X152499Y16616D01*
X152635Y16644D01*
X152772Y16668D01*
X152791Y16676D01*
X152810Y16680D01*
X152936Y16741D01*
X153062Y16798D01*
X153078Y16811D01*
X153096Y16820D01*
X153202Y16910D01*
X153310Y16997D01*
X153323Y17013D01*
X153338Y17026D01*
X153418Y17140D01*
X153502Y17251D01*
X153514Y17276D01*
X153521Y17286D01*
X153528Y17305D01*
X153573Y17395D01*
X154548Y19750D01*
X158050Y23252D01*
X162624Y25147D01*
X167576Y25147D01*
X172150Y23252D01*
X175652Y19750D01*
X176627Y17395D01*
X176696Y17275D01*
X176761Y17152D01*
X176775Y17137D01*
X176785Y17119D01*
X176882Y17019D01*
X176975Y16916D01*
X176992Y16905D01*
X177006Y16891D01*
X177125Y16818D01*
X177241Y16742D01*
X177260Y16735D01*
X177277Y16724D01*
X177410Y16684D01*
X177542Y16638D01*
X177562Y16637D01*
X177581Y16631D01*
X177720Y16624D01*
X177859Y16613D01*
X177879Y16617D01*
G37*
G36*
X248784Y108064D02*
X248784Y108064D01*
X248903Y108071D01*
X248941Y108084D01*
X248982Y108089D01*
X249092Y108132D01*
X249205Y108169D01*
X249240Y108191D01*
X249277Y108206D01*
X249373Y108275D01*
X249474Y108339D01*
X249502Y108369D01*
X249535Y108392D01*
X249611Y108484D01*
X249692Y108571D01*
X249712Y108606D01*
X249737Y108637D01*
X249788Y108745D01*
X249846Y108849D01*
X249856Y108889D01*
X249873Y108925D01*
X249895Y109042D01*
X249925Y109157D01*
X249929Y109217D01*
X249933Y109237D01*
X249931Y109258D01*
X249935Y109318D01*
X249935Y144682D01*
X249920Y144800D01*
X249913Y144919D01*
X249900Y144957D01*
X249895Y144998D01*
X249852Y145108D01*
X249815Y145221D01*
X249793Y145256D01*
X249778Y145293D01*
X249709Y145389D01*
X249645Y145490D01*
X249615Y145518D01*
X249592Y145551D01*
X249500Y145627D01*
X249413Y145708D01*
X249378Y145728D01*
X249347Y145753D01*
X249239Y145804D01*
X249135Y145862D01*
X249095Y145872D01*
X249059Y145889D01*
X248942Y145911D01*
X248827Y145941D01*
X248767Y145945D01*
X248747Y145949D01*
X248726Y145947D01*
X248666Y145951D01*
X230251Y145951D01*
X230133Y145936D01*
X230014Y145929D01*
X229976Y145916D01*
X229935Y145911D01*
X229825Y145868D01*
X229712Y145831D01*
X229677Y145809D01*
X229640Y145794D01*
X229544Y145725D01*
X229443Y145661D01*
X229415Y145631D01*
X229382Y145608D01*
X229306Y145516D01*
X229225Y145429D01*
X229205Y145394D01*
X229180Y145363D01*
X229129Y145255D01*
X229071Y145151D01*
X229061Y145111D01*
X229044Y145075D01*
X229022Y144958D01*
X228992Y144843D01*
X228988Y144783D01*
X228984Y144763D01*
X228986Y144742D01*
X228982Y144682D01*
X228982Y109318D01*
X228997Y109200D01*
X229004Y109081D01*
X229017Y109043D01*
X229022Y109002D01*
X229065Y108892D01*
X229102Y108779D01*
X229124Y108744D01*
X229139Y108707D01*
X229208Y108611D01*
X229272Y108510D01*
X229302Y108482D01*
X229325Y108449D01*
X229417Y108373D01*
X229504Y108292D01*
X229539Y108272D01*
X229570Y108247D01*
X229678Y108196D01*
X229782Y108138D01*
X229822Y108128D01*
X229858Y108111D01*
X229975Y108089D01*
X230090Y108059D01*
X230150Y108055D01*
X230170Y108051D01*
X230191Y108053D01*
X230251Y108049D01*
X248666Y108049D01*
X248784Y108064D01*
G37*
G36*
X120768Y120666D02*
X120768Y120666D01*
X120887Y120673D01*
X120925Y120686D01*
X120966Y120691D01*
X121076Y120734D01*
X121189Y120771D01*
X121224Y120793D01*
X121261Y120808D01*
X121357Y120878D01*
X121458Y120941D01*
X121486Y120971D01*
X121519Y120994D01*
X121595Y121086D01*
X121676Y121173D01*
X121696Y121208D01*
X121721Y121239D01*
X121772Y121347D01*
X121830Y121451D01*
X121840Y121491D01*
X121857Y121527D01*
X121879Y121644D01*
X121909Y121759D01*
X121913Y121820D01*
X121917Y121840D01*
X121915Y121860D01*
X121919Y121920D01*
X121919Y126474D01*
X126628Y131183D01*
X126688Y131261D01*
X126756Y131333D01*
X126778Y131372D01*
X126795Y131393D01*
X126802Y131407D01*
X126822Y131434D01*
X126862Y131525D01*
X126910Y131611D01*
X126924Y131666D01*
X126931Y131681D01*
X126932Y131687D01*
X126949Y131726D01*
X126964Y131824D01*
X126989Y131919D01*
X126995Y132019D01*
X126999Y132040D01*
X126997Y132052D01*
X126999Y132080D01*
X126999Y151130D01*
X126984Y151248D01*
X126977Y151367D01*
X126964Y151405D01*
X126959Y151446D01*
X126916Y151556D01*
X126879Y151669D01*
X126857Y151704D01*
X126842Y151741D01*
X126773Y151837D01*
X126709Y151938D01*
X126679Y151966D01*
X126656Y151999D01*
X126564Y152075D01*
X126477Y152156D01*
X126442Y152176D01*
X126411Y152201D01*
X126303Y152252D01*
X126199Y152310D01*
X126159Y152320D01*
X126123Y152337D01*
X126006Y152359D01*
X125891Y152389D01*
X125831Y152393D01*
X125811Y152397D01*
X125790Y152395D01*
X125730Y152399D01*
X107950Y152399D01*
X107852Y152387D01*
X107753Y152384D01*
X107695Y152367D01*
X107634Y152359D01*
X107542Y152323D01*
X107447Y152295D01*
X107395Y152265D01*
X107339Y152242D01*
X107259Y152184D01*
X107173Y152134D01*
X107098Y152068D01*
X107081Y152056D01*
X107074Y152046D01*
X107067Y152041D01*
X107064Y152038D01*
X107063Y152036D01*
X107053Y152028D01*
X105783Y150758D01*
X105722Y150679D01*
X105654Y150607D01*
X105625Y150554D01*
X105588Y150506D01*
X105548Y150415D01*
X105500Y150329D01*
X105485Y150270D01*
X105461Y150214D01*
X105446Y150116D01*
X105421Y150021D01*
X105416Y149936D01*
X105413Y149924D01*
X105414Y149916D01*
X105411Y149900D01*
X105413Y149888D01*
X105411Y149860D01*
X105411Y121920D01*
X105426Y121802D01*
X105433Y121683D01*
X105446Y121645D01*
X105451Y121604D01*
X105494Y121494D01*
X105531Y121381D01*
X105553Y121346D01*
X105568Y121309D01*
X105638Y121213D01*
X105701Y121112D01*
X105731Y121084D01*
X105754Y121051D01*
X105846Y120976D01*
X105933Y120894D01*
X105968Y120874D01*
X105999Y120849D01*
X106107Y120798D01*
X106211Y120740D01*
X106251Y120730D01*
X106287Y120713D01*
X106404Y120691D01*
X106519Y120661D01*
X106580Y120657D01*
X106600Y120653D01*
X106620Y120655D01*
X106680Y120651D01*
X120650Y120651D01*
X120768Y120666D01*
G37*
%LPC*%
G36*
X66545Y300601D02*
X66545Y300601D01*
X64451Y302695D01*
X64451Y303410D01*
X64445Y303460D01*
X64447Y303509D01*
X64425Y303616D01*
X64411Y303726D01*
X64393Y303772D01*
X64383Y303821D01*
X64335Y303919D01*
X64294Y304021D01*
X64265Y304062D01*
X64243Y304106D01*
X64172Y304190D01*
X64108Y304279D01*
X64069Y304310D01*
X64037Y304348D01*
X63947Y304412D01*
X63863Y304482D01*
X63818Y304503D01*
X63777Y304531D01*
X63674Y304570D01*
X63575Y304617D01*
X63526Y304626D01*
X63480Y304644D01*
X63370Y304656D01*
X63263Y304677D01*
X63213Y304674D01*
X63164Y304679D01*
X63055Y304664D01*
X62945Y304657D01*
X62898Y304642D01*
X62849Y304635D01*
X62696Y304583D01*
X62299Y304418D01*
X59621Y304418D01*
X57147Y305443D01*
X55253Y307337D01*
X54228Y309811D01*
X54228Y312489D01*
X55253Y314963D01*
X57147Y316857D01*
X59621Y317882D01*
X62299Y317882D01*
X62696Y317717D01*
X62744Y317704D01*
X62789Y317683D01*
X62897Y317662D01*
X63003Y317633D01*
X63053Y317632D01*
X63102Y317623D01*
X63211Y317630D01*
X63321Y317628D01*
X63369Y317640D01*
X63419Y317643D01*
X63523Y317677D01*
X63630Y317702D01*
X63674Y317726D01*
X63721Y317741D01*
X63814Y317800D01*
X63911Y317851D01*
X63948Y317884D01*
X63990Y317911D01*
X64065Y317991D01*
X64147Y318065D01*
X64174Y318106D01*
X64208Y318143D01*
X64261Y318239D01*
X64321Y318331D01*
X64338Y318378D01*
X64362Y318421D01*
X64389Y318527D01*
X64425Y318631D01*
X64429Y318681D01*
X64441Y318729D01*
X64451Y318890D01*
X64451Y319605D01*
X66545Y321699D01*
X86455Y321699D01*
X88549Y319605D01*
X88549Y302695D01*
X86455Y300601D01*
X66545Y300601D01*
G37*
%LPD*%
G36*
X147438Y120666D02*
X147438Y120666D01*
X147557Y120673D01*
X147595Y120686D01*
X147636Y120691D01*
X147746Y120734D01*
X147859Y120771D01*
X147894Y120793D01*
X147931Y120808D01*
X148027Y120878D01*
X148128Y120941D01*
X148156Y120971D01*
X148189Y120994D01*
X148265Y121086D01*
X148346Y121173D01*
X148366Y121208D01*
X148391Y121239D01*
X148442Y121347D01*
X148500Y121451D01*
X148510Y121491D01*
X148527Y121527D01*
X148549Y121644D01*
X148579Y121759D01*
X148583Y121820D01*
X148587Y121840D01*
X148585Y121860D01*
X148589Y121920D01*
X148589Y147320D01*
X148577Y147418D01*
X148574Y147517D01*
X148567Y147541D01*
X148567Y147542D01*
X148565Y147549D01*
X148557Y147575D01*
X148549Y147636D01*
X148513Y147728D01*
X148485Y147823D01*
X148455Y147875D01*
X148432Y147931D01*
X148374Y148011D01*
X148324Y148097D01*
X148258Y148172D01*
X148246Y148189D01*
X148236Y148196D01*
X148218Y148218D01*
X144408Y152028D01*
X144329Y152088D01*
X144257Y152156D01*
X144204Y152185D01*
X144156Y152222D01*
X144065Y152262D01*
X143979Y152310D01*
X143920Y152325D01*
X143864Y152349D01*
X143766Y152364D01*
X143671Y152389D01*
X143571Y152395D01*
X143550Y152399D01*
X143538Y152397D01*
X143510Y152399D01*
X135890Y152399D01*
X135772Y152384D01*
X135653Y152377D01*
X135615Y152364D01*
X135574Y152359D01*
X135464Y152316D01*
X135351Y152279D01*
X135316Y152257D01*
X135279Y152242D01*
X135183Y152173D01*
X135082Y152109D01*
X135054Y152079D01*
X135021Y152056D01*
X134946Y151964D01*
X134864Y151877D01*
X134844Y151842D01*
X134819Y151811D01*
X134768Y151703D01*
X134710Y151599D01*
X134700Y151559D01*
X134683Y151523D01*
X134661Y151406D01*
X134631Y151291D01*
X134627Y151231D01*
X134623Y151211D01*
X134624Y151197D01*
X134623Y151193D01*
X134624Y151182D01*
X134621Y151130D01*
X134621Y131336D01*
X132453Y129168D01*
X132392Y129089D01*
X132324Y129017D01*
X132298Y128971D01*
X132279Y128947D01*
X132275Y128938D01*
X132258Y128916D01*
X132218Y128825D01*
X132170Y128739D01*
X132158Y128691D01*
X132143Y128659D01*
X132141Y128646D01*
X132131Y128624D01*
X132116Y128526D01*
X132091Y128431D01*
X132087Y128365D01*
X132083Y128347D01*
X132084Y128329D01*
X132081Y128310D01*
X132083Y128298D01*
X132081Y128270D01*
X132081Y121920D01*
X132096Y121802D01*
X132103Y121683D01*
X132116Y121645D01*
X132121Y121604D01*
X132164Y121494D01*
X132201Y121381D01*
X132223Y121346D01*
X132238Y121309D01*
X132308Y121213D01*
X132371Y121112D01*
X132401Y121084D01*
X132424Y121051D01*
X132516Y120976D01*
X132603Y120894D01*
X132638Y120874D01*
X132669Y120849D01*
X132777Y120798D01*
X132881Y120740D01*
X132921Y120730D01*
X132957Y120713D01*
X133074Y120691D01*
X133189Y120661D01*
X133250Y120657D01*
X133270Y120653D01*
X133290Y120655D01*
X133350Y120651D01*
X147320Y120651D01*
X147438Y120666D01*
G37*
G36*
X92381Y66783D02*
X92381Y66783D01*
X92519Y66792D01*
X92538Y66798D01*
X92558Y66800D01*
X92690Y66847D01*
X92821Y66890D01*
X92839Y66901D01*
X92858Y66907D01*
X92973Y66985D01*
X93090Y67060D01*
X93104Y67075D01*
X93121Y67086D01*
X93213Y67190D01*
X93308Y67291D01*
X93318Y67309D01*
X93331Y67324D01*
X93395Y67448D01*
X93462Y67570D01*
X93467Y67590D01*
X93476Y67608D01*
X93506Y67743D01*
X93541Y67878D01*
X93543Y67906D01*
X93546Y67918D01*
X93545Y67938D01*
X93551Y68039D01*
X93551Y73390D01*
X94969Y74808D01*
X94988Y74832D01*
X95010Y74851D01*
X95085Y74957D01*
X95164Y75059D01*
X95176Y75087D01*
X95193Y75111D01*
X95239Y75232D01*
X95291Y75351D01*
X95295Y75380D01*
X95306Y75408D01*
X95320Y75537D01*
X95341Y75665D01*
X95338Y75695D01*
X95341Y75724D01*
X95323Y75853D01*
X95311Y75982D01*
X95301Y76010D01*
X95297Y76039D01*
X95245Y76191D01*
X94868Y77100D01*
X94868Y79582D01*
X94853Y79700D01*
X94846Y79819D01*
X94833Y79857D01*
X94828Y79898D01*
X94785Y80008D01*
X94748Y80121D01*
X94726Y80156D01*
X94711Y80193D01*
X94642Y80289D01*
X94578Y80390D01*
X94548Y80418D01*
X94525Y80451D01*
X94433Y80527D01*
X94346Y80608D01*
X94311Y80628D01*
X94280Y80653D01*
X94172Y80704D01*
X94068Y80762D01*
X94028Y80772D01*
X93992Y80789D01*
X93875Y80811D01*
X93760Y80841D01*
X93700Y80845D01*
X93680Y80849D01*
X93659Y80847D01*
X93599Y80851D01*
X88916Y80851D01*
X86837Y82930D01*
X86837Y94870D01*
X88352Y96385D01*
X88425Y96479D01*
X88504Y96568D01*
X88522Y96604D01*
X88547Y96636D01*
X88594Y96745D01*
X88648Y96851D01*
X88657Y96890D01*
X88673Y96928D01*
X88692Y97045D01*
X88718Y97161D01*
X88717Y97202D01*
X88723Y97242D01*
X88712Y97360D01*
X88708Y97479D01*
X88697Y97518D01*
X88693Y97558D01*
X88653Y97671D01*
X88620Y97785D01*
X88599Y97820D01*
X88586Y97858D01*
X88519Y97956D01*
X88458Y98059D01*
X88418Y98104D01*
X88407Y98121D01*
X88392Y98134D01*
X88352Y98180D01*
X87327Y99205D01*
X87249Y99265D01*
X87176Y99333D01*
X87123Y99362D01*
X87076Y99399D01*
X86985Y99439D01*
X86898Y99487D01*
X86839Y99502D01*
X86784Y99526D01*
X86686Y99541D01*
X86590Y99566D01*
X86490Y99572D01*
X86470Y99576D01*
X86457Y99574D01*
X86429Y99576D01*
X85021Y99576D01*
X84922Y99564D01*
X84823Y99561D01*
X84765Y99544D01*
X84705Y99536D01*
X84613Y99500D01*
X84518Y99472D01*
X84466Y99442D01*
X84409Y99419D01*
X84329Y99361D01*
X84244Y99311D01*
X84169Y99245D01*
X84152Y99233D01*
X84144Y99223D01*
X84123Y99205D01*
X82170Y97251D01*
X72263Y97251D01*
X72145Y97236D01*
X72026Y97229D01*
X71988Y97216D01*
X71947Y97211D01*
X71837Y97168D01*
X71724Y97131D01*
X71689Y97109D01*
X71652Y97094D01*
X71556Y97025D01*
X71455Y96961D01*
X71427Y96931D01*
X71394Y96908D01*
X71318Y96816D01*
X71237Y96729D01*
X71217Y96694D01*
X71192Y96663D01*
X71141Y96555D01*
X71083Y96451D01*
X71073Y96411D01*
X71056Y96375D01*
X71034Y96258D01*
X71004Y96143D01*
X71000Y96083D01*
X70996Y96063D01*
X70998Y96042D01*
X70994Y95982D01*
X70994Y88058D01*
X71006Y87959D01*
X71009Y87860D01*
X71026Y87802D01*
X71034Y87742D01*
X71070Y87650D01*
X71098Y87555D01*
X71128Y87503D01*
X71151Y87446D01*
X71209Y87366D01*
X71259Y87281D01*
X71325Y87206D01*
X71337Y87189D01*
X71347Y87181D01*
X71365Y87160D01*
X91385Y67141D01*
X91494Y67056D01*
X91601Y66967D01*
X91620Y66959D01*
X91636Y66946D01*
X91764Y66891D01*
X91889Y66832D01*
X91909Y66828D01*
X91928Y66820D01*
X92066Y66798D01*
X92202Y66772D01*
X92222Y66773D01*
X92242Y66770D01*
X92381Y66783D01*
G37*
%LPC*%
G36*
X105389Y278189D02*
X105389Y278189D01*
X105389Y292691D01*
X116698Y292691D01*
X117487Y292479D01*
X118194Y292071D01*
X118771Y291494D01*
X119179Y290787D01*
X119391Y289998D01*
X119391Y278189D01*
X105389Y278189D01*
G37*
%LPD*%
%LPC*%
G36*
X105389Y273111D02*
X105389Y273111D01*
X119391Y273111D01*
X119391Y261302D01*
X119179Y260513D01*
X118771Y259806D01*
X118194Y259229D01*
X117487Y258821D01*
X116698Y258609D01*
X105389Y258609D01*
X105389Y273111D01*
G37*
%LPD*%
%LPC*%
G36*
X134609Y278189D02*
X134609Y278189D01*
X134609Y289998D01*
X134821Y290787D01*
X135229Y291494D01*
X135806Y292071D01*
X136513Y292479D01*
X137302Y292691D01*
X148611Y292691D01*
X148611Y278189D01*
X134609Y278189D01*
G37*
%LPD*%
%LPC*%
G36*
X137302Y258609D02*
X137302Y258609D01*
X136513Y258821D01*
X135806Y259229D01*
X135229Y259806D01*
X134821Y260513D01*
X134609Y261302D01*
X134609Y273111D01*
X148611Y273111D01*
X148611Y258609D01*
X137302Y258609D01*
G37*
%LPD*%
%LPC*%
G36*
X153539Y199389D02*
X153539Y199389D01*
X153539Y206391D01*
X165909Y206391D01*
X166680Y206184D01*
X167371Y205785D01*
X167935Y205221D01*
X168334Y204530D01*
X168541Y203759D01*
X168541Y199389D01*
X153539Y199389D01*
G37*
%LPD*%
%LPC*%
G36*
X133459Y199389D02*
X133459Y199389D01*
X133459Y203759D01*
X133666Y204530D01*
X134065Y205221D01*
X134629Y205785D01*
X135320Y206184D01*
X136091Y206391D01*
X148461Y206391D01*
X148461Y199389D01*
X133459Y199389D01*
G37*
%LPD*%
%LPC*%
G36*
X153539Y187309D02*
X153539Y187309D01*
X153539Y194311D01*
X168541Y194311D01*
X168541Y189941D01*
X168334Y189170D01*
X167935Y188479D01*
X167371Y187915D01*
X166680Y187516D01*
X165909Y187309D01*
X153539Y187309D01*
G37*
%LPD*%
%LPC*%
G36*
X136091Y187309D02*
X136091Y187309D01*
X135320Y187516D01*
X134629Y187915D01*
X134065Y188479D01*
X133666Y189170D01*
X133459Y189941D01*
X133459Y194311D01*
X148461Y194311D01*
X148461Y187309D01*
X136091Y187309D01*
G37*
%LPD*%
G36*
X108176Y30253D02*
X108176Y30253D01*
X108314Y30261D01*
X108333Y30267D01*
X108353Y30269D01*
X108485Y30316D01*
X108616Y30359D01*
X108634Y30370D01*
X108653Y30377D01*
X108768Y30455D01*
X108885Y30529D01*
X108899Y30544D01*
X108916Y30555D01*
X109008Y30660D01*
X109103Y30761D01*
X109113Y30779D01*
X109126Y30794D01*
X109190Y30918D01*
X109257Y31039D01*
X109262Y31059D01*
X109271Y31077D01*
X109301Y31213D01*
X109336Y31347D01*
X109338Y31375D01*
X109341Y31387D01*
X109340Y31408D01*
X109346Y31508D01*
X109346Y32128D01*
X109334Y32226D01*
X109331Y32325D01*
X109314Y32383D01*
X109306Y32443D01*
X109270Y32535D01*
X109242Y32631D01*
X109212Y32683D01*
X109189Y32739D01*
X109131Y32819D01*
X109081Y32905D01*
X109015Y32980D01*
X109003Y32996D01*
X108993Y33004D01*
X108975Y33025D01*
X108593Y33407D01*
X107568Y35881D01*
X107568Y36420D01*
X107556Y36519D01*
X107553Y36618D01*
X107536Y36676D01*
X107528Y36736D01*
X107492Y36828D01*
X107464Y36923D01*
X107434Y36975D01*
X107411Y37032D01*
X107353Y37112D01*
X107303Y37197D01*
X107237Y37272D01*
X107225Y37289D01*
X107215Y37297D01*
X107197Y37318D01*
X103515Y41000D01*
X103437Y41060D01*
X103364Y41128D01*
X103311Y41157D01*
X103264Y41194D01*
X103173Y41234D01*
X103086Y41282D01*
X103027Y41297D01*
X102972Y41321D01*
X102874Y41336D01*
X102778Y41361D01*
X102678Y41367D01*
X102658Y41371D01*
X102645Y41369D01*
X102617Y41371D01*
X96969Y41371D01*
X96831Y41354D01*
X96692Y41341D01*
X96673Y41334D01*
X96653Y41331D01*
X96524Y41280D01*
X96393Y41233D01*
X96376Y41222D01*
X96357Y41214D01*
X96245Y41133D01*
X96130Y41055D01*
X96116Y41039D01*
X96100Y41028D01*
X96011Y40920D01*
X95919Y40816D01*
X95910Y40798D01*
X95897Y40783D01*
X95838Y40657D01*
X95775Y40533D01*
X95770Y40513D01*
X95762Y40495D01*
X95736Y40359D01*
X95705Y40223D01*
X95706Y40202D01*
X95702Y40183D01*
X95711Y40044D01*
X95715Y39905D01*
X95720Y39885D01*
X95722Y39865D01*
X95764Y39733D01*
X95803Y39599D01*
X95813Y39582D01*
X95820Y39563D01*
X95894Y39445D01*
X95965Y39325D01*
X95983Y39304D01*
X95990Y39294D01*
X96005Y39280D01*
X96071Y39205D01*
X101502Y33773D01*
X101580Y33713D01*
X101653Y33645D01*
X101706Y33616D01*
X101753Y33579D01*
X101844Y33539D01*
X101931Y33491D01*
X101990Y33476D01*
X102045Y33452D01*
X102143Y33437D01*
X102239Y33412D01*
X102339Y33406D01*
X102359Y33402D01*
X102372Y33404D01*
X102400Y33402D01*
X102939Y33402D01*
X105413Y32377D01*
X107180Y30611D01*
X107289Y30525D01*
X107396Y30437D01*
X107415Y30428D01*
X107431Y30416D01*
X107559Y30360D01*
X107684Y30301D01*
X107704Y30297D01*
X107723Y30289D01*
X107861Y30267D01*
X107997Y30241D01*
X108017Y30243D01*
X108037Y30239D01*
X108176Y30253D01*
G37*
%LPC*%
G36*
X51815Y15239D02*
X51815Y15239D01*
X51855Y15496D01*
X52436Y17283D01*
X53289Y18957D01*
X54394Y20478D01*
X55722Y21806D01*
X57243Y22911D01*
X58917Y23764D01*
X60704Y24345D01*
X60961Y24385D01*
X60961Y15239D01*
X51815Y15239D01*
G37*
%LPD*%
%LPC*%
G36*
X52299Y143499D02*
X52299Y143499D01*
X52299Y147541D01*
X57442Y147541D01*
X58218Y147333D01*
X58913Y146931D01*
X59481Y146363D01*
X59883Y145668D01*
X60091Y144892D01*
X60091Y143499D01*
X52299Y143499D01*
G37*
%LPD*%
%LPC*%
G36*
X196558Y106459D02*
X196558Y106459D01*
X195782Y106667D01*
X195087Y107069D01*
X194519Y107637D01*
X194117Y108332D01*
X193909Y109108D01*
X193909Y110501D01*
X201701Y110501D01*
X201701Y106459D01*
X196558Y106459D01*
G37*
%LPD*%
%LPC*%
G36*
X177259Y143079D02*
X177259Y143079D01*
X177259Y147621D01*
X181143Y147621D01*
X181921Y147412D01*
X182619Y147009D01*
X183189Y146439D01*
X183592Y145741D01*
X183801Y144963D01*
X183801Y143079D01*
X177259Y143079D01*
G37*
%LPD*%
%LPC*%
G36*
X166719Y143079D02*
X166719Y143079D01*
X166719Y144963D01*
X166928Y145741D01*
X167331Y146439D01*
X167901Y147009D01*
X168599Y147412D01*
X169377Y147621D01*
X173261Y147621D01*
X173261Y143079D01*
X166719Y143079D01*
G37*
%LPD*%
%LPC*%
G36*
X169377Y134539D02*
X169377Y134539D01*
X168599Y134748D01*
X167901Y135151D01*
X167331Y135721D01*
X166928Y136419D01*
X166719Y137197D01*
X166719Y139081D01*
X173261Y139081D01*
X173261Y134539D01*
X169377Y134539D01*
G37*
%LPD*%
%LPC*%
G36*
X27899Y380569D02*
X27899Y380569D01*
X27899Y386111D01*
X30300Y386111D01*
X31074Y385904D01*
X31767Y385503D01*
X32333Y384937D01*
X32734Y384244D01*
X32941Y383470D01*
X32941Y380569D01*
X27899Y380569D01*
G37*
%LPD*%
%LPC*%
G36*
X212049Y380569D02*
X212049Y380569D01*
X212049Y386111D01*
X214450Y386111D01*
X215224Y385904D01*
X215917Y385503D01*
X216483Y384937D01*
X216884Y384244D01*
X217091Y383470D01*
X217091Y380569D01*
X212049Y380569D01*
G37*
%LPD*%
%LPC*%
G36*
X232369Y380569D02*
X232369Y380569D01*
X232369Y386111D01*
X234770Y386111D01*
X235544Y385904D01*
X236237Y385503D01*
X236803Y384937D01*
X237204Y384244D01*
X237411Y383470D01*
X237411Y380569D01*
X232369Y380569D01*
G37*
%LPD*%
%LPC*%
G36*
X48219Y380569D02*
X48219Y380569D01*
X48219Y386111D01*
X50620Y386111D01*
X51394Y385904D01*
X52087Y385503D01*
X52653Y384937D01*
X53054Y384244D01*
X53261Y383470D01*
X53261Y380569D01*
X48219Y380569D01*
G37*
%LPD*%
%LPC*%
G36*
X61809Y165059D02*
X61809Y165059D01*
X61809Y167460D01*
X62016Y168234D01*
X62417Y168927D01*
X62983Y169493D01*
X63676Y169894D01*
X64450Y170101D01*
X67351Y170101D01*
X67351Y165059D01*
X61809Y165059D01*
G37*
%LPD*%
%LPC*%
G36*
X38179Y380569D02*
X38179Y380569D01*
X38179Y383470D01*
X38386Y384244D01*
X38787Y384937D01*
X39353Y385503D01*
X40046Y385904D01*
X40820Y386111D01*
X43221Y386111D01*
X43221Y380569D01*
X38179Y380569D01*
G37*
%LPD*%
%LPC*%
G36*
X222329Y380569D02*
X222329Y380569D01*
X222329Y383470D01*
X222536Y384244D01*
X222937Y384937D01*
X223503Y385503D01*
X224196Y385904D01*
X224970Y386111D01*
X227371Y386111D01*
X227371Y380569D01*
X222329Y380569D01*
G37*
%LPD*%
%LPC*%
G36*
X202009Y380569D02*
X202009Y380569D01*
X202009Y383470D01*
X202216Y384244D01*
X202617Y384937D01*
X203183Y385503D01*
X203876Y385904D01*
X204650Y386111D01*
X207051Y386111D01*
X207051Y380569D01*
X202009Y380569D01*
G37*
%LPD*%
%LPC*%
G36*
X114885Y81359D02*
X114885Y81359D01*
X114885Y86401D01*
X120427Y86401D01*
X120427Y84000D01*
X120220Y83226D01*
X119819Y82533D01*
X119253Y81967D01*
X118560Y81566D01*
X117786Y81359D01*
X114885Y81359D01*
G37*
%LPD*%
%LPC*%
G36*
X64450Y155019D02*
X64450Y155019D01*
X63676Y155226D01*
X62983Y155627D01*
X62417Y156193D01*
X62016Y156886D01*
X61809Y157660D01*
X61809Y160061D01*
X67351Y160061D01*
X67351Y155019D01*
X64450Y155019D01*
G37*
%LPD*%
%LPC*%
G36*
X178909Y384889D02*
X178909Y384889D01*
X178909Y389931D01*
X183951Y389931D01*
X183951Y388398D01*
X183675Y387370D01*
X183143Y386449D01*
X182391Y385697D01*
X181470Y385165D01*
X180442Y384889D01*
X178909Y384889D01*
G37*
%LPD*%
%LPC*%
G36*
X150999Y196849D02*
X150999Y196849D01*
X150999Y196851D01*
X151001Y196851D01*
X151001Y196849D01*
X150999Y196849D01*
G37*
%LPD*%
D10*
X68040Y351990D02*
X68040Y371910D01*
X84960Y371910D01*
X84960Y351990D01*
X68040Y351990D01*
X68040Y353016D02*
X84960Y353016D01*
X84960Y354042D02*
X68040Y354042D01*
X68040Y355068D02*
X84960Y355068D01*
X84960Y356094D02*
X68040Y356094D01*
X68040Y357120D02*
X84960Y357120D01*
X84960Y358146D02*
X68040Y358146D01*
X68040Y359172D02*
X84960Y359172D01*
X84960Y360198D02*
X68040Y360198D01*
X68040Y361224D02*
X84960Y361224D01*
X84960Y362250D02*
X68040Y362250D01*
X68040Y363276D02*
X84960Y363276D01*
X84960Y364302D02*
X68040Y364302D01*
X68040Y365328D02*
X84960Y365328D01*
X84960Y366354D02*
X68040Y366354D01*
X68040Y367380D02*
X84960Y367380D01*
X84960Y368406D02*
X68040Y368406D01*
X68040Y369432D02*
X84960Y369432D01*
X84960Y370458D02*
X68040Y370458D01*
X68040Y371484D02*
X84960Y371484D01*
D11*
X68025Y343525D02*
X68025Y329575D01*
X68025Y343525D02*
X84975Y343525D01*
X84975Y329575D01*
X68025Y329575D01*
X68025Y330572D02*
X84975Y330572D01*
X84975Y331569D02*
X68025Y331569D01*
X68025Y332566D02*
X84975Y332566D01*
X84975Y333563D02*
X68025Y333563D01*
X68025Y334560D02*
X84975Y334560D01*
X84975Y335557D02*
X68025Y335557D01*
X68025Y336554D02*
X84975Y336554D01*
X84975Y337551D02*
X68025Y337551D01*
X68025Y338548D02*
X84975Y338548D01*
X84975Y339545D02*
X68025Y339545D01*
X68025Y340542D02*
X84975Y340542D01*
X84975Y341539D02*
X68025Y341539D01*
X68025Y342536D02*
X84975Y342536D01*
X68025Y318125D02*
X68025Y304175D01*
X68025Y318125D02*
X84975Y318125D01*
X84975Y304175D01*
X68025Y304175D01*
X68025Y305172D02*
X84975Y305172D01*
X84975Y306169D02*
X68025Y306169D01*
X68025Y307166D02*
X84975Y307166D01*
X84975Y308163D02*
X68025Y308163D01*
X68025Y309160D02*
X84975Y309160D01*
X84975Y310157D02*
X68025Y310157D01*
X68025Y311154D02*
X84975Y311154D01*
X84975Y312151D02*
X68025Y312151D01*
X68025Y313148D02*
X84975Y313148D01*
X84975Y314145D02*
X68025Y314145D01*
X68025Y315142D02*
X84975Y315142D01*
X84975Y316139D02*
X68025Y316139D01*
X68025Y317136D02*
X84975Y317136D01*
X68025Y292725D02*
X68025Y278775D01*
X68025Y292725D02*
X84975Y292725D01*
X84975Y278775D01*
X68025Y278775D01*
X68025Y279772D02*
X84975Y279772D01*
X84975Y280769D02*
X68025Y280769D01*
X68025Y281766D02*
X84975Y281766D01*
X84975Y282763D02*
X68025Y282763D01*
X68025Y283760D02*
X84975Y283760D01*
X84975Y284757D02*
X68025Y284757D01*
X68025Y285754D02*
X84975Y285754D01*
X84975Y286751D02*
X68025Y286751D01*
X68025Y287748D02*
X84975Y287748D01*
X84975Y288745D02*
X68025Y288745D01*
X68025Y289742D02*
X84975Y289742D01*
X84975Y290739D02*
X68025Y290739D01*
X68025Y291736D02*
X84975Y291736D01*
D10*
X68040Y270310D02*
X68040Y250390D01*
X68040Y270310D02*
X84960Y270310D01*
X84960Y250390D01*
X68040Y250390D01*
X68040Y251416D02*
X84960Y251416D01*
X84960Y252442D02*
X68040Y252442D01*
X68040Y253468D02*
X84960Y253468D01*
X84960Y254494D02*
X68040Y254494D01*
X68040Y255520D02*
X84960Y255520D01*
X84960Y256546D02*
X68040Y256546D01*
X68040Y257572D02*
X84960Y257572D01*
X84960Y258598D02*
X68040Y258598D01*
X68040Y259624D02*
X84960Y259624D01*
X84960Y260650D02*
X68040Y260650D01*
X68040Y261676D02*
X84960Y261676D01*
X84960Y262702D02*
X68040Y262702D01*
X68040Y263728D02*
X84960Y263728D01*
X84960Y264754D02*
X68040Y264754D01*
X68040Y265780D02*
X84960Y265780D01*
X84960Y266806D02*
X68040Y266806D01*
X68040Y267832D02*
X84960Y267832D01*
X84960Y268858D02*
X68040Y268858D01*
X68040Y269884D02*
X84960Y269884D01*
X169040Y270310D02*
X169040Y250390D01*
X169040Y270310D02*
X185960Y270310D01*
X185960Y250390D01*
X169040Y250390D01*
X169040Y251416D02*
X185960Y251416D01*
X185960Y252442D02*
X169040Y252442D01*
X169040Y253468D02*
X185960Y253468D01*
X185960Y254494D02*
X169040Y254494D01*
X169040Y255520D02*
X185960Y255520D01*
X185960Y256546D02*
X169040Y256546D01*
X169040Y257572D02*
X185960Y257572D01*
X185960Y258598D02*
X169040Y258598D01*
X169040Y259624D02*
X185960Y259624D01*
X185960Y260650D02*
X169040Y260650D01*
X169040Y261676D02*
X185960Y261676D01*
X185960Y262702D02*
X169040Y262702D01*
X169040Y263728D02*
X185960Y263728D01*
X185960Y264754D02*
X169040Y264754D01*
X169040Y265780D02*
X185960Y265780D01*
X185960Y266806D02*
X169040Y266806D01*
X169040Y267832D02*
X185960Y267832D01*
X185960Y268858D02*
X169040Y268858D01*
X169040Y269884D02*
X185960Y269884D01*
D11*
X169025Y278775D02*
X169025Y292725D01*
X185975Y292725D01*
X185975Y278775D01*
X169025Y278775D01*
X169025Y279772D02*
X185975Y279772D01*
X185975Y280769D02*
X169025Y280769D01*
X169025Y281766D02*
X185975Y281766D01*
X185975Y282763D02*
X169025Y282763D01*
X169025Y283760D02*
X185975Y283760D01*
X185975Y284757D02*
X169025Y284757D01*
X169025Y285754D02*
X185975Y285754D01*
X185975Y286751D02*
X169025Y286751D01*
X169025Y287748D02*
X185975Y287748D01*
X185975Y288745D02*
X169025Y288745D01*
X169025Y289742D02*
X185975Y289742D01*
X185975Y290739D02*
X169025Y290739D01*
X169025Y291736D02*
X185975Y291736D01*
X169025Y304175D02*
X169025Y318125D01*
X185975Y318125D01*
X185975Y304175D01*
X169025Y304175D01*
X169025Y305172D02*
X185975Y305172D01*
X185975Y306169D02*
X169025Y306169D01*
X169025Y307166D02*
X185975Y307166D01*
X185975Y308163D02*
X169025Y308163D01*
X169025Y309160D02*
X185975Y309160D01*
X185975Y310157D02*
X169025Y310157D01*
X169025Y311154D02*
X185975Y311154D01*
X185975Y312151D02*
X169025Y312151D01*
X169025Y313148D02*
X185975Y313148D01*
X185975Y314145D02*
X169025Y314145D01*
X169025Y315142D02*
X185975Y315142D01*
X185975Y316139D02*
X169025Y316139D01*
X169025Y317136D02*
X185975Y317136D01*
X169025Y329575D02*
X169025Y343525D01*
X185975Y343525D01*
X185975Y329575D01*
X169025Y329575D01*
X169025Y330572D02*
X185975Y330572D01*
X185975Y331569D02*
X169025Y331569D01*
X169025Y332566D02*
X185975Y332566D01*
X185975Y333563D02*
X169025Y333563D01*
X169025Y334560D02*
X185975Y334560D01*
X185975Y335557D02*
X169025Y335557D01*
X169025Y336554D02*
X185975Y336554D01*
X185975Y337551D02*
X169025Y337551D01*
X169025Y338548D02*
X185975Y338548D01*
X185975Y339545D02*
X169025Y339545D01*
X169025Y340542D02*
X185975Y340542D01*
X185975Y341539D02*
X169025Y341539D01*
X169025Y342536D02*
X185975Y342536D01*
D10*
X169040Y351990D02*
X169040Y371910D01*
X185960Y371910D01*
X185960Y351990D01*
X169040Y351990D01*
X169040Y353016D02*
X185960Y353016D01*
X185960Y354042D02*
X169040Y354042D01*
X169040Y355068D02*
X185960Y355068D01*
X185960Y356094D02*
X169040Y356094D01*
X169040Y357120D02*
X185960Y357120D01*
X185960Y358146D02*
X169040Y358146D01*
X169040Y359172D02*
X185960Y359172D01*
X185960Y360198D02*
X169040Y360198D01*
X169040Y361224D02*
X185960Y361224D01*
X185960Y362250D02*
X169040Y362250D01*
X169040Y363276D02*
X185960Y363276D01*
X185960Y364302D02*
X169040Y364302D01*
X169040Y365328D02*
X185960Y365328D01*
X185960Y366354D02*
X169040Y366354D01*
X169040Y367380D02*
X185960Y367380D01*
X185960Y368406D02*
X169040Y368406D01*
X169040Y369432D02*
X185960Y369432D01*
X185960Y370458D02*
X169040Y370458D01*
X169040Y371484D02*
X185960Y371484D01*
X135240Y350660D02*
X135240Y324740D01*
X135240Y350660D02*
X163660Y350660D01*
X163660Y324740D01*
X135240Y324740D01*
X135240Y325766D02*
X163660Y325766D01*
X163660Y326792D02*
X135240Y326792D01*
X135240Y327818D02*
X163660Y327818D01*
X163660Y328844D02*
X135240Y328844D01*
X135240Y329870D02*
X163660Y329870D01*
X163660Y330896D02*
X135240Y330896D01*
X135240Y331922D02*
X163660Y331922D01*
X163660Y332948D02*
X135240Y332948D01*
X135240Y333974D02*
X163660Y333974D01*
X163660Y335000D02*
X135240Y335000D01*
X135240Y336026D02*
X163660Y336026D01*
X163660Y337052D02*
X135240Y337052D01*
X135240Y338078D02*
X163660Y338078D01*
X163660Y339104D02*
X135240Y339104D01*
X135240Y340130D02*
X163660Y340130D01*
X163660Y341156D02*
X135240Y341156D01*
X135240Y342182D02*
X163660Y342182D01*
X163660Y343208D02*
X135240Y343208D01*
X135240Y344234D02*
X163660Y344234D01*
X163660Y345260D02*
X135240Y345260D01*
X135240Y346286D02*
X163660Y346286D01*
X163660Y347312D02*
X135240Y347312D01*
X135240Y348338D02*
X163660Y348338D01*
X163660Y349364D02*
X135240Y349364D01*
X135240Y350390D02*
X163660Y350390D01*
X90340Y362160D02*
X90340Y336240D01*
X90340Y362160D02*
X118760Y362160D01*
X118760Y336240D01*
X90340Y336240D01*
X90340Y337266D02*
X118760Y337266D01*
X118760Y338292D02*
X90340Y338292D01*
X90340Y339318D02*
X118760Y339318D01*
X118760Y340344D02*
X90340Y340344D01*
X90340Y341370D02*
X118760Y341370D01*
X118760Y342396D02*
X90340Y342396D01*
X90340Y343422D02*
X118760Y343422D01*
X118760Y344448D02*
X90340Y344448D01*
X90340Y345474D02*
X118760Y345474D01*
X118760Y346500D02*
X90340Y346500D01*
X90340Y347526D02*
X118760Y347526D01*
X118760Y348552D02*
X90340Y348552D01*
X90340Y349578D02*
X118760Y349578D01*
X118760Y350604D02*
X90340Y350604D01*
X90340Y351630D02*
X118760Y351630D01*
X118760Y352656D02*
X90340Y352656D01*
X90340Y353682D02*
X118760Y353682D01*
X118760Y354708D02*
X90340Y354708D01*
X90340Y355734D02*
X118760Y355734D01*
X118760Y356760D02*
X90340Y356760D01*
X90340Y357786D02*
X118760Y357786D01*
X118760Y358812D02*
X90340Y358812D01*
X90340Y359838D02*
X118760Y359838D01*
X118760Y360864D02*
X90340Y360864D01*
X90340Y361890D02*
X118760Y361890D01*
D12*
X89410Y289590D02*
X89410Y261710D01*
X89410Y289590D02*
X116290Y289590D01*
X116290Y261710D01*
X89410Y261710D01*
X89410Y262774D02*
X116290Y262774D01*
X116290Y263838D02*
X89410Y263838D01*
X89410Y264902D02*
X116290Y264902D01*
X116290Y265966D02*
X89410Y265966D01*
X89410Y267030D02*
X116290Y267030D01*
X116290Y268094D02*
X89410Y268094D01*
X89410Y269158D02*
X116290Y269158D01*
X116290Y270222D02*
X89410Y270222D01*
X89410Y271286D02*
X116290Y271286D01*
X116290Y272350D02*
X89410Y272350D01*
X89410Y273414D02*
X116290Y273414D01*
X116290Y274478D02*
X89410Y274478D01*
X89410Y275542D02*
X116290Y275542D01*
X116290Y276606D02*
X89410Y276606D01*
X89410Y277670D02*
X116290Y277670D01*
X116290Y278734D02*
X89410Y278734D01*
X89410Y279798D02*
X116290Y279798D01*
X116290Y280862D02*
X89410Y280862D01*
X89410Y281926D02*
X116290Y281926D01*
X116290Y282990D02*
X89410Y282990D01*
X89410Y284054D02*
X116290Y284054D01*
X116290Y285118D02*
X89410Y285118D01*
X89410Y286182D02*
X116290Y286182D01*
X116290Y287246D02*
X89410Y287246D01*
X89410Y288310D02*
X116290Y288310D01*
X116290Y289374D02*
X89410Y289374D01*
X137710Y289590D02*
X137710Y261710D01*
X137710Y289590D02*
X164590Y289590D01*
X164590Y261710D01*
X137710Y261710D01*
X137710Y262774D02*
X164590Y262774D01*
X164590Y263838D02*
X137710Y263838D01*
X137710Y264902D02*
X164590Y264902D01*
X164590Y265966D02*
X137710Y265966D01*
X137710Y267030D02*
X164590Y267030D01*
X164590Y268094D02*
X137710Y268094D01*
X137710Y269158D02*
X164590Y269158D01*
X164590Y270222D02*
X137710Y270222D01*
X137710Y271286D02*
X164590Y271286D01*
X164590Y272350D02*
X137710Y272350D01*
X137710Y273414D02*
X164590Y273414D01*
X164590Y274478D02*
X137710Y274478D01*
X137710Y275542D02*
X164590Y275542D01*
X164590Y276606D02*
X137710Y276606D01*
X137710Y277670D02*
X164590Y277670D01*
X164590Y278734D02*
X137710Y278734D01*
X137710Y279798D02*
X164590Y279798D01*
X164590Y280862D02*
X137710Y280862D01*
X137710Y281926D02*
X164590Y281926D01*
X164590Y282990D02*
X137710Y282990D01*
X137710Y284054D02*
X164590Y284054D01*
X164590Y285118D02*
X137710Y285118D01*
X137710Y286182D02*
X164590Y286182D01*
X164590Y287246D02*
X137710Y287246D01*
X137710Y288310D02*
X164590Y288310D01*
X164590Y289374D02*
X137710Y289374D01*
D13*
X136330Y151530D02*
X143290Y151530D01*
X143290Y140570D01*
X136330Y140570D01*
X136330Y151530D01*
X136330Y141558D02*
X143290Y141558D01*
X143290Y142546D02*
X136330Y142546D01*
X136330Y143534D02*
X143290Y143534D01*
X143290Y144522D02*
X136330Y144522D01*
X136330Y145510D02*
X143290Y145510D01*
X143290Y146498D02*
X136330Y146498D01*
X136330Y147486D02*
X143290Y147486D01*
X143290Y148474D02*
X136330Y148474D01*
X136330Y149462D02*
X143290Y149462D01*
X143290Y150450D02*
X136330Y150450D01*
X136330Y151438D02*
X143290Y151438D01*
X125290Y151530D02*
X118330Y151530D01*
X125290Y151530D02*
X125290Y140570D01*
X118330Y140570D01*
X118330Y151530D01*
X118330Y141558D02*
X125290Y141558D01*
X125290Y142546D02*
X118330Y142546D01*
X118330Y143534D02*
X125290Y143534D01*
X125290Y144522D02*
X118330Y144522D01*
X118330Y145510D02*
X125290Y145510D01*
X125290Y146498D02*
X118330Y146498D01*
X118330Y147486D02*
X125290Y147486D01*
X125290Y148474D02*
X118330Y148474D01*
X118330Y149462D02*
X125290Y149462D01*
X125290Y150450D02*
X118330Y150450D01*
X118330Y151438D02*
X125290Y151438D01*
D14*
X4530Y149480D02*
X4530Y160520D01*
X23570Y160520D01*
X23570Y149480D01*
X4530Y149480D01*
X4530Y150392D02*
X23570Y150392D01*
X23570Y151304D02*
X4530Y151304D01*
X4530Y152216D02*
X23570Y152216D01*
X23570Y153128D02*
X4530Y153128D01*
X4530Y154040D02*
X23570Y154040D01*
X23570Y154952D02*
X4530Y154952D01*
X4530Y155864D02*
X23570Y155864D01*
X23570Y156776D02*
X4530Y156776D01*
X4530Y157688D02*
X23570Y157688D01*
X23570Y158600D02*
X4530Y158600D01*
X4530Y159512D02*
X23570Y159512D01*
X23570Y160424D02*
X4530Y160424D01*
X4530Y104520D02*
X4530Y93480D01*
X4530Y104520D02*
X23570Y104520D01*
X23570Y93480D01*
X4530Y93480D01*
X4530Y94392D02*
X23570Y94392D01*
X23570Y95304D02*
X4530Y95304D01*
X4530Y96216D02*
X23570Y96216D01*
X23570Y97128D02*
X4530Y97128D01*
X4530Y98040D02*
X23570Y98040D01*
X23570Y98952D02*
X4530Y98952D01*
X4530Y99864D02*
X23570Y99864D01*
X23570Y100776D02*
X4530Y100776D01*
X4530Y101688D02*
X23570Y101688D01*
X23570Y102600D02*
X4530Y102600D01*
X4530Y103512D02*
X23570Y103512D01*
X23570Y104424D02*
X4530Y104424D01*
D15*
X44560Y139510D02*
X44560Y144490D01*
X57040Y144490D01*
X57040Y139510D01*
X44560Y139510D01*
X44560Y140479D02*
X57040Y140479D01*
X57040Y141448D02*
X44560Y141448D01*
X44560Y142417D02*
X57040Y142417D01*
X57040Y143386D02*
X44560Y143386D01*
X44560Y144355D02*
X57040Y144355D01*
X44560Y134490D02*
X44560Y129510D01*
X44560Y134490D02*
X57040Y134490D01*
X57040Y129510D01*
X44560Y129510D01*
X44560Y130479D02*
X57040Y130479D01*
X57040Y131448D02*
X44560Y131448D01*
X44560Y132417D02*
X57040Y132417D01*
X57040Y133386D02*
X44560Y133386D01*
X44560Y134355D02*
X57040Y134355D01*
X44560Y124490D02*
X44560Y119510D01*
X44560Y124490D02*
X57040Y124490D01*
X57040Y119510D01*
X44560Y119510D01*
X44560Y120479D02*
X57040Y120479D01*
X57040Y121448D02*
X44560Y121448D01*
X44560Y122417D02*
X57040Y122417D01*
X57040Y123386D02*
X44560Y123386D01*
X44560Y124355D02*
X57040Y124355D01*
X44560Y114490D02*
X44560Y109510D01*
X44560Y114490D02*
X57040Y114490D01*
X57040Y109510D01*
X44560Y109510D01*
X44560Y110479D02*
X57040Y110479D01*
X57040Y111448D02*
X44560Y111448D01*
X44560Y112417D02*
X57040Y112417D01*
X57040Y113386D02*
X44560Y113386D01*
X44560Y114355D02*
X57040Y114355D01*
D14*
X249470Y104520D02*
X249470Y93480D01*
X230430Y93480D01*
X230430Y104520D01*
X249470Y104520D01*
X249470Y94392D02*
X230430Y94392D01*
X230430Y95304D02*
X249470Y95304D01*
X249470Y96216D02*
X230430Y96216D01*
X230430Y97128D02*
X249470Y97128D01*
X249470Y98040D02*
X230430Y98040D01*
X230430Y98952D02*
X249470Y98952D01*
X249470Y99864D02*
X230430Y99864D01*
X230430Y100776D02*
X249470Y100776D01*
X249470Y101688D02*
X230430Y101688D01*
X230430Y102600D02*
X249470Y102600D01*
X249470Y103512D02*
X230430Y103512D01*
X230430Y104424D02*
X249470Y104424D01*
X249470Y149480D02*
X249470Y160520D01*
X249470Y149480D02*
X230430Y149480D01*
X230430Y160520D01*
X249470Y160520D01*
X249470Y150392D02*
X230430Y150392D01*
X230430Y151304D02*
X249470Y151304D01*
X249470Y152216D02*
X230430Y152216D01*
X230430Y153128D02*
X249470Y153128D01*
X249470Y154040D02*
X230430Y154040D01*
X230430Y154952D02*
X249470Y154952D01*
X249470Y155864D02*
X230430Y155864D01*
X230430Y156776D02*
X249470Y156776D01*
X249470Y157688D02*
X230430Y157688D01*
X230430Y158600D02*
X249470Y158600D01*
X249470Y159512D02*
X230430Y159512D01*
X230430Y160424D02*
X249470Y160424D01*
D15*
X209440Y114490D02*
X209440Y109510D01*
X196960Y109510D01*
X196960Y114490D01*
X209440Y114490D01*
X209440Y110479D02*
X196960Y110479D01*
X196960Y111448D02*
X209440Y111448D01*
X209440Y112417D02*
X196960Y112417D01*
X196960Y113386D02*
X209440Y113386D01*
X209440Y114355D02*
X196960Y114355D01*
X209440Y119510D02*
X209440Y124490D01*
X209440Y119510D02*
X196960Y119510D01*
X196960Y124490D01*
X209440Y124490D01*
X209440Y120479D02*
X196960Y120479D01*
X196960Y121448D02*
X209440Y121448D01*
X209440Y122417D02*
X196960Y122417D01*
X196960Y123386D02*
X209440Y123386D01*
X209440Y124355D02*
X196960Y124355D01*
X209440Y129510D02*
X209440Y134490D01*
X209440Y129510D02*
X196960Y129510D01*
X196960Y134490D01*
X209440Y134490D01*
X209440Y130479D02*
X196960Y130479D01*
X196960Y131448D02*
X209440Y131448D01*
X209440Y132417D02*
X196960Y132417D01*
X196960Y133386D02*
X209440Y133386D01*
X209440Y134355D02*
X196960Y134355D01*
X209440Y139510D02*
X209440Y144490D01*
X209440Y139510D02*
X196960Y139510D01*
X196960Y144490D01*
X209440Y144490D01*
X209440Y140479D02*
X196960Y140479D01*
X196960Y141448D02*
X209440Y141448D01*
X209440Y142417D02*
X196960Y142417D01*
X196960Y143386D02*
X209440Y143386D01*
X209440Y144355D02*
X196960Y144355D01*
D16*
X121008Y121158D02*
X106926Y121158D01*
X106926Y126442D01*
X121008Y126442D01*
X121008Y121158D01*
X121008Y122115D02*
X106926Y122115D01*
X106926Y123072D02*
X121008Y123072D01*
X121008Y124029D02*
X106926Y124029D01*
X106926Y124986D02*
X121008Y124986D01*
X121008Y125943D02*
X106926Y125943D01*
X106926Y111658D02*
X121008Y111658D01*
X106926Y111658D02*
X106926Y116942D01*
X121008Y116942D01*
X121008Y111658D01*
X121008Y112615D02*
X106926Y112615D01*
X106926Y113572D02*
X121008Y113572D01*
X121008Y114529D02*
X106926Y114529D01*
X106926Y115486D02*
X121008Y115486D01*
X121008Y116443D02*
X106926Y116443D01*
X106926Y102158D02*
X121008Y102158D01*
X106926Y102158D02*
X106926Y107442D01*
X121008Y107442D01*
X121008Y102158D01*
X121008Y103115D02*
X106926Y103115D01*
X106926Y104072D02*
X121008Y104072D01*
X121008Y105029D02*
X106926Y105029D01*
X106926Y105986D02*
X121008Y105986D01*
X121008Y106943D02*
X106926Y106943D01*
X132992Y102158D02*
X147074Y102158D01*
X132992Y102158D02*
X132992Y107442D01*
X147074Y107442D01*
X147074Y102158D01*
X147074Y103115D02*
X132992Y103115D01*
X132992Y104072D02*
X147074Y104072D01*
X147074Y105029D02*
X132992Y105029D01*
X132992Y105986D02*
X147074Y105986D01*
X147074Y106943D02*
X132992Y106943D01*
X132992Y121158D02*
X147074Y121158D01*
X132992Y121158D02*
X132992Y126442D01*
X147074Y126442D01*
X147074Y121158D01*
X147074Y122115D02*
X132992Y122115D01*
X132992Y123072D02*
X147074Y123072D01*
X147074Y124029D02*
X132992Y124029D01*
X132992Y124986D02*
X147074Y124986D01*
X147074Y125943D02*
X132992Y125943D01*
D13*
X180740Y126560D02*
X180740Y119600D01*
X169780Y119600D01*
X169780Y126560D01*
X180740Y126560D01*
X180740Y120588D02*
X169780Y120588D01*
X169780Y121576D02*
X180740Y121576D01*
X180740Y122564D02*
X169780Y122564D01*
X169780Y123552D02*
X180740Y123552D01*
X180740Y124540D02*
X169780Y124540D01*
X169780Y125528D02*
X180740Y125528D01*
X180740Y126516D02*
X169780Y126516D01*
X180740Y137600D02*
X180740Y144560D01*
X180740Y137600D02*
X169780Y137600D01*
X169780Y144560D01*
X180740Y144560D01*
X180740Y138588D02*
X169780Y138588D01*
X169780Y139576D02*
X180740Y139576D01*
X180740Y140564D02*
X169780Y140564D01*
X169780Y141552D02*
X180740Y141552D01*
X180740Y142540D02*
X169780Y142540D01*
X169780Y143528D02*
X180740Y143528D01*
X180740Y144516D02*
X169780Y144516D01*
D17*
X91850Y167060D02*
X81850Y167060D01*
X91850Y167060D02*
X91850Y158060D01*
X81850Y158060D01*
X81850Y167060D01*
X81850Y159010D02*
X91850Y159010D01*
X91850Y159960D02*
X81850Y159960D01*
X81850Y160910D02*
X91850Y160910D01*
X91850Y161860D02*
X81850Y161860D01*
X81850Y162810D02*
X91850Y162810D01*
X91850Y163760D02*
X81850Y163760D01*
X81850Y164710D02*
X91850Y164710D01*
X91850Y165660D02*
X81850Y165660D01*
X81850Y166610D02*
X91850Y166610D01*
X74850Y167060D02*
X64850Y167060D01*
X74850Y167060D02*
X74850Y158060D01*
X64850Y158060D01*
X64850Y167060D01*
X64850Y159010D02*
X74850Y159010D01*
X74850Y159960D02*
X64850Y159960D01*
X64850Y160910D02*
X74850Y160910D01*
X74850Y161860D02*
X64850Y161860D01*
X64850Y162810D02*
X74850Y162810D01*
X74850Y163760D02*
X64850Y163760D01*
X64850Y164710D02*
X74850Y164710D01*
X74850Y165660D02*
X64850Y165660D01*
X64850Y166610D02*
X74850Y166610D01*
X90750Y127800D02*
X90750Y117800D01*
X90750Y127800D02*
X99750Y127800D01*
X99750Y117800D01*
X90750Y117800D01*
X90750Y118750D02*
X99750Y118750D01*
X99750Y119700D02*
X90750Y119700D01*
X90750Y120650D02*
X99750Y120650D01*
X99750Y121600D02*
X90750Y121600D01*
X90750Y122550D02*
X99750Y122550D01*
X99750Y123500D02*
X90750Y123500D01*
X90750Y124450D02*
X99750Y124450D01*
X99750Y125400D02*
X90750Y125400D01*
X90750Y126350D02*
X99750Y126350D01*
X99750Y127300D02*
X90750Y127300D01*
X90750Y110800D02*
X90750Y100800D01*
X90750Y110800D02*
X99750Y110800D01*
X99750Y100800D01*
X90750Y100800D01*
X90750Y101750D02*
X99750Y101750D01*
X99750Y102700D02*
X90750Y102700D01*
X90750Y103650D02*
X99750Y103650D01*
X99750Y104600D02*
X90750Y104600D01*
X90750Y105550D02*
X99750Y105550D01*
X99750Y106500D02*
X90750Y106500D01*
X90750Y107450D02*
X99750Y107450D01*
X99750Y108400D02*
X90750Y108400D01*
X90750Y109350D02*
X99750Y109350D01*
X99750Y110300D02*
X90750Y110300D01*
X80700Y110800D02*
X80700Y100800D01*
X71700Y100800D01*
X71700Y110800D01*
X80700Y110800D01*
X80700Y101750D02*
X71700Y101750D01*
X71700Y102700D02*
X80700Y102700D01*
X80700Y103650D02*
X71700Y103650D01*
X71700Y104600D02*
X80700Y104600D01*
X80700Y105550D02*
X71700Y105550D01*
X71700Y106500D02*
X80700Y106500D01*
X80700Y107450D02*
X71700Y107450D01*
X71700Y108400D02*
X80700Y108400D01*
X80700Y109350D02*
X71700Y109350D01*
X71700Y110300D02*
X80700Y110300D01*
X80700Y117800D02*
X80700Y127800D01*
X80700Y117800D02*
X71700Y117800D01*
X71700Y127800D01*
X80700Y127800D01*
X80700Y118750D02*
X71700Y118750D01*
X71700Y119700D02*
X80700Y119700D01*
X80700Y120650D02*
X71700Y120650D01*
X71700Y121600D02*
X80700Y121600D01*
X80700Y122550D02*
X71700Y122550D01*
X71700Y123500D02*
X80700Y123500D01*
X80700Y124450D02*
X71700Y124450D01*
X71700Y125400D02*
X80700Y125400D01*
X80700Y126350D02*
X71700Y126350D01*
X71700Y127300D02*
X80700Y127300D01*
X107386Y93400D02*
X117386Y93400D01*
X117386Y84400D01*
X107386Y84400D01*
X107386Y93400D01*
X107386Y85350D02*
X117386Y85350D01*
X117386Y86300D02*
X107386Y86300D01*
X107386Y87250D02*
X117386Y87250D01*
X117386Y88200D02*
X107386Y88200D01*
X107386Y89150D02*
X117386Y89150D01*
X117386Y90100D02*
X107386Y90100D01*
X107386Y91050D02*
X117386Y91050D01*
X117386Y92000D02*
X107386Y92000D01*
X107386Y92950D02*
X117386Y92950D01*
X100386Y93400D02*
X90386Y93400D01*
X100386Y93400D02*
X100386Y84400D01*
X90386Y84400D01*
X90386Y93400D01*
X90386Y85350D02*
X100386Y85350D01*
X100386Y86300D02*
X90386Y86300D01*
X90386Y87250D02*
X100386Y87250D01*
X100386Y88200D02*
X90386Y88200D01*
X90386Y89150D02*
X100386Y89150D01*
X100386Y90100D02*
X90386Y90100D01*
X90386Y91050D02*
X100386Y91050D01*
X100386Y92000D02*
X90386Y92000D01*
X90386Y92950D02*
X100386Y92950D01*
D18*
X88936Y142404D02*
X83644Y142404D01*
X83644Y149696D01*
X88936Y149696D01*
X88936Y142404D01*
X88936Y143362D02*
X83644Y143362D01*
X83644Y144320D02*
X88936Y144320D01*
X88936Y145278D02*
X83644Y145278D01*
X83644Y146236D02*
X88936Y146236D01*
X88936Y147194D02*
X83644Y147194D01*
X83644Y148152D02*
X88936Y148152D01*
X88936Y149110D02*
X83644Y149110D01*
X106644Y142404D02*
X111936Y142404D01*
X106644Y142404D02*
X106644Y149696D01*
X111936Y149696D01*
X111936Y142404D01*
X111936Y143362D02*
X106644Y143362D01*
X106644Y144320D02*
X111936Y144320D01*
X111936Y145278D02*
X106644Y145278D01*
X106644Y146236D02*
X111936Y146236D01*
X111936Y147194D02*
X106644Y147194D01*
X106644Y148152D02*
X111936Y148152D01*
X111936Y149110D02*
X106644Y149110D01*
D17*
X163250Y110800D02*
X163250Y100800D01*
X154250Y100800D01*
X154250Y110800D01*
X163250Y110800D01*
X163250Y101750D02*
X154250Y101750D01*
X154250Y102700D02*
X163250Y102700D01*
X163250Y103650D02*
X154250Y103650D01*
X154250Y104600D02*
X163250Y104600D01*
X163250Y105550D02*
X154250Y105550D01*
X154250Y106500D02*
X163250Y106500D01*
X163250Y107450D02*
X154250Y107450D01*
X154250Y108400D02*
X163250Y108400D01*
X163250Y109350D02*
X154250Y109350D01*
X154250Y110300D02*
X163250Y110300D01*
X163250Y117800D02*
X163250Y127800D01*
X163250Y117800D02*
X154250Y117800D01*
X154250Y127800D01*
X163250Y127800D01*
X163250Y118750D02*
X154250Y118750D01*
X154250Y119700D02*
X163250Y119700D01*
X163250Y120650D02*
X154250Y120650D01*
X154250Y121600D02*
X163250Y121600D01*
X163250Y122550D02*
X154250Y122550D01*
X154250Y123500D02*
X163250Y123500D01*
X163250Y124450D02*
X154250Y124450D01*
X154250Y125400D02*
X163250Y125400D01*
X163250Y126350D02*
X154250Y126350D01*
X154250Y127300D02*
X163250Y127300D01*
D19*
X6350Y400050D03*
X247650Y6350D03*
D20*
X117510Y203360D02*
X88490Y203360D01*
X117510Y203360D02*
X117510Y190340D01*
X88490Y190340D01*
X88490Y203360D01*
X88490Y191271D02*
X117510Y191271D01*
X117510Y192202D02*
X88490Y192202D01*
X88490Y193133D02*
X117510Y193133D01*
X117510Y194064D02*
X88490Y194064D01*
X88490Y194995D02*
X117510Y194995D01*
X117510Y195926D02*
X88490Y195926D01*
X88490Y196857D02*
X117510Y196857D01*
X117510Y197788D02*
X88490Y197788D01*
X88490Y198719D02*
X117510Y198719D01*
X117510Y199650D02*
X88490Y199650D01*
X88490Y200581D02*
X117510Y200581D01*
X117510Y201512D02*
X88490Y201512D01*
X88490Y202443D02*
X117510Y202443D01*
X136490Y203360D02*
X165510Y203360D01*
X165510Y190340D01*
X136490Y190340D01*
X136490Y203360D01*
X136490Y191271D02*
X165510Y191271D01*
X165510Y192202D02*
X136490Y192202D01*
X136490Y193133D02*
X165510Y193133D01*
X165510Y194064D02*
X136490Y194064D01*
X136490Y194995D02*
X165510Y194995D01*
X165510Y195926D02*
X136490Y195926D01*
X136490Y196857D02*
X165510Y196857D01*
X165510Y197788D02*
X136490Y197788D01*
X136490Y198719D02*
X165510Y198719D01*
X165510Y199650D02*
X136490Y199650D01*
X136490Y200581D02*
X165510Y200581D01*
X165510Y201512D02*
X136490Y201512D01*
X136490Y202443D02*
X165510Y202443D01*
D17*
X234370Y356070D02*
X234370Y366070D01*
X234370Y356070D02*
X225370Y356070D01*
X225370Y366070D01*
X234370Y366070D01*
X234370Y357020D02*
X225370Y357020D01*
X225370Y357970D02*
X234370Y357970D01*
X234370Y358920D02*
X225370Y358920D01*
X225370Y359870D02*
X234370Y359870D01*
X234370Y360820D02*
X225370Y360820D01*
X225370Y361770D02*
X234370Y361770D01*
X234370Y362720D02*
X225370Y362720D01*
X225370Y363670D02*
X234370Y363670D01*
X234370Y364620D02*
X225370Y364620D01*
X225370Y365570D02*
X234370Y365570D01*
X234370Y373070D02*
X234370Y383070D01*
X234370Y373070D02*
X225370Y373070D01*
X225370Y383070D01*
X234370Y383070D01*
X234370Y374020D02*
X225370Y374020D01*
X225370Y374970D02*
X234370Y374970D01*
X234370Y375920D02*
X225370Y375920D01*
X225370Y376870D02*
X234370Y376870D01*
X234370Y377820D02*
X225370Y377820D01*
X225370Y378770D02*
X234370Y378770D01*
X234370Y379720D02*
X225370Y379720D01*
X225370Y380670D02*
X234370Y380670D01*
X234370Y381620D02*
X225370Y381620D01*
X225370Y382570D02*
X234370Y382570D01*
X214050Y366070D02*
X214050Y356070D01*
X205050Y356070D01*
X205050Y366070D01*
X214050Y366070D01*
X214050Y357020D02*
X205050Y357020D01*
X205050Y357970D02*
X214050Y357970D01*
X214050Y358920D02*
X205050Y358920D01*
X205050Y359870D02*
X214050Y359870D01*
X214050Y360820D02*
X205050Y360820D01*
X205050Y361770D02*
X214050Y361770D01*
X214050Y362720D02*
X205050Y362720D01*
X205050Y363670D02*
X214050Y363670D01*
X214050Y364620D02*
X205050Y364620D01*
X205050Y365570D02*
X214050Y365570D01*
X214050Y373070D02*
X214050Y383070D01*
X214050Y373070D02*
X205050Y373070D01*
X205050Y383070D01*
X214050Y383070D01*
X214050Y374020D02*
X205050Y374020D01*
X205050Y374970D02*
X214050Y374970D01*
X214050Y375920D02*
X205050Y375920D01*
X205050Y376870D02*
X214050Y376870D01*
X214050Y377820D02*
X205050Y377820D01*
X205050Y378770D02*
X214050Y378770D01*
X214050Y379720D02*
X205050Y379720D01*
X205050Y380670D02*
X214050Y380670D01*
X214050Y381620D02*
X205050Y381620D01*
X205050Y382570D02*
X214050Y382570D01*
X50220Y366070D02*
X50220Y356070D01*
X41220Y356070D01*
X41220Y366070D01*
X50220Y366070D01*
X50220Y357020D02*
X41220Y357020D01*
X41220Y357970D02*
X50220Y357970D01*
X50220Y358920D02*
X41220Y358920D01*
X41220Y359870D02*
X50220Y359870D01*
X50220Y360820D02*
X41220Y360820D01*
X41220Y361770D02*
X50220Y361770D01*
X50220Y362720D02*
X41220Y362720D01*
X41220Y363670D02*
X50220Y363670D01*
X50220Y364620D02*
X41220Y364620D01*
X41220Y365570D02*
X50220Y365570D01*
X50220Y373070D02*
X50220Y383070D01*
X50220Y373070D02*
X41220Y373070D01*
X41220Y383070D01*
X50220Y383070D01*
X50220Y374020D02*
X41220Y374020D01*
X41220Y374970D02*
X50220Y374970D01*
X50220Y375920D02*
X41220Y375920D01*
X41220Y376870D02*
X50220Y376870D01*
X50220Y377820D02*
X41220Y377820D01*
X41220Y378770D02*
X50220Y378770D01*
X50220Y379720D02*
X41220Y379720D01*
X41220Y380670D02*
X50220Y380670D01*
X50220Y381620D02*
X41220Y381620D01*
X41220Y382570D02*
X50220Y382570D01*
X29900Y366070D02*
X29900Y356070D01*
X20900Y356070D01*
X20900Y366070D01*
X29900Y366070D01*
X29900Y357020D02*
X20900Y357020D01*
X20900Y357970D02*
X29900Y357970D01*
X29900Y358920D02*
X20900Y358920D01*
X20900Y359870D02*
X29900Y359870D01*
X29900Y360820D02*
X20900Y360820D01*
X20900Y361770D02*
X29900Y361770D01*
X29900Y362720D02*
X20900Y362720D01*
X20900Y363670D02*
X29900Y363670D01*
X29900Y364620D02*
X20900Y364620D01*
X20900Y365570D02*
X29900Y365570D01*
X29900Y373070D02*
X29900Y383070D01*
X29900Y373070D02*
X20900Y373070D01*
X20900Y383070D01*
X29900Y383070D01*
X29900Y374020D02*
X20900Y374020D01*
X20900Y374970D02*
X29900Y374970D01*
X29900Y375920D02*
X20900Y375920D01*
X20900Y376870D02*
X29900Y376870D01*
X29900Y377820D02*
X20900Y377820D01*
X20900Y378770D02*
X29900Y378770D01*
X29900Y379720D02*
X20900Y379720D01*
X20900Y380670D02*
X29900Y380670D01*
X29900Y381620D02*
X20900Y381620D01*
X20900Y382570D02*
X29900Y382570D01*
X156900Y54920D02*
X156900Y44920D01*
X147900Y44920D01*
X147900Y54920D01*
X156900Y54920D01*
X156900Y45870D02*
X147900Y45870D01*
X147900Y46820D02*
X156900Y46820D01*
X156900Y47770D02*
X147900Y47770D01*
X147900Y48720D02*
X156900Y48720D01*
X156900Y49670D02*
X147900Y49670D01*
X147900Y50620D02*
X156900Y50620D01*
X156900Y51570D02*
X147900Y51570D01*
X147900Y52520D02*
X156900Y52520D01*
X156900Y53470D02*
X147900Y53470D01*
X147900Y54420D02*
X156900Y54420D01*
X156900Y61920D02*
X156900Y71920D01*
X156900Y61920D02*
X147900Y61920D01*
X147900Y71920D01*
X156900Y71920D01*
X156900Y62870D02*
X147900Y62870D01*
X147900Y63820D02*
X156900Y63820D01*
X156900Y64770D02*
X147900Y64770D01*
X147900Y65720D02*
X156900Y65720D01*
X156900Y66670D02*
X147900Y66670D01*
X147900Y67620D02*
X156900Y67620D01*
X156900Y68570D02*
X147900Y68570D01*
X147900Y69520D02*
X156900Y69520D01*
X156900Y70470D02*
X147900Y70470D01*
X147900Y71420D02*
X156900Y71420D01*
X106100Y54920D02*
X106100Y44920D01*
X97100Y44920D01*
X97100Y54920D01*
X106100Y54920D01*
X106100Y45870D02*
X97100Y45870D01*
X97100Y46820D02*
X106100Y46820D01*
X106100Y47770D02*
X97100Y47770D01*
X97100Y48720D02*
X106100Y48720D01*
X106100Y49670D02*
X97100Y49670D01*
X97100Y50620D02*
X106100Y50620D01*
X106100Y51570D02*
X97100Y51570D01*
X97100Y52520D02*
X106100Y52520D01*
X106100Y53470D02*
X97100Y53470D01*
X97100Y54420D02*
X106100Y54420D01*
X106100Y61920D02*
X106100Y71920D01*
X106100Y61920D02*
X97100Y61920D01*
X97100Y71920D01*
X106100Y71920D01*
X106100Y62870D02*
X97100Y62870D01*
X97100Y63820D02*
X106100Y63820D01*
X106100Y64770D02*
X97100Y64770D01*
X97100Y65720D02*
X106100Y65720D01*
X106100Y66670D02*
X97100Y66670D01*
X97100Y67620D02*
X106100Y67620D01*
X106100Y68570D02*
X97100Y68570D01*
X97100Y69520D02*
X106100Y69520D01*
X106100Y70470D02*
X97100Y70470D01*
X97100Y71420D02*
X106100Y71420D01*
D21*
X190500Y12700D03*
X165100Y12700D03*
X139700Y12700D03*
X114300Y12700D03*
X88900Y12700D03*
X63500Y12700D03*
X12700Y317500D03*
X12700Y292100D03*
X12700Y266700D03*
X241300Y317500D03*
X241300Y292100D03*
X241300Y266700D03*
D17*
X140500Y396930D02*
X130500Y396930D01*
X140500Y396930D02*
X140500Y387930D01*
X130500Y387930D01*
X130500Y396930D01*
X130500Y388880D02*
X140500Y388880D01*
X140500Y389830D02*
X130500Y389830D01*
X130500Y390780D02*
X140500Y390780D01*
X140500Y391730D02*
X130500Y391730D01*
X130500Y392680D02*
X140500Y392680D01*
X140500Y393630D02*
X130500Y393630D01*
X130500Y394580D02*
X140500Y394580D01*
X140500Y395530D02*
X130500Y395530D01*
X130500Y396480D02*
X140500Y396480D01*
X123500Y396930D02*
X113500Y396930D01*
X123500Y396930D02*
X123500Y387930D01*
X113500Y387930D01*
X113500Y396930D01*
X113500Y388880D02*
X123500Y388880D01*
X123500Y389830D02*
X113500Y389830D01*
X113500Y390780D02*
X123500Y390780D01*
X123500Y391730D02*
X113500Y391730D01*
X113500Y392680D02*
X123500Y392680D01*
X123500Y393630D02*
X113500Y393630D01*
X113500Y394580D02*
X123500Y394580D01*
X123500Y395530D02*
X113500Y395530D01*
X113500Y396480D02*
X123500Y396480D01*
D22*
X172910Y395930D02*
X172910Y388930D01*
X172910Y395930D02*
X179910Y395930D01*
X179910Y388930D01*
X172910Y388930D01*
X172910Y391780D02*
X179910Y391780D01*
X179910Y394630D02*
X172910Y394630D01*
X155370Y395930D02*
X155370Y388930D01*
X155370Y395930D02*
X162370Y395930D01*
X162370Y388930D01*
X155370Y388930D01*
X155370Y391780D02*
X162370Y391780D01*
X162370Y394630D02*
X155370Y394630D01*
D17*
X99860Y396930D02*
X89860Y396930D01*
X99860Y396930D02*
X99860Y387930D01*
X89860Y387930D01*
X89860Y396930D01*
X89860Y388880D02*
X99860Y388880D01*
X99860Y389830D02*
X89860Y389830D01*
X89860Y390780D02*
X99860Y390780D01*
X99860Y391730D02*
X89860Y391730D01*
X89860Y392680D02*
X99860Y392680D01*
X99860Y393630D02*
X89860Y393630D01*
X89860Y394580D02*
X99860Y394580D01*
X99860Y395530D02*
X89860Y395530D01*
X89860Y396480D02*
X99860Y396480D01*
X82860Y396930D02*
X72860Y396930D01*
X82860Y396930D02*
X82860Y387930D01*
X72860Y387930D01*
X72860Y396930D01*
X72860Y388880D02*
X82860Y388880D01*
X82860Y389830D02*
X72860Y389830D01*
X72860Y390780D02*
X82860Y390780D01*
X82860Y391730D02*
X72860Y391730D01*
X72860Y392680D02*
X82860Y392680D01*
X82860Y393630D02*
X72860Y393630D01*
X72860Y394580D02*
X82860Y394580D01*
X82860Y395530D02*
X72860Y395530D01*
X72860Y396480D02*
X82860Y396480D01*
D23*
X76200Y105800D02*
X95250Y105800D01*
X96250Y104800D01*
X113967Y104800D01*
X95250Y105800D02*
X95250Y89036D01*
X95386Y88900D01*
X140033Y104800D02*
X157750Y104800D01*
X158750Y105800D01*
D24*
X158750Y91440D01*
X165100Y85090D01*
X165100Y57150D01*
D25*
X165100Y57150D03*
X158750Y254000D03*
X139700Y254000D03*
X115570Y254000D03*
X95250Y254000D03*
X95250Y298450D03*
X111760Y298450D03*
X146050Y298450D03*
X156210Y298450D03*
X156210Y317500D03*
X144780Y317500D03*
X100330Y317500D03*
X95250Y374650D03*
X144780Y358140D03*
X153670Y358140D03*
X73660Y187960D03*
X128270Y114300D03*
X158750Y140970D03*
X240030Y114300D03*
X240030Y139700D03*
X25400Y76200D03*
X12700Y114300D03*
X12700Y139700D03*
X12700Y187960D03*
X128270Y196850D03*
X173990Y196850D03*
X127000Y275590D03*
X33020Y340360D03*
X12700Y349250D03*
X57150Y378460D03*
X25400Y389890D03*
X45720Y389890D03*
X214630Y393700D03*
X229870Y393700D03*
X242570Y378460D03*
X196850Y378460D03*
X226060Y345440D03*
X182880Y232410D03*
X102870Y162560D03*
X135890Y232410D03*
X154940Y210820D03*
X151130Y184150D03*
X175260Y153670D03*
X115570Y162560D03*
X128270Y162560D03*
X140970Y162560D03*
X153670Y162560D03*
X158750Y153670D03*
X73660Y146050D03*
X204470Y176530D03*
X184150Y165100D03*
X240030Y60960D03*
X58420Y323850D03*
D26*
X156210Y317500D02*
X161290Y317500D01*
X167640Y323850D02*
X172720Y323850D01*
D27*
X167640Y323850D02*
X161290Y317500D01*
D25*
X203200Y96520D03*
X173990Y77470D03*
X177800Y36830D03*
X76200Y88900D03*
X102870Y36830D03*
X35560Y101600D03*
X190500Y142240D03*
X127000Y58420D03*
D23*
X45720Y361070D02*
X25400Y361070D01*
X45720Y361070D02*
X75620Y361070D01*
D28*
X76500Y361950D01*
D23*
X175260Y123080D02*
X176340Y122000D01*
X203200Y122000D01*
D25*
X175260Y93980D03*
D23*
X175260Y123080D01*
X63420Y132000D02*
X50800Y132000D01*
X63420Y132000D02*
X63500Y132080D01*
D25*
X63500Y132080D03*
X13970Y360680D03*
D23*
X14360Y361070D01*
X25400Y361070D01*
D24*
X57407Y392430D02*
X77860Y392430D01*
X57407Y392430D02*
X50041Y399796D01*
X21079Y399796D02*
X13970Y392687D01*
X13970Y360680D01*
X21079Y399796D02*
X50041Y399796D01*
D23*
X159030Y123080D02*
X175260Y123080D01*
X159030Y123080D02*
X158750Y122800D01*
X157750Y123800D01*
X140033Y123800D01*
D25*
X92710Y213360D03*
X92710Y223520D03*
X102870Y223520D03*
X113030Y223520D03*
X102870Y213360D03*
X113030Y213360D03*
D29*
X209550Y361070D02*
X229870Y361070D01*
X209550Y361070D02*
X178380Y361070D01*
X177500Y361950D01*
X229870Y361070D02*
X241300Y349640D01*
X241300Y317500D01*
D24*
X224028Y143751D02*
X224028Y66265D01*
X224028Y143751D02*
X195263Y172516D01*
X195263Y280687D01*
X190200Y285750D01*
X177500Y285750D01*
X224028Y66265D02*
X190500Y32737D01*
X190500Y12700D01*
D25*
X35560Y111760D03*
X60960Y311150D03*
D24*
X76500Y311150D01*
X203200Y142000D02*
X212330Y142000D01*
X215900Y138430D01*
X215900Y72390D01*
X193040Y49530D01*
X152790Y49530D01*
X152400Y49920D01*
X139700Y37220D01*
X139700Y12700D01*
X50800Y112000D02*
X35800Y112000D01*
X35560Y111760D01*
D25*
X101600Y26670D03*
D24*
X50800Y77470D01*
X50800Y112000D01*
X101600Y49920D02*
X114300Y37220D01*
X114300Y12700D01*
X190580Y132000D02*
X203200Y132000D01*
X190580Y132000D02*
X190500Y132080D01*
D25*
X190500Y132080D03*
D24*
X101600Y49920D02*
X66040Y85480D01*
X60854Y121985D02*
X50815Y121985D01*
X50800Y122000D01*
X60854Y121985D02*
X66040Y116799D01*
X66040Y85480D01*
D25*
X114300Y37220D03*
D24*
X50800Y122000D02*
X40560Y122000D01*
X59690Y215900D02*
X59690Y245110D01*
X38100Y266700D01*
X12700Y266700D01*
X35560Y127000D02*
X40560Y122000D01*
X35560Y127000D02*
X35560Y191770D01*
X59690Y215900D01*
X38100Y266700D02*
X57150Y285750D01*
X76500Y285750D01*
X76500Y336550D02*
X58420Y336550D01*
X39370Y317500D02*
X12700Y317500D01*
X39370Y317500D02*
X58420Y336550D01*
D25*
X101600Y78439D03*
D24*
X101600Y66920D01*
D25*
X152400Y78740D03*
D24*
X152400Y66920D01*
D25*
X151130Y308610D03*
D24*
X162260Y308610D01*
X164800Y311150D02*
X177500Y311150D01*
X164800Y311150D02*
X162260Y308610D01*
X158870Y392430D02*
X135500Y392430D01*
X118500Y392430D02*
X106680Y392430D01*
D25*
X106680Y392430D03*
D24*
X94860Y392430D02*
X127000Y360290D01*
X127000Y336550D01*
D25*
X127000Y336550D03*
D24*
X76500Y260350D02*
X92710Y244140D01*
X92710Y243840D01*
D25*
X92710Y243840D03*
D24*
X224790Y266700D02*
X241300Y266700D01*
X224790Y266700D02*
X213360Y278130D01*
X213360Y327660D01*
X204470Y336550D01*
X177500Y336550D01*
M02*
