M48
;GenerationSoftware,Autodesk,EAGLE,9.6.2*%
;CreationDate,2023-07-10T22:51:13Z*%
FMAT,2
ICI,OFF
METRIC,TZ,000.000
T3C0.381
T2C1.016
T1C3.302
%
G90
M71
T1
X22860Y22860
X2540Y2540
X22860Y2540
X2540Y22860
T2
X24130Y26670
X19050Y1270
X16510Y1270
X13970Y1270
X11430Y1270
X8890Y1270
X6350Y1270
X1270Y31750
X1270Y29210
X1270Y26670
X24130Y31750
X24130Y29210
T3
X12827Y11430
X15875Y14097
X24003Y11430
X24003Y13970
X2540Y7620
X1270Y11430
X1270Y13970
X1270Y18796
X12827Y19685
X17399Y19685
X12700Y27559
X3302Y34036
X1270Y34925
X5715Y37846
X2540Y38989
X4572Y38989
X21463Y39370
X22987Y39370
X24257Y37846
X19685Y37846
X22606Y34544
X18288Y23241
X10287Y16256
X13589Y23241
X15494Y21082
X15113Y18415
X17526Y15367
X11557Y16256
X12827Y16256
X14097Y16256
X15367Y16256
X15875Y15367
X9525Y37465
X20447Y17653
X18415Y16510
X24003Y6096
X5842Y32385
X20320Y9652
X17399Y7747
X17780Y3683
X7620Y8890
X10287Y3683
X3556Y10160
X19050Y14224
X12700Y5842
X17526Y9398
X6350Y13208
X1397Y36068
X9271Y21336
X9271Y22352
X10287Y22352
X11303Y22352
X10287Y21336
X11303Y21336
X3556Y11176
X6096Y31115
X16510Y5715
X19050Y13208
X11430Y3722
X10160Y7844
X15240Y7874
X15113Y30861
X10668Y39243
X12700Y33655
X9271Y24384
X15875Y25400
X13970Y25400
X11557Y25400
X7366Y14605
X9525Y25400
X9525Y29845
X11176Y29845
X14605Y29845
X15621Y29845
X15621Y31750
X14478Y31750
X10033Y31750
X14478Y35814
X15367Y35814
X7366Y18796
X10160Y2667
M30