M48
;GenerationSoftware,Autodesk,EAGLE,9.6.2*%
;CreationDate,2023-07-31T16:03:55Z*%
FMAT,2
ICI,OFF
METRIC,TZ,000.000
T3C0.381
T2C1.016
T1C3.302
%
G90
M71
T1
X132080Y22860
X132080Y64008
X2540Y2540
X22860Y2540
X2540Y22860
X22860Y22860
X28448Y2540
X48768Y2540
X28448Y22860
X48768Y22860
X54356Y2540
X74676Y2540
X54356Y22860
X74676Y22860
X80264Y2540
X100584Y2540
X80264Y22860
X100584Y22860
X106172Y2540
X126492Y2540
X106172Y22860
X126492Y22860
X132080Y2540
X152400Y2540
X152400Y64008
X152400Y22860
X2540Y43688
X22860Y43688
X2540Y64008
X22860Y64008
X28448Y43688
X48768Y43688
X28448Y64008
X48768Y64008
X54356Y43688
X74676Y43688
X54356Y64008
X74676Y64008
X80264Y43688
X100584Y43688
X80264Y64008
X100584Y64008
X106172Y43688
X126492Y43688
X106172Y64008
X126492Y64008
X132080Y43688
X152400Y43688
T2
X153670Y67818
X19050Y1270
X16510Y1270
X13970Y1270
X11430Y1270
X8890Y1270
X6350Y1270
X1270Y31750
X1270Y29210
X1270Y26670
X24130Y31750
X24130Y29210
X24130Y26670
X44958Y1270
X42418Y1270
X39878Y1270
X37338Y1270
X34798Y1270
X32258Y1270
X27178Y31750
X27178Y29210
X27178Y26670
X50038Y31750
X50038Y29210
X50038Y26670
X70866Y1270
X68326Y1270
X65786Y1270
X63246Y1270
X60706Y1270
X58166Y1270
X53086Y31750
X53086Y29210
X53086Y26670
X75946Y31750
X75946Y29210
X75946Y26670
X96774Y1270
X94234Y1270
X91694Y1270
X89154Y1270
X86614Y1270
X84074Y1270
X78994Y31750
X78994Y29210
X78994Y26670
X101854Y31750
X101854Y29210
X101854Y26670
X122682Y1270
X120142Y1270
X117602Y1270
X115062Y1270
X112522Y1270
X109982Y1270
X104902Y31750
X104902Y29210
X104902Y26670
X127762Y31750
X127762Y29210
X127762Y26670
X148590Y1270
X146050Y1270
X143510Y1270
X140970Y1270
X138430Y1270
X135890Y1270
X130810Y31750
X130810Y29210
X130810Y26670
X153670Y31750
X153670Y29210
X153670Y26670
X19050Y42418
X16510Y42418
X13970Y42418
X11430Y42418
X8890Y42418
X6350Y42418
X1270Y72898
X1270Y70358
X1270Y67818
X24130Y72898
X24130Y70358
X24130Y67818
X44958Y42418
X42418Y42418
X39878Y42418
X37338Y42418
X34798Y42418
X32258Y42418
X27178Y72898
X27178Y70358
X27178Y67818
X50038Y72898
X50038Y70358
X50038Y67818
X70866Y42418
X68326Y42418
X65786Y42418
X63246Y42418
X60706Y42418
X58166Y42418
X53086Y72898
X53086Y70358
X53086Y67818
X75946Y72898
X75946Y70358
X75946Y67818
X96774Y42418
X94234Y42418
X91694Y42418
X89154Y42418
X86614Y42418
X84074Y42418
X78994Y72898
X78994Y70358
X78994Y67818
X101854Y72898
X101854Y70358
X101854Y67818
X122682Y42418
X120142Y42418
X117602Y42418
X115062Y42418
X112522Y42418
X109982Y42418
X104902Y72898
X104902Y70358
X104902Y67818
X127762Y72898
X127762Y70358
X127762Y67818
X148590Y42418
X146050Y42418
X143510Y42418
X140970Y42418
X138430Y42418
X135890Y42418
X130810Y72898
X130810Y70358
X130810Y67818
X153670Y72898
X153670Y70358
T3
X54356Y38989
X56388Y38989
X73279Y39370
X74803Y39370
X76073Y37846
X71501Y37846
X74422Y34544
X70104Y23241
X62103Y16256
X65405Y23241
X67310Y21082
X66929Y18415
X69342Y15875
X63373Y16256
X64643Y16256
X65913Y16256
X67183Y16256
X67818Y15621
X59182Y14224
X72263Y17653
X70231Y16510
X75819Y6096
X57658Y32385
X72136Y9652
X69215Y7747
X69596Y3683
X59436Y8890
X62103Y3683
X55372Y10160
X70866Y14224
X64516Y5842
X69342Y9398
X58166Y13208
X53213Y36068
X61087Y21336
X61087Y22352
X62103Y22352
X63119Y22352
X62103Y21336
X63119Y21336
X55372Y11176
X57912Y31115
X61976Y2667
X70866Y13208
X63246Y3722
X61976Y7844
X67056Y7874
X66929Y30861
X62484Y39243
X64516Y33655
X61087Y24384
X94234Y5715
X93599Y25400
X91694Y25400
X89281Y25400
X87249Y25400
X87249Y29845
X88900Y29845
X92329Y29845
X93345Y29845
X93345Y31750
X92202Y31750
X87757Y31750
X87249Y37465
X92202Y35814
X93091Y35814
X85090Y18796
X90424Y11176
X93599Y14097
X101727Y11430
X101727Y13970
X80264Y7620
X78994Y11430
X78994Y13970
X78994Y18796
X90551Y19685
X95123Y19685
X90424Y27559
X81026Y34036
X78994Y34925
X83439Y37846
X80264Y38989
X82296Y38989
X99187Y39370
X100711Y39370
X101981Y37846
X97409Y37846
X100330Y34544
X96012Y23241
X88011Y16256
X91313Y23241
X93218Y21082
X92837Y18415
X95250Y15875
X89281Y16256
X90551Y16256
X91821Y16256
X93091Y16256
X93726Y15621
X85090Y14224
X98171Y17653
X96139Y16510
X101727Y6096
X83566Y32385
X98044Y9652
X95123Y7747
X95504Y3683
X85344Y8890
X88011Y3683
X81280Y10160
X96774Y14224
X90424Y5842
X95250Y9398
X84074Y13208
X79121Y36068
X86995Y21336
X86995Y22352
X88011Y22352
X89027Y22352
X88011Y21336
X89027Y21336
X81280Y11176
X83820Y31115
X87884Y2667
X96774Y13208
X89154Y3722
X87884Y7844
X92964Y7874
X92837Y30861
X88392Y39243
X90424Y33655
X86995Y24384
X120142Y5715
X119507Y25400
X117602Y25400
X115189Y25400
X113157Y25400
X113157Y29845
X114808Y29845
X118237Y29845
X119253Y29845
X119253Y31750
X118110Y31750
X113665Y31750
X113157Y37465
X118110Y35814
X118999Y35814
X110998Y18796
X116332Y11176
X119507Y14097
X127635Y11430
X127635Y13970
X106172Y7620
X104902Y11430
X104902Y13970
X104902Y18796
X116459Y19685
X121031Y19685
X116332Y27559
X106934Y34036
X104902Y34925
X109347Y37846
X106172Y38989
X108204Y38989
X125095Y39370
X126619Y39370
X127889Y37846
X123317Y37846
X126238Y34544
X121920Y23241
X113919Y16256
X117221Y23241
X119126Y21082
X118745Y18415
X121158Y15875
X115189Y16256
X116459Y16256
X117729Y16256
X118999Y16256
X119634Y15621
X110998Y14224
X124079Y17653
X122047Y16510
X127635Y6096
X109474Y32385
X123952Y9652
X121031Y7747
X121412Y3683
X111252Y8890
X113919Y3683
X107188Y10160
X122682Y14224
X116332Y5842
X121158Y9398
X109982Y13208
X105029Y36068
X112903Y21336
X112903Y22352
X113919Y22352
X114935Y22352
X113919Y21336
X114935Y21336
X107188Y11176
X109728Y31115
X113792Y2667
X122682Y13208
X115062Y3722
X113792Y7844
X118872Y7874
X118745Y30861
X114300Y39243
X116332Y33655
X112903Y24384
X146050Y5715
X145415Y25400
X143510Y25400
X141097Y25400
X139065Y25400
X139065Y29845
X140716Y29845
X144145Y29845
X145161Y29845
X145161Y31750
X144018Y31750
X139573Y31750
X139065Y37465
X144018Y35814
X144907Y35814
X136906Y18796
X142240Y11176
X145415Y14097
X153543Y11430
X153543Y13970
X132080Y7620
X130810Y11430
X130810Y13970
X130810Y18796
X142367Y19685
X146939Y19685
X142240Y27559
X132842Y34036
X130810Y34925
X135255Y37846
X132080Y38989
X134112Y38989
X151003Y39370
X152527Y39370
X153797Y37846
X149225Y37846
X152146Y34544
X147828Y23241
X139827Y16256
X143129Y23241
X145034Y21082
X144653Y18415
X147066Y15875
X141097Y16256
X142367Y16256
X143637Y16256
X144907Y16256
X145542Y15621
X136906Y14224
X149987Y17653
X147955Y16510
X153543Y6096
X135382Y32385
X149860Y9652
X146939Y7747
X147320Y3683
X137160Y8890
X139827Y3683
X133096Y10160
X148590Y14224
X142240Y5842
X147066Y9398
X135890Y13208
X130937Y36068
X138811Y21336
X138811Y22352
X139827Y22352
X140843Y22352
X139827Y21336
X140843Y21336
X133096Y11176
X135636Y31115
X139700Y2667
X148590Y13208
X140970Y3722
X139700Y7844
X144780Y7874
X144653Y30861
X140208Y39243
X142240Y33655
X138811Y24384
X16510Y46863
X15875Y66548
X13970Y66548
X11557Y66548
X9525Y66548
X9525Y70993
X11176Y70993
X14605Y70993
X15621Y70993
X15621Y72898
X14478Y72898
X10033Y72898
X9525Y78613
X14478Y76962
X15367Y76962
X7366Y59944
X12700Y52324
X15875Y55245
X24003Y52578
X24003Y55118
X2540Y48768
X1270Y52578
X1270Y55118
X1270Y59944
X12827Y60833
X17399Y60833
X12700Y68707
X3302Y75184
X1270Y76073
X5715Y78994
X2540Y80137
X4572Y80137
X21463Y80518
X22987Y80518
X24257Y78994
X19685Y78994
X22606Y75692
X18288Y64389
X10287Y57404
X13589Y64389
X15494Y62230
X15113Y59563
X17526Y57023
X11557Y57404
X12827Y57404
X14097Y57404
X15367Y57404
X16002Y56769
X7366Y55372
X20447Y58801
X18415Y57658
X24003Y47244
X5842Y73533
X20320Y50800
X17399Y48895
X17780Y44831
X7620Y50038
X10287Y44831
X3556Y51308
X19050Y55372
X12700Y46990
X17526Y50546
X6350Y54356
X1397Y77216
X9271Y62484
X9271Y63500
X10287Y63500
X11303Y63500
X10287Y62484
X11303Y62484
X3556Y52324
X6096Y72263
X10160Y43815
X19050Y54356
X11430Y44870
X10160Y48992
X15240Y49022
X15113Y72009
X10668Y80391
X12700Y74803
X9271Y65532
X42418Y46863
X41783Y66548
X39878Y66548
X37465Y66548
X35433Y66548
X35433Y70993
X37084Y70993
X40513Y70993
X41529Y70993
X41529Y72898
X40386Y72898
X35941Y72898
X35433Y78613
X40386Y76962
X41275Y76962
X35179Y21336
X38608Y52324
X41783Y55245
X49911Y52578
X49911Y55118
X28448Y48768
X27178Y52578
X27178Y55118
X27178Y59944
X38735Y60833
X43307Y60833
X38608Y68707
X29210Y75184
X27178Y76073
X31623Y78994
X28448Y80137
X30480Y80137
X47371Y80518
X48895Y80518
X50165Y78994
X45593Y78994
X48514Y75692
X44196Y64389
X36195Y57404
X39497Y64389
X41402Y62230
X41021Y59563
X43434Y57023
X37465Y57404
X38735Y57404
X40005Y57404
X41275Y57404
X41910Y56769
X33274Y55372
X46355Y58801
X44323Y57658
X49911Y47244
X31750Y73533
X46228Y50800
X43307Y48895
X43688Y44831
X33528Y50038
X36195Y44831
X29464Y51308
X44958Y55372
X38608Y46990
X43434Y50546
X32258Y54356
X27305Y77216
X35179Y62484
X35179Y63500
X36195Y63500
X37211Y63500
X36195Y62484
X37211Y62484
X29464Y52324
X32004Y72263
X36068Y43815
X44958Y54356
X37338Y44870
X36068Y48992
X41148Y49022
X41021Y72009
X36576Y80391
X38608Y74803
X35179Y65532
X68326Y46863
X67691Y66548
X65786Y66548
X63373Y66548
X61341Y66548
X61341Y70993
X62992Y70993
X66421Y70993
X67437Y70993
X67437Y72898
X66294Y72898
X61849Y72898
X61341Y78613
X66294Y76962
X67183Y76962
X59182Y59944
X64516Y52324
X67691Y55245
X75819Y52578
X75819Y55118
X54356Y48768
X53086Y52578
X53086Y55118
X53086Y59944
X64643Y60833
X69215Y60833
X64516Y68707
X55118Y75184
X53086Y76073
X57531Y78994
X54356Y80137
X56388Y80137
X73279Y80518
X74803Y80518
X76073Y78994
X71501Y78994
X74422Y75692
X70104Y64389
X62103Y57404
X65405Y64389
X67310Y62230
X66929Y59563
X69342Y57023
X63373Y57404
X64643Y57404
X65913Y57404
X67183Y57404
X67818Y56769
X59182Y55372
X72263Y58801
X70231Y57658
X75819Y47244
X57658Y73533
X72136Y50800
X69215Y48895
X69596Y44831
X59436Y50038
X62103Y44831
X55372Y51308
X70866Y55372
X64516Y46990
X69342Y50546
X58166Y54356
X53213Y77216
X61087Y62484
X61087Y63500
X62103Y63500
X63119Y63500
X62103Y62484
X63119Y62484
X55372Y52324
X57912Y72263
X61976Y43815
X70866Y54356
X63246Y44870
X61976Y48992
X67056Y49022
X66929Y72009
X62484Y80391
X64516Y74803
X61087Y65532
X94234Y46863
X93599Y66548
X91694Y66548
X89281Y66548
X87249Y66548
X87249Y70993
X88900Y70993
X92329Y70993
X93345Y70993
X93345Y72898
X92202Y72898
X87757Y72898
X87249Y78613
X92202Y76962
X93091Y76962
X85090Y59944
X90424Y52324
X93599Y55245
X101727Y52578
X101727Y55118
X80264Y48768
X78994Y52578
X78994Y55118
X78994Y59944
X90551Y60833
X95123Y60833
X90424Y68707
X81026Y75184
X78994Y76073
X83439Y78994
X80264Y80137
X82296Y80137
X99187Y80518
X100711Y80518
X101981Y78994
X97409Y78994
X100330Y75692
X96012Y64389
X88011Y57404
X91313Y64389
X93218Y62230
X92837Y59563
X95250Y57023
X89281Y57404
X90551Y57404
X91821Y57404
X93091Y57404
X93726Y56769
X85090Y55372
X98171Y58801
X96139Y57658
X101727Y47244
X83566Y73533
X98044Y50800
X95123Y48895
X95504Y44831
X85344Y50038
X88011Y44831
X81280Y51308
X96774Y55372
X90424Y46990
X95250Y50546
X84074Y54356
X79121Y77216
X86995Y62484
X86995Y63500
X88011Y63500
X89027Y63500
X88011Y62484
X89027Y62484
X81280Y52324
X83820Y72263
X87884Y43815
X96774Y54356
X89154Y44870
X87884Y48992
X92964Y49022
X92837Y72009
X88392Y80391
X90424Y74803
X86995Y65532
X120142Y46863
X119507Y66548
X117602Y66548
X115189Y66548
X113157Y66548
X113157Y70993
X114808Y70993
X118237Y70993
X119253Y70993
X119253Y72898
X118110Y72898
X113665Y72898
X113157Y78613
X118110Y76962
X118999Y76962
X110998Y59944
X116332Y52324
X119507Y55245
X127635Y52578
X127635Y55118
X106172Y48768
X104902Y52578
X104902Y55118
X104902Y59944
X116459Y60833
X121031Y60833
X116332Y68707
X106934Y75184
X104902Y76073
X109347Y78994
X106172Y80137
X108204Y80137
X125095Y80518
X126619Y80518
X127889Y78994
X123317Y78994
X126238Y75692
X121920Y64389
X113919Y57404
X117221Y64389
X119126Y62230
X118745Y59563
X121158Y57023
X115189Y57404
X116459Y57404
X117729Y57404
X118999Y57404
X119634Y56769
X110998Y55372
X124079Y58801
X122047Y57658
X127635Y47244
X109474Y73533
X123952Y50800
X121031Y48895
X121412Y44831
X111252Y50038
X113919Y44831
X107188Y51308
X122682Y55372
X116332Y46990
X121158Y50546
X109982Y54356
X16510Y5715
X112903Y62484
X112903Y63500
X113919Y63500
X114935Y63500
X113919Y62484
X114935Y62484
X107188Y52324
X109728Y72263
X113792Y43815
X122682Y54356
X115062Y44870
X113792Y48992
X118872Y49022
X118745Y72009
X114300Y80391
X116332Y74803
X112903Y65532
X146050Y46863
X145415Y66548
X143510Y66548
X141097Y66548
X139065Y66548
X139065Y70993
X140716Y70993
X144145Y70993
X145161Y70993
X145161Y72898
X144018Y72898
X139573Y72898
X139065Y78613
X144018Y76962
X144907Y76962
X136906Y59944
X142240Y52324
X145415Y55245
X153543Y52578
X153543Y55118
X132080Y48768
X130810Y52578
X130810Y55118
X130810Y59944
X142367Y60833
X146939Y60833
X142240Y68707
X132842Y75184
X130810Y76073
X135255Y78994
X132080Y80137
X134112Y80137
X151003Y80518
X152527Y80518
X153797Y78994
X149225Y78994
X152146Y75692
X147828Y64389
X139827Y57404
X143129Y64389
X145034Y62230
X144653Y59563
X147066Y57023
X141097Y57404
X142367Y57404
X143637Y57404
X144907Y57404
X145542Y56769
X136906Y55372
X149987Y58801
X147955Y57658
X153543Y47244
X135382Y73533
X149860Y50800
X146939Y48895
X147320Y44831
X137160Y50038
X139827Y44831
X133096Y51308
X148590Y55372
X142240Y46990
X147066Y50546
X135890Y54356
X130937Y77216
X138811Y62484
X138811Y63500
X139827Y63500
X140843Y63500
X139827Y62484
X140843Y62484
X133096Y52324
X135636Y72263
X139700Y43815
X148590Y54356
X140970Y44870
X139700Y48992
X144780Y49022
X144653Y72009
X140208Y80391
X142240Y74803
X138811Y65532
X15875Y25400
X13970Y25400
X11557Y25400
X9525Y25400
X9525Y29845
X11176Y29845
X14605Y29845
X15621Y29845
X15621Y31750
X14478Y31750
X10033Y31750
X9525Y37465
X14478Y35814
X15367Y35814
X7366Y18796
X12700Y11176
X15875Y14097
X24003Y11430
X24003Y13970
X2540Y7620
X1270Y11430
X1270Y13970
X1270Y18796
X12827Y19685
X17399Y19685
X12700Y27559
X3302Y34036
X1270Y34925
X5715Y37846
X2540Y38989
X4572Y38989
X21463Y39370
X22987Y39370
X24257Y37846
X19685Y37846
X22606Y34544
X18288Y23241
X10287Y16256
X13589Y23241
X15494Y21082
X15113Y18415
X17526Y15875
X11557Y16256
X12827Y16256
X14097Y16256
X15367Y16256
X33274Y59944
X16002Y15621
X7366Y14224
X20447Y17653
X18415Y16510
X24003Y6096
X5842Y32385
X20320Y9652
X17399Y7747
X17780Y3683
X7620Y8890
X10287Y3683
X3556Y10160
X19050Y14224
X12700Y5842
X17526Y9398
X6350Y13208
X1397Y36068
X9271Y21336
X9271Y22352
X10287Y22352
X11303Y22352
X10287Y21336
X11303Y21336
X3556Y11176
X6096Y31115
X10160Y2667
X19050Y13208
X11430Y3722
X10160Y7844
X15240Y7874
X15113Y30861
X10668Y39243
X12700Y33655
X9271Y24384
X42418Y5715
X41783Y25400
X39878Y25400
X37465Y25400
X35433Y25400
X35433Y29845
X37084Y29845
X40513Y29845
X41529Y29845
X41529Y31750
X40386Y31750
X35941Y31750
X35433Y37465
X40386Y35814
X41275Y35814
X33274Y18796
X38608Y11176
X41783Y14097
X49911Y11430
X49911Y13970
X28448Y7620
X27178Y11430
X27178Y13970
X27178Y18796
X38735Y19685
X43307Y19685
X38608Y27559
X29210Y34036
X27178Y34925
X31623Y37846
X28448Y38989
X30480Y38989
X47371Y39370
X48895Y39370
X50165Y37846
X45593Y37846
X48514Y34544
X44196Y23241
X36195Y16256
X39497Y23241
X41402Y21082
X41021Y18415
X43434Y15875
X37465Y16256
X38735Y16256
X40005Y16256
X41275Y16256
X41910Y15621
X33274Y14224
X46355Y17653
X44323Y16510
X49911Y6096
X31750Y32385
X46228Y9652
X43307Y7747
X43688Y3683
X33528Y8890
X36195Y3683
X29464Y10160
X44958Y14224
X38608Y5842
X43434Y9398
X32258Y13208
X27305Y36068
X35179Y22352
X36195Y22352
X37211Y22352
X36195Y21336
X37211Y21336
X29464Y11176
X32004Y31115
X36068Y2667
X44958Y13208
X37338Y3722
X36068Y7844
X41148Y7874
X41021Y30861
X36576Y39243
X38608Y33655
X35179Y24384
X68326Y5715
X67691Y25400
X65786Y25400
X63373Y25400
X61341Y25400
X61341Y29845
X62992Y29845
X66421Y29845
X67437Y29845
X67437Y31750
X66294Y31750
X61849Y31750
X61341Y37465
X66294Y35814
X67183Y35814
X59182Y18796
X64516Y11176
X67691Y14097
X75819Y11430
X75819Y13970
X54356Y7620
X53086Y11430
X53086Y13970
X53086Y18796
X64643Y19685
X69215Y19685
X64516Y27559
X55118Y34036
X53086Y34925
X57531Y37846
X105029Y77216
M30