G04 EAGLE Gerber RS-274X export*
G75*
%MOMM*%
%FSLAX34Y34*%
%LPD*%
%INSoldermask Top*%
%IPPOS*%
%AMOC8*
5,1,8,0,0,1.08239X$1,22.5*%
G01*
%ADD10R,1.900000X2.200000*%
%ADD11R,1.900000X1.600000*%
%ADD12R,2.890000X3.000000*%
%ADD13R,3.050000X2.800000*%
%ADD14C,0.257147*%
%ADD15C,0.243431*%
%ADD16C,0.255816*%
%ADD17C,0.250078*%
%ADD18C,0.253525*%
%ADD19C,0.250366*%
%ADD20C,3.454400*%
%ADD21C,0.787400*%
%ADD22C,0.248381*%
%ADD23C,2.032000*%
%ADD24C,0.449434*%
%ADD25C,1.152400*%
%ADD26C,1.270000*%
%ADD27C,1.652400*%


D10*
X76500Y361950D03*
D11*
X76500Y336550D03*
X76500Y311150D03*
X76500Y285750D03*
D10*
X76500Y260350D03*
D12*
X102850Y275650D03*
D13*
X104550Y349250D03*
X149450Y337750D03*
D12*
X151150Y275650D03*
D10*
X177500Y361950D03*
D11*
X177500Y336550D03*
X177500Y311150D03*
X177500Y285750D03*
D10*
X177500Y260350D03*
D14*
X143287Y151527D02*
X136333Y151527D01*
X143287Y151527D02*
X143287Y140573D01*
X136333Y140573D01*
X136333Y151527D01*
X136333Y143015D02*
X143287Y143015D01*
X143287Y145457D02*
X136333Y145457D01*
X136333Y147899D02*
X143287Y147899D01*
X143287Y150341D02*
X136333Y150341D01*
X125287Y151527D02*
X118333Y151527D01*
X125287Y151527D02*
X125287Y140573D01*
X118333Y140573D01*
X118333Y151527D01*
X118333Y143015D02*
X125287Y143015D01*
X125287Y145457D02*
X118333Y145457D01*
X118333Y147899D02*
X125287Y147899D01*
X125287Y150341D02*
X118333Y150341D01*
D15*
X4505Y149455D02*
X4505Y160545D01*
X23595Y160545D01*
X23595Y149455D01*
X4505Y149455D01*
X4505Y151767D02*
X23595Y151767D01*
X23595Y154079D02*
X4505Y154079D01*
X4505Y156391D02*
X23595Y156391D01*
X23595Y158703D02*
X4505Y158703D01*
X4505Y104545D02*
X4505Y93455D01*
X4505Y104545D02*
X23595Y104545D01*
X23595Y93455D01*
X4505Y93455D01*
X4505Y95767D02*
X23595Y95767D01*
X23595Y98079D02*
X4505Y98079D01*
X4505Y100391D02*
X23595Y100391D01*
X23595Y102703D02*
X4505Y102703D01*
D16*
X44567Y139517D02*
X44567Y144483D01*
X57033Y144483D01*
X57033Y139517D01*
X44567Y139517D01*
X44567Y141947D02*
X57033Y141947D01*
X57033Y144377D02*
X44567Y144377D01*
X44567Y134483D02*
X44567Y129517D01*
X44567Y134483D02*
X57033Y134483D01*
X57033Y129517D01*
X44567Y129517D01*
X44567Y131947D02*
X57033Y131947D01*
X57033Y134377D02*
X44567Y134377D01*
X44567Y124483D02*
X44567Y119517D01*
X44567Y124483D02*
X57033Y124483D01*
X57033Y119517D01*
X44567Y119517D01*
X44567Y121947D02*
X57033Y121947D01*
X57033Y124377D02*
X44567Y124377D01*
X44567Y114483D02*
X44567Y109517D01*
X44567Y114483D02*
X57033Y114483D01*
X57033Y109517D01*
X44567Y109517D01*
X44567Y111947D02*
X57033Y111947D01*
X57033Y114377D02*
X44567Y114377D01*
D15*
X249495Y104545D02*
X249495Y93455D01*
X230405Y93455D01*
X230405Y104545D01*
X249495Y104545D01*
X249495Y95767D02*
X230405Y95767D01*
X230405Y98079D02*
X249495Y98079D01*
X249495Y100391D02*
X230405Y100391D01*
X230405Y102703D02*
X249495Y102703D01*
X249495Y149455D02*
X249495Y160545D01*
X249495Y149455D02*
X230405Y149455D01*
X230405Y160545D01*
X249495Y160545D01*
X249495Y151767D02*
X230405Y151767D01*
X230405Y154079D02*
X249495Y154079D01*
X249495Y156391D02*
X230405Y156391D01*
X230405Y158703D02*
X249495Y158703D01*
D16*
X209433Y114483D02*
X209433Y109517D01*
X196967Y109517D01*
X196967Y114483D01*
X209433Y114483D01*
X209433Y111947D02*
X196967Y111947D01*
X196967Y114377D02*
X209433Y114377D01*
X209433Y119517D02*
X209433Y124483D01*
X209433Y119517D02*
X196967Y119517D01*
X196967Y124483D01*
X209433Y124483D01*
X209433Y121947D02*
X196967Y121947D01*
X196967Y124377D02*
X209433Y124377D01*
X209433Y129517D02*
X209433Y134483D01*
X209433Y129517D02*
X196967Y129517D01*
X196967Y134483D01*
X209433Y134483D01*
X209433Y131947D02*
X196967Y131947D01*
X196967Y134377D02*
X209433Y134377D01*
X209433Y139517D02*
X209433Y144483D01*
X209433Y139517D02*
X196967Y139517D01*
X196967Y144483D01*
X209433Y144483D01*
X209433Y141947D02*
X196967Y141947D01*
X196967Y144377D02*
X209433Y144377D01*
D17*
X121023Y121143D02*
X106911Y121143D01*
X106911Y126457D01*
X121023Y126457D01*
X121023Y121143D01*
X121023Y123519D02*
X106911Y123519D01*
X106911Y125895D02*
X121023Y125895D01*
X121023Y111643D02*
X106911Y111643D01*
X106911Y116957D01*
X121023Y116957D01*
X121023Y111643D01*
X121023Y114019D02*
X106911Y114019D01*
X106911Y116395D02*
X121023Y116395D01*
X121023Y102143D02*
X106911Y102143D01*
X106911Y107457D01*
X121023Y107457D01*
X121023Y102143D01*
X121023Y104519D02*
X106911Y104519D01*
X106911Y106895D02*
X121023Y106895D01*
X132977Y102143D02*
X147089Y102143D01*
X132977Y102143D02*
X132977Y107457D01*
X147089Y107457D01*
X147089Y102143D01*
X147089Y104519D02*
X132977Y104519D01*
X132977Y106895D02*
X147089Y106895D01*
X147089Y121143D02*
X132977Y121143D01*
X132977Y126457D01*
X147089Y126457D01*
X147089Y121143D01*
X147089Y123519D02*
X132977Y123519D01*
X132977Y125895D02*
X147089Y125895D01*
D14*
X180737Y126557D02*
X180737Y119603D01*
X169783Y119603D01*
X169783Y126557D01*
X180737Y126557D01*
X180737Y122045D02*
X169783Y122045D01*
X169783Y124487D02*
X180737Y124487D01*
X180737Y137603D02*
X180737Y144557D01*
X180737Y137603D02*
X169783Y137603D01*
X169783Y144557D01*
X180737Y144557D01*
X180737Y140045D02*
X169783Y140045D01*
X169783Y142487D02*
X180737Y142487D01*
D18*
X91845Y167055D02*
X81855Y167055D01*
X91845Y167055D02*
X91845Y158065D01*
X81855Y158065D01*
X81855Y167055D01*
X81855Y160473D02*
X91845Y160473D01*
X91845Y162881D02*
X81855Y162881D01*
X81855Y165289D02*
X91845Y165289D01*
X74845Y167055D02*
X64855Y167055D01*
X74845Y167055D02*
X74845Y158065D01*
X64855Y158065D01*
X64855Y167055D01*
X64855Y160473D02*
X74845Y160473D01*
X74845Y162881D02*
X64855Y162881D01*
X64855Y165289D02*
X74845Y165289D01*
X90755Y127795D02*
X90755Y117805D01*
X90755Y127795D02*
X99745Y127795D01*
X99745Y117805D01*
X90755Y117805D01*
X90755Y120213D02*
X99745Y120213D01*
X99745Y122621D02*
X90755Y122621D01*
X90755Y125029D02*
X99745Y125029D01*
X99745Y127437D02*
X90755Y127437D01*
X90755Y110795D02*
X90755Y100805D01*
X90755Y110795D02*
X99745Y110795D01*
X99745Y100805D01*
X90755Y100805D01*
X90755Y103213D02*
X99745Y103213D01*
X99745Y105621D02*
X90755Y105621D01*
X90755Y108029D02*
X99745Y108029D01*
X99745Y110437D02*
X90755Y110437D01*
X80695Y110795D02*
X80695Y100805D01*
X71705Y100805D01*
X71705Y110795D01*
X80695Y110795D01*
X80695Y103213D02*
X71705Y103213D01*
X71705Y105621D02*
X80695Y105621D01*
X80695Y108029D02*
X71705Y108029D01*
X71705Y110437D02*
X80695Y110437D01*
X80695Y117805D02*
X80695Y127795D01*
X80695Y117805D02*
X71705Y117805D01*
X71705Y127795D01*
X80695Y127795D01*
X80695Y120213D02*
X71705Y120213D01*
X71705Y122621D02*
X80695Y122621D01*
X80695Y125029D02*
X71705Y125029D01*
X71705Y127437D02*
X80695Y127437D01*
X107391Y93395D02*
X117381Y93395D01*
X117381Y84405D01*
X107391Y84405D01*
X107391Y93395D01*
X107391Y86813D02*
X117381Y86813D01*
X117381Y89221D02*
X107391Y89221D01*
X107391Y91629D02*
X117381Y91629D01*
X100381Y93395D02*
X90391Y93395D01*
X100381Y93395D02*
X100381Y84405D01*
X90391Y84405D01*
X90391Y93395D01*
X90391Y86813D02*
X100381Y86813D01*
X100381Y89221D02*
X90391Y89221D01*
X90391Y91629D02*
X100381Y91629D01*
D19*
X88950Y142390D02*
X83630Y142390D01*
X83630Y149710D01*
X88950Y149710D01*
X88950Y142390D01*
X88950Y144769D02*
X83630Y144769D01*
X83630Y147148D02*
X88950Y147148D01*
X88950Y149527D02*
X83630Y149527D01*
X106630Y142390D02*
X111950Y142390D01*
X106630Y142390D02*
X106630Y149710D01*
X111950Y149710D01*
X111950Y142390D01*
X111950Y144769D02*
X106630Y144769D01*
X106630Y147148D02*
X111950Y147148D01*
X111950Y149527D02*
X106630Y149527D01*
D18*
X163245Y110795D02*
X163245Y100805D01*
X154255Y100805D01*
X154255Y110795D01*
X163245Y110795D01*
X163245Y103213D02*
X154255Y103213D01*
X154255Y105621D02*
X163245Y105621D01*
X163245Y108029D02*
X154255Y108029D01*
X154255Y110437D02*
X163245Y110437D01*
X163245Y117805D02*
X163245Y127795D01*
X163245Y117805D02*
X154255Y117805D01*
X154255Y127795D01*
X163245Y127795D01*
X163245Y120213D02*
X154255Y120213D01*
X154255Y122621D02*
X163245Y122621D01*
X163245Y125029D02*
X154255Y125029D01*
X154255Y127437D02*
X163245Y127437D01*
D20*
X25400Y25400D03*
X228600Y25400D03*
X25400Y228600D03*
X228600Y228600D03*
D21*
X6350Y400050D03*
X247650Y6350D03*
D22*
X117520Y203370D02*
X88480Y203370D01*
X117520Y203370D02*
X117520Y190330D01*
X88480Y190330D01*
X88480Y203370D01*
X88480Y192690D02*
X117520Y192690D01*
X117520Y195050D02*
X88480Y195050D01*
X88480Y197410D02*
X117520Y197410D01*
X117520Y199770D02*
X88480Y199770D01*
X88480Y202130D02*
X117520Y202130D01*
X136480Y203370D02*
X165520Y203370D01*
X165520Y190330D01*
X136480Y190330D01*
X136480Y203370D01*
X136480Y192690D02*
X165520Y192690D01*
X165520Y195050D02*
X136480Y195050D01*
X136480Y197410D02*
X165520Y197410D01*
X165520Y199770D02*
X136480Y199770D01*
X136480Y202130D02*
X165520Y202130D01*
D18*
X234365Y356075D02*
X234365Y366065D01*
X234365Y356075D02*
X225375Y356075D01*
X225375Y366065D01*
X234365Y366065D01*
X234365Y358483D02*
X225375Y358483D01*
X225375Y360891D02*
X234365Y360891D01*
X234365Y363299D02*
X225375Y363299D01*
X225375Y365707D02*
X234365Y365707D01*
X234365Y373075D02*
X234365Y383065D01*
X234365Y373075D02*
X225375Y373075D01*
X225375Y383065D01*
X234365Y383065D01*
X234365Y375483D02*
X225375Y375483D01*
X225375Y377891D02*
X234365Y377891D01*
X234365Y380299D02*
X225375Y380299D01*
X225375Y382707D02*
X234365Y382707D01*
X214045Y366065D02*
X214045Y356075D01*
X205055Y356075D01*
X205055Y366065D01*
X214045Y366065D01*
X214045Y358483D02*
X205055Y358483D01*
X205055Y360891D02*
X214045Y360891D01*
X214045Y363299D02*
X205055Y363299D01*
X205055Y365707D02*
X214045Y365707D01*
X214045Y373075D02*
X214045Y383065D01*
X214045Y373075D02*
X205055Y373075D01*
X205055Y383065D01*
X214045Y383065D01*
X214045Y375483D02*
X205055Y375483D01*
X205055Y377891D02*
X214045Y377891D01*
X214045Y380299D02*
X205055Y380299D01*
X205055Y382707D02*
X214045Y382707D01*
X50215Y366065D02*
X50215Y356075D01*
X41225Y356075D01*
X41225Y366065D01*
X50215Y366065D01*
X50215Y358483D02*
X41225Y358483D01*
X41225Y360891D02*
X50215Y360891D01*
X50215Y363299D02*
X41225Y363299D01*
X41225Y365707D02*
X50215Y365707D01*
X50215Y373075D02*
X50215Y383065D01*
X50215Y373075D02*
X41225Y373075D01*
X41225Y383065D01*
X50215Y383065D01*
X50215Y375483D02*
X41225Y375483D01*
X41225Y377891D02*
X50215Y377891D01*
X50215Y380299D02*
X41225Y380299D01*
X41225Y382707D02*
X50215Y382707D01*
X29895Y366065D02*
X29895Y356075D01*
X20905Y356075D01*
X20905Y366065D01*
X29895Y366065D01*
X29895Y358483D02*
X20905Y358483D01*
X20905Y360891D02*
X29895Y360891D01*
X29895Y363299D02*
X20905Y363299D01*
X20905Y365707D02*
X29895Y365707D01*
X29895Y373075D02*
X29895Y383065D01*
X29895Y373075D02*
X20905Y373075D01*
X20905Y383065D01*
X29895Y383065D01*
X29895Y375483D02*
X20905Y375483D01*
X20905Y377891D02*
X29895Y377891D01*
X29895Y380299D02*
X20905Y380299D01*
X20905Y382707D02*
X29895Y382707D01*
X156895Y54915D02*
X156895Y44925D01*
X147905Y44925D01*
X147905Y54915D01*
X156895Y54915D01*
X156895Y47333D02*
X147905Y47333D01*
X147905Y49741D02*
X156895Y49741D01*
X156895Y52149D02*
X147905Y52149D01*
X147905Y54557D02*
X156895Y54557D01*
X156895Y61925D02*
X156895Y71915D01*
X156895Y61925D02*
X147905Y61925D01*
X147905Y71915D01*
X156895Y71915D01*
X156895Y64333D02*
X147905Y64333D01*
X147905Y66741D02*
X156895Y66741D01*
X156895Y69149D02*
X147905Y69149D01*
X147905Y71557D02*
X156895Y71557D01*
X106095Y54915D02*
X106095Y44925D01*
X97105Y44925D01*
X97105Y54915D01*
X106095Y54915D01*
X106095Y47333D02*
X97105Y47333D01*
X97105Y49741D02*
X106095Y49741D01*
X106095Y52149D02*
X97105Y52149D01*
X97105Y54557D02*
X106095Y54557D01*
X106095Y61925D02*
X106095Y71915D01*
X106095Y61925D02*
X97105Y61925D01*
X97105Y71915D01*
X106095Y71915D01*
X106095Y64333D02*
X97105Y64333D01*
X97105Y66741D02*
X106095Y66741D01*
X106095Y69149D02*
X97105Y69149D01*
X97105Y71557D02*
X106095Y71557D01*
D23*
X190500Y12700D03*
X165100Y12700D03*
X139700Y12700D03*
X114300Y12700D03*
X88900Y12700D03*
X63500Y12700D03*
X12700Y317500D03*
X12700Y292100D03*
X12700Y266700D03*
X241300Y317500D03*
X241300Y292100D03*
X241300Y266700D03*
D18*
X140495Y396925D02*
X130505Y396925D01*
X140495Y396925D02*
X140495Y387935D01*
X130505Y387935D01*
X130505Y396925D01*
X130505Y390343D02*
X140495Y390343D01*
X140495Y392751D02*
X130505Y392751D01*
X130505Y395159D02*
X140495Y395159D01*
X123495Y396925D02*
X113505Y396925D01*
X123495Y396925D02*
X123495Y387935D01*
X113505Y387935D01*
X113505Y396925D01*
X113505Y390343D02*
X123495Y390343D01*
X123495Y392751D02*
X113505Y392751D01*
X113505Y395159D02*
X123495Y395159D01*
D24*
X172895Y395945D02*
X172895Y388915D01*
X172895Y395945D02*
X179925Y395945D01*
X179925Y388915D01*
X172895Y388915D01*
X172895Y393184D02*
X179925Y393184D01*
X155355Y395945D02*
X155355Y388915D01*
X155355Y395945D02*
X162385Y395945D01*
X162385Y388915D01*
X155355Y388915D01*
X155355Y393184D02*
X162385Y393184D01*
D18*
X99855Y396925D02*
X89865Y396925D01*
X99855Y396925D02*
X99855Y387935D01*
X89865Y387935D01*
X89865Y396925D01*
X89865Y390343D02*
X99855Y390343D01*
X99855Y392751D02*
X89865Y392751D01*
X89865Y395159D02*
X99855Y395159D01*
X82855Y396925D02*
X72865Y396925D01*
X82855Y396925D02*
X82855Y387935D01*
X72865Y387935D01*
X72865Y396925D01*
X72865Y390343D02*
X82855Y390343D01*
X82855Y392751D02*
X72865Y392751D01*
X72865Y395159D02*
X82855Y395159D01*
D10*
X335580Y361950D03*
D11*
X335580Y336550D03*
X335580Y311150D03*
X335580Y285750D03*
D10*
X335580Y260350D03*
D12*
X361930Y275650D03*
D13*
X363630Y349250D03*
X408530Y337750D03*
D12*
X410230Y275650D03*
D10*
X436580Y361950D03*
D11*
X436580Y336550D03*
X436580Y311150D03*
X436580Y285750D03*
D10*
X436580Y260350D03*
D14*
X402367Y151527D02*
X395413Y151527D01*
X402367Y151527D02*
X402367Y140573D01*
X395413Y140573D01*
X395413Y151527D01*
X395413Y143015D02*
X402367Y143015D01*
X402367Y145457D02*
X395413Y145457D01*
X395413Y147899D02*
X402367Y147899D01*
X402367Y150341D02*
X395413Y150341D01*
X384367Y151527D02*
X377413Y151527D01*
X384367Y151527D02*
X384367Y140573D01*
X377413Y140573D01*
X377413Y151527D01*
X377413Y143015D02*
X384367Y143015D01*
X384367Y145457D02*
X377413Y145457D01*
X377413Y147899D02*
X384367Y147899D01*
X384367Y150341D02*
X377413Y150341D01*
D15*
X263585Y149455D02*
X263585Y160545D01*
X282675Y160545D01*
X282675Y149455D01*
X263585Y149455D01*
X263585Y151767D02*
X282675Y151767D01*
X282675Y154079D02*
X263585Y154079D01*
X263585Y156391D02*
X282675Y156391D01*
X282675Y158703D02*
X263585Y158703D01*
X263585Y104545D02*
X263585Y93455D01*
X263585Y104545D02*
X282675Y104545D01*
X282675Y93455D01*
X263585Y93455D01*
X263585Y95767D02*
X282675Y95767D01*
X282675Y98079D02*
X263585Y98079D01*
X263585Y100391D02*
X282675Y100391D01*
X282675Y102703D02*
X263585Y102703D01*
D16*
X303647Y139517D02*
X303647Y144483D01*
X316113Y144483D01*
X316113Y139517D01*
X303647Y139517D01*
X303647Y141947D02*
X316113Y141947D01*
X316113Y144377D02*
X303647Y144377D01*
X303647Y134483D02*
X303647Y129517D01*
X303647Y134483D02*
X316113Y134483D01*
X316113Y129517D01*
X303647Y129517D01*
X303647Y131947D02*
X316113Y131947D01*
X316113Y134377D02*
X303647Y134377D01*
X303647Y124483D02*
X303647Y119517D01*
X303647Y124483D02*
X316113Y124483D01*
X316113Y119517D01*
X303647Y119517D01*
X303647Y121947D02*
X316113Y121947D01*
X316113Y124377D02*
X303647Y124377D01*
X303647Y114483D02*
X303647Y109517D01*
X303647Y114483D02*
X316113Y114483D01*
X316113Y109517D01*
X303647Y109517D01*
X303647Y111947D02*
X316113Y111947D01*
X316113Y114377D02*
X303647Y114377D01*
D15*
X508575Y104545D02*
X508575Y93455D01*
X489485Y93455D01*
X489485Y104545D01*
X508575Y104545D01*
X508575Y95767D02*
X489485Y95767D01*
X489485Y98079D02*
X508575Y98079D01*
X508575Y100391D02*
X489485Y100391D01*
X489485Y102703D02*
X508575Y102703D01*
X508575Y149455D02*
X508575Y160545D01*
X508575Y149455D02*
X489485Y149455D01*
X489485Y160545D01*
X508575Y160545D01*
X508575Y151767D02*
X489485Y151767D01*
X489485Y154079D02*
X508575Y154079D01*
X508575Y156391D02*
X489485Y156391D01*
X489485Y158703D02*
X508575Y158703D01*
D16*
X468513Y114483D02*
X468513Y109517D01*
X456047Y109517D01*
X456047Y114483D01*
X468513Y114483D01*
X468513Y111947D02*
X456047Y111947D01*
X456047Y114377D02*
X468513Y114377D01*
X468513Y119517D02*
X468513Y124483D01*
X468513Y119517D02*
X456047Y119517D01*
X456047Y124483D01*
X468513Y124483D01*
X468513Y121947D02*
X456047Y121947D01*
X456047Y124377D02*
X468513Y124377D01*
X468513Y129517D02*
X468513Y134483D01*
X468513Y129517D02*
X456047Y129517D01*
X456047Y134483D01*
X468513Y134483D01*
X468513Y131947D02*
X456047Y131947D01*
X456047Y134377D02*
X468513Y134377D01*
X468513Y139517D02*
X468513Y144483D01*
X468513Y139517D02*
X456047Y139517D01*
X456047Y144483D01*
X468513Y144483D01*
X468513Y141947D02*
X456047Y141947D01*
X456047Y144377D02*
X468513Y144377D01*
D17*
X380103Y121143D02*
X365991Y121143D01*
X365991Y126457D01*
X380103Y126457D01*
X380103Y121143D01*
X380103Y123519D02*
X365991Y123519D01*
X365991Y125895D02*
X380103Y125895D01*
X380103Y111643D02*
X365991Y111643D01*
X365991Y116957D01*
X380103Y116957D01*
X380103Y111643D01*
X380103Y114019D02*
X365991Y114019D01*
X365991Y116395D02*
X380103Y116395D01*
X380103Y102143D02*
X365991Y102143D01*
X365991Y107457D01*
X380103Y107457D01*
X380103Y102143D01*
X380103Y104519D02*
X365991Y104519D01*
X365991Y106895D02*
X380103Y106895D01*
X392057Y102143D02*
X406169Y102143D01*
X392057Y102143D02*
X392057Y107457D01*
X406169Y107457D01*
X406169Y102143D01*
X406169Y104519D02*
X392057Y104519D01*
X392057Y106895D02*
X406169Y106895D01*
X406169Y121143D02*
X392057Y121143D01*
X392057Y126457D01*
X406169Y126457D01*
X406169Y121143D01*
X406169Y123519D02*
X392057Y123519D01*
X392057Y125895D02*
X406169Y125895D01*
D14*
X439817Y126557D02*
X439817Y119603D01*
X428863Y119603D01*
X428863Y126557D01*
X439817Y126557D01*
X439817Y122045D02*
X428863Y122045D01*
X428863Y124487D02*
X439817Y124487D01*
X439817Y137603D02*
X439817Y144557D01*
X439817Y137603D02*
X428863Y137603D01*
X428863Y144557D01*
X439817Y144557D01*
X439817Y140045D02*
X428863Y140045D01*
X428863Y142487D02*
X439817Y142487D01*
D18*
X350925Y167055D02*
X340935Y167055D01*
X350925Y167055D02*
X350925Y158065D01*
X340935Y158065D01*
X340935Y167055D01*
X340935Y160473D02*
X350925Y160473D01*
X350925Y162881D02*
X340935Y162881D01*
X340935Y165289D02*
X350925Y165289D01*
X333925Y167055D02*
X323935Y167055D01*
X333925Y167055D02*
X333925Y158065D01*
X323935Y158065D01*
X323935Y167055D01*
X323935Y160473D02*
X333925Y160473D01*
X333925Y162881D02*
X323935Y162881D01*
X323935Y165289D02*
X333925Y165289D01*
X349835Y127795D02*
X349835Y117805D01*
X349835Y127795D02*
X358825Y127795D01*
X358825Y117805D01*
X349835Y117805D01*
X349835Y120213D02*
X358825Y120213D01*
X358825Y122621D02*
X349835Y122621D01*
X349835Y125029D02*
X358825Y125029D01*
X358825Y127437D02*
X349835Y127437D01*
X349835Y110795D02*
X349835Y100805D01*
X349835Y110795D02*
X358825Y110795D01*
X358825Y100805D01*
X349835Y100805D01*
X349835Y103213D02*
X358825Y103213D01*
X358825Y105621D02*
X349835Y105621D01*
X349835Y108029D02*
X358825Y108029D01*
X358825Y110437D02*
X349835Y110437D01*
X339775Y110795D02*
X339775Y100805D01*
X330785Y100805D01*
X330785Y110795D01*
X339775Y110795D01*
X339775Y103213D02*
X330785Y103213D01*
X330785Y105621D02*
X339775Y105621D01*
X339775Y108029D02*
X330785Y108029D01*
X330785Y110437D02*
X339775Y110437D01*
X339775Y117805D02*
X339775Y127795D01*
X339775Y117805D02*
X330785Y117805D01*
X330785Y127795D01*
X339775Y127795D01*
X339775Y120213D02*
X330785Y120213D01*
X330785Y122621D02*
X339775Y122621D01*
X339775Y125029D02*
X330785Y125029D01*
X330785Y127437D02*
X339775Y127437D01*
X366471Y93395D02*
X376461Y93395D01*
X376461Y84405D01*
X366471Y84405D01*
X366471Y93395D01*
X366471Y86813D02*
X376461Y86813D01*
X376461Y89221D02*
X366471Y89221D01*
X366471Y91629D02*
X376461Y91629D01*
X359461Y93395D02*
X349471Y93395D01*
X359461Y93395D02*
X359461Y84405D01*
X349471Y84405D01*
X349471Y93395D01*
X349471Y86813D02*
X359461Y86813D01*
X359461Y89221D02*
X349471Y89221D01*
X349471Y91629D02*
X359461Y91629D01*
D19*
X348030Y142390D02*
X342710Y142390D01*
X342710Y149710D01*
X348030Y149710D01*
X348030Y142390D01*
X348030Y144769D02*
X342710Y144769D01*
X342710Y147148D02*
X348030Y147148D01*
X348030Y149527D02*
X342710Y149527D01*
X365710Y142390D02*
X371030Y142390D01*
X365710Y142390D02*
X365710Y149710D01*
X371030Y149710D01*
X371030Y142390D01*
X371030Y144769D02*
X365710Y144769D01*
X365710Y147148D02*
X371030Y147148D01*
X371030Y149527D02*
X365710Y149527D01*
D18*
X422325Y110795D02*
X422325Y100805D01*
X413335Y100805D01*
X413335Y110795D01*
X422325Y110795D01*
X422325Y103213D02*
X413335Y103213D01*
X413335Y105621D02*
X422325Y105621D01*
X422325Y108029D02*
X413335Y108029D01*
X413335Y110437D02*
X422325Y110437D01*
X422325Y117805D02*
X422325Y127795D01*
X422325Y117805D02*
X413335Y117805D01*
X413335Y127795D01*
X422325Y127795D01*
X422325Y120213D02*
X413335Y120213D01*
X413335Y122621D02*
X422325Y122621D01*
X422325Y125029D02*
X413335Y125029D01*
X413335Y127437D02*
X422325Y127437D01*
D20*
X284480Y25400D03*
X487680Y25400D03*
X284480Y228600D03*
X487680Y228600D03*
D21*
X265430Y400050D03*
X506730Y6350D03*
D22*
X376600Y203370D02*
X347560Y203370D01*
X376600Y203370D02*
X376600Y190330D01*
X347560Y190330D01*
X347560Y203370D01*
X347560Y192690D02*
X376600Y192690D01*
X376600Y195050D02*
X347560Y195050D01*
X347560Y197410D02*
X376600Y197410D01*
X376600Y199770D02*
X347560Y199770D01*
X347560Y202130D02*
X376600Y202130D01*
X395560Y203370D02*
X424600Y203370D01*
X424600Y190330D01*
X395560Y190330D01*
X395560Y203370D01*
X395560Y192690D02*
X424600Y192690D01*
X424600Y195050D02*
X395560Y195050D01*
X395560Y197410D02*
X424600Y197410D01*
X424600Y199770D02*
X395560Y199770D01*
X395560Y202130D02*
X424600Y202130D01*
D18*
X493445Y356075D02*
X493445Y366065D01*
X493445Y356075D02*
X484455Y356075D01*
X484455Y366065D01*
X493445Y366065D01*
X493445Y358483D02*
X484455Y358483D01*
X484455Y360891D02*
X493445Y360891D01*
X493445Y363299D02*
X484455Y363299D01*
X484455Y365707D02*
X493445Y365707D01*
X493445Y373075D02*
X493445Y383065D01*
X493445Y373075D02*
X484455Y373075D01*
X484455Y383065D01*
X493445Y383065D01*
X493445Y375483D02*
X484455Y375483D01*
X484455Y377891D02*
X493445Y377891D01*
X493445Y380299D02*
X484455Y380299D01*
X484455Y382707D02*
X493445Y382707D01*
X473125Y366065D02*
X473125Y356075D01*
X464135Y356075D01*
X464135Y366065D01*
X473125Y366065D01*
X473125Y358483D02*
X464135Y358483D01*
X464135Y360891D02*
X473125Y360891D01*
X473125Y363299D02*
X464135Y363299D01*
X464135Y365707D02*
X473125Y365707D01*
X473125Y373075D02*
X473125Y383065D01*
X473125Y373075D02*
X464135Y373075D01*
X464135Y383065D01*
X473125Y383065D01*
X473125Y375483D02*
X464135Y375483D01*
X464135Y377891D02*
X473125Y377891D01*
X473125Y380299D02*
X464135Y380299D01*
X464135Y382707D02*
X473125Y382707D01*
X309295Y366065D02*
X309295Y356075D01*
X300305Y356075D01*
X300305Y366065D01*
X309295Y366065D01*
X309295Y358483D02*
X300305Y358483D01*
X300305Y360891D02*
X309295Y360891D01*
X309295Y363299D02*
X300305Y363299D01*
X300305Y365707D02*
X309295Y365707D01*
X309295Y373075D02*
X309295Y383065D01*
X309295Y373075D02*
X300305Y373075D01*
X300305Y383065D01*
X309295Y383065D01*
X309295Y375483D02*
X300305Y375483D01*
X300305Y377891D02*
X309295Y377891D01*
X309295Y380299D02*
X300305Y380299D01*
X300305Y382707D02*
X309295Y382707D01*
X288975Y366065D02*
X288975Y356075D01*
X279985Y356075D01*
X279985Y366065D01*
X288975Y366065D01*
X288975Y358483D02*
X279985Y358483D01*
X279985Y360891D02*
X288975Y360891D01*
X288975Y363299D02*
X279985Y363299D01*
X279985Y365707D02*
X288975Y365707D01*
X288975Y373075D02*
X288975Y383065D01*
X288975Y373075D02*
X279985Y373075D01*
X279985Y383065D01*
X288975Y383065D01*
X288975Y375483D02*
X279985Y375483D01*
X279985Y377891D02*
X288975Y377891D01*
X288975Y380299D02*
X279985Y380299D01*
X279985Y382707D02*
X288975Y382707D01*
X415975Y54915D02*
X415975Y44925D01*
X406985Y44925D01*
X406985Y54915D01*
X415975Y54915D01*
X415975Y47333D02*
X406985Y47333D01*
X406985Y49741D02*
X415975Y49741D01*
X415975Y52149D02*
X406985Y52149D01*
X406985Y54557D02*
X415975Y54557D01*
X415975Y61925D02*
X415975Y71915D01*
X415975Y61925D02*
X406985Y61925D01*
X406985Y71915D01*
X415975Y71915D01*
X415975Y64333D02*
X406985Y64333D01*
X406985Y66741D02*
X415975Y66741D01*
X415975Y69149D02*
X406985Y69149D01*
X406985Y71557D02*
X415975Y71557D01*
X365175Y54915D02*
X365175Y44925D01*
X356185Y44925D01*
X356185Y54915D01*
X365175Y54915D01*
X365175Y47333D02*
X356185Y47333D01*
X356185Y49741D02*
X365175Y49741D01*
X365175Y52149D02*
X356185Y52149D01*
X356185Y54557D02*
X365175Y54557D01*
X365175Y61925D02*
X365175Y71915D01*
X365175Y61925D02*
X356185Y61925D01*
X356185Y71915D01*
X365175Y71915D01*
X365175Y64333D02*
X356185Y64333D01*
X356185Y66741D02*
X365175Y66741D01*
X365175Y69149D02*
X356185Y69149D01*
X356185Y71557D02*
X365175Y71557D01*
D23*
X449580Y12700D03*
X424180Y12700D03*
X398780Y12700D03*
X373380Y12700D03*
X347980Y12700D03*
X322580Y12700D03*
X271780Y317500D03*
X271780Y292100D03*
X271780Y266700D03*
X500380Y317500D03*
X500380Y292100D03*
X500380Y266700D03*
D18*
X399575Y396925D02*
X389585Y396925D01*
X399575Y396925D02*
X399575Y387935D01*
X389585Y387935D01*
X389585Y396925D01*
X389585Y390343D02*
X399575Y390343D01*
X399575Y392751D02*
X389585Y392751D01*
X389585Y395159D02*
X399575Y395159D01*
X382575Y396925D02*
X372585Y396925D01*
X382575Y396925D02*
X382575Y387935D01*
X372585Y387935D01*
X372585Y396925D01*
X372585Y390343D02*
X382575Y390343D01*
X382575Y392751D02*
X372585Y392751D01*
X372585Y395159D02*
X382575Y395159D01*
D24*
X431975Y395945D02*
X431975Y388915D01*
X431975Y395945D02*
X439005Y395945D01*
X439005Y388915D01*
X431975Y388915D01*
X431975Y393184D02*
X439005Y393184D01*
X414435Y395945D02*
X414435Y388915D01*
X414435Y395945D02*
X421465Y395945D01*
X421465Y388915D01*
X414435Y388915D01*
X414435Y393184D02*
X421465Y393184D01*
D18*
X358935Y396925D02*
X348945Y396925D01*
X358935Y396925D02*
X358935Y387935D01*
X348945Y387935D01*
X348945Y396925D01*
X348945Y390343D02*
X358935Y390343D01*
X358935Y392751D02*
X348945Y392751D01*
X348945Y395159D02*
X358935Y395159D01*
X341935Y396925D02*
X331945Y396925D01*
X341935Y396925D02*
X341935Y387935D01*
X331945Y387935D01*
X331945Y396925D01*
X331945Y390343D02*
X341935Y390343D01*
X341935Y392751D02*
X331945Y392751D01*
X331945Y395159D02*
X341935Y395159D01*
D10*
X594660Y361950D03*
D11*
X594660Y336550D03*
X594660Y311150D03*
X594660Y285750D03*
D10*
X594660Y260350D03*
D12*
X621010Y275650D03*
D13*
X622710Y349250D03*
X667610Y337750D03*
D12*
X669310Y275650D03*
D10*
X695660Y361950D03*
D11*
X695660Y336550D03*
X695660Y311150D03*
X695660Y285750D03*
D10*
X695660Y260350D03*
D14*
X661447Y151527D02*
X654493Y151527D01*
X661447Y151527D02*
X661447Y140573D01*
X654493Y140573D01*
X654493Y151527D01*
X654493Y143015D02*
X661447Y143015D01*
X661447Y145457D02*
X654493Y145457D01*
X654493Y147899D02*
X661447Y147899D01*
X661447Y150341D02*
X654493Y150341D01*
X643447Y151527D02*
X636493Y151527D01*
X643447Y151527D02*
X643447Y140573D01*
X636493Y140573D01*
X636493Y151527D01*
X636493Y143015D02*
X643447Y143015D01*
X643447Y145457D02*
X636493Y145457D01*
X636493Y147899D02*
X643447Y147899D01*
X643447Y150341D02*
X636493Y150341D01*
D15*
X522665Y149455D02*
X522665Y160545D01*
X541755Y160545D01*
X541755Y149455D01*
X522665Y149455D01*
X522665Y151767D02*
X541755Y151767D01*
X541755Y154079D02*
X522665Y154079D01*
X522665Y156391D02*
X541755Y156391D01*
X541755Y158703D02*
X522665Y158703D01*
X522665Y104545D02*
X522665Y93455D01*
X522665Y104545D02*
X541755Y104545D01*
X541755Y93455D01*
X522665Y93455D01*
X522665Y95767D02*
X541755Y95767D01*
X541755Y98079D02*
X522665Y98079D01*
X522665Y100391D02*
X541755Y100391D01*
X541755Y102703D02*
X522665Y102703D01*
D16*
X562727Y139517D02*
X562727Y144483D01*
X575193Y144483D01*
X575193Y139517D01*
X562727Y139517D01*
X562727Y141947D02*
X575193Y141947D01*
X575193Y144377D02*
X562727Y144377D01*
X562727Y134483D02*
X562727Y129517D01*
X562727Y134483D02*
X575193Y134483D01*
X575193Y129517D01*
X562727Y129517D01*
X562727Y131947D02*
X575193Y131947D01*
X575193Y134377D02*
X562727Y134377D01*
X562727Y124483D02*
X562727Y119517D01*
X562727Y124483D02*
X575193Y124483D01*
X575193Y119517D01*
X562727Y119517D01*
X562727Y121947D02*
X575193Y121947D01*
X575193Y124377D02*
X562727Y124377D01*
X562727Y114483D02*
X562727Y109517D01*
X562727Y114483D02*
X575193Y114483D01*
X575193Y109517D01*
X562727Y109517D01*
X562727Y111947D02*
X575193Y111947D01*
X575193Y114377D02*
X562727Y114377D01*
D15*
X767655Y104545D02*
X767655Y93455D01*
X748565Y93455D01*
X748565Y104545D01*
X767655Y104545D01*
X767655Y95767D02*
X748565Y95767D01*
X748565Y98079D02*
X767655Y98079D01*
X767655Y100391D02*
X748565Y100391D01*
X748565Y102703D02*
X767655Y102703D01*
X767655Y149455D02*
X767655Y160545D01*
X767655Y149455D02*
X748565Y149455D01*
X748565Y160545D01*
X767655Y160545D01*
X767655Y151767D02*
X748565Y151767D01*
X748565Y154079D02*
X767655Y154079D01*
X767655Y156391D02*
X748565Y156391D01*
X748565Y158703D02*
X767655Y158703D01*
D16*
X727593Y114483D02*
X727593Y109517D01*
X715127Y109517D01*
X715127Y114483D01*
X727593Y114483D01*
X727593Y111947D02*
X715127Y111947D01*
X715127Y114377D02*
X727593Y114377D01*
X727593Y119517D02*
X727593Y124483D01*
X727593Y119517D02*
X715127Y119517D01*
X715127Y124483D01*
X727593Y124483D01*
X727593Y121947D02*
X715127Y121947D01*
X715127Y124377D02*
X727593Y124377D01*
X727593Y129517D02*
X727593Y134483D01*
X727593Y129517D02*
X715127Y129517D01*
X715127Y134483D01*
X727593Y134483D01*
X727593Y131947D02*
X715127Y131947D01*
X715127Y134377D02*
X727593Y134377D01*
X727593Y139517D02*
X727593Y144483D01*
X727593Y139517D02*
X715127Y139517D01*
X715127Y144483D01*
X727593Y144483D01*
X727593Y141947D02*
X715127Y141947D01*
X715127Y144377D02*
X727593Y144377D01*
D17*
X639183Y121143D02*
X625071Y121143D01*
X625071Y126457D01*
X639183Y126457D01*
X639183Y121143D01*
X639183Y123519D02*
X625071Y123519D01*
X625071Y125895D02*
X639183Y125895D01*
X639183Y111643D02*
X625071Y111643D01*
X625071Y116957D01*
X639183Y116957D01*
X639183Y111643D01*
X639183Y114019D02*
X625071Y114019D01*
X625071Y116395D02*
X639183Y116395D01*
X639183Y102143D02*
X625071Y102143D01*
X625071Y107457D01*
X639183Y107457D01*
X639183Y102143D01*
X639183Y104519D02*
X625071Y104519D01*
X625071Y106895D02*
X639183Y106895D01*
X651137Y102143D02*
X665249Y102143D01*
X651137Y102143D02*
X651137Y107457D01*
X665249Y107457D01*
X665249Y102143D01*
X665249Y104519D02*
X651137Y104519D01*
X651137Y106895D02*
X665249Y106895D01*
X665249Y121143D02*
X651137Y121143D01*
X651137Y126457D01*
X665249Y126457D01*
X665249Y121143D01*
X665249Y123519D02*
X651137Y123519D01*
X651137Y125895D02*
X665249Y125895D01*
D14*
X698897Y126557D02*
X698897Y119603D01*
X687943Y119603D01*
X687943Y126557D01*
X698897Y126557D01*
X698897Y122045D02*
X687943Y122045D01*
X687943Y124487D02*
X698897Y124487D01*
X698897Y137603D02*
X698897Y144557D01*
X698897Y137603D02*
X687943Y137603D01*
X687943Y144557D01*
X698897Y144557D01*
X698897Y140045D02*
X687943Y140045D01*
X687943Y142487D02*
X698897Y142487D01*
D18*
X610005Y167055D02*
X600015Y167055D01*
X610005Y167055D02*
X610005Y158065D01*
X600015Y158065D01*
X600015Y167055D01*
X600015Y160473D02*
X610005Y160473D01*
X610005Y162881D02*
X600015Y162881D01*
X600015Y165289D02*
X610005Y165289D01*
X593005Y167055D02*
X583015Y167055D01*
X593005Y167055D02*
X593005Y158065D01*
X583015Y158065D01*
X583015Y167055D01*
X583015Y160473D02*
X593005Y160473D01*
X593005Y162881D02*
X583015Y162881D01*
X583015Y165289D02*
X593005Y165289D01*
X608915Y127795D02*
X608915Y117805D01*
X608915Y127795D02*
X617905Y127795D01*
X617905Y117805D01*
X608915Y117805D01*
X608915Y120213D02*
X617905Y120213D01*
X617905Y122621D02*
X608915Y122621D01*
X608915Y125029D02*
X617905Y125029D01*
X617905Y127437D02*
X608915Y127437D01*
X608915Y110795D02*
X608915Y100805D01*
X608915Y110795D02*
X617905Y110795D01*
X617905Y100805D01*
X608915Y100805D01*
X608915Y103213D02*
X617905Y103213D01*
X617905Y105621D02*
X608915Y105621D01*
X608915Y108029D02*
X617905Y108029D01*
X617905Y110437D02*
X608915Y110437D01*
X598855Y110795D02*
X598855Y100805D01*
X589865Y100805D01*
X589865Y110795D01*
X598855Y110795D01*
X598855Y103213D02*
X589865Y103213D01*
X589865Y105621D02*
X598855Y105621D01*
X598855Y108029D02*
X589865Y108029D01*
X589865Y110437D02*
X598855Y110437D01*
X598855Y117805D02*
X598855Y127795D01*
X598855Y117805D02*
X589865Y117805D01*
X589865Y127795D01*
X598855Y127795D01*
X598855Y120213D02*
X589865Y120213D01*
X589865Y122621D02*
X598855Y122621D01*
X598855Y125029D02*
X589865Y125029D01*
X589865Y127437D02*
X598855Y127437D01*
X625551Y93395D02*
X635541Y93395D01*
X635541Y84405D01*
X625551Y84405D01*
X625551Y93395D01*
X625551Y86813D02*
X635541Y86813D01*
X635541Y89221D02*
X625551Y89221D01*
X625551Y91629D02*
X635541Y91629D01*
X618541Y93395D02*
X608551Y93395D01*
X618541Y93395D02*
X618541Y84405D01*
X608551Y84405D01*
X608551Y93395D01*
X608551Y86813D02*
X618541Y86813D01*
X618541Y89221D02*
X608551Y89221D01*
X608551Y91629D02*
X618541Y91629D01*
D19*
X607110Y142390D02*
X601790Y142390D01*
X601790Y149710D01*
X607110Y149710D01*
X607110Y142390D01*
X607110Y144769D02*
X601790Y144769D01*
X601790Y147148D02*
X607110Y147148D01*
X607110Y149527D02*
X601790Y149527D01*
X624790Y142390D02*
X630110Y142390D01*
X624790Y142390D02*
X624790Y149710D01*
X630110Y149710D01*
X630110Y142390D01*
X630110Y144769D02*
X624790Y144769D01*
X624790Y147148D02*
X630110Y147148D01*
X630110Y149527D02*
X624790Y149527D01*
D18*
X681405Y110795D02*
X681405Y100805D01*
X672415Y100805D01*
X672415Y110795D01*
X681405Y110795D01*
X681405Y103213D02*
X672415Y103213D01*
X672415Y105621D02*
X681405Y105621D01*
X681405Y108029D02*
X672415Y108029D01*
X672415Y110437D02*
X681405Y110437D01*
X681405Y117805D02*
X681405Y127795D01*
X681405Y117805D02*
X672415Y117805D01*
X672415Y127795D01*
X681405Y127795D01*
X681405Y120213D02*
X672415Y120213D01*
X672415Y122621D02*
X681405Y122621D01*
X681405Y125029D02*
X672415Y125029D01*
X672415Y127437D02*
X681405Y127437D01*
D20*
X543560Y25400D03*
X746760Y25400D03*
X543560Y228600D03*
X746760Y228600D03*
D21*
X524510Y400050D03*
X765810Y6350D03*
D22*
X635680Y203370D02*
X606640Y203370D01*
X635680Y203370D02*
X635680Y190330D01*
X606640Y190330D01*
X606640Y203370D01*
X606640Y192690D02*
X635680Y192690D01*
X635680Y195050D02*
X606640Y195050D01*
X606640Y197410D02*
X635680Y197410D01*
X635680Y199770D02*
X606640Y199770D01*
X606640Y202130D02*
X635680Y202130D01*
X654640Y203370D02*
X683680Y203370D01*
X683680Y190330D01*
X654640Y190330D01*
X654640Y203370D01*
X654640Y192690D02*
X683680Y192690D01*
X683680Y195050D02*
X654640Y195050D01*
X654640Y197410D02*
X683680Y197410D01*
X683680Y199770D02*
X654640Y199770D01*
X654640Y202130D02*
X683680Y202130D01*
D18*
X752525Y356075D02*
X752525Y366065D01*
X752525Y356075D02*
X743535Y356075D01*
X743535Y366065D01*
X752525Y366065D01*
X752525Y358483D02*
X743535Y358483D01*
X743535Y360891D02*
X752525Y360891D01*
X752525Y363299D02*
X743535Y363299D01*
X743535Y365707D02*
X752525Y365707D01*
X752525Y373075D02*
X752525Y383065D01*
X752525Y373075D02*
X743535Y373075D01*
X743535Y383065D01*
X752525Y383065D01*
X752525Y375483D02*
X743535Y375483D01*
X743535Y377891D02*
X752525Y377891D01*
X752525Y380299D02*
X743535Y380299D01*
X743535Y382707D02*
X752525Y382707D01*
X732205Y366065D02*
X732205Y356075D01*
X723215Y356075D01*
X723215Y366065D01*
X732205Y366065D01*
X732205Y358483D02*
X723215Y358483D01*
X723215Y360891D02*
X732205Y360891D01*
X732205Y363299D02*
X723215Y363299D01*
X723215Y365707D02*
X732205Y365707D01*
X732205Y373075D02*
X732205Y383065D01*
X732205Y373075D02*
X723215Y373075D01*
X723215Y383065D01*
X732205Y383065D01*
X732205Y375483D02*
X723215Y375483D01*
X723215Y377891D02*
X732205Y377891D01*
X732205Y380299D02*
X723215Y380299D01*
X723215Y382707D02*
X732205Y382707D01*
X568375Y366065D02*
X568375Y356075D01*
X559385Y356075D01*
X559385Y366065D01*
X568375Y366065D01*
X568375Y358483D02*
X559385Y358483D01*
X559385Y360891D02*
X568375Y360891D01*
X568375Y363299D02*
X559385Y363299D01*
X559385Y365707D02*
X568375Y365707D01*
X568375Y373075D02*
X568375Y383065D01*
X568375Y373075D02*
X559385Y373075D01*
X559385Y383065D01*
X568375Y383065D01*
X568375Y375483D02*
X559385Y375483D01*
X559385Y377891D02*
X568375Y377891D01*
X568375Y380299D02*
X559385Y380299D01*
X559385Y382707D02*
X568375Y382707D01*
X548055Y366065D02*
X548055Y356075D01*
X539065Y356075D01*
X539065Y366065D01*
X548055Y366065D01*
X548055Y358483D02*
X539065Y358483D01*
X539065Y360891D02*
X548055Y360891D01*
X548055Y363299D02*
X539065Y363299D01*
X539065Y365707D02*
X548055Y365707D01*
X548055Y373075D02*
X548055Y383065D01*
X548055Y373075D02*
X539065Y373075D01*
X539065Y383065D01*
X548055Y383065D01*
X548055Y375483D02*
X539065Y375483D01*
X539065Y377891D02*
X548055Y377891D01*
X548055Y380299D02*
X539065Y380299D01*
X539065Y382707D02*
X548055Y382707D01*
X675055Y54915D02*
X675055Y44925D01*
X666065Y44925D01*
X666065Y54915D01*
X675055Y54915D01*
X675055Y47333D02*
X666065Y47333D01*
X666065Y49741D02*
X675055Y49741D01*
X675055Y52149D02*
X666065Y52149D01*
X666065Y54557D02*
X675055Y54557D01*
X675055Y61925D02*
X675055Y71915D01*
X675055Y61925D02*
X666065Y61925D01*
X666065Y71915D01*
X675055Y71915D01*
X675055Y64333D02*
X666065Y64333D01*
X666065Y66741D02*
X675055Y66741D01*
X675055Y69149D02*
X666065Y69149D01*
X666065Y71557D02*
X675055Y71557D01*
X624255Y54915D02*
X624255Y44925D01*
X615265Y44925D01*
X615265Y54915D01*
X624255Y54915D01*
X624255Y47333D02*
X615265Y47333D01*
X615265Y49741D02*
X624255Y49741D01*
X624255Y52149D02*
X615265Y52149D01*
X615265Y54557D02*
X624255Y54557D01*
X624255Y61925D02*
X624255Y71915D01*
X624255Y61925D02*
X615265Y61925D01*
X615265Y71915D01*
X624255Y71915D01*
X624255Y64333D02*
X615265Y64333D01*
X615265Y66741D02*
X624255Y66741D01*
X624255Y69149D02*
X615265Y69149D01*
X615265Y71557D02*
X624255Y71557D01*
D23*
X708660Y12700D03*
X683260Y12700D03*
X657860Y12700D03*
X632460Y12700D03*
X607060Y12700D03*
X581660Y12700D03*
X530860Y317500D03*
X530860Y292100D03*
X530860Y266700D03*
X759460Y317500D03*
X759460Y292100D03*
X759460Y266700D03*
D18*
X658655Y396925D02*
X648665Y396925D01*
X658655Y396925D02*
X658655Y387935D01*
X648665Y387935D01*
X648665Y396925D01*
X648665Y390343D02*
X658655Y390343D01*
X658655Y392751D02*
X648665Y392751D01*
X648665Y395159D02*
X658655Y395159D01*
X641655Y396925D02*
X631665Y396925D01*
X641655Y396925D02*
X641655Y387935D01*
X631665Y387935D01*
X631665Y396925D01*
X631665Y390343D02*
X641655Y390343D01*
X641655Y392751D02*
X631665Y392751D01*
X631665Y395159D02*
X641655Y395159D01*
D24*
X691055Y395945D02*
X691055Y388915D01*
X691055Y395945D02*
X698085Y395945D01*
X698085Y388915D01*
X691055Y388915D01*
X691055Y393184D02*
X698085Y393184D01*
X673515Y395945D02*
X673515Y388915D01*
X673515Y395945D02*
X680545Y395945D01*
X680545Y388915D01*
X673515Y388915D01*
X673515Y393184D02*
X680545Y393184D01*
D18*
X618015Y396925D02*
X608025Y396925D01*
X618015Y396925D02*
X618015Y387935D01*
X608025Y387935D01*
X608025Y396925D01*
X608025Y390343D02*
X618015Y390343D01*
X618015Y392751D02*
X608025Y392751D01*
X608025Y395159D02*
X618015Y395159D01*
X601015Y396925D02*
X591025Y396925D01*
X601015Y396925D02*
X601015Y387935D01*
X591025Y387935D01*
X591025Y396925D01*
X591025Y390343D02*
X601015Y390343D01*
X601015Y392751D02*
X591025Y392751D01*
X591025Y395159D02*
X601015Y395159D01*
D10*
X853740Y361950D03*
D11*
X853740Y336550D03*
X853740Y311150D03*
X853740Y285750D03*
D10*
X853740Y260350D03*
D12*
X880090Y275650D03*
D13*
X881790Y349250D03*
X926690Y337750D03*
D12*
X928390Y275650D03*
D10*
X954740Y361950D03*
D11*
X954740Y336550D03*
X954740Y311150D03*
X954740Y285750D03*
D10*
X954740Y260350D03*
D14*
X920527Y151527D02*
X913573Y151527D01*
X920527Y151527D02*
X920527Y140573D01*
X913573Y140573D01*
X913573Y151527D01*
X913573Y143015D02*
X920527Y143015D01*
X920527Y145457D02*
X913573Y145457D01*
X913573Y147899D02*
X920527Y147899D01*
X920527Y150341D02*
X913573Y150341D01*
X902527Y151527D02*
X895573Y151527D01*
X902527Y151527D02*
X902527Y140573D01*
X895573Y140573D01*
X895573Y151527D01*
X895573Y143015D02*
X902527Y143015D01*
X902527Y145457D02*
X895573Y145457D01*
X895573Y147899D02*
X902527Y147899D01*
X902527Y150341D02*
X895573Y150341D01*
D15*
X781745Y149455D02*
X781745Y160545D01*
X800835Y160545D01*
X800835Y149455D01*
X781745Y149455D01*
X781745Y151767D02*
X800835Y151767D01*
X800835Y154079D02*
X781745Y154079D01*
X781745Y156391D02*
X800835Y156391D01*
X800835Y158703D02*
X781745Y158703D01*
X781745Y104545D02*
X781745Y93455D01*
X781745Y104545D02*
X800835Y104545D01*
X800835Y93455D01*
X781745Y93455D01*
X781745Y95767D02*
X800835Y95767D01*
X800835Y98079D02*
X781745Y98079D01*
X781745Y100391D02*
X800835Y100391D01*
X800835Y102703D02*
X781745Y102703D01*
D16*
X821807Y139517D02*
X821807Y144483D01*
X834273Y144483D01*
X834273Y139517D01*
X821807Y139517D01*
X821807Y141947D02*
X834273Y141947D01*
X834273Y144377D02*
X821807Y144377D01*
X821807Y134483D02*
X821807Y129517D01*
X821807Y134483D02*
X834273Y134483D01*
X834273Y129517D01*
X821807Y129517D01*
X821807Y131947D02*
X834273Y131947D01*
X834273Y134377D02*
X821807Y134377D01*
X821807Y124483D02*
X821807Y119517D01*
X821807Y124483D02*
X834273Y124483D01*
X834273Y119517D01*
X821807Y119517D01*
X821807Y121947D02*
X834273Y121947D01*
X834273Y124377D02*
X821807Y124377D01*
X821807Y114483D02*
X821807Y109517D01*
X821807Y114483D02*
X834273Y114483D01*
X834273Y109517D01*
X821807Y109517D01*
X821807Y111947D02*
X834273Y111947D01*
X834273Y114377D02*
X821807Y114377D01*
D15*
X1026735Y104545D02*
X1026735Y93455D01*
X1007645Y93455D01*
X1007645Y104545D01*
X1026735Y104545D01*
X1026735Y95767D02*
X1007645Y95767D01*
X1007645Y98079D02*
X1026735Y98079D01*
X1026735Y100391D02*
X1007645Y100391D01*
X1007645Y102703D02*
X1026735Y102703D01*
X1026735Y149455D02*
X1026735Y160545D01*
X1026735Y149455D02*
X1007645Y149455D01*
X1007645Y160545D01*
X1026735Y160545D01*
X1026735Y151767D02*
X1007645Y151767D01*
X1007645Y154079D02*
X1026735Y154079D01*
X1026735Y156391D02*
X1007645Y156391D01*
X1007645Y158703D02*
X1026735Y158703D01*
D16*
X986673Y114483D02*
X986673Y109517D01*
X974207Y109517D01*
X974207Y114483D01*
X986673Y114483D01*
X986673Y111947D02*
X974207Y111947D01*
X974207Y114377D02*
X986673Y114377D01*
X986673Y119517D02*
X986673Y124483D01*
X986673Y119517D02*
X974207Y119517D01*
X974207Y124483D01*
X986673Y124483D01*
X986673Y121947D02*
X974207Y121947D01*
X974207Y124377D02*
X986673Y124377D01*
X986673Y129517D02*
X986673Y134483D01*
X986673Y129517D02*
X974207Y129517D01*
X974207Y134483D01*
X986673Y134483D01*
X986673Y131947D02*
X974207Y131947D01*
X974207Y134377D02*
X986673Y134377D01*
X986673Y139517D02*
X986673Y144483D01*
X986673Y139517D02*
X974207Y139517D01*
X974207Y144483D01*
X986673Y144483D01*
X986673Y141947D02*
X974207Y141947D01*
X974207Y144377D02*
X986673Y144377D01*
D17*
X898263Y121143D02*
X884151Y121143D01*
X884151Y126457D01*
X898263Y126457D01*
X898263Y121143D01*
X898263Y123519D02*
X884151Y123519D01*
X884151Y125895D02*
X898263Y125895D01*
X898263Y111643D02*
X884151Y111643D01*
X884151Y116957D01*
X898263Y116957D01*
X898263Y111643D01*
X898263Y114019D02*
X884151Y114019D01*
X884151Y116395D02*
X898263Y116395D01*
X898263Y102143D02*
X884151Y102143D01*
X884151Y107457D01*
X898263Y107457D01*
X898263Y102143D01*
X898263Y104519D02*
X884151Y104519D01*
X884151Y106895D02*
X898263Y106895D01*
X910217Y102143D02*
X924329Y102143D01*
X910217Y102143D02*
X910217Y107457D01*
X924329Y107457D01*
X924329Y102143D01*
X924329Y104519D02*
X910217Y104519D01*
X910217Y106895D02*
X924329Y106895D01*
X924329Y121143D02*
X910217Y121143D01*
X910217Y126457D01*
X924329Y126457D01*
X924329Y121143D01*
X924329Y123519D02*
X910217Y123519D01*
X910217Y125895D02*
X924329Y125895D01*
D14*
X957977Y126557D02*
X957977Y119603D01*
X947023Y119603D01*
X947023Y126557D01*
X957977Y126557D01*
X957977Y122045D02*
X947023Y122045D01*
X947023Y124487D02*
X957977Y124487D01*
X957977Y137603D02*
X957977Y144557D01*
X957977Y137603D02*
X947023Y137603D01*
X947023Y144557D01*
X957977Y144557D01*
X957977Y140045D02*
X947023Y140045D01*
X947023Y142487D02*
X957977Y142487D01*
D18*
X869085Y167055D02*
X859095Y167055D01*
X869085Y167055D02*
X869085Y158065D01*
X859095Y158065D01*
X859095Y167055D01*
X859095Y160473D02*
X869085Y160473D01*
X869085Y162881D02*
X859095Y162881D01*
X859095Y165289D02*
X869085Y165289D01*
X852085Y167055D02*
X842095Y167055D01*
X852085Y167055D02*
X852085Y158065D01*
X842095Y158065D01*
X842095Y167055D01*
X842095Y160473D02*
X852085Y160473D01*
X852085Y162881D02*
X842095Y162881D01*
X842095Y165289D02*
X852085Y165289D01*
X867995Y127795D02*
X867995Y117805D01*
X867995Y127795D02*
X876985Y127795D01*
X876985Y117805D01*
X867995Y117805D01*
X867995Y120213D02*
X876985Y120213D01*
X876985Y122621D02*
X867995Y122621D01*
X867995Y125029D02*
X876985Y125029D01*
X876985Y127437D02*
X867995Y127437D01*
X867995Y110795D02*
X867995Y100805D01*
X867995Y110795D02*
X876985Y110795D01*
X876985Y100805D01*
X867995Y100805D01*
X867995Y103213D02*
X876985Y103213D01*
X876985Y105621D02*
X867995Y105621D01*
X867995Y108029D02*
X876985Y108029D01*
X876985Y110437D02*
X867995Y110437D01*
X857935Y110795D02*
X857935Y100805D01*
X848945Y100805D01*
X848945Y110795D01*
X857935Y110795D01*
X857935Y103213D02*
X848945Y103213D01*
X848945Y105621D02*
X857935Y105621D01*
X857935Y108029D02*
X848945Y108029D01*
X848945Y110437D02*
X857935Y110437D01*
X857935Y117805D02*
X857935Y127795D01*
X857935Y117805D02*
X848945Y117805D01*
X848945Y127795D01*
X857935Y127795D01*
X857935Y120213D02*
X848945Y120213D01*
X848945Y122621D02*
X857935Y122621D01*
X857935Y125029D02*
X848945Y125029D01*
X848945Y127437D02*
X857935Y127437D01*
X884631Y93395D02*
X894621Y93395D01*
X894621Y84405D01*
X884631Y84405D01*
X884631Y93395D01*
X884631Y86813D02*
X894621Y86813D01*
X894621Y89221D02*
X884631Y89221D01*
X884631Y91629D02*
X894621Y91629D01*
X877621Y93395D02*
X867631Y93395D01*
X877621Y93395D02*
X877621Y84405D01*
X867631Y84405D01*
X867631Y93395D01*
X867631Y86813D02*
X877621Y86813D01*
X877621Y89221D02*
X867631Y89221D01*
X867631Y91629D02*
X877621Y91629D01*
D19*
X866190Y142390D02*
X860870Y142390D01*
X860870Y149710D01*
X866190Y149710D01*
X866190Y142390D01*
X866190Y144769D02*
X860870Y144769D01*
X860870Y147148D02*
X866190Y147148D01*
X866190Y149527D02*
X860870Y149527D01*
X883870Y142390D02*
X889190Y142390D01*
X883870Y142390D02*
X883870Y149710D01*
X889190Y149710D01*
X889190Y142390D01*
X889190Y144769D02*
X883870Y144769D01*
X883870Y147148D02*
X889190Y147148D01*
X889190Y149527D02*
X883870Y149527D01*
D18*
X940485Y110795D02*
X940485Y100805D01*
X931495Y100805D01*
X931495Y110795D01*
X940485Y110795D01*
X940485Y103213D02*
X931495Y103213D01*
X931495Y105621D02*
X940485Y105621D01*
X940485Y108029D02*
X931495Y108029D01*
X931495Y110437D02*
X940485Y110437D01*
X940485Y117805D02*
X940485Y127795D01*
X940485Y117805D02*
X931495Y117805D01*
X931495Y127795D01*
X940485Y127795D01*
X940485Y120213D02*
X931495Y120213D01*
X931495Y122621D02*
X940485Y122621D01*
X940485Y125029D02*
X931495Y125029D01*
X931495Y127437D02*
X940485Y127437D01*
D20*
X802640Y25400D03*
X1005840Y25400D03*
X802640Y228600D03*
X1005840Y228600D03*
D21*
X783590Y400050D03*
X1024890Y6350D03*
D22*
X894760Y203370D02*
X865720Y203370D01*
X894760Y203370D02*
X894760Y190330D01*
X865720Y190330D01*
X865720Y203370D01*
X865720Y192690D02*
X894760Y192690D01*
X894760Y195050D02*
X865720Y195050D01*
X865720Y197410D02*
X894760Y197410D01*
X894760Y199770D02*
X865720Y199770D01*
X865720Y202130D02*
X894760Y202130D01*
X913720Y203370D02*
X942760Y203370D01*
X942760Y190330D01*
X913720Y190330D01*
X913720Y203370D01*
X913720Y192690D02*
X942760Y192690D01*
X942760Y195050D02*
X913720Y195050D01*
X913720Y197410D02*
X942760Y197410D01*
X942760Y199770D02*
X913720Y199770D01*
X913720Y202130D02*
X942760Y202130D01*
D18*
X1011605Y356075D02*
X1011605Y366065D01*
X1011605Y356075D02*
X1002615Y356075D01*
X1002615Y366065D01*
X1011605Y366065D01*
X1011605Y358483D02*
X1002615Y358483D01*
X1002615Y360891D02*
X1011605Y360891D01*
X1011605Y363299D02*
X1002615Y363299D01*
X1002615Y365707D02*
X1011605Y365707D01*
X1011605Y373075D02*
X1011605Y383065D01*
X1011605Y373075D02*
X1002615Y373075D01*
X1002615Y383065D01*
X1011605Y383065D01*
X1011605Y375483D02*
X1002615Y375483D01*
X1002615Y377891D02*
X1011605Y377891D01*
X1011605Y380299D02*
X1002615Y380299D01*
X1002615Y382707D02*
X1011605Y382707D01*
X991285Y366065D02*
X991285Y356075D01*
X982295Y356075D01*
X982295Y366065D01*
X991285Y366065D01*
X991285Y358483D02*
X982295Y358483D01*
X982295Y360891D02*
X991285Y360891D01*
X991285Y363299D02*
X982295Y363299D01*
X982295Y365707D02*
X991285Y365707D01*
X991285Y373075D02*
X991285Y383065D01*
X991285Y373075D02*
X982295Y373075D01*
X982295Y383065D01*
X991285Y383065D01*
X991285Y375483D02*
X982295Y375483D01*
X982295Y377891D02*
X991285Y377891D01*
X991285Y380299D02*
X982295Y380299D01*
X982295Y382707D02*
X991285Y382707D01*
X827455Y366065D02*
X827455Y356075D01*
X818465Y356075D01*
X818465Y366065D01*
X827455Y366065D01*
X827455Y358483D02*
X818465Y358483D01*
X818465Y360891D02*
X827455Y360891D01*
X827455Y363299D02*
X818465Y363299D01*
X818465Y365707D02*
X827455Y365707D01*
X827455Y373075D02*
X827455Y383065D01*
X827455Y373075D02*
X818465Y373075D01*
X818465Y383065D01*
X827455Y383065D01*
X827455Y375483D02*
X818465Y375483D01*
X818465Y377891D02*
X827455Y377891D01*
X827455Y380299D02*
X818465Y380299D01*
X818465Y382707D02*
X827455Y382707D01*
X807135Y366065D02*
X807135Y356075D01*
X798145Y356075D01*
X798145Y366065D01*
X807135Y366065D01*
X807135Y358483D02*
X798145Y358483D01*
X798145Y360891D02*
X807135Y360891D01*
X807135Y363299D02*
X798145Y363299D01*
X798145Y365707D02*
X807135Y365707D01*
X807135Y373075D02*
X807135Y383065D01*
X807135Y373075D02*
X798145Y373075D01*
X798145Y383065D01*
X807135Y383065D01*
X807135Y375483D02*
X798145Y375483D01*
X798145Y377891D02*
X807135Y377891D01*
X807135Y380299D02*
X798145Y380299D01*
X798145Y382707D02*
X807135Y382707D01*
X934135Y54915D02*
X934135Y44925D01*
X925145Y44925D01*
X925145Y54915D01*
X934135Y54915D01*
X934135Y47333D02*
X925145Y47333D01*
X925145Y49741D02*
X934135Y49741D01*
X934135Y52149D02*
X925145Y52149D01*
X925145Y54557D02*
X934135Y54557D01*
X934135Y61925D02*
X934135Y71915D01*
X934135Y61925D02*
X925145Y61925D01*
X925145Y71915D01*
X934135Y71915D01*
X934135Y64333D02*
X925145Y64333D01*
X925145Y66741D02*
X934135Y66741D01*
X934135Y69149D02*
X925145Y69149D01*
X925145Y71557D02*
X934135Y71557D01*
X883335Y54915D02*
X883335Y44925D01*
X874345Y44925D01*
X874345Y54915D01*
X883335Y54915D01*
X883335Y47333D02*
X874345Y47333D01*
X874345Y49741D02*
X883335Y49741D01*
X883335Y52149D02*
X874345Y52149D01*
X874345Y54557D02*
X883335Y54557D01*
X883335Y61925D02*
X883335Y71915D01*
X883335Y61925D02*
X874345Y61925D01*
X874345Y71915D01*
X883335Y71915D01*
X883335Y64333D02*
X874345Y64333D01*
X874345Y66741D02*
X883335Y66741D01*
X883335Y69149D02*
X874345Y69149D01*
X874345Y71557D02*
X883335Y71557D01*
D23*
X967740Y12700D03*
X942340Y12700D03*
X916940Y12700D03*
X891540Y12700D03*
X866140Y12700D03*
X840740Y12700D03*
X789940Y317500D03*
X789940Y292100D03*
X789940Y266700D03*
X1018540Y317500D03*
X1018540Y292100D03*
X1018540Y266700D03*
D18*
X917735Y396925D02*
X907745Y396925D01*
X917735Y396925D02*
X917735Y387935D01*
X907745Y387935D01*
X907745Y396925D01*
X907745Y390343D02*
X917735Y390343D01*
X917735Y392751D02*
X907745Y392751D01*
X907745Y395159D02*
X917735Y395159D01*
X900735Y396925D02*
X890745Y396925D01*
X900735Y396925D02*
X900735Y387935D01*
X890745Y387935D01*
X890745Y396925D01*
X890745Y390343D02*
X900735Y390343D01*
X900735Y392751D02*
X890745Y392751D01*
X890745Y395159D02*
X900735Y395159D01*
D24*
X950135Y395945D02*
X950135Y388915D01*
X950135Y395945D02*
X957165Y395945D01*
X957165Y388915D01*
X950135Y388915D01*
X950135Y393184D02*
X957165Y393184D01*
X932595Y395945D02*
X932595Y388915D01*
X932595Y395945D02*
X939625Y395945D01*
X939625Y388915D01*
X932595Y388915D01*
X932595Y393184D02*
X939625Y393184D01*
D18*
X877095Y396925D02*
X867105Y396925D01*
X877095Y396925D02*
X877095Y387935D01*
X867105Y387935D01*
X867105Y396925D01*
X867105Y390343D02*
X877095Y390343D01*
X877095Y392751D02*
X867105Y392751D01*
X867105Y395159D02*
X877095Y395159D01*
X860095Y396925D02*
X850105Y396925D01*
X860095Y396925D02*
X860095Y387935D01*
X850105Y387935D01*
X850105Y396925D01*
X850105Y390343D02*
X860095Y390343D01*
X860095Y392751D02*
X850105Y392751D01*
X850105Y395159D02*
X860095Y395159D01*
D10*
X1112820Y361950D03*
D11*
X1112820Y336550D03*
X1112820Y311150D03*
X1112820Y285750D03*
D10*
X1112820Y260350D03*
D12*
X1139170Y275650D03*
D13*
X1140870Y349250D03*
X1185770Y337750D03*
D12*
X1187470Y275650D03*
D10*
X1213820Y361950D03*
D11*
X1213820Y336550D03*
X1213820Y311150D03*
X1213820Y285750D03*
D10*
X1213820Y260350D03*
D14*
X1179607Y151527D02*
X1172653Y151527D01*
X1179607Y151527D02*
X1179607Y140573D01*
X1172653Y140573D01*
X1172653Y151527D01*
X1172653Y143015D02*
X1179607Y143015D01*
X1179607Y145457D02*
X1172653Y145457D01*
X1172653Y147899D02*
X1179607Y147899D01*
X1179607Y150341D02*
X1172653Y150341D01*
X1161607Y151527D02*
X1154653Y151527D01*
X1161607Y151527D02*
X1161607Y140573D01*
X1154653Y140573D01*
X1154653Y151527D01*
X1154653Y143015D02*
X1161607Y143015D01*
X1161607Y145457D02*
X1154653Y145457D01*
X1154653Y147899D02*
X1161607Y147899D01*
X1161607Y150341D02*
X1154653Y150341D01*
D15*
X1040825Y149455D02*
X1040825Y160545D01*
X1059915Y160545D01*
X1059915Y149455D01*
X1040825Y149455D01*
X1040825Y151767D02*
X1059915Y151767D01*
X1059915Y154079D02*
X1040825Y154079D01*
X1040825Y156391D02*
X1059915Y156391D01*
X1059915Y158703D02*
X1040825Y158703D01*
X1040825Y104545D02*
X1040825Y93455D01*
X1040825Y104545D02*
X1059915Y104545D01*
X1059915Y93455D01*
X1040825Y93455D01*
X1040825Y95767D02*
X1059915Y95767D01*
X1059915Y98079D02*
X1040825Y98079D01*
X1040825Y100391D02*
X1059915Y100391D01*
X1059915Y102703D02*
X1040825Y102703D01*
D16*
X1080887Y139517D02*
X1080887Y144483D01*
X1093353Y144483D01*
X1093353Y139517D01*
X1080887Y139517D01*
X1080887Y141947D02*
X1093353Y141947D01*
X1093353Y144377D02*
X1080887Y144377D01*
X1080887Y134483D02*
X1080887Y129517D01*
X1080887Y134483D02*
X1093353Y134483D01*
X1093353Y129517D01*
X1080887Y129517D01*
X1080887Y131947D02*
X1093353Y131947D01*
X1093353Y134377D02*
X1080887Y134377D01*
X1080887Y124483D02*
X1080887Y119517D01*
X1080887Y124483D02*
X1093353Y124483D01*
X1093353Y119517D01*
X1080887Y119517D01*
X1080887Y121947D02*
X1093353Y121947D01*
X1093353Y124377D02*
X1080887Y124377D01*
X1080887Y114483D02*
X1080887Y109517D01*
X1080887Y114483D02*
X1093353Y114483D01*
X1093353Y109517D01*
X1080887Y109517D01*
X1080887Y111947D02*
X1093353Y111947D01*
X1093353Y114377D02*
X1080887Y114377D01*
D15*
X1285815Y104545D02*
X1285815Y93455D01*
X1266725Y93455D01*
X1266725Y104545D01*
X1285815Y104545D01*
X1285815Y95767D02*
X1266725Y95767D01*
X1266725Y98079D02*
X1285815Y98079D01*
X1285815Y100391D02*
X1266725Y100391D01*
X1266725Y102703D02*
X1285815Y102703D01*
X1285815Y149455D02*
X1285815Y160545D01*
X1285815Y149455D02*
X1266725Y149455D01*
X1266725Y160545D01*
X1285815Y160545D01*
X1285815Y151767D02*
X1266725Y151767D01*
X1266725Y154079D02*
X1285815Y154079D01*
X1285815Y156391D02*
X1266725Y156391D01*
X1266725Y158703D02*
X1285815Y158703D01*
D16*
X1245753Y114483D02*
X1245753Y109517D01*
X1233287Y109517D01*
X1233287Y114483D01*
X1245753Y114483D01*
X1245753Y111947D02*
X1233287Y111947D01*
X1233287Y114377D02*
X1245753Y114377D01*
X1245753Y119517D02*
X1245753Y124483D01*
X1245753Y119517D02*
X1233287Y119517D01*
X1233287Y124483D01*
X1245753Y124483D01*
X1245753Y121947D02*
X1233287Y121947D01*
X1233287Y124377D02*
X1245753Y124377D01*
X1245753Y129517D02*
X1245753Y134483D01*
X1245753Y129517D02*
X1233287Y129517D01*
X1233287Y134483D01*
X1245753Y134483D01*
X1245753Y131947D02*
X1233287Y131947D01*
X1233287Y134377D02*
X1245753Y134377D01*
X1245753Y139517D02*
X1245753Y144483D01*
X1245753Y139517D02*
X1233287Y139517D01*
X1233287Y144483D01*
X1245753Y144483D01*
X1245753Y141947D02*
X1233287Y141947D01*
X1233287Y144377D02*
X1245753Y144377D01*
D17*
X1157343Y121143D02*
X1143231Y121143D01*
X1143231Y126457D01*
X1157343Y126457D01*
X1157343Y121143D01*
X1157343Y123519D02*
X1143231Y123519D01*
X1143231Y125895D02*
X1157343Y125895D01*
X1157343Y111643D02*
X1143231Y111643D01*
X1143231Y116957D01*
X1157343Y116957D01*
X1157343Y111643D01*
X1157343Y114019D02*
X1143231Y114019D01*
X1143231Y116395D02*
X1157343Y116395D01*
X1157343Y102143D02*
X1143231Y102143D01*
X1143231Y107457D01*
X1157343Y107457D01*
X1157343Y102143D01*
X1157343Y104519D02*
X1143231Y104519D01*
X1143231Y106895D02*
X1157343Y106895D01*
X1169297Y102143D02*
X1183409Y102143D01*
X1169297Y102143D02*
X1169297Y107457D01*
X1183409Y107457D01*
X1183409Y102143D01*
X1183409Y104519D02*
X1169297Y104519D01*
X1169297Y106895D02*
X1183409Y106895D01*
X1183409Y121143D02*
X1169297Y121143D01*
X1169297Y126457D01*
X1183409Y126457D01*
X1183409Y121143D01*
X1183409Y123519D02*
X1169297Y123519D01*
X1169297Y125895D02*
X1183409Y125895D01*
D14*
X1217057Y126557D02*
X1217057Y119603D01*
X1206103Y119603D01*
X1206103Y126557D01*
X1217057Y126557D01*
X1217057Y122045D02*
X1206103Y122045D01*
X1206103Y124487D02*
X1217057Y124487D01*
X1217057Y137603D02*
X1217057Y144557D01*
X1217057Y137603D02*
X1206103Y137603D01*
X1206103Y144557D01*
X1217057Y144557D01*
X1217057Y140045D02*
X1206103Y140045D01*
X1206103Y142487D02*
X1217057Y142487D01*
D18*
X1128165Y167055D02*
X1118175Y167055D01*
X1128165Y167055D02*
X1128165Y158065D01*
X1118175Y158065D01*
X1118175Y167055D01*
X1118175Y160473D02*
X1128165Y160473D01*
X1128165Y162881D02*
X1118175Y162881D01*
X1118175Y165289D02*
X1128165Y165289D01*
X1111165Y167055D02*
X1101175Y167055D01*
X1111165Y167055D02*
X1111165Y158065D01*
X1101175Y158065D01*
X1101175Y167055D01*
X1101175Y160473D02*
X1111165Y160473D01*
X1111165Y162881D02*
X1101175Y162881D01*
X1101175Y165289D02*
X1111165Y165289D01*
X1127075Y127795D02*
X1127075Y117805D01*
X1127075Y127795D02*
X1136065Y127795D01*
X1136065Y117805D01*
X1127075Y117805D01*
X1127075Y120213D02*
X1136065Y120213D01*
X1136065Y122621D02*
X1127075Y122621D01*
X1127075Y125029D02*
X1136065Y125029D01*
X1136065Y127437D02*
X1127075Y127437D01*
X1127075Y110795D02*
X1127075Y100805D01*
X1127075Y110795D02*
X1136065Y110795D01*
X1136065Y100805D01*
X1127075Y100805D01*
X1127075Y103213D02*
X1136065Y103213D01*
X1136065Y105621D02*
X1127075Y105621D01*
X1127075Y108029D02*
X1136065Y108029D01*
X1136065Y110437D02*
X1127075Y110437D01*
X1117015Y110795D02*
X1117015Y100805D01*
X1108025Y100805D01*
X1108025Y110795D01*
X1117015Y110795D01*
X1117015Y103213D02*
X1108025Y103213D01*
X1108025Y105621D02*
X1117015Y105621D01*
X1117015Y108029D02*
X1108025Y108029D01*
X1108025Y110437D02*
X1117015Y110437D01*
X1117015Y117805D02*
X1117015Y127795D01*
X1117015Y117805D02*
X1108025Y117805D01*
X1108025Y127795D01*
X1117015Y127795D01*
X1117015Y120213D02*
X1108025Y120213D01*
X1108025Y122621D02*
X1117015Y122621D01*
X1117015Y125029D02*
X1108025Y125029D01*
X1108025Y127437D02*
X1117015Y127437D01*
X1143711Y93395D02*
X1153701Y93395D01*
X1153701Y84405D01*
X1143711Y84405D01*
X1143711Y93395D01*
X1143711Y86813D02*
X1153701Y86813D01*
X1153701Y89221D02*
X1143711Y89221D01*
X1143711Y91629D02*
X1153701Y91629D01*
X1136701Y93395D02*
X1126711Y93395D01*
X1136701Y93395D02*
X1136701Y84405D01*
X1126711Y84405D01*
X1126711Y93395D01*
X1126711Y86813D02*
X1136701Y86813D01*
X1136701Y89221D02*
X1126711Y89221D01*
X1126711Y91629D02*
X1136701Y91629D01*
D19*
X1125270Y142390D02*
X1119950Y142390D01*
X1119950Y149710D01*
X1125270Y149710D01*
X1125270Y142390D01*
X1125270Y144769D02*
X1119950Y144769D01*
X1119950Y147148D02*
X1125270Y147148D01*
X1125270Y149527D02*
X1119950Y149527D01*
X1142950Y142390D02*
X1148270Y142390D01*
X1142950Y142390D02*
X1142950Y149710D01*
X1148270Y149710D01*
X1148270Y142390D01*
X1148270Y144769D02*
X1142950Y144769D01*
X1142950Y147148D02*
X1148270Y147148D01*
X1148270Y149527D02*
X1142950Y149527D01*
D18*
X1199565Y110795D02*
X1199565Y100805D01*
X1190575Y100805D01*
X1190575Y110795D01*
X1199565Y110795D01*
X1199565Y103213D02*
X1190575Y103213D01*
X1190575Y105621D02*
X1199565Y105621D01*
X1199565Y108029D02*
X1190575Y108029D01*
X1190575Y110437D02*
X1199565Y110437D01*
X1199565Y117805D02*
X1199565Y127795D01*
X1199565Y117805D02*
X1190575Y117805D01*
X1190575Y127795D01*
X1199565Y127795D01*
X1199565Y120213D02*
X1190575Y120213D01*
X1190575Y122621D02*
X1199565Y122621D01*
X1199565Y125029D02*
X1190575Y125029D01*
X1190575Y127437D02*
X1199565Y127437D01*
D20*
X1061720Y25400D03*
X1264920Y25400D03*
X1061720Y228600D03*
X1264920Y228600D03*
D21*
X1042670Y400050D03*
X1283970Y6350D03*
D22*
X1153840Y203370D02*
X1124800Y203370D01*
X1153840Y203370D02*
X1153840Y190330D01*
X1124800Y190330D01*
X1124800Y203370D01*
X1124800Y192690D02*
X1153840Y192690D01*
X1153840Y195050D02*
X1124800Y195050D01*
X1124800Y197410D02*
X1153840Y197410D01*
X1153840Y199770D02*
X1124800Y199770D01*
X1124800Y202130D02*
X1153840Y202130D01*
X1172800Y203370D02*
X1201840Y203370D01*
X1201840Y190330D01*
X1172800Y190330D01*
X1172800Y203370D01*
X1172800Y192690D02*
X1201840Y192690D01*
X1201840Y195050D02*
X1172800Y195050D01*
X1172800Y197410D02*
X1201840Y197410D01*
X1201840Y199770D02*
X1172800Y199770D01*
X1172800Y202130D02*
X1201840Y202130D01*
D18*
X1270685Y356075D02*
X1270685Y366065D01*
X1270685Y356075D02*
X1261695Y356075D01*
X1261695Y366065D01*
X1270685Y366065D01*
X1270685Y358483D02*
X1261695Y358483D01*
X1261695Y360891D02*
X1270685Y360891D01*
X1270685Y363299D02*
X1261695Y363299D01*
X1261695Y365707D02*
X1270685Y365707D01*
X1270685Y373075D02*
X1270685Y383065D01*
X1270685Y373075D02*
X1261695Y373075D01*
X1261695Y383065D01*
X1270685Y383065D01*
X1270685Y375483D02*
X1261695Y375483D01*
X1261695Y377891D02*
X1270685Y377891D01*
X1270685Y380299D02*
X1261695Y380299D01*
X1261695Y382707D02*
X1270685Y382707D01*
X1250365Y366065D02*
X1250365Y356075D01*
X1241375Y356075D01*
X1241375Y366065D01*
X1250365Y366065D01*
X1250365Y358483D02*
X1241375Y358483D01*
X1241375Y360891D02*
X1250365Y360891D01*
X1250365Y363299D02*
X1241375Y363299D01*
X1241375Y365707D02*
X1250365Y365707D01*
X1250365Y373075D02*
X1250365Y383065D01*
X1250365Y373075D02*
X1241375Y373075D01*
X1241375Y383065D01*
X1250365Y383065D01*
X1250365Y375483D02*
X1241375Y375483D01*
X1241375Y377891D02*
X1250365Y377891D01*
X1250365Y380299D02*
X1241375Y380299D01*
X1241375Y382707D02*
X1250365Y382707D01*
X1086535Y366065D02*
X1086535Y356075D01*
X1077545Y356075D01*
X1077545Y366065D01*
X1086535Y366065D01*
X1086535Y358483D02*
X1077545Y358483D01*
X1077545Y360891D02*
X1086535Y360891D01*
X1086535Y363299D02*
X1077545Y363299D01*
X1077545Y365707D02*
X1086535Y365707D01*
X1086535Y373075D02*
X1086535Y383065D01*
X1086535Y373075D02*
X1077545Y373075D01*
X1077545Y383065D01*
X1086535Y383065D01*
X1086535Y375483D02*
X1077545Y375483D01*
X1077545Y377891D02*
X1086535Y377891D01*
X1086535Y380299D02*
X1077545Y380299D01*
X1077545Y382707D02*
X1086535Y382707D01*
X1066215Y366065D02*
X1066215Y356075D01*
X1057225Y356075D01*
X1057225Y366065D01*
X1066215Y366065D01*
X1066215Y358483D02*
X1057225Y358483D01*
X1057225Y360891D02*
X1066215Y360891D01*
X1066215Y363299D02*
X1057225Y363299D01*
X1057225Y365707D02*
X1066215Y365707D01*
X1066215Y373075D02*
X1066215Y383065D01*
X1066215Y373075D02*
X1057225Y373075D01*
X1057225Y383065D01*
X1066215Y383065D01*
X1066215Y375483D02*
X1057225Y375483D01*
X1057225Y377891D02*
X1066215Y377891D01*
X1066215Y380299D02*
X1057225Y380299D01*
X1057225Y382707D02*
X1066215Y382707D01*
X1193215Y54915D02*
X1193215Y44925D01*
X1184225Y44925D01*
X1184225Y54915D01*
X1193215Y54915D01*
X1193215Y47333D02*
X1184225Y47333D01*
X1184225Y49741D02*
X1193215Y49741D01*
X1193215Y52149D02*
X1184225Y52149D01*
X1184225Y54557D02*
X1193215Y54557D01*
X1193215Y61925D02*
X1193215Y71915D01*
X1193215Y61925D02*
X1184225Y61925D01*
X1184225Y71915D01*
X1193215Y71915D01*
X1193215Y64333D02*
X1184225Y64333D01*
X1184225Y66741D02*
X1193215Y66741D01*
X1193215Y69149D02*
X1184225Y69149D01*
X1184225Y71557D02*
X1193215Y71557D01*
X1142415Y54915D02*
X1142415Y44925D01*
X1133425Y44925D01*
X1133425Y54915D01*
X1142415Y54915D01*
X1142415Y47333D02*
X1133425Y47333D01*
X1133425Y49741D02*
X1142415Y49741D01*
X1142415Y52149D02*
X1133425Y52149D01*
X1133425Y54557D02*
X1142415Y54557D01*
X1142415Y61925D02*
X1142415Y71915D01*
X1142415Y61925D02*
X1133425Y61925D01*
X1133425Y71915D01*
X1142415Y71915D01*
X1142415Y64333D02*
X1133425Y64333D01*
X1133425Y66741D02*
X1142415Y66741D01*
X1142415Y69149D02*
X1133425Y69149D01*
X1133425Y71557D02*
X1142415Y71557D01*
D23*
X1226820Y12700D03*
X1201420Y12700D03*
X1176020Y12700D03*
X1150620Y12700D03*
X1125220Y12700D03*
X1099820Y12700D03*
X1049020Y317500D03*
X1049020Y292100D03*
X1049020Y266700D03*
X1277620Y317500D03*
X1277620Y292100D03*
X1277620Y266700D03*
D18*
X1176815Y396925D02*
X1166825Y396925D01*
X1176815Y396925D02*
X1176815Y387935D01*
X1166825Y387935D01*
X1166825Y396925D01*
X1166825Y390343D02*
X1176815Y390343D01*
X1176815Y392751D02*
X1166825Y392751D01*
X1166825Y395159D02*
X1176815Y395159D01*
X1159815Y396925D02*
X1149825Y396925D01*
X1159815Y396925D02*
X1159815Y387935D01*
X1149825Y387935D01*
X1149825Y396925D01*
X1149825Y390343D02*
X1159815Y390343D01*
X1159815Y392751D02*
X1149825Y392751D01*
X1149825Y395159D02*
X1159815Y395159D01*
D24*
X1209215Y395945D02*
X1209215Y388915D01*
X1209215Y395945D02*
X1216245Y395945D01*
X1216245Y388915D01*
X1209215Y388915D01*
X1209215Y393184D02*
X1216245Y393184D01*
X1191675Y395945D02*
X1191675Y388915D01*
X1191675Y395945D02*
X1198705Y395945D01*
X1198705Y388915D01*
X1191675Y388915D01*
X1191675Y393184D02*
X1198705Y393184D01*
D18*
X1136175Y396925D02*
X1126185Y396925D01*
X1136175Y396925D02*
X1136175Y387935D01*
X1126185Y387935D01*
X1126185Y396925D01*
X1126185Y390343D02*
X1136175Y390343D01*
X1136175Y392751D02*
X1126185Y392751D01*
X1126185Y395159D02*
X1136175Y395159D01*
X1119175Y396925D02*
X1109185Y396925D01*
X1119175Y396925D02*
X1119175Y387935D01*
X1109185Y387935D01*
X1109185Y396925D01*
X1109185Y390343D02*
X1119175Y390343D01*
X1119175Y392751D02*
X1109185Y392751D01*
X1109185Y395159D02*
X1119175Y395159D01*
D10*
X1371900Y361950D03*
D11*
X1371900Y336550D03*
X1371900Y311150D03*
X1371900Y285750D03*
D10*
X1371900Y260350D03*
D12*
X1398250Y275650D03*
D13*
X1399950Y349250D03*
X1444850Y337750D03*
D12*
X1446550Y275650D03*
D10*
X1472900Y361950D03*
D11*
X1472900Y336550D03*
X1472900Y311150D03*
X1472900Y285750D03*
D10*
X1472900Y260350D03*
D14*
X1438687Y151527D02*
X1431733Y151527D01*
X1438687Y151527D02*
X1438687Y140573D01*
X1431733Y140573D01*
X1431733Y151527D01*
X1431733Y143015D02*
X1438687Y143015D01*
X1438687Y145457D02*
X1431733Y145457D01*
X1431733Y147899D02*
X1438687Y147899D01*
X1438687Y150341D02*
X1431733Y150341D01*
X1420687Y151527D02*
X1413733Y151527D01*
X1420687Y151527D02*
X1420687Y140573D01*
X1413733Y140573D01*
X1413733Y151527D01*
X1413733Y143015D02*
X1420687Y143015D01*
X1420687Y145457D02*
X1413733Y145457D01*
X1413733Y147899D02*
X1420687Y147899D01*
X1420687Y150341D02*
X1413733Y150341D01*
D15*
X1299905Y149455D02*
X1299905Y160545D01*
X1318995Y160545D01*
X1318995Y149455D01*
X1299905Y149455D01*
X1299905Y151767D02*
X1318995Y151767D01*
X1318995Y154079D02*
X1299905Y154079D01*
X1299905Y156391D02*
X1318995Y156391D01*
X1318995Y158703D02*
X1299905Y158703D01*
X1299905Y104545D02*
X1299905Y93455D01*
X1299905Y104545D02*
X1318995Y104545D01*
X1318995Y93455D01*
X1299905Y93455D01*
X1299905Y95767D02*
X1318995Y95767D01*
X1318995Y98079D02*
X1299905Y98079D01*
X1299905Y100391D02*
X1318995Y100391D01*
X1318995Y102703D02*
X1299905Y102703D01*
D16*
X1339967Y139517D02*
X1339967Y144483D01*
X1352433Y144483D01*
X1352433Y139517D01*
X1339967Y139517D01*
X1339967Y141947D02*
X1352433Y141947D01*
X1352433Y144377D02*
X1339967Y144377D01*
X1339967Y134483D02*
X1339967Y129517D01*
X1339967Y134483D02*
X1352433Y134483D01*
X1352433Y129517D01*
X1339967Y129517D01*
X1339967Y131947D02*
X1352433Y131947D01*
X1352433Y134377D02*
X1339967Y134377D01*
X1339967Y124483D02*
X1339967Y119517D01*
X1339967Y124483D02*
X1352433Y124483D01*
X1352433Y119517D01*
X1339967Y119517D01*
X1339967Y121947D02*
X1352433Y121947D01*
X1352433Y124377D02*
X1339967Y124377D01*
X1339967Y114483D02*
X1339967Y109517D01*
X1339967Y114483D02*
X1352433Y114483D01*
X1352433Y109517D01*
X1339967Y109517D01*
X1339967Y111947D02*
X1352433Y111947D01*
X1352433Y114377D02*
X1339967Y114377D01*
D15*
X1544895Y104545D02*
X1544895Y93455D01*
X1525805Y93455D01*
X1525805Y104545D01*
X1544895Y104545D01*
X1544895Y95767D02*
X1525805Y95767D01*
X1525805Y98079D02*
X1544895Y98079D01*
X1544895Y100391D02*
X1525805Y100391D01*
X1525805Y102703D02*
X1544895Y102703D01*
X1544895Y149455D02*
X1544895Y160545D01*
X1544895Y149455D02*
X1525805Y149455D01*
X1525805Y160545D01*
X1544895Y160545D01*
X1544895Y151767D02*
X1525805Y151767D01*
X1525805Y154079D02*
X1544895Y154079D01*
X1544895Y156391D02*
X1525805Y156391D01*
X1525805Y158703D02*
X1544895Y158703D01*
D16*
X1504833Y114483D02*
X1504833Y109517D01*
X1492367Y109517D01*
X1492367Y114483D01*
X1504833Y114483D01*
X1504833Y111947D02*
X1492367Y111947D01*
X1492367Y114377D02*
X1504833Y114377D01*
X1504833Y119517D02*
X1504833Y124483D01*
X1504833Y119517D02*
X1492367Y119517D01*
X1492367Y124483D01*
X1504833Y124483D01*
X1504833Y121947D02*
X1492367Y121947D01*
X1492367Y124377D02*
X1504833Y124377D01*
X1504833Y129517D02*
X1504833Y134483D01*
X1504833Y129517D02*
X1492367Y129517D01*
X1492367Y134483D01*
X1504833Y134483D01*
X1504833Y131947D02*
X1492367Y131947D01*
X1492367Y134377D02*
X1504833Y134377D01*
X1504833Y139517D02*
X1504833Y144483D01*
X1504833Y139517D02*
X1492367Y139517D01*
X1492367Y144483D01*
X1504833Y144483D01*
X1504833Y141947D02*
X1492367Y141947D01*
X1492367Y144377D02*
X1504833Y144377D01*
D17*
X1416423Y121143D02*
X1402311Y121143D01*
X1402311Y126457D01*
X1416423Y126457D01*
X1416423Y121143D01*
X1416423Y123519D02*
X1402311Y123519D01*
X1402311Y125895D02*
X1416423Y125895D01*
X1416423Y111643D02*
X1402311Y111643D01*
X1402311Y116957D01*
X1416423Y116957D01*
X1416423Y111643D01*
X1416423Y114019D02*
X1402311Y114019D01*
X1402311Y116395D02*
X1416423Y116395D01*
X1416423Y102143D02*
X1402311Y102143D01*
X1402311Y107457D01*
X1416423Y107457D01*
X1416423Y102143D01*
X1416423Y104519D02*
X1402311Y104519D01*
X1402311Y106895D02*
X1416423Y106895D01*
X1428377Y102143D02*
X1442489Y102143D01*
X1428377Y102143D02*
X1428377Y107457D01*
X1442489Y107457D01*
X1442489Y102143D01*
X1442489Y104519D02*
X1428377Y104519D01*
X1428377Y106895D02*
X1442489Y106895D01*
X1442489Y121143D02*
X1428377Y121143D01*
X1428377Y126457D01*
X1442489Y126457D01*
X1442489Y121143D01*
X1442489Y123519D02*
X1428377Y123519D01*
X1428377Y125895D02*
X1442489Y125895D01*
D14*
X1476137Y126557D02*
X1476137Y119603D01*
X1465183Y119603D01*
X1465183Y126557D01*
X1476137Y126557D01*
X1476137Y122045D02*
X1465183Y122045D01*
X1465183Y124487D02*
X1476137Y124487D01*
X1476137Y137603D02*
X1476137Y144557D01*
X1476137Y137603D02*
X1465183Y137603D01*
X1465183Y144557D01*
X1476137Y144557D01*
X1476137Y140045D02*
X1465183Y140045D01*
X1465183Y142487D02*
X1476137Y142487D01*
D18*
X1387245Y167055D02*
X1377255Y167055D01*
X1387245Y167055D02*
X1387245Y158065D01*
X1377255Y158065D01*
X1377255Y167055D01*
X1377255Y160473D02*
X1387245Y160473D01*
X1387245Y162881D02*
X1377255Y162881D01*
X1377255Y165289D02*
X1387245Y165289D01*
X1370245Y167055D02*
X1360255Y167055D01*
X1370245Y167055D02*
X1370245Y158065D01*
X1360255Y158065D01*
X1360255Y167055D01*
X1360255Y160473D02*
X1370245Y160473D01*
X1370245Y162881D02*
X1360255Y162881D01*
X1360255Y165289D02*
X1370245Y165289D01*
X1386155Y127795D02*
X1386155Y117805D01*
X1386155Y127795D02*
X1395145Y127795D01*
X1395145Y117805D01*
X1386155Y117805D01*
X1386155Y120213D02*
X1395145Y120213D01*
X1395145Y122621D02*
X1386155Y122621D01*
X1386155Y125029D02*
X1395145Y125029D01*
X1395145Y127437D02*
X1386155Y127437D01*
X1386155Y110795D02*
X1386155Y100805D01*
X1386155Y110795D02*
X1395145Y110795D01*
X1395145Y100805D01*
X1386155Y100805D01*
X1386155Y103213D02*
X1395145Y103213D01*
X1395145Y105621D02*
X1386155Y105621D01*
X1386155Y108029D02*
X1395145Y108029D01*
X1395145Y110437D02*
X1386155Y110437D01*
X1376095Y110795D02*
X1376095Y100805D01*
X1367105Y100805D01*
X1367105Y110795D01*
X1376095Y110795D01*
X1376095Y103213D02*
X1367105Y103213D01*
X1367105Y105621D02*
X1376095Y105621D01*
X1376095Y108029D02*
X1367105Y108029D01*
X1367105Y110437D02*
X1376095Y110437D01*
X1376095Y117805D02*
X1376095Y127795D01*
X1376095Y117805D02*
X1367105Y117805D01*
X1367105Y127795D01*
X1376095Y127795D01*
X1376095Y120213D02*
X1367105Y120213D01*
X1367105Y122621D02*
X1376095Y122621D01*
X1376095Y125029D02*
X1367105Y125029D01*
X1367105Y127437D02*
X1376095Y127437D01*
X1402791Y93395D02*
X1412781Y93395D01*
X1412781Y84405D01*
X1402791Y84405D01*
X1402791Y93395D01*
X1402791Y86813D02*
X1412781Y86813D01*
X1412781Y89221D02*
X1402791Y89221D01*
X1402791Y91629D02*
X1412781Y91629D01*
X1395781Y93395D02*
X1385791Y93395D01*
X1395781Y93395D02*
X1395781Y84405D01*
X1385791Y84405D01*
X1385791Y93395D01*
X1385791Y86813D02*
X1395781Y86813D01*
X1395781Y89221D02*
X1385791Y89221D01*
X1385791Y91629D02*
X1395781Y91629D01*
D19*
X1384350Y142390D02*
X1379030Y142390D01*
X1379030Y149710D01*
X1384350Y149710D01*
X1384350Y142390D01*
X1384350Y144769D02*
X1379030Y144769D01*
X1379030Y147148D02*
X1384350Y147148D01*
X1384350Y149527D02*
X1379030Y149527D01*
X1402030Y142390D02*
X1407350Y142390D01*
X1402030Y142390D02*
X1402030Y149710D01*
X1407350Y149710D01*
X1407350Y142390D01*
X1407350Y144769D02*
X1402030Y144769D01*
X1402030Y147148D02*
X1407350Y147148D01*
X1407350Y149527D02*
X1402030Y149527D01*
D18*
X1458645Y110795D02*
X1458645Y100805D01*
X1449655Y100805D01*
X1449655Y110795D01*
X1458645Y110795D01*
X1458645Y103213D02*
X1449655Y103213D01*
X1449655Y105621D02*
X1458645Y105621D01*
X1458645Y108029D02*
X1449655Y108029D01*
X1449655Y110437D02*
X1458645Y110437D01*
X1458645Y117805D02*
X1458645Y127795D01*
X1458645Y117805D02*
X1449655Y117805D01*
X1449655Y127795D01*
X1458645Y127795D01*
X1458645Y120213D02*
X1449655Y120213D01*
X1449655Y122621D02*
X1458645Y122621D01*
X1458645Y125029D02*
X1449655Y125029D01*
X1449655Y127437D02*
X1458645Y127437D01*
D20*
X1320800Y25400D03*
X1524000Y25400D03*
X1320800Y228600D03*
X1524000Y228600D03*
D21*
X1301750Y400050D03*
X1543050Y6350D03*
D22*
X1412920Y203370D02*
X1383880Y203370D01*
X1412920Y203370D02*
X1412920Y190330D01*
X1383880Y190330D01*
X1383880Y203370D01*
X1383880Y192690D02*
X1412920Y192690D01*
X1412920Y195050D02*
X1383880Y195050D01*
X1383880Y197410D02*
X1412920Y197410D01*
X1412920Y199770D02*
X1383880Y199770D01*
X1383880Y202130D02*
X1412920Y202130D01*
X1431880Y203370D02*
X1460920Y203370D01*
X1460920Y190330D01*
X1431880Y190330D01*
X1431880Y203370D01*
X1431880Y192690D02*
X1460920Y192690D01*
X1460920Y195050D02*
X1431880Y195050D01*
X1431880Y197410D02*
X1460920Y197410D01*
X1460920Y199770D02*
X1431880Y199770D01*
X1431880Y202130D02*
X1460920Y202130D01*
D18*
X1529765Y356075D02*
X1529765Y366065D01*
X1529765Y356075D02*
X1520775Y356075D01*
X1520775Y366065D01*
X1529765Y366065D01*
X1529765Y358483D02*
X1520775Y358483D01*
X1520775Y360891D02*
X1529765Y360891D01*
X1529765Y363299D02*
X1520775Y363299D01*
X1520775Y365707D02*
X1529765Y365707D01*
X1529765Y373075D02*
X1529765Y383065D01*
X1529765Y373075D02*
X1520775Y373075D01*
X1520775Y383065D01*
X1529765Y383065D01*
X1529765Y375483D02*
X1520775Y375483D01*
X1520775Y377891D02*
X1529765Y377891D01*
X1529765Y380299D02*
X1520775Y380299D01*
X1520775Y382707D02*
X1529765Y382707D01*
X1509445Y366065D02*
X1509445Y356075D01*
X1500455Y356075D01*
X1500455Y366065D01*
X1509445Y366065D01*
X1509445Y358483D02*
X1500455Y358483D01*
X1500455Y360891D02*
X1509445Y360891D01*
X1509445Y363299D02*
X1500455Y363299D01*
X1500455Y365707D02*
X1509445Y365707D01*
X1509445Y373075D02*
X1509445Y383065D01*
X1509445Y373075D02*
X1500455Y373075D01*
X1500455Y383065D01*
X1509445Y383065D01*
X1509445Y375483D02*
X1500455Y375483D01*
X1500455Y377891D02*
X1509445Y377891D01*
X1509445Y380299D02*
X1500455Y380299D01*
X1500455Y382707D02*
X1509445Y382707D01*
X1345615Y366065D02*
X1345615Y356075D01*
X1336625Y356075D01*
X1336625Y366065D01*
X1345615Y366065D01*
X1345615Y358483D02*
X1336625Y358483D01*
X1336625Y360891D02*
X1345615Y360891D01*
X1345615Y363299D02*
X1336625Y363299D01*
X1336625Y365707D02*
X1345615Y365707D01*
X1345615Y373075D02*
X1345615Y383065D01*
X1345615Y373075D02*
X1336625Y373075D01*
X1336625Y383065D01*
X1345615Y383065D01*
X1345615Y375483D02*
X1336625Y375483D01*
X1336625Y377891D02*
X1345615Y377891D01*
X1345615Y380299D02*
X1336625Y380299D01*
X1336625Y382707D02*
X1345615Y382707D01*
X1325295Y366065D02*
X1325295Y356075D01*
X1316305Y356075D01*
X1316305Y366065D01*
X1325295Y366065D01*
X1325295Y358483D02*
X1316305Y358483D01*
X1316305Y360891D02*
X1325295Y360891D01*
X1325295Y363299D02*
X1316305Y363299D01*
X1316305Y365707D02*
X1325295Y365707D01*
X1325295Y373075D02*
X1325295Y383065D01*
X1325295Y373075D02*
X1316305Y373075D01*
X1316305Y383065D01*
X1325295Y383065D01*
X1325295Y375483D02*
X1316305Y375483D01*
X1316305Y377891D02*
X1325295Y377891D01*
X1325295Y380299D02*
X1316305Y380299D01*
X1316305Y382707D02*
X1325295Y382707D01*
X1452295Y54915D02*
X1452295Y44925D01*
X1443305Y44925D01*
X1443305Y54915D01*
X1452295Y54915D01*
X1452295Y47333D02*
X1443305Y47333D01*
X1443305Y49741D02*
X1452295Y49741D01*
X1452295Y52149D02*
X1443305Y52149D01*
X1443305Y54557D02*
X1452295Y54557D01*
X1452295Y61925D02*
X1452295Y71915D01*
X1452295Y61925D02*
X1443305Y61925D01*
X1443305Y71915D01*
X1452295Y71915D01*
X1452295Y64333D02*
X1443305Y64333D01*
X1443305Y66741D02*
X1452295Y66741D01*
X1452295Y69149D02*
X1443305Y69149D01*
X1443305Y71557D02*
X1452295Y71557D01*
X1401495Y54915D02*
X1401495Y44925D01*
X1392505Y44925D01*
X1392505Y54915D01*
X1401495Y54915D01*
X1401495Y47333D02*
X1392505Y47333D01*
X1392505Y49741D02*
X1401495Y49741D01*
X1401495Y52149D02*
X1392505Y52149D01*
X1392505Y54557D02*
X1401495Y54557D01*
X1401495Y61925D02*
X1401495Y71915D01*
X1401495Y61925D02*
X1392505Y61925D01*
X1392505Y71915D01*
X1401495Y71915D01*
X1401495Y64333D02*
X1392505Y64333D01*
X1392505Y66741D02*
X1401495Y66741D01*
X1401495Y69149D02*
X1392505Y69149D01*
X1392505Y71557D02*
X1401495Y71557D01*
D23*
X1485900Y12700D03*
X1460500Y12700D03*
X1435100Y12700D03*
X1409700Y12700D03*
X1384300Y12700D03*
X1358900Y12700D03*
X1308100Y317500D03*
X1308100Y292100D03*
X1308100Y266700D03*
X1536700Y317500D03*
X1536700Y292100D03*
X1536700Y266700D03*
D18*
X1435895Y396925D02*
X1425905Y396925D01*
X1435895Y396925D02*
X1435895Y387935D01*
X1425905Y387935D01*
X1425905Y396925D01*
X1425905Y390343D02*
X1435895Y390343D01*
X1435895Y392751D02*
X1425905Y392751D01*
X1425905Y395159D02*
X1435895Y395159D01*
X1418895Y396925D02*
X1408905Y396925D01*
X1418895Y396925D02*
X1418895Y387935D01*
X1408905Y387935D01*
X1408905Y396925D01*
X1408905Y390343D02*
X1418895Y390343D01*
X1418895Y392751D02*
X1408905Y392751D01*
X1408905Y395159D02*
X1418895Y395159D01*
D24*
X1468295Y395945D02*
X1468295Y388915D01*
X1468295Y395945D02*
X1475325Y395945D01*
X1475325Y388915D01*
X1468295Y388915D01*
X1468295Y393184D02*
X1475325Y393184D01*
X1450755Y395945D02*
X1450755Y388915D01*
X1450755Y395945D02*
X1457785Y395945D01*
X1457785Y388915D01*
X1450755Y388915D01*
X1450755Y393184D02*
X1457785Y393184D01*
D18*
X1395255Y396925D02*
X1385265Y396925D01*
X1395255Y396925D02*
X1395255Y387935D01*
X1385265Y387935D01*
X1385265Y396925D01*
X1385265Y390343D02*
X1395255Y390343D01*
X1395255Y392751D02*
X1385265Y392751D01*
X1385265Y395159D02*
X1395255Y395159D01*
X1378255Y396925D02*
X1368265Y396925D01*
X1378255Y396925D02*
X1378255Y387935D01*
X1368265Y387935D01*
X1368265Y396925D01*
X1368265Y390343D02*
X1378255Y390343D01*
X1378255Y392751D02*
X1368265Y392751D01*
X1368265Y395159D02*
X1378255Y395159D01*
D10*
X76500Y773430D03*
D11*
X76500Y748030D03*
X76500Y722630D03*
X76500Y697230D03*
D10*
X76500Y671830D03*
D12*
X102850Y687130D03*
D13*
X104550Y760730D03*
X149450Y749230D03*
D12*
X151150Y687130D03*
D10*
X177500Y773430D03*
D11*
X177500Y748030D03*
X177500Y722630D03*
X177500Y697230D03*
D10*
X177500Y671830D03*
D14*
X143287Y563007D02*
X136333Y563007D01*
X143287Y563007D02*
X143287Y552053D01*
X136333Y552053D01*
X136333Y563007D01*
X136333Y554495D02*
X143287Y554495D01*
X143287Y556937D02*
X136333Y556937D01*
X136333Y559379D02*
X143287Y559379D01*
X143287Y561821D02*
X136333Y561821D01*
X125287Y563007D02*
X118333Y563007D01*
X125287Y563007D02*
X125287Y552053D01*
X118333Y552053D01*
X118333Y563007D01*
X118333Y554495D02*
X125287Y554495D01*
X125287Y556937D02*
X118333Y556937D01*
X118333Y559379D02*
X125287Y559379D01*
X125287Y561821D02*
X118333Y561821D01*
D15*
X4505Y560935D02*
X4505Y572025D01*
X23595Y572025D01*
X23595Y560935D01*
X4505Y560935D01*
X4505Y563247D02*
X23595Y563247D01*
X23595Y565559D02*
X4505Y565559D01*
X4505Y567871D02*
X23595Y567871D01*
X23595Y570183D02*
X4505Y570183D01*
X4505Y516025D02*
X4505Y504935D01*
X4505Y516025D02*
X23595Y516025D01*
X23595Y504935D01*
X4505Y504935D01*
X4505Y507247D02*
X23595Y507247D01*
X23595Y509559D02*
X4505Y509559D01*
X4505Y511871D02*
X23595Y511871D01*
X23595Y514183D02*
X4505Y514183D01*
D16*
X44567Y550997D02*
X44567Y555963D01*
X57033Y555963D01*
X57033Y550997D01*
X44567Y550997D01*
X44567Y553427D02*
X57033Y553427D01*
X57033Y555857D02*
X44567Y555857D01*
X44567Y545963D02*
X44567Y540997D01*
X44567Y545963D02*
X57033Y545963D01*
X57033Y540997D01*
X44567Y540997D01*
X44567Y543427D02*
X57033Y543427D01*
X57033Y545857D02*
X44567Y545857D01*
X44567Y535963D02*
X44567Y530997D01*
X44567Y535963D02*
X57033Y535963D01*
X57033Y530997D01*
X44567Y530997D01*
X44567Y533427D02*
X57033Y533427D01*
X57033Y535857D02*
X44567Y535857D01*
X44567Y525963D02*
X44567Y520997D01*
X44567Y525963D02*
X57033Y525963D01*
X57033Y520997D01*
X44567Y520997D01*
X44567Y523427D02*
X57033Y523427D01*
X57033Y525857D02*
X44567Y525857D01*
D15*
X249495Y516025D02*
X249495Y504935D01*
X230405Y504935D01*
X230405Y516025D01*
X249495Y516025D01*
X249495Y507247D02*
X230405Y507247D01*
X230405Y509559D02*
X249495Y509559D01*
X249495Y511871D02*
X230405Y511871D01*
X230405Y514183D02*
X249495Y514183D01*
X249495Y560935D02*
X249495Y572025D01*
X249495Y560935D02*
X230405Y560935D01*
X230405Y572025D01*
X249495Y572025D01*
X249495Y563247D02*
X230405Y563247D01*
X230405Y565559D02*
X249495Y565559D01*
X249495Y567871D02*
X230405Y567871D01*
X230405Y570183D02*
X249495Y570183D01*
D16*
X209433Y525963D02*
X209433Y520997D01*
X196967Y520997D01*
X196967Y525963D01*
X209433Y525963D01*
X209433Y523427D02*
X196967Y523427D01*
X196967Y525857D02*
X209433Y525857D01*
X209433Y530997D02*
X209433Y535963D01*
X209433Y530997D02*
X196967Y530997D01*
X196967Y535963D01*
X209433Y535963D01*
X209433Y533427D02*
X196967Y533427D01*
X196967Y535857D02*
X209433Y535857D01*
X209433Y540997D02*
X209433Y545963D01*
X209433Y540997D02*
X196967Y540997D01*
X196967Y545963D01*
X209433Y545963D01*
X209433Y543427D02*
X196967Y543427D01*
X196967Y545857D02*
X209433Y545857D01*
X209433Y550997D02*
X209433Y555963D01*
X209433Y550997D02*
X196967Y550997D01*
X196967Y555963D01*
X209433Y555963D01*
X209433Y553427D02*
X196967Y553427D01*
X196967Y555857D02*
X209433Y555857D01*
D17*
X121023Y532623D02*
X106911Y532623D01*
X106911Y537937D01*
X121023Y537937D01*
X121023Y532623D01*
X121023Y534999D02*
X106911Y534999D01*
X106911Y537375D02*
X121023Y537375D01*
X121023Y523123D02*
X106911Y523123D01*
X106911Y528437D01*
X121023Y528437D01*
X121023Y523123D01*
X121023Y525499D02*
X106911Y525499D01*
X106911Y527875D02*
X121023Y527875D01*
X121023Y513623D02*
X106911Y513623D01*
X106911Y518937D01*
X121023Y518937D01*
X121023Y513623D01*
X121023Y515999D02*
X106911Y515999D01*
X106911Y518375D02*
X121023Y518375D01*
X132977Y513623D02*
X147089Y513623D01*
X132977Y513623D02*
X132977Y518937D01*
X147089Y518937D01*
X147089Y513623D01*
X147089Y515999D02*
X132977Y515999D01*
X132977Y518375D02*
X147089Y518375D01*
X147089Y532623D02*
X132977Y532623D01*
X132977Y537937D01*
X147089Y537937D01*
X147089Y532623D01*
X147089Y534999D02*
X132977Y534999D01*
X132977Y537375D02*
X147089Y537375D01*
D14*
X180737Y538037D02*
X180737Y531083D01*
X169783Y531083D01*
X169783Y538037D01*
X180737Y538037D01*
X180737Y533525D02*
X169783Y533525D01*
X169783Y535967D02*
X180737Y535967D01*
X180737Y549083D02*
X180737Y556037D01*
X180737Y549083D02*
X169783Y549083D01*
X169783Y556037D01*
X180737Y556037D01*
X180737Y551525D02*
X169783Y551525D01*
X169783Y553967D02*
X180737Y553967D01*
D18*
X91845Y578535D02*
X81855Y578535D01*
X91845Y578535D02*
X91845Y569545D01*
X81855Y569545D01*
X81855Y578535D01*
X81855Y571953D02*
X91845Y571953D01*
X91845Y574361D02*
X81855Y574361D01*
X81855Y576769D02*
X91845Y576769D01*
X74845Y578535D02*
X64855Y578535D01*
X74845Y578535D02*
X74845Y569545D01*
X64855Y569545D01*
X64855Y578535D01*
X64855Y571953D02*
X74845Y571953D01*
X74845Y574361D02*
X64855Y574361D01*
X64855Y576769D02*
X74845Y576769D01*
X90755Y539275D02*
X90755Y529285D01*
X90755Y539275D02*
X99745Y539275D01*
X99745Y529285D01*
X90755Y529285D01*
X90755Y531693D02*
X99745Y531693D01*
X99745Y534101D02*
X90755Y534101D01*
X90755Y536509D02*
X99745Y536509D01*
X99745Y538917D02*
X90755Y538917D01*
X90755Y522275D02*
X90755Y512285D01*
X90755Y522275D02*
X99745Y522275D01*
X99745Y512285D01*
X90755Y512285D01*
X90755Y514693D02*
X99745Y514693D01*
X99745Y517101D02*
X90755Y517101D01*
X90755Y519509D02*
X99745Y519509D01*
X99745Y521917D02*
X90755Y521917D01*
X80695Y522275D02*
X80695Y512285D01*
X71705Y512285D01*
X71705Y522275D01*
X80695Y522275D01*
X80695Y514693D02*
X71705Y514693D01*
X71705Y517101D02*
X80695Y517101D01*
X80695Y519509D02*
X71705Y519509D01*
X71705Y521917D02*
X80695Y521917D01*
X80695Y529285D02*
X80695Y539275D01*
X80695Y529285D02*
X71705Y529285D01*
X71705Y539275D01*
X80695Y539275D01*
X80695Y531693D02*
X71705Y531693D01*
X71705Y534101D02*
X80695Y534101D01*
X80695Y536509D02*
X71705Y536509D01*
X71705Y538917D02*
X80695Y538917D01*
X107391Y504875D02*
X117381Y504875D01*
X117381Y495885D01*
X107391Y495885D01*
X107391Y504875D01*
X107391Y498293D02*
X117381Y498293D01*
X117381Y500701D02*
X107391Y500701D01*
X107391Y503109D02*
X117381Y503109D01*
X100381Y504875D02*
X90391Y504875D01*
X100381Y504875D02*
X100381Y495885D01*
X90391Y495885D01*
X90391Y504875D01*
X90391Y498293D02*
X100381Y498293D01*
X100381Y500701D02*
X90391Y500701D01*
X90391Y503109D02*
X100381Y503109D01*
D19*
X88950Y553870D02*
X83630Y553870D01*
X83630Y561190D01*
X88950Y561190D01*
X88950Y553870D01*
X88950Y556249D02*
X83630Y556249D01*
X83630Y558628D02*
X88950Y558628D01*
X88950Y561007D02*
X83630Y561007D01*
X106630Y553870D02*
X111950Y553870D01*
X106630Y553870D02*
X106630Y561190D01*
X111950Y561190D01*
X111950Y553870D01*
X111950Y556249D02*
X106630Y556249D01*
X106630Y558628D02*
X111950Y558628D01*
X111950Y561007D02*
X106630Y561007D01*
D18*
X163245Y522275D02*
X163245Y512285D01*
X154255Y512285D01*
X154255Y522275D01*
X163245Y522275D01*
X163245Y514693D02*
X154255Y514693D01*
X154255Y517101D02*
X163245Y517101D01*
X163245Y519509D02*
X154255Y519509D01*
X154255Y521917D02*
X163245Y521917D01*
X163245Y529285D02*
X163245Y539275D01*
X163245Y529285D02*
X154255Y529285D01*
X154255Y539275D01*
X163245Y539275D01*
X163245Y531693D02*
X154255Y531693D01*
X154255Y534101D02*
X163245Y534101D01*
X163245Y536509D02*
X154255Y536509D01*
X154255Y538917D02*
X163245Y538917D01*
D20*
X25400Y436880D03*
X228600Y436880D03*
X25400Y640080D03*
X228600Y640080D03*
D21*
X6350Y811530D03*
X247650Y417830D03*
D22*
X117520Y614850D02*
X88480Y614850D01*
X117520Y614850D02*
X117520Y601810D01*
X88480Y601810D01*
X88480Y614850D01*
X88480Y604170D02*
X117520Y604170D01*
X117520Y606530D02*
X88480Y606530D01*
X88480Y608890D02*
X117520Y608890D01*
X117520Y611250D02*
X88480Y611250D01*
X88480Y613610D02*
X117520Y613610D01*
X136480Y614850D02*
X165520Y614850D01*
X165520Y601810D01*
X136480Y601810D01*
X136480Y614850D01*
X136480Y604170D02*
X165520Y604170D01*
X165520Y606530D02*
X136480Y606530D01*
X136480Y608890D02*
X165520Y608890D01*
X165520Y611250D02*
X136480Y611250D01*
X136480Y613610D02*
X165520Y613610D01*
D18*
X234365Y767555D02*
X234365Y777545D01*
X234365Y767555D02*
X225375Y767555D01*
X225375Y777545D01*
X234365Y777545D01*
X234365Y769963D02*
X225375Y769963D01*
X225375Y772371D02*
X234365Y772371D01*
X234365Y774779D02*
X225375Y774779D01*
X225375Y777187D02*
X234365Y777187D01*
X234365Y784555D02*
X234365Y794545D01*
X234365Y784555D02*
X225375Y784555D01*
X225375Y794545D01*
X234365Y794545D01*
X234365Y786963D02*
X225375Y786963D01*
X225375Y789371D02*
X234365Y789371D01*
X234365Y791779D02*
X225375Y791779D01*
X225375Y794187D02*
X234365Y794187D01*
X214045Y777545D02*
X214045Y767555D01*
X205055Y767555D01*
X205055Y777545D01*
X214045Y777545D01*
X214045Y769963D02*
X205055Y769963D01*
X205055Y772371D02*
X214045Y772371D01*
X214045Y774779D02*
X205055Y774779D01*
X205055Y777187D02*
X214045Y777187D01*
X214045Y784555D02*
X214045Y794545D01*
X214045Y784555D02*
X205055Y784555D01*
X205055Y794545D01*
X214045Y794545D01*
X214045Y786963D02*
X205055Y786963D01*
X205055Y789371D02*
X214045Y789371D01*
X214045Y791779D02*
X205055Y791779D01*
X205055Y794187D02*
X214045Y794187D01*
X50215Y777545D02*
X50215Y767555D01*
X41225Y767555D01*
X41225Y777545D01*
X50215Y777545D01*
X50215Y769963D02*
X41225Y769963D01*
X41225Y772371D02*
X50215Y772371D01*
X50215Y774779D02*
X41225Y774779D01*
X41225Y777187D02*
X50215Y777187D01*
X50215Y784555D02*
X50215Y794545D01*
X50215Y784555D02*
X41225Y784555D01*
X41225Y794545D01*
X50215Y794545D01*
X50215Y786963D02*
X41225Y786963D01*
X41225Y789371D02*
X50215Y789371D01*
X50215Y791779D02*
X41225Y791779D01*
X41225Y794187D02*
X50215Y794187D01*
X29895Y777545D02*
X29895Y767555D01*
X20905Y767555D01*
X20905Y777545D01*
X29895Y777545D01*
X29895Y769963D02*
X20905Y769963D01*
X20905Y772371D02*
X29895Y772371D01*
X29895Y774779D02*
X20905Y774779D01*
X20905Y777187D02*
X29895Y777187D01*
X29895Y784555D02*
X29895Y794545D01*
X29895Y784555D02*
X20905Y784555D01*
X20905Y794545D01*
X29895Y794545D01*
X29895Y786963D02*
X20905Y786963D01*
X20905Y789371D02*
X29895Y789371D01*
X29895Y791779D02*
X20905Y791779D01*
X20905Y794187D02*
X29895Y794187D01*
X156895Y466395D02*
X156895Y456405D01*
X147905Y456405D01*
X147905Y466395D01*
X156895Y466395D01*
X156895Y458813D02*
X147905Y458813D01*
X147905Y461221D02*
X156895Y461221D01*
X156895Y463629D02*
X147905Y463629D01*
X147905Y466037D02*
X156895Y466037D01*
X156895Y473405D02*
X156895Y483395D01*
X156895Y473405D02*
X147905Y473405D01*
X147905Y483395D01*
X156895Y483395D01*
X156895Y475813D02*
X147905Y475813D01*
X147905Y478221D02*
X156895Y478221D01*
X156895Y480629D02*
X147905Y480629D01*
X147905Y483037D02*
X156895Y483037D01*
X106095Y466395D02*
X106095Y456405D01*
X97105Y456405D01*
X97105Y466395D01*
X106095Y466395D01*
X106095Y458813D02*
X97105Y458813D01*
X97105Y461221D02*
X106095Y461221D01*
X106095Y463629D02*
X97105Y463629D01*
X97105Y466037D02*
X106095Y466037D01*
X106095Y473405D02*
X106095Y483395D01*
X106095Y473405D02*
X97105Y473405D01*
X97105Y483395D01*
X106095Y483395D01*
X106095Y475813D02*
X97105Y475813D01*
X97105Y478221D02*
X106095Y478221D01*
X106095Y480629D02*
X97105Y480629D01*
X97105Y483037D02*
X106095Y483037D01*
D23*
X190500Y424180D03*
X165100Y424180D03*
X139700Y424180D03*
X114300Y424180D03*
X88900Y424180D03*
X63500Y424180D03*
X12700Y728980D03*
X12700Y703580D03*
X12700Y678180D03*
X241300Y728980D03*
X241300Y703580D03*
X241300Y678180D03*
D18*
X140495Y808405D02*
X130505Y808405D01*
X140495Y808405D02*
X140495Y799415D01*
X130505Y799415D01*
X130505Y808405D01*
X130505Y801823D02*
X140495Y801823D01*
X140495Y804231D02*
X130505Y804231D01*
X130505Y806639D02*
X140495Y806639D01*
X123495Y808405D02*
X113505Y808405D01*
X123495Y808405D02*
X123495Y799415D01*
X113505Y799415D01*
X113505Y808405D01*
X113505Y801823D02*
X123495Y801823D01*
X123495Y804231D02*
X113505Y804231D01*
X113505Y806639D02*
X123495Y806639D01*
D24*
X172895Y807425D02*
X172895Y800395D01*
X172895Y807425D02*
X179925Y807425D01*
X179925Y800395D01*
X172895Y800395D01*
X172895Y804664D02*
X179925Y804664D01*
X155355Y807425D02*
X155355Y800395D01*
X155355Y807425D02*
X162385Y807425D01*
X162385Y800395D01*
X155355Y800395D01*
X155355Y804664D02*
X162385Y804664D01*
D18*
X99855Y808405D02*
X89865Y808405D01*
X99855Y808405D02*
X99855Y799415D01*
X89865Y799415D01*
X89865Y808405D01*
X89865Y801823D02*
X99855Y801823D01*
X99855Y804231D02*
X89865Y804231D01*
X89865Y806639D02*
X99855Y806639D01*
X82855Y808405D02*
X72865Y808405D01*
X82855Y808405D02*
X82855Y799415D01*
X72865Y799415D01*
X72865Y808405D01*
X72865Y801823D02*
X82855Y801823D01*
X82855Y804231D02*
X72865Y804231D01*
X72865Y806639D02*
X82855Y806639D01*
D10*
X335580Y773430D03*
D11*
X335580Y748030D03*
X335580Y722630D03*
X335580Y697230D03*
D10*
X335580Y671830D03*
D12*
X361930Y687130D03*
D13*
X363630Y760730D03*
X408530Y749230D03*
D12*
X410230Y687130D03*
D10*
X436580Y773430D03*
D11*
X436580Y748030D03*
X436580Y722630D03*
X436580Y697230D03*
D10*
X436580Y671830D03*
D14*
X402367Y563007D02*
X395413Y563007D01*
X402367Y563007D02*
X402367Y552053D01*
X395413Y552053D01*
X395413Y563007D01*
X395413Y554495D02*
X402367Y554495D01*
X402367Y556937D02*
X395413Y556937D01*
X395413Y559379D02*
X402367Y559379D01*
X402367Y561821D02*
X395413Y561821D01*
X384367Y563007D02*
X377413Y563007D01*
X384367Y563007D02*
X384367Y552053D01*
X377413Y552053D01*
X377413Y563007D01*
X377413Y554495D02*
X384367Y554495D01*
X384367Y556937D02*
X377413Y556937D01*
X377413Y559379D02*
X384367Y559379D01*
X384367Y561821D02*
X377413Y561821D01*
D15*
X263585Y560935D02*
X263585Y572025D01*
X282675Y572025D01*
X282675Y560935D01*
X263585Y560935D01*
X263585Y563247D02*
X282675Y563247D01*
X282675Y565559D02*
X263585Y565559D01*
X263585Y567871D02*
X282675Y567871D01*
X282675Y570183D02*
X263585Y570183D01*
X263585Y516025D02*
X263585Y504935D01*
X263585Y516025D02*
X282675Y516025D01*
X282675Y504935D01*
X263585Y504935D01*
X263585Y507247D02*
X282675Y507247D01*
X282675Y509559D02*
X263585Y509559D01*
X263585Y511871D02*
X282675Y511871D01*
X282675Y514183D02*
X263585Y514183D01*
D16*
X303647Y550997D02*
X303647Y555963D01*
X316113Y555963D01*
X316113Y550997D01*
X303647Y550997D01*
X303647Y553427D02*
X316113Y553427D01*
X316113Y555857D02*
X303647Y555857D01*
X303647Y545963D02*
X303647Y540997D01*
X303647Y545963D02*
X316113Y545963D01*
X316113Y540997D01*
X303647Y540997D01*
X303647Y543427D02*
X316113Y543427D01*
X316113Y545857D02*
X303647Y545857D01*
X303647Y535963D02*
X303647Y530997D01*
X303647Y535963D02*
X316113Y535963D01*
X316113Y530997D01*
X303647Y530997D01*
X303647Y533427D02*
X316113Y533427D01*
X316113Y535857D02*
X303647Y535857D01*
X303647Y525963D02*
X303647Y520997D01*
X303647Y525963D02*
X316113Y525963D01*
X316113Y520997D01*
X303647Y520997D01*
X303647Y523427D02*
X316113Y523427D01*
X316113Y525857D02*
X303647Y525857D01*
D15*
X508575Y516025D02*
X508575Y504935D01*
X489485Y504935D01*
X489485Y516025D01*
X508575Y516025D01*
X508575Y507247D02*
X489485Y507247D01*
X489485Y509559D02*
X508575Y509559D01*
X508575Y511871D02*
X489485Y511871D01*
X489485Y514183D02*
X508575Y514183D01*
X508575Y560935D02*
X508575Y572025D01*
X508575Y560935D02*
X489485Y560935D01*
X489485Y572025D01*
X508575Y572025D01*
X508575Y563247D02*
X489485Y563247D01*
X489485Y565559D02*
X508575Y565559D01*
X508575Y567871D02*
X489485Y567871D01*
X489485Y570183D02*
X508575Y570183D01*
D16*
X468513Y525963D02*
X468513Y520997D01*
X456047Y520997D01*
X456047Y525963D01*
X468513Y525963D01*
X468513Y523427D02*
X456047Y523427D01*
X456047Y525857D02*
X468513Y525857D01*
X468513Y530997D02*
X468513Y535963D01*
X468513Y530997D02*
X456047Y530997D01*
X456047Y535963D01*
X468513Y535963D01*
X468513Y533427D02*
X456047Y533427D01*
X456047Y535857D02*
X468513Y535857D01*
X468513Y540997D02*
X468513Y545963D01*
X468513Y540997D02*
X456047Y540997D01*
X456047Y545963D01*
X468513Y545963D01*
X468513Y543427D02*
X456047Y543427D01*
X456047Y545857D02*
X468513Y545857D01*
X468513Y550997D02*
X468513Y555963D01*
X468513Y550997D02*
X456047Y550997D01*
X456047Y555963D01*
X468513Y555963D01*
X468513Y553427D02*
X456047Y553427D01*
X456047Y555857D02*
X468513Y555857D01*
D17*
X380103Y532623D02*
X365991Y532623D01*
X365991Y537937D01*
X380103Y537937D01*
X380103Y532623D01*
X380103Y534999D02*
X365991Y534999D01*
X365991Y537375D02*
X380103Y537375D01*
X380103Y523123D02*
X365991Y523123D01*
X365991Y528437D01*
X380103Y528437D01*
X380103Y523123D01*
X380103Y525499D02*
X365991Y525499D01*
X365991Y527875D02*
X380103Y527875D01*
X380103Y513623D02*
X365991Y513623D01*
X365991Y518937D01*
X380103Y518937D01*
X380103Y513623D01*
X380103Y515999D02*
X365991Y515999D01*
X365991Y518375D02*
X380103Y518375D01*
X392057Y513623D02*
X406169Y513623D01*
X392057Y513623D02*
X392057Y518937D01*
X406169Y518937D01*
X406169Y513623D01*
X406169Y515999D02*
X392057Y515999D01*
X392057Y518375D02*
X406169Y518375D01*
X406169Y532623D02*
X392057Y532623D01*
X392057Y537937D01*
X406169Y537937D01*
X406169Y532623D01*
X406169Y534999D02*
X392057Y534999D01*
X392057Y537375D02*
X406169Y537375D01*
D14*
X439817Y538037D02*
X439817Y531083D01*
X428863Y531083D01*
X428863Y538037D01*
X439817Y538037D01*
X439817Y533525D02*
X428863Y533525D01*
X428863Y535967D02*
X439817Y535967D01*
X439817Y549083D02*
X439817Y556037D01*
X439817Y549083D02*
X428863Y549083D01*
X428863Y556037D01*
X439817Y556037D01*
X439817Y551525D02*
X428863Y551525D01*
X428863Y553967D02*
X439817Y553967D01*
D18*
X350925Y578535D02*
X340935Y578535D01*
X350925Y578535D02*
X350925Y569545D01*
X340935Y569545D01*
X340935Y578535D01*
X340935Y571953D02*
X350925Y571953D01*
X350925Y574361D02*
X340935Y574361D01*
X340935Y576769D02*
X350925Y576769D01*
X333925Y578535D02*
X323935Y578535D01*
X333925Y578535D02*
X333925Y569545D01*
X323935Y569545D01*
X323935Y578535D01*
X323935Y571953D02*
X333925Y571953D01*
X333925Y574361D02*
X323935Y574361D01*
X323935Y576769D02*
X333925Y576769D01*
X349835Y539275D02*
X349835Y529285D01*
X349835Y539275D02*
X358825Y539275D01*
X358825Y529285D01*
X349835Y529285D01*
X349835Y531693D02*
X358825Y531693D01*
X358825Y534101D02*
X349835Y534101D01*
X349835Y536509D02*
X358825Y536509D01*
X358825Y538917D02*
X349835Y538917D01*
X349835Y522275D02*
X349835Y512285D01*
X349835Y522275D02*
X358825Y522275D01*
X358825Y512285D01*
X349835Y512285D01*
X349835Y514693D02*
X358825Y514693D01*
X358825Y517101D02*
X349835Y517101D01*
X349835Y519509D02*
X358825Y519509D01*
X358825Y521917D02*
X349835Y521917D01*
X339775Y522275D02*
X339775Y512285D01*
X330785Y512285D01*
X330785Y522275D01*
X339775Y522275D01*
X339775Y514693D02*
X330785Y514693D01*
X330785Y517101D02*
X339775Y517101D01*
X339775Y519509D02*
X330785Y519509D01*
X330785Y521917D02*
X339775Y521917D01*
X339775Y529285D02*
X339775Y539275D01*
X339775Y529285D02*
X330785Y529285D01*
X330785Y539275D01*
X339775Y539275D01*
X339775Y531693D02*
X330785Y531693D01*
X330785Y534101D02*
X339775Y534101D01*
X339775Y536509D02*
X330785Y536509D01*
X330785Y538917D02*
X339775Y538917D01*
X366471Y504875D02*
X376461Y504875D01*
X376461Y495885D01*
X366471Y495885D01*
X366471Y504875D01*
X366471Y498293D02*
X376461Y498293D01*
X376461Y500701D02*
X366471Y500701D01*
X366471Y503109D02*
X376461Y503109D01*
X359461Y504875D02*
X349471Y504875D01*
X359461Y504875D02*
X359461Y495885D01*
X349471Y495885D01*
X349471Y504875D01*
X349471Y498293D02*
X359461Y498293D01*
X359461Y500701D02*
X349471Y500701D01*
X349471Y503109D02*
X359461Y503109D01*
D19*
X348030Y553870D02*
X342710Y553870D01*
X342710Y561190D01*
X348030Y561190D01*
X348030Y553870D01*
X348030Y556249D02*
X342710Y556249D01*
X342710Y558628D02*
X348030Y558628D01*
X348030Y561007D02*
X342710Y561007D01*
X365710Y553870D02*
X371030Y553870D01*
X365710Y553870D02*
X365710Y561190D01*
X371030Y561190D01*
X371030Y553870D01*
X371030Y556249D02*
X365710Y556249D01*
X365710Y558628D02*
X371030Y558628D01*
X371030Y561007D02*
X365710Y561007D01*
D18*
X422325Y522275D02*
X422325Y512285D01*
X413335Y512285D01*
X413335Y522275D01*
X422325Y522275D01*
X422325Y514693D02*
X413335Y514693D01*
X413335Y517101D02*
X422325Y517101D01*
X422325Y519509D02*
X413335Y519509D01*
X413335Y521917D02*
X422325Y521917D01*
X422325Y529285D02*
X422325Y539275D01*
X422325Y529285D02*
X413335Y529285D01*
X413335Y539275D01*
X422325Y539275D01*
X422325Y531693D02*
X413335Y531693D01*
X413335Y534101D02*
X422325Y534101D01*
X422325Y536509D02*
X413335Y536509D01*
X413335Y538917D02*
X422325Y538917D01*
D20*
X284480Y436880D03*
X487680Y436880D03*
X284480Y640080D03*
X487680Y640080D03*
D21*
X265430Y811530D03*
X506730Y417830D03*
D22*
X376600Y614850D02*
X347560Y614850D01*
X376600Y614850D02*
X376600Y601810D01*
X347560Y601810D01*
X347560Y614850D01*
X347560Y604170D02*
X376600Y604170D01*
X376600Y606530D02*
X347560Y606530D01*
X347560Y608890D02*
X376600Y608890D01*
X376600Y611250D02*
X347560Y611250D01*
X347560Y613610D02*
X376600Y613610D01*
X395560Y614850D02*
X424600Y614850D01*
X424600Y601810D01*
X395560Y601810D01*
X395560Y614850D01*
X395560Y604170D02*
X424600Y604170D01*
X424600Y606530D02*
X395560Y606530D01*
X395560Y608890D02*
X424600Y608890D01*
X424600Y611250D02*
X395560Y611250D01*
X395560Y613610D02*
X424600Y613610D01*
D18*
X493445Y767555D02*
X493445Y777545D01*
X493445Y767555D02*
X484455Y767555D01*
X484455Y777545D01*
X493445Y777545D01*
X493445Y769963D02*
X484455Y769963D01*
X484455Y772371D02*
X493445Y772371D01*
X493445Y774779D02*
X484455Y774779D01*
X484455Y777187D02*
X493445Y777187D01*
X493445Y784555D02*
X493445Y794545D01*
X493445Y784555D02*
X484455Y784555D01*
X484455Y794545D01*
X493445Y794545D01*
X493445Y786963D02*
X484455Y786963D01*
X484455Y789371D02*
X493445Y789371D01*
X493445Y791779D02*
X484455Y791779D01*
X484455Y794187D02*
X493445Y794187D01*
X473125Y777545D02*
X473125Y767555D01*
X464135Y767555D01*
X464135Y777545D01*
X473125Y777545D01*
X473125Y769963D02*
X464135Y769963D01*
X464135Y772371D02*
X473125Y772371D01*
X473125Y774779D02*
X464135Y774779D01*
X464135Y777187D02*
X473125Y777187D01*
X473125Y784555D02*
X473125Y794545D01*
X473125Y784555D02*
X464135Y784555D01*
X464135Y794545D01*
X473125Y794545D01*
X473125Y786963D02*
X464135Y786963D01*
X464135Y789371D02*
X473125Y789371D01*
X473125Y791779D02*
X464135Y791779D01*
X464135Y794187D02*
X473125Y794187D01*
X309295Y777545D02*
X309295Y767555D01*
X300305Y767555D01*
X300305Y777545D01*
X309295Y777545D01*
X309295Y769963D02*
X300305Y769963D01*
X300305Y772371D02*
X309295Y772371D01*
X309295Y774779D02*
X300305Y774779D01*
X300305Y777187D02*
X309295Y777187D01*
X309295Y784555D02*
X309295Y794545D01*
X309295Y784555D02*
X300305Y784555D01*
X300305Y794545D01*
X309295Y794545D01*
X309295Y786963D02*
X300305Y786963D01*
X300305Y789371D02*
X309295Y789371D01*
X309295Y791779D02*
X300305Y791779D01*
X300305Y794187D02*
X309295Y794187D01*
X288975Y777545D02*
X288975Y767555D01*
X279985Y767555D01*
X279985Y777545D01*
X288975Y777545D01*
X288975Y769963D02*
X279985Y769963D01*
X279985Y772371D02*
X288975Y772371D01*
X288975Y774779D02*
X279985Y774779D01*
X279985Y777187D02*
X288975Y777187D01*
X288975Y784555D02*
X288975Y794545D01*
X288975Y784555D02*
X279985Y784555D01*
X279985Y794545D01*
X288975Y794545D01*
X288975Y786963D02*
X279985Y786963D01*
X279985Y789371D02*
X288975Y789371D01*
X288975Y791779D02*
X279985Y791779D01*
X279985Y794187D02*
X288975Y794187D01*
X415975Y466395D02*
X415975Y456405D01*
X406985Y456405D01*
X406985Y466395D01*
X415975Y466395D01*
X415975Y458813D02*
X406985Y458813D01*
X406985Y461221D02*
X415975Y461221D01*
X415975Y463629D02*
X406985Y463629D01*
X406985Y466037D02*
X415975Y466037D01*
X415975Y473405D02*
X415975Y483395D01*
X415975Y473405D02*
X406985Y473405D01*
X406985Y483395D01*
X415975Y483395D01*
X415975Y475813D02*
X406985Y475813D01*
X406985Y478221D02*
X415975Y478221D01*
X415975Y480629D02*
X406985Y480629D01*
X406985Y483037D02*
X415975Y483037D01*
X365175Y466395D02*
X365175Y456405D01*
X356185Y456405D01*
X356185Y466395D01*
X365175Y466395D01*
X365175Y458813D02*
X356185Y458813D01*
X356185Y461221D02*
X365175Y461221D01*
X365175Y463629D02*
X356185Y463629D01*
X356185Y466037D02*
X365175Y466037D01*
X365175Y473405D02*
X365175Y483395D01*
X365175Y473405D02*
X356185Y473405D01*
X356185Y483395D01*
X365175Y483395D01*
X365175Y475813D02*
X356185Y475813D01*
X356185Y478221D02*
X365175Y478221D01*
X365175Y480629D02*
X356185Y480629D01*
X356185Y483037D02*
X365175Y483037D01*
D23*
X449580Y424180D03*
X424180Y424180D03*
X398780Y424180D03*
X373380Y424180D03*
X347980Y424180D03*
X322580Y424180D03*
X271780Y728980D03*
X271780Y703580D03*
X271780Y678180D03*
X500380Y728980D03*
X500380Y703580D03*
X500380Y678180D03*
D18*
X399575Y808405D02*
X389585Y808405D01*
X399575Y808405D02*
X399575Y799415D01*
X389585Y799415D01*
X389585Y808405D01*
X389585Y801823D02*
X399575Y801823D01*
X399575Y804231D02*
X389585Y804231D01*
X389585Y806639D02*
X399575Y806639D01*
X382575Y808405D02*
X372585Y808405D01*
X382575Y808405D02*
X382575Y799415D01*
X372585Y799415D01*
X372585Y808405D01*
X372585Y801823D02*
X382575Y801823D01*
X382575Y804231D02*
X372585Y804231D01*
X372585Y806639D02*
X382575Y806639D01*
D24*
X431975Y807425D02*
X431975Y800395D01*
X431975Y807425D02*
X439005Y807425D01*
X439005Y800395D01*
X431975Y800395D01*
X431975Y804664D02*
X439005Y804664D01*
X414435Y807425D02*
X414435Y800395D01*
X414435Y807425D02*
X421465Y807425D01*
X421465Y800395D01*
X414435Y800395D01*
X414435Y804664D02*
X421465Y804664D01*
D18*
X358935Y808405D02*
X348945Y808405D01*
X358935Y808405D02*
X358935Y799415D01*
X348945Y799415D01*
X348945Y808405D01*
X348945Y801823D02*
X358935Y801823D01*
X358935Y804231D02*
X348945Y804231D01*
X348945Y806639D02*
X358935Y806639D01*
X341935Y808405D02*
X331945Y808405D01*
X341935Y808405D02*
X341935Y799415D01*
X331945Y799415D01*
X331945Y808405D01*
X331945Y801823D02*
X341935Y801823D01*
X341935Y804231D02*
X331945Y804231D01*
X331945Y806639D02*
X341935Y806639D01*
D10*
X594660Y773430D03*
D11*
X594660Y748030D03*
X594660Y722630D03*
X594660Y697230D03*
D10*
X594660Y671830D03*
D12*
X621010Y687130D03*
D13*
X622710Y760730D03*
X667610Y749230D03*
D12*
X669310Y687130D03*
D10*
X695660Y773430D03*
D11*
X695660Y748030D03*
X695660Y722630D03*
X695660Y697230D03*
D10*
X695660Y671830D03*
D14*
X661447Y563007D02*
X654493Y563007D01*
X661447Y563007D02*
X661447Y552053D01*
X654493Y552053D01*
X654493Y563007D01*
X654493Y554495D02*
X661447Y554495D01*
X661447Y556937D02*
X654493Y556937D01*
X654493Y559379D02*
X661447Y559379D01*
X661447Y561821D02*
X654493Y561821D01*
X643447Y563007D02*
X636493Y563007D01*
X643447Y563007D02*
X643447Y552053D01*
X636493Y552053D01*
X636493Y563007D01*
X636493Y554495D02*
X643447Y554495D01*
X643447Y556937D02*
X636493Y556937D01*
X636493Y559379D02*
X643447Y559379D01*
X643447Y561821D02*
X636493Y561821D01*
D15*
X522665Y560935D02*
X522665Y572025D01*
X541755Y572025D01*
X541755Y560935D01*
X522665Y560935D01*
X522665Y563247D02*
X541755Y563247D01*
X541755Y565559D02*
X522665Y565559D01*
X522665Y567871D02*
X541755Y567871D01*
X541755Y570183D02*
X522665Y570183D01*
X522665Y516025D02*
X522665Y504935D01*
X522665Y516025D02*
X541755Y516025D01*
X541755Y504935D01*
X522665Y504935D01*
X522665Y507247D02*
X541755Y507247D01*
X541755Y509559D02*
X522665Y509559D01*
X522665Y511871D02*
X541755Y511871D01*
X541755Y514183D02*
X522665Y514183D01*
D16*
X562727Y550997D02*
X562727Y555963D01*
X575193Y555963D01*
X575193Y550997D01*
X562727Y550997D01*
X562727Y553427D02*
X575193Y553427D01*
X575193Y555857D02*
X562727Y555857D01*
X562727Y545963D02*
X562727Y540997D01*
X562727Y545963D02*
X575193Y545963D01*
X575193Y540997D01*
X562727Y540997D01*
X562727Y543427D02*
X575193Y543427D01*
X575193Y545857D02*
X562727Y545857D01*
X562727Y535963D02*
X562727Y530997D01*
X562727Y535963D02*
X575193Y535963D01*
X575193Y530997D01*
X562727Y530997D01*
X562727Y533427D02*
X575193Y533427D01*
X575193Y535857D02*
X562727Y535857D01*
X562727Y525963D02*
X562727Y520997D01*
X562727Y525963D02*
X575193Y525963D01*
X575193Y520997D01*
X562727Y520997D01*
X562727Y523427D02*
X575193Y523427D01*
X575193Y525857D02*
X562727Y525857D01*
D15*
X767655Y516025D02*
X767655Y504935D01*
X748565Y504935D01*
X748565Y516025D01*
X767655Y516025D01*
X767655Y507247D02*
X748565Y507247D01*
X748565Y509559D02*
X767655Y509559D01*
X767655Y511871D02*
X748565Y511871D01*
X748565Y514183D02*
X767655Y514183D01*
X767655Y560935D02*
X767655Y572025D01*
X767655Y560935D02*
X748565Y560935D01*
X748565Y572025D01*
X767655Y572025D01*
X767655Y563247D02*
X748565Y563247D01*
X748565Y565559D02*
X767655Y565559D01*
X767655Y567871D02*
X748565Y567871D01*
X748565Y570183D02*
X767655Y570183D01*
D16*
X727593Y525963D02*
X727593Y520997D01*
X715127Y520997D01*
X715127Y525963D01*
X727593Y525963D01*
X727593Y523427D02*
X715127Y523427D01*
X715127Y525857D02*
X727593Y525857D01*
X727593Y530997D02*
X727593Y535963D01*
X727593Y530997D02*
X715127Y530997D01*
X715127Y535963D01*
X727593Y535963D01*
X727593Y533427D02*
X715127Y533427D01*
X715127Y535857D02*
X727593Y535857D01*
X727593Y540997D02*
X727593Y545963D01*
X727593Y540997D02*
X715127Y540997D01*
X715127Y545963D01*
X727593Y545963D01*
X727593Y543427D02*
X715127Y543427D01*
X715127Y545857D02*
X727593Y545857D01*
X727593Y550997D02*
X727593Y555963D01*
X727593Y550997D02*
X715127Y550997D01*
X715127Y555963D01*
X727593Y555963D01*
X727593Y553427D02*
X715127Y553427D01*
X715127Y555857D02*
X727593Y555857D01*
D17*
X639183Y532623D02*
X625071Y532623D01*
X625071Y537937D01*
X639183Y537937D01*
X639183Y532623D01*
X639183Y534999D02*
X625071Y534999D01*
X625071Y537375D02*
X639183Y537375D01*
X639183Y523123D02*
X625071Y523123D01*
X625071Y528437D01*
X639183Y528437D01*
X639183Y523123D01*
X639183Y525499D02*
X625071Y525499D01*
X625071Y527875D02*
X639183Y527875D01*
X639183Y513623D02*
X625071Y513623D01*
X625071Y518937D01*
X639183Y518937D01*
X639183Y513623D01*
X639183Y515999D02*
X625071Y515999D01*
X625071Y518375D02*
X639183Y518375D01*
X651137Y513623D02*
X665249Y513623D01*
X651137Y513623D02*
X651137Y518937D01*
X665249Y518937D01*
X665249Y513623D01*
X665249Y515999D02*
X651137Y515999D01*
X651137Y518375D02*
X665249Y518375D01*
X665249Y532623D02*
X651137Y532623D01*
X651137Y537937D01*
X665249Y537937D01*
X665249Y532623D01*
X665249Y534999D02*
X651137Y534999D01*
X651137Y537375D02*
X665249Y537375D01*
D14*
X698897Y538037D02*
X698897Y531083D01*
X687943Y531083D01*
X687943Y538037D01*
X698897Y538037D01*
X698897Y533525D02*
X687943Y533525D01*
X687943Y535967D02*
X698897Y535967D01*
X698897Y549083D02*
X698897Y556037D01*
X698897Y549083D02*
X687943Y549083D01*
X687943Y556037D01*
X698897Y556037D01*
X698897Y551525D02*
X687943Y551525D01*
X687943Y553967D02*
X698897Y553967D01*
D18*
X610005Y578535D02*
X600015Y578535D01*
X610005Y578535D02*
X610005Y569545D01*
X600015Y569545D01*
X600015Y578535D01*
X600015Y571953D02*
X610005Y571953D01*
X610005Y574361D02*
X600015Y574361D01*
X600015Y576769D02*
X610005Y576769D01*
X593005Y578535D02*
X583015Y578535D01*
X593005Y578535D02*
X593005Y569545D01*
X583015Y569545D01*
X583015Y578535D01*
X583015Y571953D02*
X593005Y571953D01*
X593005Y574361D02*
X583015Y574361D01*
X583015Y576769D02*
X593005Y576769D01*
X608915Y539275D02*
X608915Y529285D01*
X608915Y539275D02*
X617905Y539275D01*
X617905Y529285D01*
X608915Y529285D01*
X608915Y531693D02*
X617905Y531693D01*
X617905Y534101D02*
X608915Y534101D01*
X608915Y536509D02*
X617905Y536509D01*
X617905Y538917D02*
X608915Y538917D01*
X608915Y522275D02*
X608915Y512285D01*
X608915Y522275D02*
X617905Y522275D01*
X617905Y512285D01*
X608915Y512285D01*
X608915Y514693D02*
X617905Y514693D01*
X617905Y517101D02*
X608915Y517101D01*
X608915Y519509D02*
X617905Y519509D01*
X617905Y521917D02*
X608915Y521917D01*
X598855Y522275D02*
X598855Y512285D01*
X589865Y512285D01*
X589865Y522275D01*
X598855Y522275D01*
X598855Y514693D02*
X589865Y514693D01*
X589865Y517101D02*
X598855Y517101D01*
X598855Y519509D02*
X589865Y519509D01*
X589865Y521917D02*
X598855Y521917D01*
X598855Y529285D02*
X598855Y539275D01*
X598855Y529285D02*
X589865Y529285D01*
X589865Y539275D01*
X598855Y539275D01*
X598855Y531693D02*
X589865Y531693D01*
X589865Y534101D02*
X598855Y534101D01*
X598855Y536509D02*
X589865Y536509D01*
X589865Y538917D02*
X598855Y538917D01*
X625551Y504875D02*
X635541Y504875D01*
X635541Y495885D01*
X625551Y495885D01*
X625551Y504875D01*
X625551Y498293D02*
X635541Y498293D01*
X635541Y500701D02*
X625551Y500701D01*
X625551Y503109D02*
X635541Y503109D01*
X618541Y504875D02*
X608551Y504875D01*
X618541Y504875D02*
X618541Y495885D01*
X608551Y495885D01*
X608551Y504875D01*
X608551Y498293D02*
X618541Y498293D01*
X618541Y500701D02*
X608551Y500701D01*
X608551Y503109D02*
X618541Y503109D01*
D19*
X607110Y553870D02*
X601790Y553870D01*
X601790Y561190D01*
X607110Y561190D01*
X607110Y553870D01*
X607110Y556249D02*
X601790Y556249D01*
X601790Y558628D02*
X607110Y558628D01*
X607110Y561007D02*
X601790Y561007D01*
X624790Y553870D02*
X630110Y553870D01*
X624790Y553870D02*
X624790Y561190D01*
X630110Y561190D01*
X630110Y553870D01*
X630110Y556249D02*
X624790Y556249D01*
X624790Y558628D02*
X630110Y558628D01*
X630110Y561007D02*
X624790Y561007D01*
D18*
X681405Y522275D02*
X681405Y512285D01*
X672415Y512285D01*
X672415Y522275D01*
X681405Y522275D01*
X681405Y514693D02*
X672415Y514693D01*
X672415Y517101D02*
X681405Y517101D01*
X681405Y519509D02*
X672415Y519509D01*
X672415Y521917D02*
X681405Y521917D01*
X681405Y529285D02*
X681405Y539275D01*
X681405Y529285D02*
X672415Y529285D01*
X672415Y539275D01*
X681405Y539275D01*
X681405Y531693D02*
X672415Y531693D01*
X672415Y534101D02*
X681405Y534101D01*
X681405Y536509D02*
X672415Y536509D01*
X672415Y538917D02*
X681405Y538917D01*
D20*
X543560Y436880D03*
X746760Y436880D03*
X543560Y640080D03*
X746760Y640080D03*
D21*
X524510Y811530D03*
X765810Y417830D03*
D22*
X635680Y614850D02*
X606640Y614850D01*
X635680Y614850D02*
X635680Y601810D01*
X606640Y601810D01*
X606640Y614850D01*
X606640Y604170D02*
X635680Y604170D01*
X635680Y606530D02*
X606640Y606530D01*
X606640Y608890D02*
X635680Y608890D01*
X635680Y611250D02*
X606640Y611250D01*
X606640Y613610D02*
X635680Y613610D01*
X654640Y614850D02*
X683680Y614850D01*
X683680Y601810D01*
X654640Y601810D01*
X654640Y614850D01*
X654640Y604170D02*
X683680Y604170D01*
X683680Y606530D02*
X654640Y606530D01*
X654640Y608890D02*
X683680Y608890D01*
X683680Y611250D02*
X654640Y611250D01*
X654640Y613610D02*
X683680Y613610D01*
D18*
X752525Y767555D02*
X752525Y777545D01*
X752525Y767555D02*
X743535Y767555D01*
X743535Y777545D01*
X752525Y777545D01*
X752525Y769963D02*
X743535Y769963D01*
X743535Y772371D02*
X752525Y772371D01*
X752525Y774779D02*
X743535Y774779D01*
X743535Y777187D02*
X752525Y777187D01*
X752525Y784555D02*
X752525Y794545D01*
X752525Y784555D02*
X743535Y784555D01*
X743535Y794545D01*
X752525Y794545D01*
X752525Y786963D02*
X743535Y786963D01*
X743535Y789371D02*
X752525Y789371D01*
X752525Y791779D02*
X743535Y791779D01*
X743535Y794187D02*
X752525Y794187D01*
X732205Y777545D02*
X732205Y767555D01*
X723215Y767555D01*
X723215Y777545D01*
X732205Y777545D01*
X732205Y769963D02*
X723215Y769963D01*
X723215Y772371D02*
X732205Y772371D01*
X732205Y774779D02*
X723215Y774779D01*
X723215Y777187D02*
X732205Y777187D01*
X732205Y784555D02*
X732205Y794545D01*
X732205Y784555D02*
X723215Y784555D01*
X723215Y794545D01*
X732205Y794545D01*
X732205Y786963D02*
X723215Y786963D01*
X723215Y789371D02*
X732205Y789371D01*
X732205Y791779D02*
X723215Y791779D01*
X723215Y794187D02*
X732205Y794187D01*
X568375Y777545D02*
X568375Y767555D01*
X559385Y767555D01*
X559385Y777545D01*
X568375Y777545D01*
X568375Y769963D02*
X559385Y769963D01*
X559385Y772371D02*
X568375Y772371D01*
X568375Y774779D02*
X559385Y774779D01*
X559385Y777187D02*
X568375Y777187D01*
X568375Y784555D02*
X568375Y794545D01*
X568375Y784555D02*
X559385Y784555D01*
X559385Y794545D01*
X568375Y794545D01*
X568375Y786963D02*
X559385Y786963D01*
X559385Y789371D02*
X568375Y789371D01*
X568375Y791779D02*
X559385Y791779D01*
X559385Y794187D02*
X568375Y794187D01*
X548055Y777545D02*
X548055Y767555D01*
X539065Y767555D01*
X539065Y777545D01*
X548055Y777545D01*
X548055Y769963D02*
X539065Y769963D01*
X539065Y772371D02*
X548055Y772371D01*
X548055Y774779D02*
X539065Y774779D01*
X539065Y777187D02*
X548055Y777187D01*
X548055Y784555D02*
X548055Y794545D01*
X548055Y784555D02*
X539065Y784555D01*
X539065Y794545D01*
X548055Y794545D01*
X548055Y786963D02*
X539065Y786963D01*
X539065Y789371D02*
X548055Y789371D01*
X548055Y791779D02*
X539065Y791779D01*
X539065Y794187D02*
X548055Y794187D01*
X675055Y466395D02*
X675055Y456405D01*
X666065Y456405D01*
X666065Y466395D01*
X675055Y466395D01*
X675055Y458813D02*
X666065Y458813D01*
X666065Y461221D02*
X675055Y461221D01*
X675055Y463629D02*
X666065Y463629D01*
X666065Y466037D02*
X675055Y466037D01*
X675055Y473405D02*
X675055Y483395D01*
X675055Y473405D02*
X666065Y473405D01*
X666065Y483395D01*
X675055Y483395D01*
X675055Y475813D02*
X666065Y475813D01*
X666065Y478221D02*
X675055Y478221D01*
X675055Y480629D02*
X666065Y480629D01*
X666065Y483037D02*
X675055Y483037D01*
X624255Y466395D02*
X624255Y456405D01*
X615265Y456405D01*
X615265Y466395D01*
X624255Y466395D01*
X624255Y458813D02*
X615265Y458813D01*
X615265Y461221D02*
X624255Y461221D01*
X624255Y463629D02*
X615265Y463629D01*
X615265Y466037D02*
X624255Y466037D01*
X624255Y473405D02*
X624255Y483395D01*
X624255Y473405D02*
X615265Y473405D01*
X615265Y483395D01*
X624255Y483395D01*
X624255Y475813D02*
X615265Y475813D01*
X615265Y478221D02*
X624255Y478221D01*
X624255Y480629D02*
X615265Y480629D01*
X615265Y483037D02*
X624255Y483037D01*
D23*
X708660Y424180D03*
X683260Y424180D03*
X657860Y424180D03*
X632460Y424180D03*
X607060Y424180D03*
X581660Y424180D03*
X530860Y728980D03*
X530860Y703580D03*
X530860Y678180D03*
X759460Y728980D03*
X759460Y703580D03*
X759460Y678180D03*
D18*
X658655Y808405D02*
X648665Y808405D01*
X658655Y808405D02*
X658655Y799415D01*
X648665Y799415D01*
X648665Y808405D01*
X648665Y801823D02*
X658655Y801823D01*
X658655Y804231D02*
X648665Y804231D01*
X648665Y806639D02*
X658655Y806639D01*
X641655Y808405D02*
X631665Y808405D01*
X641655Y808405D02*
X641655Y799415D01*
X631665Y799415D01*
X631665Y808405D01*
X631665Y801823D02*
X641655Y801823D01*
X641655Y804231D02*
X631665Y804231D01*
X631665Y806639D02*
X641655Y806639D01*
D24*
X691055Y807425D02*
X691055Y800395D01*
X691055Y807425D02*
X698085Y807425D01*
X698085Y800395D01*
X691055Y800395D01*
X691055Y804664D02*
X698085Y804664D01*
X673515Y807425D02*
X673515Y800395D01*
X673515Y807425D02*
X680545Y807425D01*
X680545Y800395D01*
X673515Y800395D01*
X673515Y804664D02*
X680545Y804664D01*
D18*
X618015Y808405D02*
X608025Y808405D01*
X618015Y808405D02*
X618015Y799415D01*
X608025Y799415D01*
X608025Y808405D01*
X608025Y801823D02*
X618015Y801823D01*
X618015Y804231D02*
X608025Y804231D01*
X608025Y806639D02*
X618015Y806639D01*
X601015Y808405D02*
X591025Y808405D01*
X601015Y808405D02*
X601015Y799415D01*
X591025Y799415D01*
X591025Y808405D01*
X591025Y801823D02*
X601015Y801823D01*
X601015Y804231D02*
X591025Y804231D01*
X591025Y806639D02*
X601015Y806639D01*
D10*
X853740Y773430D03*
D11*
X853740Y748030D03*
X853740Y722630D03*
X853740Y697230D03*
D10*
X853740Y671830D03*
D12*
X880090Y687130D03*
D13*
X881790Y760730D03*
X926690Y749230D03*
D12*
X928390Y687130D03*
D10*
X954740Y773430D03*
D11*
X954740Y748030D03*
X954740Y722630D03*
X954740Y697230D03*
D10*
X954740Y671830D03*
D14*
X920527Y563007D02*
X913573Y563007D01*
X920527Y563007D02*
X920527Y552053D01*
X913573Y552053D01*
X913573Y563007D01*
X913573Y554495D02*
X920527Y554495D01*
X920527Y556937D02*
X913573Y556937D01*
X913573Y559379D02*
X920527Y559379D01*
X920527Y561821D02*
X913573Y561821D01*
X902527Y563007D02*
X895573Y563007D01*
X902527Y563007D02*
X902527Y552053D01*
X895573Y552053D01*
X895573Y563007D01*
X895573Y554495D02*
X902527Y554495D01*
X902527Y556937D02*
X895573Y556937D01*
X895573Y559379D02*
X902527Y559379D01*
X902527Y561821D02*
X895573Y561821D01*
D15*
X781745Y560935D02*
X781745Y572025D01*
X800835Y572025D01*
X800835Y560935D01*
X781745Y560935D01*
X781745Y563247D02*
X800835Y563247D01*
X800835Y565559D02*
X781745Y565559D01*
X781745Y567871D02*
X800835Y567871D01*
X800835Y570183D02*
X781745Y570183D01*
X781745Y516025D02*
X781745Y504935D01*
X781745Y516025D02*
X800835Y516025D01*
X800835Y504935D01*
X781745Y504935D01*
X781745Y507247D02*
X800835Y507247D01*
X800835Y509559D02*
X781745Y509559D01*
X781745Y511871D02*
X800835Y511871D01*
X800835Y514183D02*
X781745Y514183D01*
D16*
X821807Y550997D02*
X821807Y555963D01*
X834273Y555963D01*
X834273Y550997D01*
X821807Y550997D01*
X821807Y553427D02*
X834273Y553427D01*
X834273Y555857D02*
X821807Y555857D01*
X821807Y545963D02*
X821807Y540997D01*
X821807Y545963D02*
X834273Y545963D01*
X834273Y540997D01*
X821807Y540997D01*
X821807Y543427D02*
X834273Y543427D01*
X834273Y545857D02*
X821807Y545857D01*
X821807Y535963D02*
X821807Y530997D01*
X821807Y535963D02*
X834273Y535963D01*
X834273Y530997D01*
X821807Y530997D01*
X821807Y533427D02*
X834273Y533427D01*
X834273Y535857D02*
X821807Y535857D01*
X821807Y525963D02*
X821807Y520997D01*
X821807Y525963D02*
X834273Y525963D01*
X834273Y520997D01*
X821807Y520997D01*
X821807Y523427D02*
X834273Y523427D01*
X834273Y525857D02*
X821807Y525857D01*
D15*
X1026735Y516025D02*
X1026735Y504935D01*
X1007645Y504935D01*
X1007645Y516025D01*
X1026735Y516025D01*
X1026735Y507247D02*
X1007645Y507247D01*
X1007645Y509559D02*
X1026735Y509559D01*
X1026735Y511871D02*
X1007645Y511871D01*
X1007645Y514183D02*
X1026735Y514183D01*
X1026735Y560935D02*
X1026735Y572025D01*
X1026735Y560935D02*
X1007645Y560935D01*
X1007645Y572025D01*
X1026735Y572025D01*
X1026735Y563247D02*
X1007645Y563247D01*
X1007645Y565559D02*
X1026735Y565559D01*
X1026735Y567871D02*
X1007645Y567871D01*
X1007645Y570183D02*
X1026735Y570183D01*
D16*
X986673Y525963D02*
X986673Y520997D01*
X974207Y520997D01*
X974207Y525963D01*
X986673Y525963D01*
X986673Y523427D02*
X974207Y523427D01*
X974207Y525857D02*
X986673Y525857D01*
X986673Y530997D02*
X986673Y535963D01*
X986673Y530997D02*
X974207Y530997D01*
X974207Y535963D01*
X986673Y535963D01*
X986673Y533427D02*
X974207Y533427D01*
X974207Y535857D02*
X986673Y535857D01*
X986673Y540997D02*
X986673Y545963D01*
X986673Y540997D02*
X974207Y540997D01*
X974207Y545963D01*
X986673Y545963D01*
X986673Y543427D02*
X974207Y543427D01*
X974207Y545857D02*
X986673Y545857D01*
X986673Y550997D02*
X986673Y555963D01*
X986673Y550997D02*
X974207Y550997D01*
X974207Y555963D01*
X986673Y555963D01*
X986673Y553427D02*
X974207Y553427D01*
X974207Y555857D02*
X986673Y555857D01*
D17*
X898263Y532623D02*
X884151Y532623D01*
X884151Y537937D01*
X898263Y537937D01*
X898263Y532623D01*
X898263Y534999D02*
X884151Y534999D01*
X884151Y537375D02*
X898263Y537375D01*
X898263Y523123D02*
X884151Y523123D01*
X884151Y528437D01*
X898263Y528437D01*
X898263Y523123D01*
X898263Y525499D02*
X884151Y525499D01*
X884151Y527875D02*
X898263Y527875D01*
X898263Y513623D02*
X884151Y513623D01*
X884151Y518937D01*
X898263Y518937D01*
X898263Y513623D01*
X898263Y515999D02*
X884151Y515999D01*
X884151Y518375D02*
X898263Y518375D01*
X910217Y513623D02*
X924329Y513623D01*
X910217Y513623D02*
X910217Y518937D01*
X924329Y518937D01*
X924329Y513623D01*
X924329Y515999D02*
X910217Y515999D01*
X910217Y518375D02*
X924329Y518375D01*
X924329Y532623D02*
X910217Y532623D01*
X910217Y537937D01*
X924329Y537937D01*
X924329Y532623D01*
X924329Y534999D02*
X910217Y534999D01*
X910217Y537375D02*
X924329Y537375D01*
D14*
X957977Y538037D02*
X957977Y531083D01*
X947023Y531083D01*
X947023Y538037D01*
X957977Y538037D01*
X957977Y533525D02*
X947023Y533525D01*
X947023Y535967D02*
X957977Y535967D01*
X957977Y549083D02*
X957977Y556037D01*
X957977Y549083D02*
X947023Y549083D01*
X947023Y556037D01*
X957977Y556037D01*
X957977Y551525D02*
X947023Y551525D01*
X947023Y553967D02*
X957977Y553967D01*
D18*
X869085Y578535D02*
X859095Y578535D01*
X869085Y578535D02*
X869085Y569545D01*
X859095Y569545D01*
X859095Y578535D01*
X859095Y571953D02*
X869085Y571953D01*
X869085Y574361D02*
X859095Y574361D01*
X859095Y576769D02*
X869085Y576769D01*
X852085Y578535D02*
X842095Y578535D01*
X852085Y578535D02*
X852085Y569545D01*
X842095Y569545D01*
X842095Y578535D01*
X842095Y571953D02*
X852085Y571953D01*
X852085Y574361D02*
X842095Y574361D01*
X842095Y576769D02*
X852085Y576769D01*
X867995Y539275D02*
X867995Y529285D01*
X867995Y539275D02*
X876985Y539275D01*
X876985Y529285D01*
X867995Y529285D01*
X867995Y531693D02*
X876985Y531693D01*
X876985Y534101D02*
X867995Y534101D01*
X867995Y536509D02*
X876985Y536509D01*
X876985Y538917D02*
X867995Y538917D01*
X867995Y522275D02*
X867995Y512285D01*
X867995Y522275D02*
X876985Y522275D01*
X876985Y512285D01*
X867995Y512285D01*
X867995Y514693D02*
X876985Y514693D01*
X876985Y517101D02*
X867995Y517101D01*
X867995Y519509D02*
X876985Y519509D01*
X876985Y521917D02*
X867995Y521917D01*
X857935Y522275D02*
X857935Y512285D01*
X848945Y512285D01*
X848945Y522275D01*
X857935Y522275D01*
X857935Y514693D02*
X848945Y514693D01*
X848945Y517101D02*
X857935Y517101D01*
X857935Y519509D02*
X848945Y519509D01*
X848945Y521917D02*
X857935Y521917D01*
X857935Y529285D02*
X857935Y539275D01*
X857935Y529285D02*
X848945Y529285D01*
X848945Y539275D01*
X857935Y539275D01*
X857935Y531693D02*
X848945Y531693D01*
X848945Y534101D02*
X857935Y534101D01*
X857935Y536509D02*
X848945Y536509D01*
X848945Y538917D02*
X857935Y538917D01*
X884631Y504875D02*
X894621Y504875D01*
X894621Y495885D01*
X884631Y495885D01*
X884631Y504875D01*
X884631Y498293D02*
X894621Y498293D01*
X894621Y500701D02*
X884631Y500701D01*
X884631Y503109D02*
X894621Y503109D01*
X877621Y504875D02*
X867631Y504875D01*
X877621Y504875D02*
X877621Y495885D01*
X867631Y495885D01*
X867631Y504875D01*
X867631Y498293D02*
X877621Y498293D01*
X877621Y500701D02*
X867631Y500701D01*
X867631Y503109D02*
X877621Y503109D01*
D19*
X866190Y553870D02*
X860870Y553870D01*
X860870Y561190D01*
X866190Y561190D01*
X866190Y553870D01*
X866190Y556249D02*
X860870Y556249D01*
X860870Y558628D02*
X866190Y558628D01*
X866190Y561007D02*
X860870Y561007D01*
X883870Y553870D02*
X889190Y553870D01*
X883870Y553870D02*
X883870Y561190D01*
X889190Y561190D01*
X889190Y553870D01*
X889190Y556249D02*
X883870Y556249D01*
X883870Y558628D02*
X889190Y558628D01*
X889190Y561007D02*
X883870Y561007D01*
D18*
X940485Y522275D02*
X940485Y512285D01*
X931495Y512285D01*
X931495Y522275D01*
X940485Y522275D01*
X940485Y514693D02*
X931495Y514693D01*
X931495Y517101D02*
X940485Y517101D01*
X940485Y519509D02*
X931495Y519509D01*
X931495Y521917D02*
X940485Y521917D01*
X940485Y529285D02*
X940485Y539275D01*
X940485Y529285D02*
X931495Y529285D01*
X931495Y539275D01*
X940485Y539275D01*
X940485Y531693D02*
X931495Y531693D01*
X931495Y534101D02*
X940485Y534101D01*
X940485Y536509D02*
X931495Y536509D01*
X931495Y538917D02*
X940485Y538917D01*
D20*
X802640Y436880D03*
X1005840Y436880D03*
X802640Y640080D03*
X1005840Y640080D03*
D21*
X783590Y811530D03*
X1024890Y417830D03*
D22*
X894760Y614850D02*
X865720Y614850D01*
X894760Y614850D02*
X894760Y601810D01*
X865720Y601810D01*
X865720Y614850D01*
X865720Y604170D02*
X894760Y604170D01*
X894760Y606530D02*
X865720Y606530D01*
X865720Y608890D02*
X894760Y608890D01*
X894760Y611250D02*
X865720Y611250D01*
X865720Y613610D02*
X894760Y613610D01*
X913720Y614850D02*
X942760Y614850D01*
X942760Y601810D01*
X913720Y601810D01*
X913720Y614850D01*
X913720Y604170D02*
X942760Y604170D01*
X942760Y606530D02*
X913720Y606530D01*
X913720Y608890D02*
X942760Y608890D01*
X942760Y611250D02*
X913720Y611250D01*
X913720Y613610D02*
X942760Y613610D01*
D18*
X1011605Y767555D02*
X1011605Y777545D01*
X1011605Y767555D02*
X1002615Y767555D01*
X1002615Y777545D01*
X1011605Y777545D01*
X1011605Y769963D02*
X1002615Y769963D01*
X1002615Y772371D02*
X1011605Y772371D01*
X1011605Y774779D02*
X1002615Y774779D01*
X1002615Y777187D02*
X1011605Y777187D01*
X1011605Y784555D02*
X1011605Y794545D01*
X1011605Y784555D02*
X1002615Y784555D01*
X1002615Y794545D01*
X1011605Y794545D01*
X1011605Y786963D02*
X1002615Y786963D01*
X1002615Y789371D02*
X1011605Y789371D01*
X1011605Y791779D02*
X1002615Y791779D01*
X1002615Y794187D02*
X1011605Y794187D01*
X991285Y777545D02*
X991285Y767555D01*
X982295Y767555D01*
X982295Y777545D01*
X991285Y777545D01*
X991285Y769963D02*
X982295Y769963D01*
X982295Y772371D02*
X991285Y772371D01*
X991285Y774779D02*
X982295Y774779D01*
X982295Y777187D02*
X991285Y777187D01*
X991285Y784555D02*
X991285Y794545D01*
X991285Y784555D02*
X982295Y784555D01*
X982295Y794545D01*
X991285Y794545D01*
X991285Y786963D02*
X982295Y786963D01*
X982295Y789371D02*
X991285Y789371D01*
X991285Y791779D02*
X982295Y791779D01*
X982295Y794187D02*
X991285Y794187D01*
X827455Y777545D02*
X827455Y767555D01*
X818465Y767555D01*
X818465Y777545D01*
X827455Y777545D01*
X827455Y769963D02*
X818465Y769963D01*
X818465Y772371D02*
X827455Y772371D01*
X827455Y774779D02*
X818465Y774779D01*
X818465Y777187D02*
X827455Y777187D01*
X827455Y784555D02*
X827455Y794545D01*
X827455Y784555D02*
X818465Y784555D01*
X818465Y794545D01*
X827455Y794545D01*
X827455Y786963D02*
X818465Y786963D01*
X818465Y789371D02*
X827455Y789371D01*
X827455Y791779D02*
X818465Y791779D01*
X818465Y794187D02*
X827455Y794187D01*
X807135Y777545D02*
X807135Y767555D01*
X798145Y767555D01*
X798145Y777545D01*
X807135Y777545D01*
X807135Y769963D02*
X798145Y769963D01*
X798145Y772371D02*
X807135Y772371D01*
X807135Y774779D02*
X798145Y774779D01*
X798145Y777187D02*
X807135Y777187D01*
X807135Y784555D02*
X807135Y794545D01*
X807135Y784555D02*
X798145Y784555D01*
X798145Y794545D01*
X807135Y794545D01*
X807135Y786963D02*
X798145Y786963D01*
X798145Y789371D02*
X807135Y789371D01*
X807135Y791779D02*
X798145Y791779D01*
X798145Y794187D02*
X807135Y794187D01*
X934135Y466395D02*
X934135Y456405D01*
X925145Y456405D01*
X925145Y466395D01*
X934135Y466395D01*
X934135Y458813D02*
X925145Y458813D01*
X925145Y461221D02*
X934135Y461221D01*
X934135Y463629D02*
X925145Y463629D01*
X925145Y466037D02*
X934135Y466037D01*
X934135Y473405D02*
X934135Y483395D01*
X934135Y473405D02*
X925145Y473405D01*
X925145Y483395D01*
X934135Y483395D01*
X934135Y475813D02*
X925145Y475813D01*
X925145Y478221D02*
X934135Y478221D01*
X934135Y480629D02*
X925145Y480629D01*
X925145Y483037D02*
X934135Y483037D01*
X883335Y466395D02*
X883335Y456405D01*
X874345Y456405D01*
X874345Y466395D01*
X883335Y466395D01*
X883335Y458813D02*
X874345Y458813D01*
X874345Y461221D02*
X883335Y461221D01*
X883335Y463629D02*
X874345Y463629D01*
X874345Y466037D02*
X883335Y466037D01*
X883335Y473405D02*
X883335Y483395D01*
X883335Y473405D02*
X874345Y473405D01*
X874345Y483395D01*
X883335Y483395D01*
X883335Y475813D02*
X874345Y475813D01*
X874345Y478221D02*
X883335Y478221D01*
X883335Y480629D02*
X874345Y480629D01*
X874345Y483037D02*
X883335Y483037D01*
D23*
X967740Y424180D03*
X942340Y424180D03*
X916940Y424180D03*
X891540Y424180D03*
X866140Y424180D03*
X840740Y424180D03*
X789940Y728980D03*
X789940Y703580D03*
X789940Y678180D03*
X1018540Y728980D03*
X1018540Y703580D03*
X1018540Y678180D03*
D18*
X917735Y808405D02*
X907745Y808405D01*
X917735Y808405D02*
X917735Y799415D01*
X907745Y799415D01*
X907745Y808405D01*
X907745Y801823D02*
X917735Y801823D01*
X917735Y804231D02*
X907745Y804231D01*
X907745Y806639D02*
X917735Y806639D01*
X900735Y808405D02*
X890745Y808405D01*
X900735Y808405D02*
X900735Y799415D01*
X890745Y799415D01*
X890745Y808405D01*
X890745Y801823D02*
X900735Y801823D01*
X900735Y804231D02*
X890745Y804231D01*
X890745Y806639D02*
X900735Y806639D01*
D24*
X950135Y807425D02*
X950135Y800395D01*
X950135Y807425D02*
X957165Y807425D01*
X957165Y800395D01*
X950135Y800395D01*
X950135Y804664D02*
X957165Y804664D01*
X932595Y807425D02*
X932595Y800395D01*
X932595Y807425D02*
X939625Y807425D01*
X939625Y800395D01*
X932595Y800395D01*
X932595Y804664D02*
X939625Y804664D01*
D18*
X877095Y808405D02*
X867105Y808405D01*
X877095Y808405D02*
X877095Y799415D01*
X867105Y799415D01*
X867105Y808405D01*
X867105Y801823D02*
X877095Y801823D01*
X877095Y804231D02*
X867105Y804231D01*
X867105Y806639D02*
X877095Y806639D01*
X860095Y808405D02*
X850105Y808405D01*
X860095Y808405D02*
X860095Y799415D01*
X850105Y799415D01*
X850105Y808405D01*
X850105Y801823D02*
X860095Y801823D01*
X860095Y804231D02*
X850105Y804231D01*
X850105Y806639D02*
X860095Y806639D01*
D10*
X1112820Y773430D03*
D11*
X1112820Y748030D03*
X1112820Y722630D03*
X1112820Y697230D03*
D10*
X1112820Y671830D03*
D12*
X1139170Y687130D03*
D13*
X1140870Y760730D03*
X1185770Y749230D03*
D12*
X1187470Y687130D03*
D10*
X1213820Y773430D03*
D11*
X1213820Y748030D03*
X1213820Y722630D03*
X1213820Y697230D03*
D10*
X1213820Y671830D03*
D14*
X1179607Y563007D02*
X1172653Y563007D01*
X1179607Y563007D02*
X1179607Y552053D01*
X1172653Y552053D01*
X1172653Y563007D01*
X1172653Y554495D02*
X1179607Y554495D01*
X1179607Y556937D02*
X1172653Y556937D01*
X1172653Y559379D02*
X1179607Y559379D01*
X1179607Y561821D02*
X1172653Y561821D01*
X1161607Y563007D02*
X1154653Y563007D01*
X1161607Y563007D02*
X1161607Y552053D01*
X1154653Y552053D01*
X1154653Y563007D01*
X1154653Y554495D02*
X1161607Y554495D01*
X1161607Y556937D02*
X1154653Y556937D01*
X1154653Y559379D02*
X1161607Y559379D01*
X1161607Y561821D02*
X1154653Y561821D01*
D15*
X1040825Y560935D02*
X1040825Y572025D01*
X1059915Y572025D01*
X1059915Y560935D01*
X1040825Y560935D01*
X1040825Y563247D02*
X1059915Y563247D01*
X1059915Y565559D02*
X1040825Y565559D01*
X1040825Y567871D02*
X1059915Y567871D01*
X1059915Y570183D02*
X1040825Y570183D01*
X1040825Y516025D02*
X1040825Y504935D01*
X1040825Y516025D02*
X1059915Y516025D01*
X1059915Y504935D01*
X1040825Y504935D01*
X1040825Y507247D02*
X1059915Y507247D01*
X1059915Y509559D02*
X1040825Y509559D01*
X1040825Y511871D02*
X1059915Y511871D01*
X1059915Y514183D02*
X1040825Y514183D01*
D16*
X1080887Y550997D02*
X1080887Y555963D01*
X1093353Y555963D01*
X1093353Y550997D01*
X1080887Y550997D01*
X1080887Y553427D02*
X1093353Y553427D01*
X1093353Y555857D02*
X1080887Y555857D01*
X1080887Y545963D02*
X1080887Y540997D01*
X1080887Y545963D02*
X1093353Y545963D01*
X1093353Y540997D01*
X1080887Y540997D01*
X1080887Y543427D02*
X1093353Y543427D01*
X1093353Y545857D02*
X1080887Y545857D01*
X1080887Y535963D02*
X1080887Y530997D01*
X1080887Y535963D02*
X1093353Y535963D01*
X1093353Y530997D01*
X1080887Y530997D01*
X1080887Y533427D02*
X1093353Y533427D01*
X1093353Y535857D02*
X1080887Y535857D01*
X1080887Y525963D02*
X1080887Y520997D01*
X1080887Y525963D02*
X1093353Y525963D01*
X1093353Y520997D01*
X1080887Y520997D01*
X1080887Y523427D02*
X1093353Y523427D01*
X1093353Y525857D02*
X1080887Y525857D01*
D15*
X1285815Y516025D02*
X1285815Y504935D01*
X1266725Y504935D01*
X1266725Y516025D01*
X1285815Y516025D01*
X1285815Y507247D02*
X1266725Y507247D01*
X1266725Y509559D02*
X1285815Y509559D01*
X1285815Y511871D02*
X1266725Y511871D01*
X1266725Y514183D02*
X1285815Y514183D01*
X1285815Y560935D02*
X1285815Y572025D01*
X1285815Y560935D02*
X1266725Y560935D01*
X1266725Y572025D01*
X1285815Y572025D01*
X1285815Y563247D02*
X1266725Y563247D01*
X1266725Y565559D02*
X1285815Y565559D01*
X1285815Y567871D02*
X1266725Y567871D01*
X1266725Y570183D02*
X1285815Y570183D01*
D16*
X1245753Y525963D02*
X1245753Y520997D01*
X1233287Y520997D01*
X1233287Y525963D01*
X1245753Y525963D01*
X1245753Y523427D02*
X1233287Y523427D01*
X1233287Y525857D02*
X1245753Y525857D01*
X1245753Y530997D02*
X1245753Y535963D01*
X1245753Y530997D02*
X1233287Y530997D01*
X1233287Y535963D01*
X1245753Y535963D01*
X1245753Y533427D02*
X1233287Y533427D01*
X1233287Y535857D02*
X1245753Y535857D01*
X1245753Y540997D02*
X1245753Y545963D01*
X1245753Y540997D02*
X1233287Y540997D01*
X1233287Y545963D01*
X1245753Y545963D01*
X1245753Y543427D02*
X1233287Y543427D01*
X1233287Y545857D02*
X1245753Y545857D01*
X1245753Y550997D02*
X1245753Y555963D01*
X1245753Y550997D02*
X1233287Y550997D01*
X1233287Y555963D01*
X1245753Y555963D01*
X1245753Y553427D02*
X1233287Y553427D01*
X1233287Y555857D02*
X1245753Y555857D01*
D17*
X1157343Y532623D02*
X1143231Y532623D01*
X1143231Y537937D01*
X1157343Y537937D01*
X1157343Y532623D01*
X1157343Y534999D02*
X1143231Y534999D01*
X1143231Y537375D02*
X1157343Y537375D01*
X1157343Y523123D02*
X1143231Y523123D01*
X1143231Y528437D01*
X1157343Y528437D01*
X1157343Y523123D01*
X1157343Y525499D02*
X1143231Y525499D01*
X1143231Y527875D02*
X1157343Y527875D01*
X1157343Y513623D02*
X1143231Y513623D01*
X1143231Y518937D01*
X1157343Y518937D01*
X1157343Y513623D01*
X1157343Y515999D02*
X1143231Y515999D01*
X1143231Y518375D02*
X1157343Y518375D01*
X1169297Y513623D02*
X1183409Y513623D01*
X1169297Y513623D02*
X1169297Y518937D01*
X1183409Y518937D01*
X1183409Y513623D01*
X1183409Y515999D02*
X1169297Y515999D01*
X1169297Y518375D02*
X1183409Y518375D01*
X1183409Y532623D02*
X1169297Y532623D01*
X1169297Y537937D01*
X1183409Y537937D01*
X1183409Y532623D01*
X1183409Y534999D02*
X1169297Y534999D01*
X1169297Y537375D02*
X1183409Y537375D01*
D14*
X1217057Y538037D02*
X1217057Y531083D01*
X1206103Y531083D01*
X1206103Y538037D01*
X1217057Y538037D01*
X1217057Y533525D02*
X1206103Y533525D01*
X1206103Y535967D02*
X1217057Y535967D01*
X1217057Y549083D02*
X1217057Y556037D01*
X1217057Y549083D02*
X1206103Y549083D01*
X1206103Y556037D01*
X1217057Y556037D01*
X1217057Y551525D02*
X1206103Y551525D01*
X1206103Y553967D02*
X1217057Y553967D01*
D18*
X1128165Y578535D02*
X1118175Y578535D01*
X1128165Y578535D02*
X1128165Y569545D01*
X1118175Y569545D01*
X1118175Y578535D01*
X1118175Y571953D02*
X1128165Y571953D01*
X1128165Y574361D02*
X1118175Y574361D01*
X1118175Y576769D02*
X1128165Y576769D01*
X1111165Y578535D02*
X1101175Y578535D01*
X1111165Y578535D02*
X1111165Y569545D01*
X1101175Y569545D01*
X1101175Y578535D01*
X1101175Y571953D02*
X1111165Y571953D01*
X1111165Y574361D02*
X1101175Y574361D01*
X1101175Y576769D02*
X1111165Y576769D01*
X1127075Y539275D02*
X1127075Y529285D01*
X1127075Y539275D02*
X1136065Y539275D01*
X1136065Y529285D01*
X1127075Y529285D01*
X1127075Y531693D02*
X1136065Y531693D01*
X1136065Y534101D02*
X1127075Y534101D01*
X1127075Y536509D02*
X1136065Y536509D01*
X1136065Y538917D02*
X1127075Y538917D01*
X1127075Y522275D02*
X1127075Y512285D01*
X1127075Y522275D02*
X1136065Y522275D01*
X1136065Y512285D01*
X1127075Y512285D01*
X1127075Y514693D02*
X1136065Y514693D01*
X1136065Y517101D02*
X1127075Y517101D01*
X1127075Y519509D02*
X1136065Y519509D01*
X1136065Y521917D02*
X1127075Y521917D01*
X1117015Y522275D02*
X1117015Y512285D01*
X1108025Y512285D01*
X1108025Y522275D01*
X1117015Y522275D01*
X1117015Y514693D02*
X1108025Y514693D01*
X1108025Y517101D02*
X1117015Y517101D01*
X1117015Y519509D02*
X1108025Y519509D01*
X1108025Y521917D02*
X1117015Y521917D01*
X1117015Y529285D02*
X1117015Y539275D01*
X1117015Y529285D02*
X1108025Y529285D01*
X1108025Y539275D01*
X1117015Y539275D01*
X1117015Y531693D02*
X1108025Y531693D01*
X1108025Y534101D02*
X1117015Y534101D01*
X1117015Y536509D02*
X1108025Y536509D01*
X1108025Y538917D02*
X1117015Y538917D01*
X1143711Y504875D02*
X1153701Y504875D01*
X1153701Y495885D01*
X1143711Y495885D01*
X1143711Y504875D01*
X1143711Y498293D02*
X1153701Y498293D01*
X1153701Y500701D02*
X1143711Y500701D01*
X1143711Y503109D02*
X1153701Y503109D01*
X1136701Y504875D02*
X1126711Y504875D01*
X1136701Y504875D02*
X1136701Y495885D01*
X1126711Y495885D01*
X1126711Y504875D01*
X1126711Y498293D02*
X1136701Y498293D01*
X1136701Y500701D02*
X1126711Y500701D01*
X1126711Y503109D02*
X1136701Y503109D01*
D19*
X1125270Y553870D02*
X1119950Y553870D01*
X1119950Y561190D01*
X1125270Y561190D01*
X1125270Y553870D01*
X1125270Y556249D02*
X1119950Y556249D01*
X1119950Y558628D02*
X1125270Y558628D01*
X1125270Y561007D02*
X1119950Y561007D01*
X1142950Y553870D02*
X1148270Y553870D01*
X1142950Y553870D02*
X1142950Y561190D01*
X1148270Y561190D01*
X1148270Y553870D01*
X1148270Y556249D02*
X1142950Y556249D01*
X1142950Y558628D02*
X1148270Y558628D01*
X1148270Y561007D02*
X1142950Y561007D01*
D18*
X1199565Y522275D02*
X1199565Y512285D01*
X1190575Y512285D01*
X1190575Y522275D01*
X1199565Y522275D01*
X1199565Y514693D02*
X1190575Y514693D01*
X1190575Y517101D02*
X1199565Y517101D01*
X1199565Y519509D02*
X1190575Y519509D01*
X1190575Y521917D02*
X1199565Y521917D01*
X1199565Y529285D02*
X1199565Y539275D01*
X1199565Y529285D02*
X1190575Y529285D01*
X1190575Y539275D01*
X1199565Y539275D01*
X1199565Y531693D02*
X1190575Y531693D01*
X1190575Y534101D02*
X1199565Y534101D01*
X1199565Y536509D02*
X1190575Y536509D01*
X1190575Y538917D02*
X1199565Y538917D01*
D20*
X1061720Y436880D03*
X1264920Y436880D03*
X1061720Y640080D03*
X1264920Y640080D03*
D21*
X1042670Y811530D03*
X1283970Y417830D03*
D22*
X1153840Y614850D02*
X1124800Y614850D01*
X1153840Y614850D02*
X1153840Y601810D01*
X1124800Y601810D01*
X1124800Y614850D01*
X1124800Y604170D02*
X1153840Y604170D01*
X1153840Y606530D02*
X1124800Y606530D01*
X1124800Y608890D02*
X1153840Y608890D01*
X1153840Y611250D02*
X1124800Y611250D01*
X1124800Y613610D02*
X1153840Y613610D01*
X1172800Y614850D02*
X1201840Y614850D01*
X1201840Y601810D01*
X1172800Y601810D01*
X1172800Y614850D01*
X1172800Y604170D02*
X1201840Y604170D01*
X1201840Y606530D02*
X1172800Y606530D01*
X1172800Y608890D02*
X1201840Y608890D01*
X1201840Y611250D02*
X1172800Y611250D01*
X1172800Y613610D02*
X1201840Y613610D01*
D18*
X1270685Y767555D02*
X1270685Y777545D01*
X1270685Y767555D02*
X1261695Y767555D01*
X1261695Y777545D01*
X1270685Y777545D01*
X1270685Y769963D02*
X1261695Y769963D01*
X1261695Y772371D02*
X1270685Y772371D01*
X1270685Y774779D02*
X1261695Y774779D01*
X1261695Y777187D02*
X1270685Y777187D01*
X1270685Y784555D02*
X1270685Y794545D01*
X1270685Y784555D02*
X1261695Y784555D01*
X1261695Y794545D01*
X1270685Y794545D01*
X1270685Y786963D02*
X1261695Y786963D01*
X1261695Y789371D02*
X1270685Y789371D01*
X1270685Y791779D02*
X1261695Y791779D01*
X1261695Y794187D02*
X1270685Y794187D01*
X1250365Y777545D02*
X1250365Y767555D01*
X1241375Y767555D01*
X1241375Y777545D01*
X1250365Y777545D01*
X1250365Y769963D02*
X1241375Y769963D01*
X1241375Y772371D02*
X1250365Y772371D01*
X1250365Y774779D02*
X1241375Y774779D01*
X1241375Y777187D02*
X1250365Y777187D01*
X1250365Y784555D02*
X1250365Y794545D01*
X1250365Y784555D02*
X1241375Y784555D01*
X1241375Y794545D01*
X1250365Y794545D01*
X1250365Y786963D02*
X1241375Y786963D01*
X1241375Y789371D02*
X1250365Y789371D01*
X1250365Y791779D02*
X1241375Y791779D01*
X1241375Y794187D02*
X1250365Y794187D01*
X1086535Y777545D02*
X1086535Y767555D01*
X1077545Y767555D01*
X1077545Y777545D01*
X1086535Y777545D01*
X1086535Y769963D02*
X1077545Y769963D01*
X1077545Y772371D02*
X1086535Y772371D01*
X1086535Y774779D02*
X1077545Y774779D01*
X1077545Y777187D02*
X1086535Y777187D01*
X1086535Y784555D02*
X1086535Y794545D01*
X1086535Y784555D02*
X1077545Y784555D01*
X1077545Y794545D01*
X1086535Y794545D01*
X1086535Y786963D02*
X1077545Y786963D01*
X1077545Y789371D02*
X1086535Y789371D01*
X1086535Y791779D02*
X1077545Y791779D01*
X1077545Y794187D02*
X1086535Y794187D01*
X1066215Y777545D02*
X1066215Y767555D01*
X1057225Y767555D01*
X1057225Y777545D01*
X1066215Y777545D01*
X1066215Y769963D02*
X1057225Y769963D01*
X1057225Y772371D02*
X1066215Y772371D01*
X1066215Y774779D02*
X1057225Y774779D01*
X1057225Y777187D02*
X1066215Y777187D01*
X1066215Y784555D02*
X1066215Y794545D01*
X1066215Y784555D02*
X1057225Y784555D01*
X1057225Y794545D01*
X1066215Y794545D01*
X1066215Y786963D02*
X1057225Y786963D01*
X1057225Y789371D02*
X1066215Y789371D01*
X1066215Y791779D02*
X1057225Y791779D01*
X1057225Y794187D02*
X1066215Y794187D01*
X1193215Y466395D02*
X1193215Y456405D01*
X1184225Y456405D01*
X1184225Y466395D01*
X1193215Y466395D01*
X1193215Y458813D02*
X1184225Y458813D01*
X1184225Y461221D02*
X1193215Y461221D01*
X1193215Y463629D02*
X1184225Y463629D01*
X1184225Y466037D02*
X1193215Y466037D01*
X1193215Y473405D02*
X1193215Y483395D01*
X1193215Y473405D02*
X1184225Y473405D01*
X1184225Y483395D01*
X1193215Y483395D01*
X1193215Y475813D02*
X1184225Y475813D01*
X1184225Y478221D02*
X1193215Y478221D01*
X1193215Y480629D02*
X1184225Y480629D01*
X1184225Y483037D02*
X1193215Y483037D01*
X1142415Y466395D02*
X1142415Y456405D01*
X1133425Y456405D01*
X1133425Y466395D01*
X1142415Y466395D01*
X1142415Y458813D02*
X1133425Y458813D01*
X1133425Y461221D02*
X1142415Y461221D01*
X1142415Y463629D02*
X1133425Y463629D01*
X1133425Y466037D02*
X1142415Y466037D01*
X1142415Y473405D02*
X1142415Y483395D01*
X1142415Y473405D02*
X1133425Y473405D01*
X1133425Y483395D01*
X1142415Y483395D01*
X1142415Y475813D02*
X1133425Y475813D01*
X1133425Y478221D02*
X1142415Y478221D01*
X1142415Y480629D02*
X1133425Y480629D01*
X1133425Y483037D02*
X1142415Y483037D01*
D23*
X1226820Y424180D03*
X1201420Y424180D03*
X1176020Y424180D03*
X1150620Y424180D03*
X1125220Y424180D03*
X1099820Y424180D03*
X1049020Y728980D03*
X1049020Y703580D03*
X1049020Y678180D03*
X1277620Y728980D03*
X1277620Y703580D03*
X1277620Y678180D03*
D18*
X1176815Y808405D02*
X1166825Y808405D01*
X1176815Y808405D02*
X1176815Y799415D01*
X1166825Y799415D01*
X1166825Y808405D01*
X1166825Y801823D02*
X1176815Y801823D01*
X1176815Y804231D02*
X1166825Y804231D01*
X1166825Y806639D02*
X1176815Y806639D01*
X1159815Y808405D02*
X1149825Y808405D01*
X1159815Y808405D02*
X1159815Y799415D01*
X1149825Y799415D01*
X1149825Y808405D01*
X1149825Y801823D02*
X1159815Y801823D01*
X1159815Y804231D02*
X1149825Y804231D01*
X1149825Y806639D02*
X1159815Y806639D01*
D24*
X1209215Y807425D02*
X1209215Y800395D01*
X1209215Y807425D02*
X1216245Y807425D01*
X1216245Y800395D01*
X1209215Y800395D01*
X1209215Y804664D02*
X1216245Y804664D01*
X1191675Y807425D02*
X1191675Y800395D01*
X1191675Y807425D02*
X1198705Y807425D01*
X1198705Y800395D01*
X1191675Y800395D01*
X1191675Y804664D02*
X1198705Y804664D01*
D18*
X1136175Y808405D02*
X1126185Y808405D01*
X1136175Y808405D02*
X1136175Y799415D01*
X1126185Y799415D01*
X1126185Y808405D01*
X1126185Y801823D02*
X1136175Y801823D01*
X1136175Y804231D02*
X1126185Y804231D01*
X1126185Y806639D02*
X1136175Y806639D01*
X1119175Y808405D02*
X1109185Y808405D01*
X1119175Y808405D02*
X1119175Y799415D01*
X1109185Y799415D01*
X1109185Y808405D01*
X1109185Y801823D02*
X1119175Y801823D01*
X1119175Y804231D02*
X1109185Y804231D01*
X1109185Y806639D02*
X1119175Y806639D01*
D10*
X1371900Y773430D03*
D11*
X1371900Y748030D03*
X1371900Y722630D03*
X1371900Y697230D03*
D10*
X1371900Y671830D03*
D12*
X1398250Y687130D03*
D13*
X1399950Y760730D03*
X1444850Y749230D03*
D12*
X1446550Y687130D03*
D10*
X1472900Y773430D03*
D11*
X1472900Y748030D03*
X1472900Y722630D03*
X1472900Y697230D03*
D10*
X1472900Y671830D03*
D14*
X1438687Y563007D02*
X1431733Y563007D01*
X1438687Y563007D02*
X1438687Y552053D01*
X1431733Y552053D01*
X1431733Y563007D01*
X1431733Y554495D02*
X1438687Y554495D01*
X1438687Y556937D02*
X1431733Y556937D01*
X1431733Y559379D02*
X1438687Y559379D01*
X1438687Y561821D02*
X1431733Y561821D01*
X1420687Y563007D02*
X1413733Y563007D01*
X1420687Y563007D02*
X1420687Y552053D01*
X1413733Y552053D01*
X1413733Y563007D01*
X1413733Y554495D02*
X1420687Y554495D01*
X1420687Y556937D02*
X1413733Y556937D01*
X1413733Y559379D02*
X1420687Y559379D01*
X1420687Y561821D02*
X1413733Y561821D01*
D15*
X1299905Y560935D02*
X1299905Y572025D01*
X1318995Y572025D01*
X1318995Y560935D01*
X1299905Y560935D01*
X1299905Y563247D02*
X1318995Y563247D01*
X1318995Y565559D02*
X1299905Y565559D01*
X1299905Y567871D02*
X1318995Y567871D01*
X1318995Y570183D02*
X1299905Y570183D01*
X1299905Y516025D02*
X1299905Y504935D01*
X1299905Y516025D02*
X1318995Y516025D01*
X1318995Y504935D01*
X1299905Y504935D01*
X1299905Y507247D02*
X1318995Y507247D01*
X1318995Y509559D02*
X1299905Y509559D01*
X1299905Y511871D02*
X1318995Y511871D01*
X1318995Y514183D02*
X1299905Y514183D01*
D16*
X1339967Y550997D02*
X1339967Y555963D01*
X1352433Y555963D01*
X1352433Y550997D01*
X1339967Y550997D01*
X1339967Y553427D02*
X1352433Y553427D01*
X1352433Y555857D02*
X1339967Y555857D01*
X1339967Y545963D02*
X1339967Y540997D01*
X1339967Y545963D02*
X1352433Y545963D01*
X1352433Y540997D01*
X1339967Y540997D01*
X1339967Y543427D02*
X1352433Y543427D01*
X1352433Y545857D02*
X1339967Y545857D01*
X1339967Y535963D02*
X1339967Y530997D01*
X1339967Y535963D02*
X1352433Y535963D01*
X1352433Y530997D01*
X1339967Y530997D01*
X1339967Y533427D02*
X1352433Y533427D01*
X1352433Y535857D02*
X1339967Y535857D01*
X1339967Y525963D02*
X1339967Y520997D01*
X1339967Y525963D02*
X1352433Y525963D01*
X1352433Y520997D01*
X1339967Y520997D01*
X1339967Y523427D02*
X1352433Y523427D01*
X1352433Y525857D02*
X1339967Y525857D01*
D15*
X1544895Y516025D02*
X1544895Y504935D01*
X1525805Y504935D01*
X1525805Y516025D01*
X1544895Y516025D01*
X1544895Y507247D02*
X1525805Y507247D01*
X1525805Y509559D02*
X1544895Y509559D01*
X1544895Y511871D02*
X1525805Y511871D01*
X1525805Y514183D02*
X1544895Y514183D01*
X1544895Y560935D02*
X1544895Y572025D01*
X1544895Y560935D02*
X1525805Y560935D01*
X1525805Y572025D01*
X1544895Y572025D01*
X1544895Y563247D02*
X1525805Y563247D01*
X1525805Y565559D02*
X1544895Y565559D01*
X1544895Y567871D02*
X1525805Y567871D01*
X1525805Y570183D02*
X1544895Y570183D01*
D16*
X1504833Y525963D02*
X1504833Y520997D01*
X1492367Y520997D01*
X1492367Y525963D01*
X1504833Y525963D01*
X1504833Y523427D02*
X1492367Y523427D01*
X1492367Y525857D02*
X1504833Y525857D01*
X1504833Y530997D02*
X1504833Y535963D01*
X1504833Y530997D02*
X1492367Y530997D01*
X1492367Y535963D01*
X1504833Y535963D01*
X1504833Y533427D02*
X1492367Y533427D01*
X1492367Y535857D02*
X1504833Y535857D01*
X1504833Y540997D02*
X1504833Y545963D01*
X1504833Y540997D02*
X1492367Y540997D01*
X1492367Y545963D01*
X1504833Y545963D01*
X1504833Y543427D02*
X1492367Y543427D01*
X1492367Y545857D02*
X1504833Y545857D01*
X1504833Y550997D02*
X1504833Y555963D01*
X1504833Y550997D02*
X1492367Y550997D01*
X1492367Y555963D01*
X1504833Y555963D01*
X1504833Y553427D02*
X1492367Y553427D01*
X1492367Y555857D02*
X1504833Y555857D01*
D17*
X1416423Y532623D02*
X1402311Y532623D01*
X1402311Y537937D01*
X1416423Y537937D01*
X1416423Y532623D01*
X1416423Y534999D02*
X1402311Y534999D01*
X1402311Y537375D02*
X1416423Y537375D01*
X1416423Y523123D02*
X1402311Y523123D01*
X1402311Y528437D01*
X1416423Y528437D01*
X1416423Y523123D01*
X1416423Y525499D02*
X1402311Y525499D01*
X1402311Y527875D02*
X1416423Y527875D01*
X1416423Y513623D02*
X1402311Y513623D01*
X1402311Y518937D01*
X1416423Y518937D01*
X1416423Y513623D01*
X1416423Y515999D02*
X1402311Y515999D01*
X1402311Y518375D02*
X1416423Y518375D01*
X1428377Y513623D02*
X1442489Y513623D01*
X1428377Y513623D02*
X1428377Y518937D01*
X1442489Y518937D01*
X1442489Y513623D01*
X1442489Y515999D02*
X1428377Y515999D01*
X1428377Y518375D02*
X1442489Y518375D01*
X1442489Y532623D02*
X1428377Y532623D01*
X1428377Y537937D01*
X1442489Y537937D01*
X1442489Y532623D01*
X1442489Y534999D02*
X1428377Y534999D01*
X1428377Y537375D02*
X1442489Y537375D01*
D14*
X1476137Y538037D02*
X1476137Y531083D01*
X1465183Y531083D01*
X1465183Y538037D01*
X1476137Y538037D01*
X1476137Y533525D02*
X1465183Y533525D01*
X1465183Y535967D02*
X1476137Y535967D01*
X1476137Y549083D02*
X1476137Y556037D01*
X1476137Y549083D02*
X1465183Y549083D01*
X1465183Y556037D01*
X1476137Y556037D01*
X1476137Y551525D02*
X1465183Y551525D01*
X1465183Y553967D02*
X1476137Y553967D01*
D18*
X1387245Y578535D02*
X1377255Y578535D01*
X1387245Y578535D02*
X1387245Y569545D01*
X1377255Y569545D01*
X1377255Y578535D01*
X1377255Y571953D02*
X1387245Y571953D01*
X1387245Y574361D02*
X1377255Y574361D01*
X1377255Y576769D02*
X1387245Y576769D01*
X1370245Y578535D02*
X1360255Y578535D01*
X1370245Y578535D02*
X1370245Y569545D01*
X1360255Y569545D01*
X1360255Y578535D01*
X1360255Y571953D02*
X1370245Y571953D01*
X1370245Y574361D02*
X1360255Y574361D01*
X1360255Y576769D02*
X1370245Y576769D01*
X1386155Y539275D02*
X1386155Y529285D01*
X1386155Y539275D02*
X1395145Y539275D01*
X1395145Y529285D01*
X1386155Y529285D01*
X1386155Y531693D02*
X1395145Y531693D01*
X1395145Y534101D02*
X1386155Y534101D01*
X1386155Y536509D02*
X1395145Y536509D01*
X1395145Y538917D02*
X1386155Y538917D01*
X1386155Y522275D02*
X1386155Y512285D01*
X1386155Y522275D02*
X1395145Y522275D01*
X1395145Y512285D01*
X1386155Y512285D01*
X1386155Y514693D02*
X1395145Y514693D01*
X1395145Y517101D02*
X1386155Y517101D01*
X1386155Y519509D02*
X1395145Y519509D01*
X1395145Y521917D02*
X1386155Y521917D01*
X1376095Y522275D02*
X1376095Y512285D01*
X1367105Y512285D01*
X1367105Y522275D01*
X1376095Y522275D01*
X1376095Y514693D02*
X1367105Y514693D01*
X1367105Y517101D02*
X1376095Y517101D01*
X1376095Y519509D02*
X1367105Y519509D01*
X1367105Y521917D02*
X1376095Y521917D01*
X1376095Y529285D02*
X1376095Y539275D01*
X1376095Y529285D02*
X1367105Y529285D01*
X1367105Y539275D01*
X1376095Y539275D01*
X1376095Y531693D02*
X1367105Y531693D01*
X1367105Y534101D02*
X1376095Y534101D01*
X1376095Y536509D02*
X1367105Y536509D01*
X1367105Y538917D02*
X1376095Y538917D01*
X1402791Y504875D02*
X1412781Y504875D01*
X1412781Y495885D01*
X1402791Y495885D01*
X1402791Y504875D01*
X1402791Y498293D02*
X1412781Y498293D01*
X1412781Y500701D02*
X1402791Y500701D01*
X1402791Y503109D02*
X1412781Y503109D01*
X1395781Y504875D02*
X1385791Y504875D01*
X1395781Y504875D02*
X1395781Y495885D01*
X1385791Y495885D01*
X1385791Y504875D01*
X1385791Y498293D02*
X1395781Y498293D01*
X1395781Y500701D02*
X1385791Y500701D01*
X1385791Y503109D02*
X1395781Y503109D01*
D19*
X1384350Y553870D02*
X1379030Y553870D01*
X1379030Y561190D01*
X1384350Y561190D01*
X1384350Y553870D01*
X1384350Y556249D02*
X1379030Y556249D01*
X1379030Y558628D02*
X1384350Y558628D01*
X1384350Y561007D02*
X1379030Y561007D01*
X1402030Y553870D02*
X1407350Y553870D01*
X1402030Y553870D02*
X1402030Y561190D01*
X1407350Y561190D01*
X1407350Y553870D01*
X1407350Y556249D02*
X1402030Y556249D01*
X1402030Y558628D02*
X1407350Y558628D01*
X1407350Y561007D02*
X1402030Y561007D01*
D18*
X1458645Y522275D02*
X1458645Y512285D01*
X1449655Y512285D01*
X1449655Y522275D01*
X1458645Y522275D01*
X1458645Y514693D02*
X1449655Y514693D01*
X1449655Y517101D02*
X1458645Y517101D01*
X1458645Y519509D02*
X1449655Y519509D01*
X1449655Y521917D02*
X1458645Y521917D01*
X1458645Y529285D02*
X1458645Y539275D01*
X1458645Y529285D02*
X1449655Y529285D01*
X1449655Y539275D01*
X1458645Y539275D01*
X1458645Y531693D02*
X1449655Y531693D01*
X1449655Y534101D02*
X1458645Y534101D01*
X1458645Y536509D02*
X1449655Y536509D01*
X1449655Y538917D02*
X1458645Y538917D01*
D20*
X1320800Y436880D03*
X1524000Y436880D03*
X1320800Y640080D03*
X1524000Y640080D03*
D21*
X1301750Y811530D03*
X1543050Y417830D03*
D22*
X1412920Y614850D02*
X1383880Y614850D01*
X1412920Y614850D02*
X1412920Y601810D01*
X1383880Y601810D01*
X1383880Y614850D01*
X1383880Y604170D02*
X1412920Y604170D01*
X1412920Y606530D02*
X1383880Y606530D01*
X1383880Y608890D02*
X1412920Y608890D01*
X1412920Y611250D02*
X1383880Y611250D01*
X1383880Y613610D02*
X1412920Y613610D01*
X1431880Y614850D02*
X1460920Y614850D01*
X1460920Y601810D01*
X1431880Y601810D01*
X1431880Y614850D01*
X1431880Y604170D02*
X1460920Y604170D01*
X1460920Y606530D02*
X1431880Y606530D01*
X1431880Y608890D02*
X1460920Y608890D01*
X1460920Y611250D02*
X1431880Y611250D01*
X1431880Y613610D02*
X1460920Y613610D01*
D18*
X1529765Y767555D02*
X1529765Y777545D01*
X1529765Y767555D02*
X1520775Y767555D01*
X1520775Y777545D01*
X1529765Y777545D01*
X1529765Y769963D02*
X1520775Y769963D01*
X1520775Y772371D02*
X1529765Y772371D01*
X1529765Y774779D02*
X1520775Y774779D01*
X1520775Y777187D02*
X1529765Y777187D01*
X1529765Y784555D02*
X1529765Y794545D01*
X1529765Y784555D02*
X1520775Y784555D01*
X1520775Y794545D01*
X1529765Y794545D01*
X1529765Y786963D02*
X1520775Y786963D01*
X1520775Y789371D02*
X1529765Y789371D01*
X1529765Y791779D02*
X1520775Y791779D01*
X1520775Y794187D02*
X1529765Y794187D01*
X1509445Y777545D02*
X1509445Y767555D01*
X1500455Y767555D01*
X1500455Y777545D01*
X1509445Y777545D01*
X1509445Y769963D02*
X1500455Y769963D01*
X1500455Y772371D02*
X1509445Y772371D01*
X1509445Y774779D02*
X1500455Y774779D01*
X1500455Y777187D02*
X1509445Y777187D01*
X1509445Y784555D02*
X1509445Y794545D01*
X1509445Y784555D02*
X1500455Y784555D01*
X1500455Y794545D01*
X1509445Y794545D01*
X1509445Y786963D02*
X1500455Y786963D01*
X1500455Y789371D02*
X1509445Y789371D01*
X1509445Y791779D02*
X1500455Y791779D01*
X1500455Y794187D02*
X1509445Y794187D01*
X1345615Y777545D02*
X1345615Y767555D01*
X1336625Y767555D01*
X1336625Y777545D01*
X1345615Y777545D01*
X1345615Y769963D02*
X1336625Y769963D01*
X1336625Y772371D02*
X1345615Y772371D01*
X1345615Y774779D02*
X1336625Y774779D01*
X1336625Y777187D02*
X1345615Y777187D01*
X1345615Y784555D02*
X1345615Y794545D01*
X1345615Y784555D02*
X1336625Y784555D01*
X1336625Y794545D01*
X1345615Y794545D01*
X1345615Y786963D02*
X1336625Y786963D01*
X1336625Y789371D02*
X1345615Y789371D01*
X1345615Y791779D02*
X1336625Y791779D01*
X1336625Y794187D02*
X1345615Y794187D01*
X1325295Y777545D02*
X1325295Y767555D01*
X1316305Y767555D01*
X1316305Y777545D01*
X1325295Y777545D01*
X1325295Y769963D02*
X1316305Y769963D01*
X1316305Y772371D02*
X1325295Y772371D01*
X1325295Y774779D02*
X1316305Y774779D01*
X1316305Y777187D02*
X1325295Y777187D01*
X1325295Y784555D02*
X1325295Y794545D01*
X1325295Y784555D02*
X1316305Y784555D01*
X1316305Y794545D01*
X1325295Y794545D01*
X1325295Y786963D02*
X1316305Y786963D01*
X1316305Y789371D02*
X1325295Y789371D01*
X1325295Y791779D02*
X1316305Y791779D01*
X1316305Y794187D02*
X1325295Y794187D01*
X1452295Y466395D02*
X1452295Y456405D01*
X1443305Y456405D01*
X1443305Y466395D01*
X1452295Y466395D01*
X1452295Y458813D02*
X1443305Y458813D01*
X1443305Y461221D02*
X1452295Y461221D01*
X1452295Y463629D02*
X1443305Y463629D01*
X1443305Y466037D02*
X1452295Y466037D01*
X1452295Y473405D02*
X1452295Y483395D01*
X1452295Y473405D02*
X1443305Y473405D01*
X1443305Y483395D01*
X1452295Y483395D01*
X1452295Y475813D02*
X1443305Y475813D01*
X1443305Y478221D02*
X1452295Y478221D01*
X1452295Y480629D02*
X1443305Y480629D01*
X1443305Y483037D02*
X1452295Y483037D01*
X1401495Y466395D02*
X1401495Y456405D01*
X1392505Y456405D01*
X1392505Y466395D01*
X1401495Y466395D01*
X1401495Y458813D02*
X1392505Y458813D01*
X1392505Y461221D02*
X1401495Y461221D01*
X1401495Y463629D02*
X1392505Y463629D01*
X1392505Y466037D02*
X1401495Y466037D01*
X1401495Y473405D02*
X1401495Y483395D01*
X1401495Y473405D02*
X1392505Y473405D01*
X1392505Y483395D01*
X1401495Y483395D01*
X1401495Y475813D02*
X1392505Y475813D01*
X1392505Y478221D02*
X1401495Y478221D01*
X1401495Y480629D02*
X1392505Y480629D01*
X1392505Y483037D02*
X1401495Y483037D01*
D23*
X1485900Y424180D03*
X1460500Y424180D03*
X1435100Y424180D03*
X1409700Y424180D03*
X1384300Y424180D03*
X1358900Y424180D03*
X1308100Y728980D03*
X1308100Y703580D03*
X1308100Y678180D03*
X1536700Y728980D03*
X1536700Y703580D03*
X1536700Y678180D03*
D18*
X1435895Y808405D02*
X1425905Y808405D01*
X1435895Y808405D02*
X1435895Y799415D01*
X1425905Y799415D01*
X1425905Y808405D01*
X1425905Y801823D02*
X1435895Y801823D01*
X1435895Y804231D02*
X1425905Y804231D01*
X1425905Y806639D02*
X1435895Y806639D01*
X1418895Y808405D02*
X1408905Y808405D01*
X1418895Y808405D02*
X1418895Y799415D01*
X1408905Y799415D01*
X1408905Y808405D01*
X1408905Y801823D02*
X1418895Y801823D01*
X1418895Y804231D02*
X1408905Y804231D01*
X1408905Y806639D02*
X1418895Y806639D01*
D24*
X1468295Y807425D02*
X1468295Y800395D01*
X1468295Y807425D02*
X1475325Y807425D01*
X1475325Y800395D01*
X1468295Y800395D01*
X1468295Y804664D02*
X1475325Y804664D01*
X1450755Y807425D02*
X1450755Y800395D01*
X1450755Y807425D02*
X1457785Y807425D01*
X1457785Y800395D01*
X1450755Y800395D01*
X1450755Y804664D02*
X1457785Y804664D01*
D18*
X1395255Y808405D02*
X1385265Y808405D01*
X1395255Y808405D02*
X1395255Y799415D01*
X1385265Y799415D01*
X1385265Y808405D01*
X1385265Y801823D02*
X1395255Y801823D01*
X1395255Y804231D02*
X1385265Y804231D01*
X1385265Y806639D02*
X1395255Y806639D01*
X1378255Y808405D02*
X1368265Y808405D01*
X1378255Y808405D02*
X1378255Y799415D01*
X1368265Y799415D01*
X1368265Y808405D01*
X1368265Y801823D02*
X1378255Y801823D01*
X1378255Y804231D02*
X1368265Y804231D01*
X1368265Y806639D02*
X1378255Y806639D01*
D25*
X-26238Y791210D03*
X1575638Y791210D03*
D26*
X-35293Y63500D02*
X-35290Y63722D01*
X-35282Y63944D01*
X-35268Y64166D01*
X-35249Y64388D01*
X-35225Y64608D01*
X-35195Y64829D01*
X-35160Y65048D01*
X-35119Y65267D01*
X-35073Y65484D01*
X-35022Y65700D01*
X-34965Y65915D01*
X-34903Y66129D01*
X-34836Y66340D01*
X-34764Y66551D01*
X-34686Y66759D01*
X-34604Y66965D01*
X-34516Y67169D01*
X-34424Y67372D01*
X-34326Y67571D01*
X-34224Y67768D01*
X-34117Y67963D01*
X-34005Y68155D01*
X-33888Y68344D01*
X-33767Y68531D01*
X-33641Y68714D01*
X-33511Y68894D01*
X-33376Y69071D01*
X-33238Y69244D01*
X-33095Y69414D01*
X-32947Y69581D01*
X-32796Y69744D01*
X-32641Y69903D01*
X-32482Y70058D01*
X-32319Y70209D01*
X-32152Y70357D01*
X-31982Y70500D01*
X-31809Y70638D01*
X-31632Y70773D01*
X-31452Y70903D01*
X-31269Y71029D01*
X-31082Y71150D01*
X-30893Y71267D01*
X-30701Y71379D01*
X-30506Y71486D01*
X-30309Y71588D01*
X-30110Y71686D01*
X-29907Y71778D01*
X-29703Y71866D01*
X-29497Y71948D01*
X-29289Y72026D01*
X-29078Y72098D01*
X-28867Y72165D01*
X-28653Y72227D01*
X-28438Y72284D01*
X-28222Y72335D01*
X-28005Y72381D01*
X-27786Y72422D01*
X-27567Y72457D01*
X-27346Y72487D01*
X-27126Y72511D01*
X-26904Y72530D01*
X-26682Y72544D01*
X-26460Y72552D01*
X-26238Y72555D01*
X-26016Y72552D01*
X-25794Y72544D01*
X-25572Y72530D01*
X-25350Y72511D01*
X-25130Y72487D01*
X-24909Y72457D01*
X-24690Y72422D01*
X-24471Y72381D01*
X-24254Y72335D01*
X-24038Y72284D01*
X-23823Y72227D01*
X-23609Y72165D01*
X-23398Y72098D01*
X-23187Y72026D01*
X-22979Y71948D01*
X-22773Y71866D01*
X-22569Y71778D01*
X-22366Y71686D01*
X-22167Y71588D01*
X-21970Y71486D01*
X-21775Y71379D01*
X-21583Y71267D01*
X-21394Y71150D01*
X-21207Y71029D01*
X-21024Y70903D01*
X-20844Y70773D01*
X-20667Y70638D01*
X-20494Y70500D01*
X-20324Y70357D01*
X-20157Y70209D01*
X-19994Y70058D01*
X-19835Y69903D01*
X-19680Y69744D01*
X-19529Y69581D01*
X-19381Y69414D01*
X-19238Y69244D01*
X-19100Y69071D01*
X-18965Y68894D01*
X-18835Y68714D01*
X-18709Y68531D01*
X-18588Y68344D01*
X-18471Y68155D01*
X-18359Y67963D01*
X-18252Y67768D01*
X-18150Y67571D01*
X-18052Y67372D01*
X-17960Y67169D01*
X-17872Y66965D01*
X-17790Y66759D01*
X-17712Y66551D01*
X-17640Y66340D01*
X-17573Y66129D01*
X-17511Y65915D01*
X-17454Y65700D01*
X-17403Y65484D01*
X-17357Y65267D01*
X-17316Y65048D01*
X-17281Y64829D01*
X-17251Y64608D01*
X-17227Y64388D01*
X-17208Y64166D01*
X-17194Y63944D01*
X-17186Y63722D01*
X-17183Y63500D01*
X-17186Y63278D01*
X-17194Y63056D01*
X-17208Y62834D01*
X-17227Y62612D01*
X-17251Y62392D01*
X-17281Y62171D01*
X-17316Y61952D01*
X-17357Y61733D01*
X-17403Y61516D01*
X-17454Y61300D01*
X-17511Y61085D01*
X-17573Y60871D01*
X-17640Y60660D01*
X-17712Y60449D01*
X-17790Y60241D01*
X-17872Y60035D01*
X-17960Y59831D01*
X-18052Y59628D01*
X-18150Y59429D01*
X-18252Y59232D01*
X-18359Y59037D01*
X-18471Y58845D01*
X-18588Y58656D01*
X-18709Y58469D01*
X-18835Y58286D01*
X-18965Y58106D01*
X-19100Y57929D01*
X-19238Y57756D01*
X-19381Y57586D01*
X-19529Y57419D01*
X-19680Y57256D01*
X-19835Y57097D01*
X-19994Y56942D01*
X-20157Y56791D01*
X-20324Y56643D01*
X-20494Y56500D01*
X-20667Y56362D01*
X-20844Y56227D01*
X-21024Y56097D01*
X-21207Y55971D01*
X-21394Y55850D01*
X-21583Y55733D01*
X-21775Y55621D01*
X-21970Y55514D01*
X-22167Y55412D01*
X-22366Y55314D01*
X-22569Y55222D01*
X-22773Y55134D01*
X-22979Y55052D01*
X-23187Y54974D01*
X-23398Y54902D01*
X-23609Y54835D01*
X-23823Y54773D01*
X-24038Y54716D01*
X-24254Y54665D01*
X-24471Y54619D01*
X-24690Y54578D01*
X-24909Y54543D01*
X-25130Y54513D01*
X-25350Y54489D01*
X-25572Y54470D01*
X-25794Y54456D01*
X-26016Y54448D01*
X-26238Y54445D01*
X-26460Y54448D01*
X-26682Y54456D01*
X-26904Y54470D01*
X-27126Y54489D01*
X-27346Y54513D01*
X-27567Y54543D01*
X-27786Y54578D01*
X-28005Y54619D01*
X-28222Y54665D01*
X-28438Y54716D01*
X-28653Y54773D01*
X-28867Y54835D01*
X-29078Y54902D01*
X-29289Y54974D01*
X-29497Y55052D01*
X-29703Y55134D01*
X-29907Y55222D01*
X-30110Y55314D01*
X-30309Y55412D01*
X-30506Y55514D01*
X-30701Y55621D01*
X-30893Y55733D01*
X-31082Y55850D01*
X-31269Y55971D01*
X-31452Y56097D01*
X-31632Y56227D01*
X-31809Y56362D01*
X-31982Y56500D01*
X-32152Y56643D01*
X-32319Y56791D01*
X-32482Y56942D01*
X-32641Y57097D01*
X-32796Y57256D01*
X-32947Y57419D01*
X-33095Y57586D01*
X-33238Y57756D01*
X-33376Y57929D01*
X-33511Y58106D01*
X-33641Y58286D01*
X-33767Y58469D01*
X-33888Y58656D01*
X-34005Y58845D01*
X-34117Y59037D01*
X-34224Y59232D01*
X-34326Y59429D01*
X-34424Y59628D01*
X-34516Y59831D01*
X-34604Y60035D01*
X-34686Y60241D01*
X-34764Y60449D01*
X-34836Y60660D01*
X-34903Y60871D01*
X-34965Y61085D01*
X-35022Y61300D01*
X-35073Y61516D01*
X-35119Y61733D01*
X-35160Y61952D01*
X-35195Y62171D01*
X-35225Y62392D01*
X-35249Y62612D01*
X-35268Y62834D01*
X-35282Y63056D01*
X-35290Y63278D01*
X-35293Y63500D01*
D27*
X-26238Y63500D03*
M02*
