G04 EAGLE Gerber RS-274X export*
G75*
%MOMM*%
%FSLAX34Y34*%
%LPD*%
%INBottom Copper*%
%IPPOS*%
%AMOC8*
5,1,8,0,0,1.08239X$1,22.5*%
G01*
%ADD10C,0.203200*%
%ADD11C,0.635000*%
%ADD12C,0.099059*%
%ADD13C,1.879600*%
%ADD14C,0.101600*%
%ADD15C,0.736600*%
%ADD16C,0.381000*%
%ADD17C,0.635000*%
%ADD18C,1.270000*%

G36*
X215405Y4069D02*
X215405Y4069D01*
X215440Y4067D01*
X215562Y4089D01*
X215685Y4105D01*
X215718Y4118D01*
X215753Y4124D01*
X215865Y4176D01*
X215981Y4222D01*
X216009Y4242D01*
X216041Y4257D01*
X216138Y4336D01*
X216238Y4408D01*
X216261Y4436D01*
X216288Y4458D01*
X216361Y4558D01*
X216441Y4653D01*
X216456Y4685D01*
X216477Y4714D01*
X216523Y4829D01*
X216576Y4941D01*
X216583Y4976D01*
X216596Y5009D01*
X216613Y5132D01*
X216636Y5253D01*
X216634Y5289D01*
X216639Y5324D01*
X216624Y5447D01*
X216616Y5571D01*
X216605Y5605D01*
X216601Y5640D01*
X216556Y5756D01*
X216518Y5873D01*
X216499Y5903D01*
X216487Y5936D01*
X216414Y6037D01*
X216348Y6142D01*
X216322Y6166D01*
X216302Y6195D01*
X216185Y6306D01*
X211015Y10644D01*
X207029Y17549D01*
X205645Y25400D01*
X207029Y33251D01*
X211015Y40155D01*
X217122Y45280D01*
X224614Y48007D01*
X232586Y48007D01*
X240078Y45280D01*
X246185Y40156D01*
X247567Y37762D01*
X247655Y37646D01*
X247740Y37528D01*
X247751Y37519D01*
X247759Y37509D01*
X247873Y37418D01*
X247985Y37325D01*
X247998Y37319D01*
X248008Y37311D01*
X248142Y37251D01*
X248273Y37190D01*
X248286Y37187D01*
X248299Y37182D01*
X248443Y37157D01*
X248586Y37130D01*
X248599Y37131D01*
X248612Y37128D01*
X248758Y37141D01*
X248903Y37150D01*
X248916Y37154D01*
X248929Y37155D01*
X249067Y37203D01*
X249205Y37248D01*
X249217Y37255D01*
X249230Y37259D01*
X249351Y37340D01*
X249474Y37418D01*
X249483Y37428D01*
X249495Y37435D01*
X249592Y37543D01*
X249692Y37649D01*
X249699Y37661D01*
X249708Y37671D01*
X249775Y37801D01*
X249846Y37928D01*
X249849Y37941D01*
X249855Y37953D01*
X249889Y38095D01*
X249925Y38236D01*
X249926Y38254D01*
X249928Y38263D01*
X249928Y38280D01*
X249935Y38397D01*
X249935Y215603D01*
X249917Y215748D01*
X249902Y215893D01*
X249897Y215906D01*
X249895Y215919D01*
X249842Y216054D01*
X249791Y216191D01*
X249783Y216202D01*
X249778Y216215D01*
X249693Y216332D01*
X249610Y216452D01*
X249599Y216461D01*
X249592Y216472D01*
X249480Y216565D01*
X249369Y216660D01*
X249357Y216666D01*
X249347Y216675D01*
X249215Y216737D01*
X249084Y216802D01*
X249071Y216805D01*
X249059Y216810D01*
X248917Y216838D01*
X248773Y216868D01*
X248760Y216868D01*
X248747Y216870D01*
X248602Y216861D01*
X248456Y216855D01*
X248442Y216851D01*
X248429Y216850D01*
X248291Y216806D01*
X248151Y216763D01*
X248139Y216756D01*
X248127Y216752D01*
X248004Y216675D01*
X247879Y216599D01*
X247869Y216589D01*
X247858Y216582D01*
X247758Y216476D01*
X247656Y216372D01*
X247646Y216357D01*
X247640Y216351D01*
X247632Y216336D01*
X247567Y216238D01*
X246185Y213845D01*
X240078Y208720D01*
X232586Y205993D01*
X224614Y205993D01*
X217122Y208720D01*
X211015Y213844D01*
X207029Y220749D01*
X205645Y228600D01*
X207029Y236451D01*
X211015Y243355D01*
X217122Y248480D01*
X224614Y251207D01*
X232586Y251207D01*
X240078Y248480D01*
X246185Y243356D01*
X247567Y240962D01*
X247655Y240846D01*
X247740Y240728D01*
X247751Y240719D01*
X247759Y240709D01*
X247873Y240618D01*
X247985Y240525D01*
X247998Y240519D01*
X248008Y240511D01*
X248142Y240451D01*
X248273Y240390D01*
X248286Y240387D01*
X248299Y240382D01*
X248443Y240357D01*
X248586Y240330D01*
X248599Y240331D01*
X248612Y240328D01*
X248758Y240341D01*
X248903Y240350D01*
X248916Y240354D01*
X248929Y240355D01*
X249067Y240403D01*
X249205Y240448D01*
X249217Y240455D01*
X249230Y240459D01*
X249351Y240540D01*
X249474Y240618D01*
X249483Y240628D01*
X249495Y240635D01*
X249592Y240743D01*
X249692Y240849D01*
X249699Y240861D01*
X249708Y240871D01*
X249775Y241001D01*
X249846Y241128D01*
X249849Y241141D01*
X249855Y241153D01*
X249889Y241295D01*
X249925Y241436D01*
X249926Y241454D01*
X249928Y241463D01*
X249928Y241480D01*
X249935Y241597D01*
X249935Y254905D01*
X249929Y254954D01*
X249931Y255004D01*
X249909Y255111D01*
X249895Y255221D01*
X249877Y255267D01*
X249867Y255315D01*
X249819Y255414D01*
X249778Y255516D01*
X249749Y255556D01*
X249727Y255601D01*
X249656Y255685D01*
X249592Y255774D01*
X249553Y255805D01*
X249521Y255843D01*
X249431Y255906D01*
X249347Y255976D01*
X249302Y255998D01*
X249261Y256026D01*
X249158Y256065D01*
X249059Y256112D01*
X249010Y256121D01*
X248964Y256139D01*
X248854Y256151D01*
X248747Y256172D01*
X248697Y256169D01*
X248648Y256174D01*
X248539Y256159D01*
X248429Y256152D01*
X248382Y256137D01*
X248333Y256130D01*
X248180Y256078D01*
X243776Y254253D01*
X238824Y254253D01*
X234250Y256148D01*
X230748Y259650D01*
X228853Y264224D01*
X228853Y269176D01*
X230748Y273750D01*
X234250Y277252D01*
X237275Y278505D01*
X237301Y278520D01*
X237330Y278529D01*
X237439Y278599D01*
X237552Y278663D01*
X237573Y278684D01*
X237598Y278700D01*
X237687Y278794D01*
X237780Y278884D01*
X237796Y278910D01*
X237816Y278931D01*
X237879Y279045D01*
X237946Y279155D01*
X237955Y279184D01*
X237969Y279210D01*
X238002Y279335D01*
X238040Y279459D01*
X238041Y279489D01*
X238049Y279518D01*
X238049Y279648D01*
X238055Y279777D01*
X238049Y279806D01*
X238049Y279836D01*
X238017Y279961D01*
X237991Y280088D01*
X237978Y280115D01*
X237970Y280144D01*
X237908Y280257D01*
X237851Y280374D01*
X237832Y280397D01*
X237817Y280423D01*
X237729Y280517D01*
X237645Y280616D01*
X237620Y280633D01*
X237600Y280655D01*
X237491Y280724D01*
X237385Y280799D01*
X237357Y280810D01*
X237331Y280826D01*
X237182Y280885D01*
X236717Y281036D01*
X235043Y281889D01*
X233522Y282994D01*
X232194Y284322D01*
X231089Y285843D01*
X230236Y287517D01*
X229655Y289304D01*
X229615Y289561D01*
X240030Y289561D01*
X240148Y289576D01*
X240267Y289583D01*
X240305Y289596D01*
X240345Y289601D01*
X240456Y289644D01*
X240569Y289681D01*
X240603Y289703D01*
X240641Y289718D01*
X240737Y289788D01*
X240838Y289851D01*
X240866Y289881D01*
X240898Y289904D01*
X240974Y289996D01*
X241056Y290083D01*
X241075Y290118D01*
X241101Y290149D01*
X241152Y290257D01*
X241209Y290361D01*
X241220Y290401D01*
X241237Y290437D01*
X241259Y290554D01*
X241289Y290669D01*
X241293Y290730D01*
X241297Y290750D01*
X241295Y290770D01*
X241299Y290830D01*
X241299Y293370D01*
X241284Y293488D01*
X241277Y293607D01*
X241264Y293645D01*
X241259Y293685D01*
X241215Y293796D01*
X241179Y293909D01*
X241157Y293944D01*
X241142Y293981D01*
X241072Y294077D01*
X241009Y294178D01*
X240979Y294206D01*
X240955Y294239D01*
X240864Y294314D01*
X240777Y294396D01*
X240742Y294416D01*
X240710Y294441D01*
X240603Y294492D01*
X240498Y294550D01*
X240459Y294560D01*
X240423Y294577D01*
X240306Y294599D01*
X240191Y294629D01*
X240130Y294633D01*
X240110Y294637D01*
X240090Y294635D01*
X240030Y294639D01*
X229615Y294639D01*
X229655Y294896D01*
X230236Y296683D01*
X231089Y298357D01*
X232194Y299878D01*
X233522Y301206D01*
X235043Y302311D01*
X236717Y303164D01*
X237182Y303315D01*
X237209Y303328D01*
X237238Y303335D01*
X237352Y303395D01*
X237470Y303450D01*
X237493Y303469D01*
X237519Y303483D01*
X237615Y303570D01*
X237715Y303653D01*
X237732Y303677D01*
X237754Y303697D01*
X237826Y303806D01*
X237902Y303910D01*
X237913Y303938D01*
X237929Y303963D01*
X237971Y304086D01*
X238019Y304206D01*
X238023Y304236D01*
X238032Y304264D01*
X238043Y304393D01*
X238059Y304521D01*
X238055Y304551D01*
X238058Y304581D01*
X238035Y304709D01*
X238019Y304837D01*
X238008Y304865D01*
X238003Y304894D01*
X237950Y305012D01*
X237902Y305133D01*
X237885Y305157D01*
X237873Y305184D01*
X237792Y305285D01*
X237716Y305390D01*
X237693Y305409D01*
X237674Y305433D01*
X237570Y305511D01*
X237471Y305593D01*
X237444Y305606D01*
X237420Y305624D01*
X237275Y305695D01*
X234249Y306948D01*
X233468Y307729D01*
X233390Y307790D01*
X233318Y307858D01*
X233265Y307887D01*
X233217Y307924D01*
X233126Y307964D01*
X233039Y308012D01*
X232981Y308027D01*
X232925Y308051D01*
X232827Y308066D01*
X232731Y308091D01*
X232631Y308097D01*
X232611Y308101D01*
X232599Y308099D01*
X232571Y308101D01*
X210159Y308101D01*
X210061Y308089D01*
X209962Y308086D01*
X209903Y308069D01*
X209843Y308061D01*
X209751Y308025D01*
X209656Y307997D01*
X209604Y307967D01*
X209548Y307944D01*
X209468Y307886D01*
X209382Y307836D01*
X209307Y307770D01*
X209290Y307758D01*
X209282Y307748D01*
X209261Y307730D01*
X182490Y280959D01*
X182430Y280880D01*
X182362Y280808D01*
X182333Y280755D01*
X182296Y280707D01*
X182256Y280616D01*
X182208Y280530D01*
X182193Y280471D01*
X182169Y280416D01*
X182154Y280318D01*
X182129Y280222D01*
X182123Y280122D01*
X182119Y280101D01*
X182121Y280089D01*
X182119Y280061D01*
X182119Y246857D01*
X180688Y243403D01*
X147757Y210472D01*
X144303Y209041D01*
X122262Y209041D01*
X122233Y209038D01*
X122204Y209040D01*
X122075Y209018D01*
X121947Y209001D01*
X121919Y208991D01*
X121890Y208986D01*
X121772Y208932D01*
X121651Y208884D01*
X121627Y208867D01*
X121600Y208855D01*
X121499Y208774D01*
X121394Y208698D01*
X121375Y208675D01*
X121352Y208656D01*
X121274Y208553D01*
X121191Y208453D01*
X121178Y208426D01*
X121161Y208402D01*
X121090Y208258D01*
X120998Y208036D01*
X118354Y205392D01*
X114900Y203961D01*
X90840Y203961D01*
X87386Y205392D01*
X85606Y207172D01*
X85497Y207257D01*
X85390Y207346D01*
X85371Y207354D01*
X85355Y207367D01*
X85227Y207422D01*
X85102Y207481D01*
X85082Y207485D01*
X85063Y207493D01*
X84925Y207515D01*
X84789Y207541D01*
X84769Y207540D01*
X84749Y207543D01*
X84610Y207530D01*
X84472Y207521D01*
X84453Y207515D01*
X84433Y207513D01*
X84301Y207466D01*
X84170Y207423D01*
X84152Y207412D01*
X84133Y207405D01*
X84018Y207327D01*
X83901Y207253D01*
X83887Y207238D01*
X83870Y207227D01*
X83778Y207123D01*
X83683Y207021D01*
X83673Y207004D01*
X83660Y206988D01*
X83596Y206864D01*
X83529Y206743D01*
X83524Y206723D01*
X83515Y206705D01*
X83485Y206569D01*
X83450Y206435D01*
X83448Y206407D01*
X83445Y206395D01*
X83446Y206374D01*
X83440Y206274D01*
X83440Y204709D01*
X82492Y202422D01*
X70095Y190025D01*
X70035Y189947D01*
X69967Y189875D01*
X69938Y189822D01*
X69901Y189774D01*
X69861Y189683D01*
X69813Y189596D01*
X69798Y189538D01*
X69774Y189482D01*
X69759Y189384D01*
X69734Y189288D01*
X69728Y189188D01*
X69724Y189168D01*
X69726Y189156D01*
X69724Y189128D01*
X69724Y135184D01*
X69736Y135085D01*
X69739Y134986D01*
X69756Y134928D01*
X69764Y134868D01*
X69800Y134776D01*
X69828Y134681D01*
X69858Y134629D01*
X69881Y134572D01*
X69939Y134492D01*
X69989Y134407D01*
X70055Y134332D01*
X70067Y134315D01*
X70077Y134307D01*
X70095Y134286D01*
X103806Y100575D01*
X103884Y100515D01*
X103957Y100447D01*
X104010Y100418D01*
X104057Y100381D01*
X104148Y100341D01*
X104235Y100293D01*
X104294Y100278D01*
X104349Y100254D01*
X104447Y100239D01*
X104543Y100214D01*
X104643Y100208D01*
X104663Y100204D01*
X104676Y100206D01*
X104704Y100204D01*
X172442Y100204D01*
X172451Y100205D01*
X172461Y100204D01*
X172609Y100225D01*
X172758Y100244D01*
X172766Y100247D01*
X172775Y100248D01*
X172928Y100300D01*
X173921Y100712D01*
X176599Y100712D01*
X179073Y99687D01*
X180967Y97793D01*
X181992Y95319D01*
X181992Y92641D01*
X180967Y90167D01*
X179073Y88273D01*
X176599Y87248D01*
X173921Y87248D01*
X172928Y87660D01*
X172919Y87662D01*
X172911Y87667D01*
X172766Y87704D01*
X172621Y87744D01*
X172612Y87744D01*
X172603Y87746D01*
X172442Y87756D01*
X154605Y87756D01*
X154535Y87748D01*
X154466Y87749D01*
X154378Y87728D01*
X154289Y87716D01*
X154224Y87691D01*
X154156Y87674D01*
X154077Y87632D01*
X153993Y87599D01*
X153937Y87558D01*
X153875Y87526D01*
X153809Y87465D01*
X153736Y87413D01*
X153691Y87359D01*
X153640Y87312D01*
X153591Y87237D01*
X153533Y87168D01*
X153503Y87104D01*
X153465Y87046D01*
X153436Y86961D01*
X153398Y86880D01*
X153385Y86811D01*
X153362Y86745D01*
X153355Y86656D01*
X153338Y86568D01*
X153342Y86498D01*
X153337Y86428D01*
X153352Y86340D01*
X153358Y86250D01*
X153379Y86184D01*
X153391Y86115D01*
X153428Y86033D01*
X153456Y85948D01*
X153493Y85889D01*
X153522Y85825D01*
X153578Y85755D01*
X153626Y85679D01*
X153677Y85631D01*
X153720Y85577D01*
X153792Y85522D01*
X153857Y85461D01*
X153919Y85427D01*
X153974Y85385D01*
X154119Y85314D01*
X156213Y84447D01*
X158107Y82553D01*
X159132Y80079D01*
X159132Y77401D01*
X158107Y74927D01*
X156213Y73033D01*
X153739Y72008D01*
X153200Y72008D01*
X153101Y71996D01*
X153002Y71993D01*
X152944Y71976D01*
X152884Y71968D01*
X152792Y71932D01*
X152697Y71904D01*
X152645Y71874D01*
X152588Y71851D01*
X152508Y71793D01*
X152423Y71743D01*
X152348Y71677D01*
X152331Y71665D01*
X152323Y71655D01*
X152302Y71637D01*
X150126Y69460D01*
X148305Y68706D01*
X145034Y68706D01*
X144916Y68691D01*
X144797Y68684D01*
X144759Y68671D01*
X144718Y68666D01*
X144608Y68623D01*
X144495Y68586D01*
X144460Y68564D01*
X144423Y68549D01*
X144327Y68480D01*
X144226Y68416D01*
X144198Y68386D01*
X144165Y68363D01*
X144089Y68271D01*
X144008Y68184D01*
X143988Y68149D01*
X143963Y68118D01*
X143912Y68010D01*
X143854Y67906D01*
X143844Y67866D01*
X143827Y67830D01*
X143805Y67713D01*
X143775Y67598D01*
X143771Y67537D01*
X143767Y67518D01*
X143769Y67497D01*
X143765Y67437D01*
X143765Y66337D01*
X141689Y64261D01*
X133139Y64261D01*
X133104Y64296D01*
X133010Y64369D01*
X132921Y64448D01*
X132885Y64466D01*
X132853Y64491D01*
X132744Y64538D01*
X132638Y64592D01*
X132598Y64601D01*
X132561Y64617D01*
X132444Y64636D01*
X132328Y64662D01*
X132287Y64661D01*
X132247Y64667D01*
X132128Y64656D01*
X132010Y64652D01*
X131971Y64641D01*
X131931Y64637D01*
X131819Y64597D01*
X131704Y64564D01*
X131669Y64543D01*
X131631Y64530D01*
X131533Y64463D01*
X131430Y64402D01*
X131385Y64363D01*
X131368Y64351D01*
X131355Y64336D01*
X131309Y64296D01*
X131275Y64261D01*
X122725Y64261D01*
X122690Y64296D01*
X122596Y64369D01*
X122507Y64448D01*
X122471Y64466D01*
X122439Y64491D01*
X122330Y64538D01*
X122224Y64592D01*
X122184Y64601D01*
X122147Y64617D01*
X122030Y64636D01*
X121914Y64662D01*
X121873Y64661D01*
X121833Y64667D01*
X121714Y64656D01*
X121596Y64652D01*
X121557Y64641D01*
X121517Y64637D01*
X121405Y64597D01*
X121290Y64564D01*
X121255Y64543D01*
X121217Y64530D01*
X121119Y64463D01*
X121016Y64402D01*
X120971Y64363D01*
X120954Y64351D01*
X120941Y64336D01*
X120895Y64296D01*
X120861Y64261D01*
X112311Y64261D01*
X110235Y66337D01*
X110235Y67437D01*
X110220Y67555D01*
X110213Y67674D01*
X110200Y67712D01*
X110195Y67753D01*
X110152Y67863D01*
X110115Y67976D01*
X110093Y68011D01*
X110078Y68048D01*
X110009Y68144D01*
X109945Y68245D01*
X109915Y68273D01*
X109892Y68306D01*
X109800Y68382D01*
X109713Y68463D01*
X109678Y68483D01*
X109647Y68508D01*
X109539Y68559D01*
X109435Y68617D01*
X109395Y68627D01*
X109359Y68644D01*
X109242Y68666D01*
X109127Y68696D01*
X109067Y68700D01*
X109047Y68704D01*
X109026Y68702D01*
X108966Y68706D01*
X105394Y68706D01*
X103573Y69460D01*
X101698Y71336D01*
X101620Y71396D01*
X101547Y71464D01*
X101494Y71493D01*
X101447Y71530D01*
X101356Y71570D01*
X101269Y71618D01*
X101210Y71633D01*
X101155Y71657D01*
X101057Y71672D01*
X100961Y71697D01*
X100861Y71703D01*
X100841Y71707D01*
X100828Y71705D01*
X100800Y71707D01*
X100261Y71707D01*
X97787Y72732D01*
X97291Y73228D01*
X97181Y73314D01*
X97074Y73402D01*
X97055Y73411D01*
X97039Y73423D01*
X96911Y73479D01*
X96786Y73538D01*
X96766Y73542D01*
X96747Y73550D01*
X96609Y73572D01*
X96473Y73598D01*
X96453Y73596D01*
X96433Y73600D01*
X96294Y73586D01*
X96156Y73578D01*
X96137Y73572D01*
X96117Y73570D01*
X95986Y73523D01*
X95854Y73480D01*
X95836Y73469D01*
X95817Y73462D01*
X95703Y73384D01*
X95585Y73310D01*
X95571Y73295D01*
X95554Y73284D01*
X95462Y73180D01*
X95367Y73078D01*
X95357Y73060D01*
X95344Y73045D01*
X95281Y72921D01*
X95213Y72800D01*
X95208Y72780D01*
X95199Y72762D01*
X95169Y72626D01*
X95134Y72492D01*
X95132Y72464D01*
X95129Y72452D01*
X95130Y72431D01*
X95124Y72331D01*
X95124Y32778D01*
X95141Y32640D01*
X95154Y32502D01*
X95161Y32483D01*
X95164Y32463D01*
X95215Y32333D01*
X95262Y32202D01*
X95273Y32186D01*
X95281Y32167D01*
X95362Y32054D01*
X95440Y31939D01*
X95456Y31926D01*
X95467Y31910D01*
X95575Y31821D01*
X95679Y31729D01*
X95697Y31720D01*
X95712Y31707D01*
X95838Y31647D01*
X95962Y31584D01*
X95982Y31580D01*
X96000Y31571D01*
X96137Y31545D01*
X96272Y31515D01*
X96293Y31515D01*
X96312Y31511D01*
X96451Y31520D01*
X96590Y31524D01*
X96610Y31530D01*
X96630Y31531D01*
X96762Y31574D01*
X96896Y31613D01*
X96913Y31623D01*
X96932Y31629D01*
X97050Y31703D01*
X97170Y31774D01*
X97191Y31793D01*
X97201Y31799D01*
X97215Y31814D01*
X97291Y31881D01*
X97787Y32377D01*
X100261Y33402D01*
X102939Y33402D01*
X105413Y32377D01*
X105795Y31995D01*
X105873Y31935D01*
X105945Y31867D01*
X105998Y31838D01*
X106046Y31801D01*
X106137Y31761D01*
X106224Y31713D01*
X106282Y31698D01*
X106338Y31674D01*
X106436Y31659D01*
X106531Y31634D01*
X106631Y31628D01*
X106652Y31624D01*
X106664Y31626D01*
X106692Y31624D01*
X107432Y31624D01*
X107481Y31630D01*
X107531Y31628D01*
X107638Y31650D01*
X107748Y31664D01*
X107794Y31682D01*
X107842Y31692D01*
X107941Y31740D01*
X108043Y31781D01*
X108083Y31810D01*
X108128Y31832D01*
X108212Y31903D01*
X108301Y31967D01*
X108332Y32006D01*
X108370Y32038D01*
X108433Y32128D01*
X108503Y32212D01*
X108525Y32257D01*
X108553Y32298D01*
X108592Y32401D01*
X108639Y32500D01*
X108648Y32549D01*
X108666Y32595D01*
X108678Y32705D01*
X108699Y32812D01*
X108696Y32862D01*
X108701Y32911D01*
X108686Y33020D01*
X108679Y33130D01*
X108664Y33177D01*
X108657Y33226D01*
X108605Y33379D01*
X107568Y35881D01*
X107568Y38559D01*
X108593Y41033D01*
X110487Y42927D01*
X112961Y43952D01*
X115639Y43952D01*
X118113Y42927D01*
X118885Y42155D01*
X118963Y42095D01*
X119035Y42027D01*
X119088Y41998D01*
X119136Y41961D01*
X119227Y41921D01*
X119314Y41873D01*
X119372Y41858D01*
X119428Y41834D01*
X119526Y41819D01*
X119621Y41794D01*
X119721Y41788D01*
X119742Y41784D01*
X119754Y41786D01*
X119782Y41784D01*
X147282Y41784D01*
X147381Y41796D01*
X147480Y41799D01*
X147538Y41816D01*
X147598Y41824D01*
X147690Y41860D01*
X147785Y41888D01*
X147837Y41918D01*
X147894Y41941D01*
X147974Y41999D01*
X148059Y42049D01*
X148134Y42115D01*
X148151Y42127D01*
X148159Y42137D01*
X148180Y42155D01*
X149869Y43844D01*
X149929Y43922D01*
X149997Y43995D01*
X150026Y44048D01*
X150063Y44095D01*
X150103Y44186D01*
X150151Y44273D01*
X150166Y44332D01*
X150190Y44387D01*
X150205Y44485D01*
X150230Y44581D01*
X150236Y44681D01*
X150240Y44701D01*
X150238Y44714D01*
X150240Y44742D01*
X150240Y59917D01*
X150994Y61737D01*
X161783Y72526D01*
X163603Y73280D01*
X174968Y73280D01*
X175067Y73292D01*
X175166Y73295D01*
X175224Y73312D01*
X175284Y73320D01*
X175376Y73356D01*
X175471Y73384D01*
X175523Y73414D01*
X175580Y73437D01*
X175660Y73495D01*
X175745Y73545D01*
X175820Y73611D01*
X175837Y73623D01*
X175845Y73633D01*
X175866Y73651D01*
X185175Y82960D01*
X185235Y83038D01*
X185303Y83111D01*
X185332Y83164D01*
X185369Y83211D01*
X185409Y83302D01*
X185457Y83389D01*
X185472Y83448D01*
X185496Y83503D01*
X185511Y83601D01*
X185536Y83697D01*
X185542Y83797D01*
X185546Y83817D01*
X185544Y83830D01*
X185546Y83858D01*
X185546Y126988D01*
X185534Y127086D01*
X185531Y127185D01*
X185514Y127243D01*
X185506Y127303D01*
X185470Y127395D01*
X185442Y127491D01*
X185412Y127543D01*
X185389Y127599D01*
X185331Y127679D01*
X185281Y127765D01*
X185215Y127840D01*
X185203Y127856D01*
X185193Y127864D01*
X185175Y127885D01*
X184793Y128267D01*
X183768Y130741D01*
X183768Y133419D01*
X184793Y135893D01*
X186687Y137787D01*
X189161Y138812D01*
X191839Y138812D01*
X194313Y137787D01*
X196207Y135893D01*
X197232Y133419D01*
X197232Y130741D01*
X196207Y128267D01*
X195825Y127885D01*
X195765Y127807D01*
X195697Y127735D01*
X195668Y127682D01*
X195631Y127634D01*
X195591Y127543D01*
X195543Y127456D01*
X195528Y127398D01*
X195504Y127342D01*
X195489Y127244D01*
X195464Y127149D01*
X195458Y127049D01*
X195454Y127028D01*
X195456Y127016D01*
X195454Y126988D01*
X195454Y80295D01*
X194700Y78474D01*
X180352Y64126D01*
X178531Y63372D01*
X171462Y63372D01*
X171324Y63355D01*
X171186Y63342D01*
X171167Y63335D01*
X171147Y63332D01*
X171017Y63281D01*
X170886Y63234D01*
X170870Y63223D01*
X170851Y63215D01*
X170739Y63134D01*
X170623Y63056D01*
X170610Y63040D01*
X170594Y63029D01*
X170505Y62922D01*
X170413Y62817D01*
X170404Y62799D01*
X170391Y62784D01*
X170332Y62658D01*
X170268Y62534D01*
X170264Y62514D01*
X170255Y62496D01*
X170229Y62360D01*
X170199Y62224D01*
X170199Y62203D01*
X170195Y62184D01*
X170204Y62045D01*
X170208Y61906D01*
X170214Y61886D01*
X170215Y61866D01*
X170258Y61734D01*
X170297Y61600D01*
X170307Y61583D01*
X170313Y61564D01*
X170387Y61446D01*
X170458Y61326D01*
X170477Y61305D01*
X170483Y61295D01*
X170498Y61281D01*
X170565Y61205D01*
X170807Y60963D01*
X171832Y58489D01*
X171832Y55811D01*
X170807Y53337D01*
X170425Y52955D01*
X170365Y52877D01*
X170297Y52805D01*
X170268Y52752D01*
X170231Y52704D01*
X170191Y52613D01*
X170143Y52526D01*
X170128Y52468D01*
X170104Y52412D01*
X170089Y52314D01*
X170064Y52219D01*
X170058Y52119D01*
X170054Y52098D01*
X170056Y52086D01*
X170054Y52058D01*
X170054Y24968D01*
X170057Y24939D01*
X170055Y24910D01*
X170077Y24782D01*
X170094Y24653D01*
X170104Y24625D01*
X170109Y24596D01*
X170163Y24478D01*
X170211Y24357D01*
X170228Y24333D01*
X170240Y24306D01*
X170321Y24205D01*
X170397Y24100D01*
X170420Y24081D01*
X170439Y24058D01*
X170542Y23980D01*
X170642Y23897D01*
X170669Y23884D01*
X170693Y23867D01*
X170837Y23796D01*
X172150Y23252D01*
X175652Y19750D01*
X176627Y17395D01*
X176696Y17275D01*
X176761Y17152D01*
X176775Y17137D01*
X176785Y17119D01*
X176882Y17019D01*
X176975Y16916D01*
X176992Y16905D01*
X177006Y16891D01*
X177125Y16818D01*
X177241Y16742D01*
X177260Y16735D01*
X177277Y16724D01*
X177410Y16684D01*
X177542Y16638D01*
X177562Y16637D01*
X177581Y16631D01*
X177720Y16624D01*
X177859Y16613D01*
X177879Y16617D01*
X177899Y16616D01*
X178035Y16644D01*
X178172Y16668D01*
X178191Y16676D01*
X178210Y16680D01*
X178336Y16741D01*
X178462Y16798D01*
X178478Y16811D01*
X178496Y16820D01*
X178602Y16910D01*
X178710Y16997D01*
X178723Y17013D01*
X178738Y17026D01*
X178818Y17140D01*
X178902Y17251D01*
X178914Y17276D01*
X178921Y17286D01*
X178928Y17305D01*
X178973Y17395D01*
X179948Y19750D01*
X183450Y23252D01*
X188024Y25147D01*
X192976Y25147D01*
X197550Y23252D01*
X201052Y19750D01*
X202947Y15176D01*
X202947Y10224D01*
X201122Y5820D01*
X201109Y5772D01*
X201088Y5727D01*
X201067Y5619D01*
X201038Y5513D01*
X201038Y5463D01*
X201028Y5414D01*
X201035Y5305D01*
X201033Y5195D01*
X201045Y5147D01*
X201048Y5097D01*
X201082Y4993D01*
X201107Y4886D01*
X201131Y4842D01*
X201146Y4795D01*
X201205Y4702D01*
X201256Y4605D01*
X201290Y4568D01*
X201316Y4526D01*
X201396Y4451D01*
X201470Y4369D01*
X201512Y4342D01*
X201548Y4308D01*
X201644Y4255D01*
X201736Y4195D01*
X201783Y4178D01*
X201826Y4154D01*
X201933Y4127D01*
X202037Y4091D01*
X202086Y4087D01*
X202134Y4075D01*
X202295Y4065D01*
X215369Y4065D01*
X215405Y4069D01*
G37*
G36*
X52565Y4070D02*
X52565Y4070D01*
X52605Y4067D01*
X52723Y4090D01*
X52841Y4105D01*
X52878Y4119D01*
X52917Y4127D01*
X53026Y4178D01*
X53137Y4222D01*
X53169Y4245D01*
X53205Y4262D01*
X53297Y4338D01*
X53394Y4408D01*
X53420Y4439D01*
X53450Y4464D01*
X53521Y4561D01*
X53597Y4653D01*
X53614Y4689D01*
X53638Y4722D01*
X53682Y4833D01*
X53733Y4941D01*
X53740Y4980D01*
X53755Y5017D01*
X53770Y5136D01*
X53792Y5253D01*
X53790Y5293D01*
X53795Y5333D01*
X53780Y5452D01*
X53773Y5571D01*
X53760Y5609D01*
X53755Y5648D01*
X53712Y5760D01*
X53675Y5873D01*
X53653Y5907D01*
X53639Y5944D01*
X53553Y6080D01*
X53289Y6443D01*
X52436Y8117D01*
X51855Y9904D01*
X51815Y10161D01*
X62230Y10161D01*
X62348Y10176D01*
X62467Y10183D01*
X62505Y10196D01*
X62545Y10201D01*
X62656Y10244D01*
X62769Y10281D01*
X62803Y10303D01*
X62841Y10318D01*
X62937Y10388D01*
X63038Y10451D01*
X63066Y10481D01*
X63098Y10504D01*
X63174Y10596D01*
X63256Y10683D01*
X63275Y10718D01*
X63301Y10749D01*
X63352Y10857D01*
X63409Y10961D01*
X63420Y11001D01*
X63437Y11037D01*
X63459Y11154D01*
X63489Y11269D01*
X63493Y11330D01*
X63497Y11350D01*
X63495Y11370D01*
X63499Y11430D01*
X63499Y12701D01*
X64770Y12701D01*
X64888Y12716D01*
X65007Y12723D01*
X65045Y12736D01*
X65085Y12741D01*
X65196Y12785D01*
X65309Y12821D01*
X65344Y12843D01*
X65381Y12858D01*
X65477Y12928D01*
X65578Y12991D01*
X65606Y13021D01*
X65639Y13045D01*
X65714Y13136D01*
X65796Y13223D01*
X65816Y13258D01*
X65841Y13290D01*
X65892Y13397D01*
X65950Y13502D01*
X65960Y13541D01*
X65977Y13577D01*
X65999Y13694D01*
X66029Y13809D01*
X66033Y13870D01*
X66037Y13890D01*
X66035Y13910D01*
X66039Y13970D01*
X66039Y24385D01*
X66296Y24345D01*
X68083Y23764D01*
X69757Y22911D01*
X71278Y21806D01*
X72606Y20478D01*
X73711Y18957D01*
X74564Y17283D01*
X74715Y16818D01*
X74728Y16791D01*
X74735Y16762D01*
X74795Y16648D01*
X74850Y16530D01*
X74869Y16507D01*
X74883Y16481D01*
X74970Y16385D01*
X75053Y16285D01*
X75077Y16268D01*
X75097Y16246D01*
X75206Y16174D01*
X75310Y16098D01*
X75338Y16087D01*
X75363Y16071D01*
X75486Y16029D01*
X75606Y15981D01*
X75636Y15977D01*
X75664Y15968D01*
X75793Y15957D01*
X75921Y15941D01*
X75951Y15945D01*
X75981Y15942D01*
X76109Y15965D01*
X76237Y15981D01*
X76265Y15992D01*
X76294Y15997D01*
X76412Y16050D01*
X76533Y16098D01*
X76557Y16115D01*
X76584Y16127D01*
X76685Y16208D01*
X76790Y16284D01*
X76809Y16307D01*
X76833Y16326D01*
X76911Y16430D01*
X76993Y16529D01*
X77006Y16556D01*
X77024Y16580D01*
X77095Y16725D01*
X78348Y19750D01*
X81850Y23252D01*
X81893Y23270D01*
X81918Y23284D01*
X81946Y23293D01*
X82056Y23363D01*
X82169Y23427D01*
X82190Y23448D01*
X82215Y23464D01*
X82304Y23558D01*
X82397Y23649D01*
X82413Y23674D01*
X82433Y23695D01*
X82496Y23809D01*
X82564Y23920D01*
X82572Y23948D01*
X82587Y23974D01*
X82619Y24100D01*
X82657Y24224D01*
X82659Y24253D01*
X82666Y24282D01*
X82676Y24442D01*
X82676Y82518D01*
X83624Y84805D01*
X91901Y93083D01*
X91974Y93177D01*
X92053Y93266D01*
X92071Y93302D01*
X92096Y93334D01*
X92143Y93443D01*
X92197Y93549D01*
X92206Y93588D01*
X92222Y93626D01*
X92241Y93743D01*
X92267Y93859D01*
X92266Y93900D01*
X92272Y93940D01*
X92261Y94058D01*
X92257Y94177D01*
X92246Y94216D01*
X92242Y94256D01*
X92202Y94369D01*
X92169Y94483D01*
X92148Y94518D01*
X92135Y94556D01*
X92068Y94654D01*
X92007Y94757D01*
X91967Y94802D01*
X91956Y94819D01*
X91941Y94832D01*
X91901Y94878D01*
X61092Y125687D01*
X61084Y125692D01*
X61079Y125700D01*
X60959Y125790D01*
X60840Y125882D01*
X60832Y125885D01*
X60825Y125891D01*
X60680Y125962D01*
X59687Y126373D01*
X58880Y127180D01*
X58841Y127210D01*
X58807Y127247D01*
X58715Y127308D01*
X58629Y127375D01*
X58583Y127395D01*
X58542Y127422D01*
X58438Y127458D01*
X58337Y127501D01*
X58288Y127509D01*
X58241Y127525D01*
X58131Y127534D01*
X58023Y127551D01*
X57973Y127546D01*
X57924Y127550D01*
X57816Y127532D01*
X57706Y127521D01*
X57659Y127504D01*
X57610Y127496D01*
X57510Y127451D01*
X57407Y127414D01*
X57366Y127386D01*
X57320Y127365D01*
X57235Y127297D01*
X57144Y127235D01*
X57111Y127198D01*
X57072Y127167D01*
X57006Y127079D01*
X56933Y126997D01*
X56911Y126952D01*
X56881Y126913D01*
X56810Y126768D01*
X56270Y125464D01*
X42663Y111858D01*
X42603Y111780D01*
X42535Y111707D01*
X42506Y111654D01*
X42469Y111607D01*
X42429Y111516D01*
X42381Y111429D01*
X42366Y111370D01*
X42342Y111315D01*
X42327Y111217D01*
X42302Y111121D01*
X42296Y111021D01*
X42292Y111001D01*
X42294Y110988D01*
X42292Y110960D01*
X42292Y110421D01*
X41267Y107947D01*
X39373Y106053D01*
X36899Y105028D01*
X34221Y105028D01*
X31747Y106053D01*
X29853Y107947D01*
X28828Y110421D01*
X28828Y113099D01*
X29853Y115573D01*
X31747Y117467D01*
X34221Y118492D01*
X34760Y118492D01*
X34859Y118504D01*
X34958Y118507D01*
X35016Y118524D01*
X35076Y118532D01*
X35168Y118568D01*
X35263Y118596D01*
X35315Y118626D01*
X35372Y118649D01*
X35452Y118707D01*
X35537Y118757D01*
X35612Y118823D01*
X35629Y118835D01*
X35637Y118845D01*
X35658Y118863D01*
X46745Y129950D01*
X46805Y130028D01*
X46873Y130101D01*
X46902Y130154D01*
X46939Y130201D01*
X46979Y130292D01*
X47027Y130379D01*
X47042Y130438D01*
X47066Y130493D01*
X47081Y130591D01*
X47106Y130687D01*
X47112Y130787D01*
X47116Y130807D01*
X47114Y130820D01*
X47116Y130848D01*
X47116Y197835D01*
X47870Y199656D01*
X60715Y212500D01*
X60775Y212578D01*
X60843Y212651D01*
X60872Y212704D01*
X60909Y212751D01*
X60949Y212842D01*
X60997Y212929D01*
X61012Y212988D01*
X61036Y213043D01*
X61051Y213141D01*
X61076Y213237D01*
X61082Y213337D01*
X61086Y213357D01*
X61084Y213370D01*
X61086Y213398D01*
X61086Y303149D01*
X61071Y303267D01*
X61064Y303386D01*
X61051Y303424D01*
X61046Y303465D01*
X61003Y303575D01*
X60966Y303688D01*
X60944Y303723D01*
X60929Y303760D01*
X60860Y303856D01*
X60796Y303957D01*
X60766Y303985D01*
X60743Y304018D01*
X60651Y304094D01*
X60564Y304175D01*
X60529Y304195D01*
X60498Y304220D01*
X60390Y304271D01*
X60286Y304329D01*
X60246Y304339D01*
X60210Y304356D01*
X60093Y304378D01*
X59978Y304408D01*
X59918Y304412D01*
X59898Y304416D01*
X59877Y304414D01*
X59817Y304418D01*
X59621Y304418D01*
X57147Y305443D01*
X55253Y307337D01*
X54228Y309811D01*
X54228Y312489D01*
X55253Y314963D01*
X57147Y316857D01*
X59621Y317882D01*
X62299Y317882D01*
X64773Y316857D01*
X66667Y314963D01*
X67692Y312489D01*
X67692Y311950D01*
X67704Y311851D01*
X67707Y311752D01*
X67724Y311694D01*
X67732Y311634D01*
X67768Y311542D01*
X67796Y311447D01*
X67826Y311395D01*
X67849Y311338D01*
X67907Y311258D01*
X67957Y311173D01*
X68023Y311098D01*
X68035Y311081D01*
X68045Y311073D01*
X68063Y311052D01*
X68668Y310448D01*
X68825Y310290D01*
X68917Y310219D01*
X68940Y310197D01*
X68953Y310190D01*
X69042Y310116D01*
X69061Y310108D01*
X69077Y310095D01*
X69205Y310040D01*
X69330Y309981D01*
X69350Y309977D01*
X69369Y309969D01*
X69506Y309947D01*
X69643Y309921D01*
X69663Y309922D01*
X69683Y309919D01*
X69821Y309932D01*
X69960Y309941D01*
X69979Y309947D01*
X69999Y309949D01*
X70130Y309996D01*
X70262Y310039D01*
X70279Y310049D01*
X70299Y310056D01*
X70414Y310134D01*
X70531Y310209D01*
X70545Y310224D01*
X70562Y310235D01*
X70654Y310339D01*
X70749Y310440D01*
X70759Y310458D01*
X70772Y310473D01*
X70836Y310598D01*
X70903Y310719D01*
X70908Y310739D01*
X70917Y310757D01*
X70947Y310893D01*
X70982Y311027D01*
X70984Y311055D01*
X70987Y311067D01*
X70986Y311087D01*
X70989Y311140D01*
X70990Y311143D01*
X70990Y311145D01*
X70992Y311188D01*
X70992Y317973D01*
X70980Y318072D01*
X70977Y318171D01*
X70960Y318229D01*
X70952Y318289D01*
X70916Y318381D01*
X70888Y318476D01*
X70858Y318528D01*
X70835Y318585D01*
X70777Y318665D01*
X70727Y318750D01*
X70661Y318826D01*
X70649Y318842D01*
X70639Y318850D01*
X70621Y318871D01*
X35407Y354085D01*
X35329Y354145D01*
X35257Y354213D01*
X35204Y354242D01*
X35156Y354279D01*
X35065Y354319D01*
X34978Y354367D01*
X34920Y354382D01*
X34864Y354406D01*
X34766Y354421D01*
X34670Y354446D01*
X34570Y354452D01*
X34550Y354456D01*
X34537Y354454D01*
X34509Y354456D01*
X16788Y354456D01*
X16779Y354455D01*
X16769Y354456D01*
X16621Y354435D01*
X16472Y354416D01*
X16464Y354413D01*
X16455Y354412D01*
X16302Y354360D01*
X15309Y353948D01*
X12631Y353948D01*
X10157Y354973D01*
X8263Y356867D01*
X7238Y359341D01*
X7238Y362019D01*
X8263Y364493D01*
X10157Y366387D01*
X12631Y367412D01*
X15309Y367412D01*
X16302Y367000D01*
X16311Y366998D01*
X16319Y366993D01*
X16464Y366956D01*
X16609Y366916D01*
X16618Y366916D01*
X16627Y366914D01*
X16788Y366904D01*
X38851Y366904D01*
X41139Y365956D01*
X43068Y364027D01*
X77852Y329243D01*
X77946Y329170D01*
X78035Y329092D01*
X78071Y329073D01*
X78103Y329048D01*
X78212Y329001D01*
X78318Y328947D01*
X78357Y328938D01*
X78395Y328922D01*
X78512Y328903D01*
X78628Y328877D01*
X78669Y328879D01*
X78709Y328872D01*
X78827Y328883D01*
X78946Y328887D01*
X78985Y328898D01*
X79025Y328902D01*
X79138Y328942D01*
X79252Y328975D01*
X79287Y328996D01*
X79325Y329010D01*
X79423Y329076D01*
X79526Y329137D01*
X79571Y329177D01*
X79588Y329188D01*
X79601Y329203D01*
X79647Y329243D01*
X126882Y376478D01*
X126942Y376557D01*
X127010Y376629D01*
X127039Y376682D01*
X127076Y376730D01*
X127116Y376821D01*
X127164Y376907D01*
X127179Y376966D01*
X127203Y377021D01*
X127218Y377119D01*
X127243Y377215D01*
X127249Y377315D01*
X127253Y377336D01*
X127251Y377348D01*
X127253Y377376D01*
X127253Y380492D01*
X127238Y380610D01*
X127231Y380729D01*
X127218Y380767D01*
X127213Y380808D01*
X127170Y380918D01*
X127133Y381031D01*
X127111Y381066D01*
X127096Y381103D01*
X127027Y381199D01*
X126963Y381300D01*
X126933Y381328D01*
X126910Y381361D01*
X126818Y381437D01*
X126731Y381518D01*
X126696Y381538D01*
X126665Y381563D01*
X126557Y381614D01*
X126453Y381672D01*
X126413Y381682D01*
X126377Y381699D01*
X126260Y381721D01*
X126145Y381751D01*
X126085Y381755D01*
X126065Y381759D01*
X126044Y381757D01*
X125984Y381761D01*
X117518Y381761D01*
X115442Y383837D01*
X115442Y386207D01*
X115427Y386325D01*
X115420Y386444D01*
X115407Y386482D01*
X115402Y386523D01*
X115359Y386633D01*
X115322Y386746D01*
X115300Y386781D01*
X115285Y386818D01*
X115216Y386914D01*
X115152Y387015D01*
X115122Y387043D01*
X115099Y387076D01*
X115007Y387152D01*
X114920Y387233D01*
X114885Y387253D01*
X114854Y387278D01*
X114746Y387329D01*
X114642Y387387D01*
X114602Y387397D01*
X114566Y387414D01*
X114449Y387436D01*
X114334Y387466D01*
X114274Y387470D01*
X114254Y387474D01*
X114233Y387472D01*
X114173Y387476D01*
X111772Y387476D01*
X111674Y387464D01*
X111575Y387461D01*
X111517Y387444D01*
X111457Y387436D01*
X111365Y387400D01*
X111269Y387372D01*
X111217Y387342D01*
X111161Y387319D01*
X111081Y387261D01*
X110995Y387211D01*
X110920Y387145D01*
X110904Y387133D01*
X110896Y387123D01*
X110875Y387105D01*
X110493Y386723D01*
X108019Y385698D01*
X105341Y385698D01*
X102867Y386723D01*
X100973Y388617D01*
X99948Y391091D01*
X99948Y393769D01*
X100973Y396243D01*
X102867Y398137D01*
X105341Y399162D01*
X108019Y399162D01*
X110493Y398137D01*
X110875Y397755D01*
X110953Y397695D01*
X111025Y397627D01*
X111078Y397598D01*
X111126Y397561D01*
X111217Y397521D01*
X111304Y397473D01*
X111362Y397458D01*
X111418Y397434D01*
X111516Y397419D01*
X111611Y397394D01*
X111711Y397388D01*
X111732Y397384D01*
X111744Y397386D01*
X111772Y397384D01*
X114173Y397384D01*
X114291Y397399D01*
X114410Y397406D01*
X114448Y397419D01*
X114489Y397424D01*
X114599Y397467D01*
X114712Y397504D01*
X114747Y397526D01*
X114784Y397541D01*
X114880Y397610D01*
X114981Y397674D01*
X115009Y397704D01*
X115042Y397727D01*
X115118Y397819D01*
X115199Y397906D01*
X115219Y397941D01*
X115244Y397972D01*
X115295Y398080D01*
X115353Y398184D01*
X115363Y398224D01*
X115380Y398260D01*
X115402Y398377D01*
X115425Y398466D01*
X117128Y400169D01*
X117213Y400278D01*
X117302Y400385D01*
X117311Y400404D01*
X117323Y400420D01*
X117378Y400548D01*
X117438Y400673D01*
X117441Y400693D01*
X117449Y400712D01*
X117471Y400850D01*
X117497Y400986D01*
X117496Y401006D01*
X117499Y401026D01*
X117486Y401165D01*
X117478Y401303D01*
X117471Y401322D01*
X117469Y401342D01*
X117422Y401474D01*
X117380Y401605D01*
X117369Y401623D01*
X117362Y401642D01*
X117284Y401757D01*
X117209Y401874D01*
X117195Y401888D01*
X117183Y401905D01*
X117079Y401997D01*
X116978Y402092D01*
X116960Y402102D01*
X116945Y402115D01*
X116821Y402179D01*
X116699Y402246D01*
X116680Y402251D01*
X116662Y402260D01*
X116526Y402290D01*
X116391Y402325D01*
X116363Y402327D01*
X116351Y402330D01*
X116331Y402329D01*
X116231Y402335D01*
X13843Y402335D01*
X13725Y402320D01*
X13606Y402313D01*
X13568Y402300D01*
X13527Y402295D01*
X13417Y402252D01*
X13304Y402215D01*
X13269Y402193D01*
X13232Y402178D01*
X13136Y402109D01*
X13035Y402045D01*
X13007Y402015D01*
X12974Y401992D01*
X12898Y401900D01*
X12817Y401813D01*
X12797Y401778D01*
X12772Y401747D01*
X12721Y401639D01*
X12663Y401535D01*
X12653Y401495D01*
X12636Y401459D01*
X12614Y401342D01*
X12584Y401227D01*
X12580Y401167D01*
X12576Y401147D01*
X12578Y401126D01*
X12574Y401066D01*
X12574Y398812D01*
X11626Y396525D01*
X9875Y394774D01*
X7588Y393826D01*
X5334Y393826D01*
X5216Y393811D01*
X5097Y393804D01*
X5059Y393791D01*
X5018Y393786D01*
X4908Y393743D01*
X4795Y393706D01*
X4760Y393684D01*
X4723Y393669D01*
X4627Y393600D01*
X4526Y393536D01*
X4498Y393506D01*
X4465Y393483D01*
X4389Y393391D01*
X4308Y393304D01*
X4288Y393269D01*
X4263Y393238D01*
X4212Y393130D01*
X4154Y393026D01*
X4144Y392986D01*
X4127Y392950D01*
X4105Y392833D01*
X4075Y392718D01*
X4071Y392658D01*
X4067Y392638D01*
X4069Y392617D01*
X4065Y392557D01*
X4065Y329295D01*
X4071Y329246D01*
X4069Y329196D01*
X4091Y329089D01*
X4105Y328979D01*
X4123Y328933D01*
X4133Y328885D01*
X4181Y328786D01*
X4222Y328684D01*
X4251Y328644D01*
X4273Y328599D01*
X4344Y328515D01*
X4408Y328426D01*
X4447Y328395D01*
X4479Y328357D01*
X4569Y328294D01*
X4653Y328224D01*
X4698Y328202D01*
X4739Y328174D01*
X4842Y328135D01*
X4941Y328088D01*
X4990Y328079D01*
X5036Y328061D01*
X5146Y328049D01*
X5253Y328028D01*
X5303Y328031D01*
X5352Y328026D01*
X5461Y328041D01*
X5571Y328048D01*
X5618Y328063D01*
X5667Y328070D01*
X5820Y328122D01*
X10224Y329947D01*
X15176Y329947D01*
X19750Y328052D01*
X23252Y324550D01*
X25147Y319976D01*
X25147Y315024D01*
X23252Y310450D01*
X19750Y306948D01*
X16725Y305695D01*
X16699Y305680D01*
X16670Y305671D01*
X16561Y305601D01*
X16448Y305537D01*
X16427Y305516D01*
X16402Y305500D01*
X16313Y305406D01*
X16220Y305316D01*
X16204Y305290D01*
X16184Y305269D01*
X16121Y305155D01*
X16054Y305045D01*
X16045Y305016D01*
X16031Y304990D01*
X15998Y304865D01*
X15960Y304741D01*
X15959Y304711D01*
X15951Y304682D01*
X15951Y304552D01*
X15945Y304423D01*
X15951Y304394D01*
X15951Y304364D01*
X15983Y304239D01*
X16009Y304112D01*
X16022Y304085D01*
X16030Y304056D01*
X16092Y303943D01*
X16149Y303826D01*
X16168Y303803D01*
X16183Y303777D01*
X16271Y303683D01*
X16355Y303584D01*
X16380Y303567D01*
X16400Y303545D01*
X16509Y303476D01*
X16615Y303401D01*
X16643Y303390D01*
X16669Y303374D01*
X16818Y303315D01*
X17283Y303164D01*
X18957Y302311D01*
X20478Y301206D01*
X21806Y299878D01*
X22911Y298357D01*
X23764Y296683D01*
X24345Y294896D01*
X24385Y294639D01*
X13970Y294639D01*
X13852Y294624D01*
X13733Y294617D01*
X13695Y294604D01*
X13655Y294599D01*
X13544Y294556D01*
X13431Y294519D01*
X13397Y294497D01*
X13359Y294482D01*
X13263Y294412D01*
X13162Y294349D01*
X13134Y294319D01*
X13102Y294295D01*
X13026Y294204D01*
X12944Y294117D01*
X12925Y294082D01*
X12899Y294051D01*
X12848Y293943D01*
X12791Y293839D01*
X12780Y293799D01*
X12763Y293763D01*
X12741Y293646D01*
X12711Y293531D01*
X12707Y293470D01*
X12703Y293450D01*
X12705Y293430D01*
X12701Y293370D01*
X12701Y290830D01*
X12716Y290712D01*
X12723Y290593D01*
X12736Y290555D01*
X12741Y290514D01*
X12785Y290404D01*
X12821Y290291D01*
X12843Y290256D01*
X12858Y290219D01*
X12928Y290123D01*
X12991Y290022D01*
X13021Y289994D01*
X13045Y289961D01*
X13136Y289886D01*
X13223Y289804D01*
X13258Y289784D01*
X13290Y289759D01*
X13397Y289708D01*
X13502Y289650D01*
X13541Y289640D01*
X13577Y289623D01*
X13694Y289601D01*
X13809Y289571D01*
X13870Y289567D01*
X13890Y289563D01*
X13910Y289565D01*
X13970Y289561D01*
X24385Y289561D01*
X24345Y289304D01*
X23764Y287517D01*
X22911Y285843D01*
X21806Y284322D01*
X20478Y282994D01*
X18957Y281889D01*
X17283Y281036D01*
X16818Y280885D01*
X16791Y280872D01*
X16762Y280865D01*
X16648Y280805D01*
X16530Y280750D01*
X16507Y280731D01*
X16481Y280717D01*
X16385Y280630D01*
X16285Y280547D01*
X16268Y280523D01*
X16246Y280503D01*
X16174Y280394D01*
X16098Y280290D01*
X16087Y280262D01*
X16071Y280237D01*
X16029Y280114D01*
X15981Y279994D01*
X15977Y279964D01*
X15968Y279936D01*
X15957Y279807D01*
X15941Y279679D01*
X15945Y279649D01*
X15942Y279619D01*
X15965Y279491D01*
X15981Y279363D01*
X15992Y279335D01*
X15997Y279306D01*
X16050Y279188D01*
X16098Y279067D01*
X16115Y279043D01*
X16127Y279016D01*
X16208Y278915D01*
X16284Y278810D01*
X16307Y278791D01*
X16326Y278767D01*
X16430Y278689D01*
X16529Y278607D01*
X16556Y278594D01*
X16580Y278576D01*
X16725Y278505D01*
X19750Y277252D01*
X23252Y273750D01*
X25147Y269176D01*
X25147Y264224D01*
X23252Y259650D01*
X19750Y256148D01*
X15176Y254253D01*
X10224Y254253D01*
X5820Y256078D01*
X5772Y256091D01*
X5727Y256112D01*
X5619Y256133D01*
X5513Y256162D01*
X5463Y256162D01*
X5414Y256172D01*
X5305Y256165D01*
X5195Y256167D01*
X5147Y256155D01*
X5097Y256152D01*
X4993Y256118D01*
X4886Y256093D01*
X4842Y256069D01*
X4795Y256054D01*
X4702Y255995D01*
X4605Y255944D01*
X4568Y255910D01*
X4526Y255884D01*
X4451Y255804D01*
X4369Y255730D01*
X4342Y255688D01*
X4308Y255652D01*
X4255Y255556D01*
X4195Y255464D01*
X4178Y255417D01*
X4154Y255374D01*
X4127Y255267D01*
X4091Y255163D01*
X4087Y255114D01*
X4075Y255066D01*
X4065Y254905D01*
X4065Y241597D01*
X4083Y241452D01*
X4098Y241307D01*
X4103Y241294D01*
X4105Y241281D01*
X4158Y241146D01*
X4209Y241009D01*
X4217Y240998D01*
X4222Y240985D01*
X4307Y240868D01*
X4390Y240748D01*
X4401Y240739D01*
X4408Y240728D01*
X4521Y240635D01*
X4631Y240540D01*
X4643Y240534D01*
X4653Y240525D01*
X4785Y240463D01*
X4916Y240398D01*
X4929Y240395D01*
X4941Y240390D01*
X5083Y240362D01*
X5227Y240332D01*
X5240Y240332D01*
X5253Y240330D01*
X5398Y240339D01*
X5544Y240345D01*
X5558Y240349D01*
X5571Y240350D01*
X5709Y240394D01*
X5849Y240437D01*
X5861Y240444D01*
X5873Y240448D01*
X5996Y240525D01*
X6121Y240601D01*
X6131Y240611D01*
X6142Y240618D01*
X6242Y240724D01*
X6344Y240828D01*
X6354Y240843D01*
X6360Y240849D01*
X6368Y240864D01*
X6433Y240962D01*
X7815Y243356D01*
X13922Y248480D01*
X21414Y251207D01*
X29386Y251207D01*
X36878Y248480D01*
X42985Y243356D01*
X46971Y236451D01*
X48355Y228600D01*
X46971Y220749D01*
X42985Y213845D01*
X36878Y208720D01*
X29386Y205993D01*
X21414Y205993D01*
X13922Y208720D01*
X7815Y213844D01*
X6433Y216238D01*
X6345Y216354D01*
X6260Y216472D01*
X6249Y216481D01*
X6241Y216491D01*
X6127Y216582D01*
X6015Y216675D01*
X6002Y216681D01*
X5992Y216689D01*
X5858Y216749D01*
X5727Y216810D01*
X5714Y216813D01*
X5701Y216818D01*
X5557Y216843D01*
X5414Y216870D01*
X5401Y216869D01*
X5388Y216872D01*
X5242Y216859D01*
X5097Y216850D01*
X5084Y216846D01*
X5071Y216845D01*
X4933Y216797D01*
X4795Y216752D01*
X4783Y216745D01*
X4770Y216741D01*
X4649Y216660D01*
X4526Y216582D01*
X4517Y216572D01*
X4505Y216565D01*
X4408Y216457D01*
X4308Y216351D01*
X4301Y216339D01*
X4292Y216329D01*
X4225Y216199D01*
X4154Y216072D01*
X4151Y216059D01*
X4145Y216047D01*
X4111Y215905D01*
X4075Y215764D01*
X4074Y215746D01*
X4072Y215737D01*
X4072Y215720D01*
X4065Y215603D01*
X4065Y79121D01*
X4080Y79003D01*
X4087Y78884D01*
X4100Y78846D01*
X4105Y78805D01*
X4148Y78695D01*
X4185Y78581D01*
X4207Y78547D01*
X4222Y78510D01*
X4291Y78413D01*
X4355Y78313D01*
X4385Y78285D01*
X4408Y78252D01*
X4500Y78176D01*
X4587Y78095D01*
X4622Y78075D01*
X4653Y78050D01*
X4761Y77999D01*
X4865Y77941D01*
X4905Y77931D01*
X4941Y77914D01*
X5058Y77892D01*
X5173Y77862D01*
X5233Y77858D01*
X5253Y77854D01*
X5274Y77855D01*
X5334Y77852D01*
X7780Y77852D01*
X10371Y75260D01*
X10450Y75199D01*
X10522Y75132D01*
X10575Y75102D01*
X10623Y75065D01*
X10714Y75026D01*
X10800Y74978D01*
X10859Y74963D01*
X10914Y74939D01*
X11012Y74923D01*
X11108Y74899D01*
X11208Y74892D01*
X11228Y74889D01*
X11241Y74890D01*
X11269Y74888D01*
X16469Y74888D01*
X16483Y74890D01*
X16609Y74896D01*
X18027Y75054D01*
X18113Y75000D01*
X18141Y74992D01*
X18166Y74978D01*
X18293Y74945D01*
X18417Y74907D01*
X18429Y74907D01*
X19429Y73907D01*
X19441Y73898D01*
X19534Y73813D01*
X20648Y72922D01*
X20672Y72823D01*
X20685Y72797D01*
X20693Y72769D01*
X20760Y72657D01*
X20821Y72542D01*
X20829Y72533D01*
X20829Y71119D01*
X20831Y71105D01*
X20836Y70979D01*
X20994Y69561D01*
X20941Y69474D01*
X20932Y69446D01*
X20918Y69421D01*
X20886Y69295D01*
X20848Y69170D01*
X20847Y69158D01*
X19847Y68158D01*
X19838Y68147D01*
X19753Y68054D01*
X18410Y66374D01*
X18356Y66286D01*
X18294Y66203D01*
X18273Y66151D01*
X18244Y66103D01*
X18214Y66004D01*
X18175Y65908D01*
X18167Y65853D01*
X18151Y65799D01*
X18146Y65695D01*
X18132Y65593D01*
X18138Y65537D01*
X18136Y65481D01*
X18157Y65380D01*
X18169Y65277D01*
X18189Y65225D01*
X18200Y65170D01*
X18246Y65077D01*
X18283Y64980D01*
X18331Y64904D01*
X18340Y64884D01*
X18350Y64873D01*
X18368Y64844D01*
X20829Y61399D01*
X20829Y57388D01*
X18498Y54125D01*
X17994Y53952D01*
X17892Y53902D01*
X17787Y53859D01*
X17750Y53832D01*
X17709Y53812D01*
X17622Y53738D01*
X17531Y53671D01*
X17502Y53635D01*
X17467Y53605D01*
X17401Y53512D01*
X17330Y53424D01*
X17310Y53383D01*
X17284Y53345D01*
X17244Y53239D01*
X17196Y53136D01*
X17188Y53091D01*
X17172Y53048D01*
X17159Y52935D01*
X17139Y52823D01*
X17142Y52777D01*
X17137Y52732D01*
X17153Y52619D01*
X17161Y52506D01*
X17178Y52438D01*
X17181Y52417D01*
X17189Y52400D01*
X17202Y52350D01*
X17597Y51165D01*
X16851Y49674D01*
X16841Y49646D01*
X16826Y49621D01*
X16789Y49497D01*
X16746Y49374D01*
X16743Y49345D01*
X16734Y49316D01*
X16729Y49186D01*
X16718Y49057D01*
X16723Y49028D01*
X16722Y48998D01*
X16749Y48871D01*
X16770Y48744D01*
X16782Y48716D01*
X16788Y48687D01*
X16851Y48539D01*
X17273Y47696D01*
X17298Y47657D01*
X17317Y47614D01*
X17387Y47525D01*
X17449Y47431D01*
X17484Y47400D01*
X17513Y47363D01*
X17602Y47294D01*
X17686Y47219D01*
X17728Y47198D01*
X17765Y47169D01*
X17868Y47125D01*
X17968Y47073D01*
X18014Y47062D01*
X18057Y47044D01*
X18168Y47026D01*
X18278Y47001D01*
X18325Y47002D01*
X18371Y46995D01*
X18483Y47006D01*
X18596Y47008D01*
X18641Y47021D01*
X18687Y47025D01*
X18842Y47071D01*
X21414Y48007D01*
X29386Y48007D01*
X36878Y45280D01*
X42985Y40156D01*
X46971Y33251D01*
X48355Y25400D01*
X46971Y17549D01*
X42985Y10645D01*
X37815Y6306D01*
X37791Y6280D01*
X37762Y6260D01*
X37683Y6164D01*
X37599Y6073D01*
X37582Y6042D01*
X37559Y6015D01*
X37506Y5902D01*
X37447Y5793D01*
X37439Y5759D01*
X37424Y5727D01*
X37401Y5605D01*
X37370Y5485D01*
X37371Y5449D01*
X37364Y5414D01*
X37372Y5291D01*
X37373Y5167D01*
X37382Y5132D01*
X37384Y5097D01*
X37422Y4979D01*
X37454Y4859D01*
X37471Y4828D01*
X37482Y4795D01*
X37548Y4690D01*
X37609Y4581D01*
X37633Y4556D01*
X37652Y4526D01*
X37742Y4441D01*
X37828Y4351D01*
X37858Y4332D01*
X37884Y4308D01*
X37992Y4248D01*
X38097Y4182D01*
X38131Y4171D01*
X38162Y4154D01*
X38282Y4123D01*
X38400Y4086D01*
X38436Y4084D01*
X38470Y4075D01*
X38631Y4065D01*
X52526Y4065D01*
X52565Y4070D01*
G37*
G36*
X138113Y227851D02*
X138113Y227851D01*
X138212Y227854D01*
X138270Y227871D01*
X138330Y227879D01*
X138422Y227915D01*
X138517Y227943D01*
X138569Y227973D01*
X138626Y227996D01*
X138706Y228054D01*
X138791Y228104D01*
X138867Y228170D01*
X138883Y228182D01*
X138891Y228192D01*
X138912Y228210D01*
X162950Y252248D01*
X163010Y252326D01*
X163078Y252398D01*
X163107Y252451D01*
X163144Y252499D01*
X163184Y252590D01*
X163232Y252677D01*
X163247Y252735D01*
X163271Y252791D01*
X163286Y252889D01*
X163311Y252985D01*
X163317Y253085D01*
X163321Y253105D01*
X163319Y253118D01*
X163321Y253146D01*
X163321Y286350D01*
X164752Y289804D01*
X200416Y325468D01*
X203870Y326899D01*
X232571Y326899D01*
X232669Y326911D01*
X232768Y326914D01*
X232826Y326931D01*
X232886Y326939D01*
X232978Y326975D01*
X233073Y327003D01*
X233126Y327033D01*
X233182Y327056D01*
X233262Y327114D01*
X233347Y327164D01*
X233423Y327230D01*
X233439Y327242D01*
X233447Y327252D01*
X233468Y327271D01*
X234249Y328052D01*
X238824Y329947D01*
X243776Y329947D01*
X248180Y328122D01*
X248228Y328109D01*
X248273Y328088D01*
X248381Y328067D01*
X248487Y328038D01*
X248537Y328038D01*
X248586Y328028D01*
X248695Y328035D01*
X248805Y328033D01*
X248853Y328045D01*
X248903Y328048D01*
X249007Y328082D01*
X249114Y328107D01*
X249158Y328131D01*
X249205Y328146D01*
X249298Y328205D01*
X249395Y328256D01*
X249432Y328290D01*
X249474Y328316D01*
X249549Y328396D01*
X249631Y328470D01*
X249658Y328512D01*
X249692Y328548D01*
X249745Y328644D01*
X249805Y328736D01*
X249822Y328783D01*
X249846Y328826D01*
X249873Y328933D01*
X249909Y329037D01*
X249913Y329086D01*
X249925Y329134D01*
X249935Y329295D01*
X249935Y401066D01*
X249920Y401184D01*
X249913Y401303D01*
X249900Y401341D01*
X249895Y401382D01*
X249852Y401492D01*
X249815Y401605D01*
X249793Y401640D01*
X249778Y401677D01*
X249709Y401773D01*
X249645Y401874D01*
X249615Y401902D01*
X249592Y401935D01*
X249500Y402011D01*
X249413Y402092D01*
X249378Y402112D01*
X249347Y402137D01*
X249239Y402188D01*
X249135Y402246D01*
X249095Y402256D01*
X249059Y402273D01*
X248942Y402295D01*
X248827Y402325D01*
X248767Y402329D01*
X248747Y402333D01*
X248726Y402331D01*
X248666Y402335D01*
X137769Y402335D01*
X137632Y402318D01*
X137493Y402305D01*
X137474Y402298D01*
X137454Y402295D01*
X137325Y402244D01*
X137194Y402197D01*
X137177Y402186D01*
X137158Y402178D01*
X137046Y402097D01*
X136931Y402019D01*
X136917Y402003D01*
X136901Y401992D01*
X136812Y401884D01*
X136720Y401780D01*
X136711Y401762D01*
X136698Y401747D01*
X136639Y401621D01*
X136576Y401497D01*
X136571Y401477D01*
X136562Y401459D01*
X136536Y401323D01*
X136506Y401187D01*
X136507Y401166D01*
X136503Y401147D01*
X136511Y401008D01*
X136516Y400869D01*
X136521Y400849D01*
X136522Y400829D01*
X136565Y400697D01*
X136604Y400563D01*
X136614Y400546D01*
X136620Y400527D01*
X136695Y400409D01*
X136766Y400289D01*
X136784Y400268D01*
X136791Y400258D01*
X136806Y400244D01*
X136872Y400169D01*
X138558Y398483D01*
X138558Y383837D01*
X137532Y382812D01*
X137472Y382734D01*
X137404Y382662D01*
X137375Y382609D01*
X137338Y382561D01*
X137298Y382470D01*
X137250Y382383D01*
X137235Y382325D01*
X137211Y382269D01*
X137196Y382171D01*
X137171Y382075D01*
X137165Y381975D01*
X137161Y381955D01*
X137163Y381943D01*
X137161Y381915D01*
X137161Y373813D01*
X136407Y371992D01*
X83811Y319397D01*
X83751Y319319D01*
X83683Y319247D01*
X83654Y319194D01*
X83617Y319146D01*
X83577Y319055D01*
X83529Y318968D01*
X83514Y318910D01*
X83490Y318854D01*
X83475Y318756D01*
X83450Y318660D01*
X83444Y318560D01*
X83440Y318540D01*
X83442Y318528D01*
X83440Y318500D01*
X83440Y230606D01*
X83457Y230468D01*
X83470Y230329D01*
X83477Y230310D01*
X83480Y230290D01*
X83531Y230161D01*
X83578Y230030D01*
X83589Y230013D01*
X83597Y229995D01*
X83678Y229882D01*
X83756Y229767D01*
X83772Y229754D01*
X83783Y229737D01*
X83891Y229648D01*
X83995Y229557D01*
X84013Y229547D01*
X84028Y229534D01*
X84154Y229475D01*
X84278Y229412D01*
X84298Y229407D01*
X84316Y229399D01*
X84453Y229373D01*
X84588Y229342D01*
X84609Y229343D01*
X84628Y229339D01*
X84767Y229348D01*
X84906Y229352D01*
X84926Y229358D01*
X84946Y229359D01*
X85078Y229402D01*
X85212Y229440D01*
X85229Y229451D01*
X85248Y229457D01*
X85366Y229531D01*
X85486Y229602D01*
X85507Y229620D01*
X85517Y229627D01*
X85531Y229642D01*
X85606Y229708D01*
X87386Y231488D01*
X90840Y232919D01*
X114900Y232919D01*
X118354Y231488D01*
X120998Y228844D01*
X121090Y228622D01*
X121104Y228597D01*
X121113Y228569D01*
X121183Y228459D01*
X121247Y228346D01*
X121268Y228325D01*
X121284Y228300D01*
X121378Y228211D01*
X121469Y228118D01*
X121494Y228102D01*
X121515Y228082D01*
X121629Y228019D01*
X121740Y227951D01*
X121768Y227943D01*
X121794Y227928D01*
X121919Y227896D01*
X122044Y227858D01*
X122073Y227856D01*
X122102Y227849D01*
X122262Y227839D01*
X138014Y227839D01*
X138113Y227851D01*
G37*
%LPC*%
G36*
X128321Y313074D02*
X128321Y313074D01*
X128317Y313096D01*
X128302Y313103D01*
X128296Y313112D01*
X128286Y313111D01*
X128270Y313118D01*
X125730Y313118D01*
X125711Y313106D01*
X125689Y313102D01*
X125682Y313087D01*
X125673Y313081D01*
X125674Y313071D01*
X125667Y313055D01*
X125667Y302386D01*
X118109Y302386D01*
X118109Y303942D01*
X118316Y304715D01*
X118358Y304788D01*
X118402Y304891D01*
X118453Y304991D01*
X118463Y305037D01*
X118482Y305081D01*
X118498Y305192D01*
X118523Y305302D01*
X118521Y305349D01*
X118528Y305396D01*
X118516Y305507D01*
X118513Y305620D01*
X118500Y305665D01*
X118495Y305712D01*
X118456Y305817D01*
X118425Y305925D01*
X118401Y305966D01*
X118384Y306010D01*
X118320Y306102D01*
X118263Y306199D01*
X118215Y306253D01*
X118203Y306271D01*
X118189Y306283D01*
X118157Y306320D01*
X117601Y306875D01*
X117601Y315425D01*
X117636Y315460D01*
X117709Y315554D01*
X117788Y315643D01*
X117806Y315679D01*
X117831Y315711D01*
X117878Y315820D01*
X117932Y315926D01*
X117941Y315966D01*
X117957Y316003D01*
X117976Y316120D01*
X118002Y316236D01*
X118001Y316277D01*
X118007Y316317D01*
X117996Y316436D01*
X117992Y316554D01*
X117981Y316593D01*
X117977Y316633D01*
X117937Y316745D01*
X117904Y316860D01*
X117883Y316895D01*
X117870Y316933D01*
X117803Y317031D01*
X117742Y317134D01*
X117703Y317179D01*
X117691Y317196D01*
X117676Y317209D01*
X117636Y317255D01*
X117601Y317289D01*
X117601Y325839D01*
X119677Y327915D01*
X120777Y327915D01*
X120895Y327930D01*
X121014Y327937D01*
X121052Y327950D01*
X121093Y327955D01*
X121203Y327998D01*
X121316Y328035D01*
X121351Y328057D01*
X121388Y328072D01*
X121484Y328141D01*
X121585Y328205D01*
X121613Y328235D01*
X121646Y328258D01*
X121722Y328350D01*
X121803Y328437D01*
X121823Y328472D01*
X121848Y328503D01*
X121899Y328611D01*
X121957Y328715D01*
X121967Y328755D01*
X121984Y328791D01*
X122006Y328908D01*
X122036Y329023D01*
X122040Y329083D01*
X122044Y329103D01*
X122042Y329124D01*
X122046Y329184D01*
X122046Y331458D01*
X122034Y331556D01*
X122031Y331655D01*
X122014Y331713D01*
X122006Y331773D01*
X121970Y331865D01*
X121942Y331961D01*
X121912Y332013D01*
X121889Y332069D01*
X121831Y332149D01*
X121781Y332235D01*
X121715Y332310D01*
X121703Y332326D01*
X121693Y332334D01*
X121675Y332355D01*
X121293Y332737D01*
X120268Y335211D01*
X120268Y337889D01*
X121293Y340363D01*
X123187Y342257D01*
X125661Y343282D01*
X128339Y343282D01*
X130813Y342257D01*
X132707Y340363D01*
X133732Y337889D01*
X133732Y335211D01*
X132707Y332737D01*
X132325Y332355D01*
X132265Y332277D01*
X132197Y332205D01*
X132168Y332152D01*
X132131Y332104D01*
X132091Y332013D01*
X132043Y331926D01*
X132028Y331868D01*
X132004Y331812D01*
X131989Y331714D01*
X131964Y331619D01*
X131958Y331519D01*
X131954Y331498D01*
X131956Y331486D01*
X131954Y331458D01*
X131954Y329184D01*
X131969Y329066D01*
X131976Y328947D01*
X131989Y328909D01*
X131994Y328868D01*
X132037Y328758D01*
X132074Y328645D01*
X132096Y328610D01*
X132111Y328573D01*
X132180Y328477D01*
X132244Y328376D01*
X132274Y328348D01*
X132297Y328315D01*
X132389Y328239D01*
X132476Y328158D01*
X132511Y328138D01*
X132542Y328113D01*
X132650Y328062D01*
X132754Y328004D01*
X132794Y327994D01*
X132830Y327977D01*
X132947Y327955D01*
X133062Y327925D01*
X133122Y327921D01*
X133142Y327917D01*
X133163Y327919D01*
X133223Y327915D01*
X134323Y327915D01*
X136399Y325839D01*
X136399Y317373D01*
X136414Y317255D01*
X136421Y317136D01*
X136434Y317098D01*
X136439Y317057D01*
X136482Y316947D01*
X136519Y316834D01*
X136541Y316799D01*
X136556Y316762D01*
X136625Y316666D01*
X136689Y316565D01*
X136719Y316537D01*
X136742Y316504D01*
X136834Y316428D01*
X136921Y316347D01*
X136956Y316327D01*
X136987Y316302D01*
X137095Y316251D01*
X137199Y316193D01*
X137239Y316183D01*
X137275Y316166D01*
X137392Y316144D01*
X137507Y316114D01*
X137567Y316110D01*
X137587Y316106D01*
X137608Y316108D01*
X137668Y316104D01*
X138145Y316104D01*
X139966Y315350D01*
X141380Y313935D01*
X141458Y313875D01*
X141531Y313807D01*
X141584Y313778D01*
X141631Y313741D01*
X141722Y313701D01*
X141809Y313653D01*
X141868Y313638D01*
X141923Y313614D01*
X142021Y313599D01*
X142117Y313574D01*
X142217Y313568D01*
X142237Y313564D01*
X142250Y313566D01*
X142278Y313564D01*
X146038Y313564D01*
X146136Y313576D01*
X146235Y313579D01*
X146293Y313596D01*
X146353Y313604D01*
X146445Y313640D01*
X146541Y313668D01*
X146593Y313698D01*
X146649Y313721D01*
X146729Y313779D01*
X146815Y313829D01*
X146890Y313895D01*
X146906Y313907D01*
X146914Y313917D01*
X146935Y313935D01*
X147317Y314317D01*
X149791Y315342D01*
X152469Y315342D01*
X154943Y314317D01*
X156837Y312423D01*
X157862Y309949D01*
X157862Y307271D01*
X156837Y304797D01*
X154943Y302903D01*
X152469Y301878D01*
X149791Y301878D01*
X147317Y302903D01*
X146935Y303285D01*
X146857Y303345D01*
X146785Y303413D01*
X146732Y303442D01*
X146684Y303479D01*
X146593Y303519D01*
X146506Y303567D01*
X146448Y303582D01*
X146392Y303606D01*
X146294Y303621D01*
X146199Y303646D01*
X146099Y303652D01*
X146078Y303656D01*
X146066Y303654D01*
X146038Y303656D01*
X138715Y303656D01*
X137646Y304099D01*
X137598Y304112D01*
X137553Y304133D01*
X137445Y304154D01*
X137339Y304183D01*
X137289Y304184D01*
X137240Y304193D01*
X137131Y304186D01*
X137021Y304188D01*
X136973Y304176D01*
X136923Y304173D01*
X136819Y304139D01*
X136712Y304114D01*
X136668Y304091D01*
X136621Y304075D01*
X136528Y304017D01*
X136431Y303965D01*
X136394Y303932D01*
X136352Y303905D01*
X136277Y303825D01*
X136195Y303751D01*
X136168Y303710D01*
X136134Y303674D01*
X136081Y303577D01*
X136021Y303486D01*
X136004Y303438D01*
X135980Y303395D01*
X135953Y303289D01*
X135917Y303185D01*
X135913Y303135D01*
X135901Y303087D01*
X135891Y302926D01*
X135891Y302386D01*
X128333Y302386D01*
X128333Y313055D01*
X128321Y313074D01*
G37*
%LPD*%
%LPC*%
G36*
X118796Y234441D02*
X118796Y234441D01*
X116712Y236525D01*
X116712Y237617D01*
X116697Y237735D01*
X116690Y237854D01*
X116677Y237892D01*
X116672Y237933D01*
X116629Y238043D01*
X116592Y238156D01*
X116570Y238191D01*
X116555Y238228D01*
X116486Y238324D01*
X116422Y238425D01*
X116392Y238453D01*
X116369Y238486D01*
X116277Y238562D01*
X116190Y238643D01*
X116155Y238663D01*
X116124Y238688D01*
X116016Y238739D01*
X115912Y238797D01*
X115872Y238807D01*
X115836Y238824D01*
X115719Y238846D01*
X115604Y238876D01*
X115544Y238880D01*
X115524Y238884D01*
X115503Y238882D01*
X115443Y238886D01*
X97802Y238886D01*
X97704Y238874D01*
X97605Y238871D01*
X97547Y238854D01*
X97487Y238846D01*
X97395Y238810D01*
X97299Y238782D01*
X97247Y238752D01*
X97191Y238729D01*
X97111Y238671D01*
X97025Y238621D01*
X96950Y238555D01*
X96934Y238543D01*
X96928Y238535D01*
X96923Y238532D01*
X96919Y238527D01*
X96905Y238515D01*
X96523Y238133D01*
X94049Y237108D01*
X91371Y237108D01*
X88897Y238133D01*
X87003Y240027D01*
X85978Y242501D01*
X85978Y245179D01*
X87003Y247653D01*
X88897Y249547D01*
X91371Y250572D01*
X94049Y250572D01*
X96523Y249547D01*
X96905Y249165D01*
X96983Y249105D01*
X97055Y249037D01*
X97108Y249008D01*
X97156Y248971D01*
X97247Y248931D01*
X97334Y248883D01*
X97392Y248868D01*
X97448Y248844D01*
X97546Y248829D01*
X97641Y248804D01*
X97741Y248798D01*
X97762Y248794D01*
X97774Y248796D01*
X97802Y248794D01*
X115443Y248794D01*
X115561Y248809D01*
X115680Y248816D01*
X115718Y248829D01*
X115759Y248834D01*
X115869Y248877D01*
X115982Y248914D01*
X116017Y248936D01*
X116054Y248951D01*
X116150Y249020D01*
X116251Y249084D01*
X116279Y249114D01*
X116312Y249137D01*
X116388Y249229D01*
X116469Y249316D01*
X116489Y249351D01*
X116514Y249382D01*
X116565Y249490D01*
X116623Y249594D01*
X116633Y249634D01*
X116650Y249670D01*
X116672Y249787D01*
X116702Y249902D01*
X116706Y249962D01*
X116710Y249982D01*
X116708Y250003D01*
X116712Y250063D01*
X116712Y251155D01*
X118796Y253239D01*
X127076Y253239D01*
X127212Y253102D01*
X127291Y253042D01*
X127363Y252974D01*
X127416Y252945D01*
X127464Y252908D01*
X127555Y252868D01*
X127641Y252820D01*
X127700Y252805D01*
X127756Y252781D01*
X127854Y252766D01*
X127949Y252741D01*
X128049Y252735D01*
X128070Y252731D01*
X128082Y252733D01*
X128110Y252731D01*
X129477Y252731D01*
X129477Y244158D01*
X129492Y244039D01*
X129500Y243921D01*
X129512Y243882D01*
X129517Y243842D01*
X129523Y243828D01*
X129517Y243798D01*
X129487Y243683D01*
X129484Y243623D01*
X129480Y243603D01*
X129481Y243582D01*
X129477Y243522D01*
X129477Y234949D01*
X128110Y234949D01*
X128012Y234937D01*
X127913Y234934D01*
X127855Y234917D01*
X127794Y234909D01*
X127702Y234873D01*
X127607Y234845D01*
X127555Y234815D01*
X127499Y234792D01*
X127419Y234734D01*
X127333Y234684D01*
X127258Y234618D01*
X127241Y234606D01*
X127234Y234596D01*
X127212Y234578D01*
X127076Y234441D01*
X118796Y234441D01*
G37*
%LPD*%
G36*
X139338Y72339D02*
X139338Y72339D01*
X139360Y72343D01*
X139367Y72358D01*
X139376Y72364D01*
X139375Y72374D01*
X139382Y72390D01*
X139382Y74930D01*
X139370Y74949D01*
X139366Y74971D01*
X139351Y74978D01*
X139345Y74987D01*
X139335Y74986D01*
X139319Y74993D01*
X114681Y74993D01*
X114662Y74981D01*
X114640Y74977D01*
X114633Y74962D01*
X114624Y74956D01*
X114625Y74946D01*
X114618Y74930D01*
X114618Y72390D01*
X114630Y72371D01*
X114634Y72349D01*
X114649Y72342D01*
X114655Y72333D01*
X114665Y72334D01*
X114681Y72327D01*
X139319Y72327D01*
X139338Y72339D01*
G37*
%LPC*%
G36*
X51815Y15239D02*
X51815Y15239D01*
X51855Y15496D01*
X52436Y17283D01*
X53289Y18957D01*
X54394Y20478D01*
X55722Y21806D01*
X57243Y22911D01*
X58917Y23764D01*
X60704Y24345D01*
X60961Y24385D01*
X60961Y15239D01*
X51815Y15239D01*
G37*
%LPD*%
G36*
X134004Y389839D02*
X134004Y389839D01*
X134026Y389843D01*
X134033Y389858D01*
X134042Y389864D01*
X134041Y389874D01*
X134048Y389890D01*
X134048Y392430D01*
X134036Y392449D01*
X134032Y392471D01*
X134017Y392478D01*
X134011Y392487D01*
X134001Y392486D01*
X133985Y392493D01*
X120015Y392493D01*
X119996Y392481D01*
X119974Y392477D01*
X119967Y392462D01*
X119958Y392456D01*
X119959Y392446D01*
X119952Y392430D01*
X119952Y389890D01*
X119964Y389871D01*
X119968Y389849D01*
X119983Y389842D01*
X119989Y389833D01*
X119999Y389834D01*
X120015Y389827D01*
X133985Y389827D01*
X134004Y389839D01*
G37*
%LPC*%
G36*
X120746Y294893D02*
X120746Y294893D01*
X119973Y295100D01*
X119281Y295500D01*
X118716Y296065D01*
X118316Y296757D01*
X118109Y297530D01*
X118109Y299086D01*
X125350Y299086D01*
X125350Y294893D01*
X120746Y294893D01*
G37*
%LPD*%
%LPC*%
G36*
X128650Y299086D02*
X128650Y299086D01*
X135891Y299086D01*
X135891Y297530D01*
X135684Y296757D01*
X135284Y296065D01*
X134719Y295500D01*
X134027Y295100D01*
X133254Y294893D01*
X128650Y294893D01*
X128650Y299086D01*
G37*
%LPD*%
%LPC*%
G36*
X132651Y245427D02*
X132651Y245427D01*
X132651Y252731D01*
X134132Y252731D01*
X134908Y252523D01*
X135603Y252122D01*
X136171Y251554D01*
X136572Y250859D01*
X136780Y250083D01*
X136780Y245427D01*
X132651Y245427D01*
G37*
%LPD*%
%LPC*%
G36*
X132651Y234949D02*
X132651Y234949D01*
X132651Y242253D01*
X136780Y242253D01*
X136780Y237597D01*
X136572Y236821D01*
X136171Y236126D01*
X135603Y235558D01*
X134908Y235157D01*
X134132Y234949D01*
X132651Y234949D01*
G37*
%LPD*%
D10*
X13208Y46736D02*
X6096Y49107D01*
X13208Y51477D01*
X11430Y56430D02*
X11640Y56433D01*
X11850Y56440D01*
X12059Y56453D01*
X12268Y56470D01*
X12477Y56493D01*
X12685Y56520D01*
X12892Y56552D01*
X13099Y56590D01*
X13304Y56632D01*
X13509Y56679D01*
X13712Y56731D01*
X13914Y56788D01*
X14115Y56850D01*
X14314Y56916D01*
X14511Y56988D01*
X14707Y57064D01*
X14901Y57144D01*
X15093Y57229D01*
X15282Y57319D01*
X15282Y57320D02*
X15367Y57351D01*
X15451Y57385D01*
X15533Y57423D01*
X15614Y57465D01*
X15693Y57510D01*
X15770Y57558D01*
X15845Y57609D01*
X15917Y57663D01*
X15988Y57720D01*
X16056Y57780D01*
X16121Y57843D01*
X16184Y57908D01*
X16244Y57976D01*
X16301Y58047D01*
X16355Y58119D01*
X16407Y58194D01*
X16455Y58271D01*
X16500Y58350D01*
X16541Y58431D01*
X16579Y58513D01*
X16614Y58597D01*
X16645Y58682D01*
X16673Y58768D01*
X16697Y58855D01*
X16717Y58944D01*
X16734Y59033D01*
X16747Y59123D01*
X16757Y59213D01*
X16762Y59303D01*
X16764Y59394D01*
X16762Y59485D01*
X16757Y59575D01*
X16747Y59665D01*
X16734Y59755D01*
X16717Y59844D01*
X16697Y59933D01*
X16673Y60020D01*
X16645Y60106D01*
X16614Y60191D01*
X16579Y60275D01*
X16541Y60357D01*
X16500Y60438D01*
X16455Y60517D01*
X16407Y60594D01*
X16356Y60669D01*
X16301Y60741D01*
X16244Y60812D01*
X16184Y60880D01*
X16121Y60945D01*
X16056Y61008D01*
X15988Y61068D01*
X15917Y61125D01*
X15845Y61179D01*
X15770Y61230D01*
X15693Y61278D01*
X15614Y61323D01*
X15533Y61365D01*
X15451Y61403D01*
X15367Y61437D01*
X15282Y61468D01*
X15093Y61558D01*
X14901Y61643D01*
X14707Y61723D01*
X14511Y61799D01*
X14314Y61871D01*
X14115Y61937D01*
X13914Y61999D01*
X13712Y62056D01*
X13509Y62108D01*
X13304Y62155D01*
X13099Y62197D01*
X12892Y62235D01*
X12685Y62267D01*
X12477Y62294D01*
X12268Y62317D01*
X12059Y62334D01*
X11850Y62347D01*
X11640Y62354D01*
X11430Y62357D01*
X11430Y56431D02*
X11220Y56434D01*
X11010Y56441D01*
X10801Y56454D01*
X10592Y56471D01*
X10383Y56494D01*
X10175Y56521D01*
X9968Y56553D01*
X9761Y56591D01*
X9556Y56633D01*
X9351Y56680D01*
X9148Y56732D01*
X8946Y56789D01*
X8745Y56851D01*
X8546Y56917D01*
X8349Y56989D01*
X8153Y57065D01*
X7959Y57145D01*
X7768Y57230D01*
X7578Y57320D01*
X7493Y57351D01*
X7409Y57385D01*
X7327Y57423D01*
X7246Y57465D01*
X7167Y57510D01*
X7090Y57558D01*
X7015Y57609D01*
X6943Y57663D01*
X6872Y57720D01*
X6804Y57780D01*
X6739Y57843D01*
X6676Y57908D01*
X6616Y57976D01*
X6559Y58047D01*
X6504Y58119D01*
X6453Y58194D01*
X6405Y58271D01*
X6360Y58350D01*
X6319Y58431D01*
X6281Y58513D01*
X6246Y58597D01*
X6215Y58682D01*
X6187Y58768D01*
X6163Y58855D01*
X6143Y58944D01*
X6126Y59033D01*
X6113Y59123D01*
X6103Y59213D01*
X6098Y59303D01*
X6096Y59394D01*
X7578Y61468D02*
X7768Y61558D01*
X7959Y61643D01*
X8153Y61723D01*
X8349Y61799D01*
X8546Y61871D01*
X8745Y61937D01*
X8946Y61999D01*
X9148Y62056D01*
X9351Y62108D01*
X9556Y62155D01*
X9761Y62197D01*
X9968Y62235D01*
X10175Y62267D01*
X10383Y62294D01*
X10592Y62317D01*
X10801Y62334D01*
X11010Y62347D01*
X11220Y62354D01*
X11430Y62357D01*
X7578Y61468D02*
X7493Y61437D01*
X7409Y61403D01*
X7327Y61365D01*
X7246Y61323D01*
X7167Y61278D01*
X7090Y61230D01*
X7015Y61179D01*
X6943Y61125D01*
X6872Y61068D01*
X6804Y61008D01*
X6739Y60945D01*
X6676Y60880D01*
X6616Y60812D01*
X6559Y60741D01*
X6504Y60669D01*
X6453Y60594D01*
X6405Y60517D01*
X6360Y60438D01*
X6319Y60357D01*
X6281Y60275D01*
X6246Y60191D01*
X6215Y60106D01*
X6187Y60020D01*
X6163Y59933D01*
X6143Y59844D01*
X6126Y59755D01*
X6113Y59665D01*
X6103Y59575D01*
X6098Y59485D01*
X6096Y59394D01*
X8467Y57023D02*
X14393Y61764D01*
X14393Y67860D02*
X16764Y70824D01*
X6096Y70824D01*
X6096Y73787D02*
X6096Y67860D01*
D11*
X247650Y6350D03*
X6350Y400050D03*
D12*
X113779Y67805D02*
X119393Y67805D01*
X113779Y67805D02*
X113779Y79515D01*
X119393Y79515D01*
X119393Y67805D01*
X119393Y68746D02*
X113779Y68746D01*
X113779Y69687D02*
X119393Y69687D01*
X119393Y70628D02*
X113779Y70628D01*
X113779Y71569D02*
X119393Y71569D01*
X119393Y72510D02*
X113779Y72510D01*
X113779Y73451D02*
X119393Y73451D01*
X119393Y74392D02*
X113779Y74392D01*
X113779Y75333D02*
X119393Y75333D01*
X119393Y76274D02*
X113779Y76274D01*
X113779Y77215D02*
X119393Y77215D01*
X119393Y78156D02*
X113779Y78156D01*
X113779Y79097D02*
X119393Y79097D01*
X124193Y67805D02*
X129807Y67805D01*
X124193Y67805D02*
X124193Y79515D01*
X129807Y79515D01*
X129807Y67805D01*
X129807Y68746D02*
X124193Y68746D01*
X124193Y69687D02*
X129807Y69687D01*
X129807Y70628D02*
X124193Y70628D01*
X124193Y71569D02*
X129807Y71569D01*
X129807Y72510D02*
X124193Y72510D01*
X124193Y73451D02*
X129807Y73451D01*
X129807Y74392D02*
X124193Y74392D01*
X124193Y75333D02*
X129807Y75333D01*
X129807Y76274D02*
X124193Y76274D01*
X124193Y77215D02*
X129807Y77215D01*
X129807Y78156D02*
X124193Y78156D01*
X124193Y79097D02*
X129807Y79097D01*
X134607Y67805D02*
X140221Y67805D01*
X134607Y67805D02*
X134607Y79515D01*
X140221Y79515D01*
X140221Y67805D01*
X140221Y68746D02*
X134607Y68746D01*
X134607Y69687D02*
X140221Y69687D01*
X140221Y70628D02*
X134607Y70628D01*
X134607Y71569D02*
X140221Y71569D01*
X140221Y72510D02*
X134607Y72510D01*
X134607Y73451D02*
X140221Y73451D01*
X140221Y74392D02*
X134607Y74392D01*
X134607Y75333D02*
X140221Y75333D01*
X140221Y76274D02*
X134607Y76274D01*
X134607Y77215D02*
X140221Y77215D01*
X140221Y78156D02*
X134607Y78156D01*
X134607Y79097D02*
X140221Y79097D01*
X121145Y318757D02*
X121145Y324371D01*
X132855Y324371D01*
X132855Y318757D01*
X121145Y318757D01*
X121145Y319698D02*
X132855Y319698D01*
X132855Y320639D02*
X121145Y320639D01*
X121145Y321580D02*
X132855Y321580D01*
X132855Y322521D02*
X121145Y322521D01*
X121145Y323462D02*
X132855Y323462D01*
X121145Y313957D02*
X121145Y308343D01*
X121145Y313957D02*
X132855Y313957D01*
X132855Y308343D01*
X121145Y308343D01*
X121145Y309284D02*
X132855Y309284D01*
X132855Y310225D02*
X121145Y310225D01*
X121145Y311166D02*
X132855Y311166D01*
X132855Y312107D02*
X121145Y312107D01*
X121145Y313048D02*
X132855Y313048D01*
X121145Y303543D02*
X121145Y297929D01*
X121145Y303543D02*
X132855Y303543D01*
X132855Y297929D01*
X121145Y297929D01*
X121145Y298870D02*
X132855Y298870D01*
X132855Y299811D02*
X121145Y299811D01*
X121145Y300752D02*
X132855Y300752D01*
X132855Y301693D02*
X121145Y301693D01*
X121145Y302634D02*
X132855Y302634D01*
D13*
X190500Y12700D03*
X165100Y12700D03*
X139700Y12700D03*
X114300Y12700D03*
X88900Y12700D03*
X63500Y12700D03*
X12700Y317500D03*
X12700Y292100D03*
X12700Y266700D03*
X241300Y317500D03*
X241300Y292100D03*
X241300Y266700D03*
D12*
X124600Y385305D02*
X118986Y385305D01*
X118986Y397015D01*
X124600Y397015D01*
X124600Y385305D01*
X124600Y386246D02*
X118986Y386246D01*
X118986Y387187D02*
X124600Y387187D01*
X124600Y388128D02*
X118986Y388128D01*
X118986Y389069D02*
X124600Y389069D01*
X124600Y390010D02*
X118986Y390010D01*
X118986Y390951D02*
X124600Y390951D01*
X124600Y391892D02*
X118986Y391892D01*
X118986Y392833D02*
X124600Y392833D01*
X124600Y393774D02*
X118986Y393774D01*
X118986Y394715D02*
X124600Y394715D01*
X124600Y395656D02*
X118986Y395656D01*
X118986Y396597D02*
X124600Y396597D01*
X129400Y385305D02*
X135014Y385305D01*
X129400Y385305D02*
X129400Y397015D01*
X135014Y397015D01*
X135014Y385305D01*
X135014Y386246D02*
X129400Y386246D01*
X129400Y387187D02*
X135014Y387187D01*
X135014Y388128D02*
X129400Y388128D01*
X129400Y389069D02*
X135014Y389069D01*
X135014Y390010D02*
X129400Y390010D01*
X129400Y390951D02*
X135014Y390951D01*
X135014Y391892D02*
X129400Y391892D01*
X129400Y392833D02*
X135014Y392833D01*
X135014Y393774D02*
X129400Y393774D01*
X129400Y394715D02*
X135014Y394715D01*
X135014Y395656D02*
X129400Y395656D01*
X129400Y396597D02*
X135014Y396597D01*
D14*
X133731Y249682D02*
X128397Y249682D01*
X133731Y249682D02*
X133731Y237998D01*
X128397Y237998D01*
X128397Y249682D01*
X128397Y238963D02*
X133731Y238963D01*
X133731Y239928D02*
X128397Y239928D01*
X128397Y240893D02*
X133731Y240893D01*
X133731Y241858D02*
X128397Y241858D01*
X128397Y242823D02*
X133731Y242823D01*
X133731Y243788D02*
X128397Y243788D01*
X128397Y244753D02*
X133731Y244753D01*
X133731Y245718D02*
X128397Y245718D01*
X128397Y246683D02*
X133731Y246683D01*
X133731Y247648D02*
X128397Y247648D01*
X128397Y248613D02*
X133731Y248613D01*
X133731Y249578D02*
X128397Y249578D01*
X125603Y249682D02*
X120269Y249682D01*
X125603Y249682D02*
X125603Y237998D01*
X120269Y237998D01*
X120269Y249682D01*
X120269Y238963D02*
X125603Y238963D01*
X125603Y239928D02*
X120269Y239928D01*
X120269Y240893D02*
X125603Y240893D01*
X125603Y241858D02*
X120269Y241858D01*
X120269Y242823D02*
X125603Y242823D01*
X125603Y243788D02*
X120269Y243788D01*
X120269Y244753D02*
X125603Y244753D01*
X125603Y245718D02*
X120269Y245718D01*
X120269Y246683D02*
X125603Y246683D01*
X125603Y247648D02*
X120269Y247648D01*
X120269Y248613D02*
X125603Y248613D01*
X125603Y249578D02*
X120269Y249578D01*
D15*
X165100Y57150D03*
D16*
X165100Y12700D01*
D15*
X158750Y254000D03*
X139700Y254000D03*
X115570Y254000D03*
X95250Y254000D03*
X95250Y298450D03*
X111760Y298450D03*
X146050Y298450D03*
X156210Y298450D03*
X156210Y317500D03*
X144780Y317500D03*
X100330Y317500D03*
X95250Y374650D03*
X144780Y358140D03*
X153670Y358140D03*
X73660Y187960D03*
X128270Y114300D03*
X158750Y140970D03*
X240030Y114300D03*
X240030Y139700D03*
X25400Y76200D03*
X12700Y114300D03*
X12700Y139700D03*
X12700Y187960D03*
X128270Y196850D03*
X173990Y196850D03*
X127000Y275590D03*
X33020Y340360D03*
X12700Y349250D03*
X57150Y378460D03*
X25400Y389890D03*
X45720Y389890D03*
X214630Y393700D03*
X229870Y393700D03*
X242570Y378460D03*
X196850Y378460D03*
X226060Y345440D03*
X182880Y232410D03*
X102870Y162560D03*
X135890Y232410D03*
X154940Y210820D03*
X151130Y184150D03*
X175260Y153670D03*
X115570Y162560D03*
X128270Y162560D03*
X140970Y162560D03*
X153670Y162560D03*
X158750Y153670D03*
X73660Y146050D03*
X204470Y176530D03*
X184150Y165100D03*
X240030Y60960D03*
X58420Y323850D03*
X203200Y96520D03*
X173990Y77470D03*
X177800Y36830D03*
X76200Y88900D03*
X102870Y36830D03*
X35560Y101600D03*
X190500Y142240D03*
X127000Y58420D03*
X175260Y93980D03*
X63500Y132080D03*
D17*
X101600Y93980D01*
X127000Y93980D02*
X175260Y93980D01*
D15*
X13970Y360680D03*
D17*
X101600Y93980D02*
X127000Y93980D01*
X63500Y132080D02*
X63500Y192231D01*
X77216Y321077D02*
X37613Y360680D01*
X13970Y360680D01*
X77216Y205947D02*
X63500Y192231D01*
X77216Y205947D02*
X77216Y319807D01*
X77216Y321077D01*
D16*
X132207Y374798D02*
X132207Y391160D01*
X132207Y374798D02*
X77216Y319807D01*
D17*
X88900Y81280D02*
X88900Y12700D01*
X88900Y81280D02*
X101600Y93980D01*
D16*
X127000Y93980D02*
X127000Y73660D01*
D15*
X92710Y213360D03*
X92710Y223520D03*
X102870Y223520D03*
X113030Y223520D03*
X102870Y213360D03*
X113030Y213360D03*
D18*
X113030Y223520D01*
X102870Y223520D01*
X92710Y223520D01*
X92710Y213360D01*
X102870Y213360D01*
X113030Y213360D01*
X142433Y218440D02*
X172720Y248727D01*
X107950Y218440D02*
X102870Y213360D01*
X172720Y248727D02*
X172720Y284480D01*
X142433Y218440D02*
X107950Y218440D01*
X205740Y317500D02*
X241300Y317500D01*
X205740Y317500D02*
X172720Y284480D01*
D15*
X35560Y111760D03*
D16*
X52070Y128270D02*
X52070Y196850D01*
X52070Y128270D02*
X35560Y111760D01*
D15*
X60960Y311150D03*
D16*
X66040Y210820D02*
X52070Y196850D01*
X66040Y306070D02*
X60960Y311150D01*
X66040Y306070D02*
X66040Y210820D01*
X101600Y26670D02*
X125730Y26670D01*
D15*
X101600Y26670D03*
D16*
X125730Y26670D02*
X139700Y12700D01*
D15*
X190500Y132080D03*
D16*
X190500Y81280D01*
X164589Y68326D02*
X155194Y58931D01*
X164589Y68326D02*
X177546Y68326D01*
X155194Y58931D02*
X155194Y42164D01*
X149860Y36830D01*
X177546Y68326D02*
X190500Y81280D01*
X114690Y36830D02*
X114300Y37220D01*
D15*
X114300Y37220D03*
D16*
X114690Y36830D02*
X149860Y36830D01*
X116586Y73660D02*
X106379Y73660D01*
X101600Y78439D01*
D15*
X101600Y78439D03*
D16*
X137414Y73660D02*
X147320Y73660D01*
X152400Y78740D01*
D15*
X152400Y78740D03*
X151130Y308610D03*
D16*
X139700Y308610D02*
X137160Y311150D01*
X127000Y311150D01*
X139700Y308610D02*
X151130Y308610D01*
D15*
X106680Y392430D03*
D16*
X120523Y392430D01*
X121793Y391160D01*
D15*
X127000Y336550D03*
D16*
X127000Y321564D01*
D15*
X92710Y243840D03*
D16*
X122936Y243840D01*
M02*
